%TF.GenerationSoftware,KiCad,Pcbnew,(5.1.8)-1*%
%TF.CreationDate,2021-04-17T11:25:56+02:00*%
%TF.ProjectId,CYC10 Board,43594331-3020-4426-9f61-72642e6b6963,rev?*%
%TF.SameCoordinates,Original*%
%TF.FileFunction,Legend,Bot*%
%TF.FilePolarity,Positive*%
%FSLAX46Y46*%
G04 Gerber Fmt 4.6, Leading zero omitted, Abs format (unit mm)*
G04 Created by KiCad (PCBNEW (5.1.8)-1) date 2021-04-17 11:25:56*
%MOMM*%
%LPD*%
G01*
G04 APERTURE LIST*
%ADD10C,0.300000*%
%ADD11C,0.010000*%
%ADD12C,0.120000*%
%ADD13C,0.150000*%
G04 APERTURE END LIST*
D10*
X118371554Y-75824937D02*
X118942982Y-75824937D01*
X118942982Y-74624937D01*
X117971554Y-75824937D02*
X117971554Y-75024937D01*
X117971554Y-74624937D02*
X118028697Y-74682080D01*
X117971554Y-74739222D01*
X117914411Y-74682080D01*
X117971554Y-74624937D01*
X117971554Y-74739222D01*
X116885840Y-75767794D02*
X117000125Y-75824937D01*
X117228697Y-75824937D01*
X117342982Y-75767794D01*
X117400125Y-75710651D01*
X117457268Y-75596365D01*
X117457268Y-75253508D01*
X117400125Y-75139222D01*
X117342982Y-75082080D01*
X117228697Y-75024937D01*
X117000125Y-75024937D01*
X116885840Y-75082080D01*
X115914411Y-75767794D02*
X116028697Y-75824937D01*
X116257268Y-75824937D01*
X116371554Y-75767794D01*
X116428697Y-75653508D01*
X116428697Y-75196365D01*
X116371554Y-75082080D01*
X116257268Y-75024937D01*
X116028697Y-75024937D01*
X115914411Y-75082080D01*
X115857268Y-75196365D01*
X115857268Y-75310651D01*
X116428697Y-75424937D01*
X115342982Y-75024937D02*
X115342982Y-75824937D01*
X115342982Y-75139222D02*
X115285840Y-75082080D01*
X115171554Y-75024937D01*
X115000125Y-75024937D01*
X114885840Y-75082080D01*
X114828697Y-75196365D01*
X114828697Y-75824937D01*
X114314411Y-75767794D02*
X114200125Y-75824937D01*
X113971554Y-75824937D01*
X113857268Y-75767794D01*
X113800125Y-75653508D01*
X113800125Y-75596365D01*
X113857268Y-75482080D01*
X113971554Y-75424937D01*
X114142982Y-75424937D01*
X114257268Y-75367794D01*
X114314411Y-75253508D01*
X114314411Y-75196365D01*
X114257268Y-75082080D01*
X114142982Y-75024937D01*
X113971554Y-75024937D01*
X113857268Y-75082080D01*
X112828697Y-75767794D02*
X112942982Y-75824937D01*
X113171554Y-75824937D01*
X113285840Y-75767794D01*
X113342982Y-75653508D01*
X113342982Y-75196365D01*
X113285840Y-75082080D01*
X113171554Y-75024937D01*
X112942982Y-75024937D01*
X112828697Y-75082080D01*
X112771554Y-75196365D01*
X112771554Y-75310651D01*
X113342982Y-75424937D01*
X111742982Y-75824937D02*
X111742982Y-74624937D01*
X111742982Y-75767794D02*
X111857268Y-75824937D01*
X112085840Y-75824937D01*
X112200125Y-75767794D01*
X112257268Y-75710651D01*
X112314411Y-75596365D01*
X112314411Y-75253508D01*
X112257268Y-75139222D01*
X112200125Y-75082080D01*
X112085840Y-75024937D01*
X111857268Y-75024937D01*
X111742982Y-75082080D01*
X109742982Y-75024937D02*
X109742982Y-75824937D01*
X110257268Y-75024937D02*
X110257268Y-75653508D01*
X110200125Y-75767794D01*
X110085840Y-75824937D01*
X109914411Y-75824937D01*
X109800125Y-75767794D01*
X109742982Y-75710651D01*
X109171554Y-75024937D02*
X109171554Y-75824937D01*
X109171554Y-75139222D02*
X109114411Y-75082080D01*
X109000125Y-75024937D01*
X108828697Y-75024937D01*
X108714411Y-75082080D01*
X108657268Y-75196365D01*
X108657268Y-75824937D01*
X107571554Y-75824937D02*
X107571554Y-74624937D01*
X107571554Y-75767794D02*
X107685840Y-75824937D01*
X107914411Y-75824937D01*
X108028697Y-75767794D01*
X108085840Y-75710651D01*
X108142982Y-75596365D01*
X108142982Y-75253508D01*
X108085840Y-75139222D01*
X108028697Y-75082080D01*
X107914411Y-75024937D01*
X107685840Y-75024937D01*
X107571554Y-75082080D01*
X106542982Y-75767794D02*
X106657268Y-75824937D01*
X106885840Y-75824937D01*
X107000125Y-75767794D01*
X107057268Y-75653508D01*
X107057268Y-75196365D01*
X107000125Y-75082080D01*
X106885840Y-75024937D01*
X106657268Y-75024937D01*
X106542982Y-75082080D01*
X106485840Y-75196365D01*
X106485840Y-75310651D01*
X107057268Y-75424937D01*
X105971554Y-75824937D02*
X105971554Y-75024937D01*
X105971554Y-75253508D02*
X105914411Y-75139222D01*
X105857268Y-75082080D01*
X105742982Y-75024937D01*
X105628697Y-75024937D01*
X103628697Y-75710651D02*
X103685840Y-75767794D01*
X103857268Y-75824937D01*
X103971554Y-75824937D01*
X104142982Y-75767794D01*
X104257268Y-75653508D01*
X104314411Y-75539222D01*
X104371554Y-75310651D01*
X104371554Y-75139222D01*
X104314411Y-74910651D01*
X104257268Y-74796365D01*
X104142982Y-74682080D01*
X103971554Y-74624937D01*
X103857268Y-74624937D01*
X103685840Y-74682080D01*
X103628697Y-74739222D01*
X102657268Y-75767794D02*
X102771554Y-75824937D01*
X103000125Y-75824937D01*
X103114411Y-75767794D01*
X103171554Y-75653508D01*
X103171554Y-75196365D01*
X103114411Y-75082080D01*
X103000125Y-75024937D01*
X102771554Y-75024937D01*
X102657268Y-75082080D01*
X102600125Y-75196365D01*
X102600125Y-75310651D01*
X103171554Y-75424937D01*
X102085840Y-75824937D02*
X102085840Y-75024937D01*
X102085840Y-75253508D02*
X102028697Y-75139222D01*
X101971554Y-75082080D01*
X101857268Y-75024937D01*
X101742982Y-75024937D01*
X101342982Y-75024937D02*
X101342982Y-75824937D01*
X101342982Y-75139222D02*
X101285840Y-75082080D01*
X101171554Y-75024937D01*
X101000125Y-75024937D01*
X100885840Y-75082080D01*
X100828697Y-75196365D01*
X100828697Y-75824937D01*
X99114411Y-74624937D02*
X98885840Y-74624937D01*
X98771554Y-74682080D01*
X98657268Y-74796365D01*
X98600125Y-75024937D01*
X98600125Y-75424937D01*
X98657268Y-75653508D01*
X98771554Y-75767794D01*
X98885840Y-75824937D01*
X99114411Y-75824937D01*
X99228697Y-75767794D01*
X99342982Y-75653508D01*
X99400125Y-75424937D01*
X99400125Y-75024937D01*
X99342982Y-74796365D01*
X99228697Y-74682080D01*
X99114411Y-74624937D01*
X98085840Y-75824937D02*
X98085840Y-74624937D01*
X98085840Y-75196365D02*
X97400125Y-75196365D01*
X97400125Y-75824937D02*
X97400125Y-74624937D01*
X96257268Y-75824937D02*
X96828697Y-75824937D01*
X96828697Y-74624937D01*
X118514411Y-77924937D02*
X118514411Y-76724937D01*
X118000125Y-77924937D02*
X118000125Y-77296365D01*
X118057268Y-77182080D01*
X118171554Y-77124937D01*
X118342982Y-77124937D01*
X118457268Y-77182080D01*
X118514411Y-77239222D01*
X117600125Y-77124937D02*
X117142982Y-77124937D01*
X117428697Y-76724937D02*
X117428697Y-77753508D01*
X117371554Y-77867794D01*
X117257268Y-77924937D01*
X117142982Y-77924937D01*
X116914411Y-77124937D02*
X116457268Y-77124937D01*
X116742982Y-76724937D02*
X116742982Y-77753508D01*
X116685840Y-77867794D01*
X116571554Y-77924937D01*
X116457268Y-77924937D01*
X116057268Y-77124937D02*
X116057268Y-78324937D01*
X116057268Y-77182080D02*
X115942982Y-77124937D01*
X115714411Y-77124937D01*
X115600125Y-77182080D01*
X115542982Y-77239222D01*
X115485840Y-77353508D01*
X115485840Y-77696365D01*
X115542982Y-77810651D01*
X115600125Y-77867794D01*
X115714411Y-77924937D01*
X115942982Y-77924937D01*
X116057268Y-77867794D01*
X114971554Y-77810651D02*
X114914411Y-77867794D01*
X114971554Y-77924937D01*
X115028697Y-77867794D01*
X114971554Y-77810651D01*
X114971554Y-77924937D01*
X114971554Y-77182080D02*
X114914411Y-77239222D01*
X114971554Y-77296365D01*
X115028697Y-77239222D01*
X114971554Y-77182080D01*
X114971554Y-77296365D01*
X113542982Y-76667794D02*
X114571554Y-78210651D01*
X112285840Y-76667794D02*
X113314411Y-78210651D01*
X111714411Y-77924937D02*
X111828697Y-77867794D01*
X111885840Y-77810651D01*
X111942982Y-77696365D01*
X111942982Y-77353508D01*
X111885840Y-77239222D01*
X111828697Y-77182080D01*
X111714411Y-77124937D01*
X111542982Y-77124937D01*
X111428697Y-77182080D01*
X111371554Y-77239222D01*
X111314411Y-77353508D01*
X111314411Y-77696365D01*
X111371554Y-77810651D01*
X111428697Y-77867794D01*
X111542982Y-77924937D01*
X111714411Y-77924937D01*
X110800125Y-77924937D02*
X110800125Y-76724937D01*
X110285840Y-77924937D02*
X110285840Y-77296365D01*
X110342982Y-77182080D01*
X110457268Y-77124937D01*
X110628697Y-77124937D01*
X110742982Y-77182080D01*
X110800125Y-77239222D01*
X109828697Y-77124937D02*
X109600125Y-77924937D01*
X109371554Y-77353508D01*
X109142982Y-77924937D01*
X108914411Y-77124937D01*
X108457268Y-77924937D02*
X108457268Y-77124937D01*
X108457268Y-77353508D02*
X108400125Y-77239222D01*
X108342982Y-77182080D01*
X108228697Y-77124937D01*
X108114411Y-77124937D01*
X107714411Y-77810651D02*
X107657268Y-77867794D01*
X107714411Y-77924937D01*
X107771554Y-77867794D01*
X107714411Y-77810651D01*
X107714411Y-77924937D01*
X106971554Y-77924937D02*
X107085840Y-77867794D01*
X107142982Y-77810651D01*
X107200125Y-77696365D01*
X107200125Y-77353508D01*
X107142982Y-77239222D01*
X107085840Y-77182080D01*
X106971554Y-77124937D01*
X106800125Y-77124937D01*
X106685840Y-77182080D01*
X106628697Y-77239222D01*
X106571554Y-77353508D01*
X106571554Y-77696365D01*
X106628697Y-77810651D01*
X106685840Y-77867794D01*
X106800125Y-77924937D01*
X106971554Y-77924937D01*
X106057268Y-77924937D02*
X106057268Y-77124937D01*
X106057268Y-77353508D02*
X106000125Y-77239222D01*
X105942982Y-77182080D01*
X105828697Y-77124937D01*
X105714411Y-77124937D01*
X104800125Y-77124937D02*
X104800125Y-78096365D01*
X104857268Y-78210651D01*
X104914411Y-78267794D01*
X105028697Y-78324937D01*
X105200125Y-78324937D01*
X105314411Y-78267794D01*
X104800125Y-77867794D02*
X104914411Y-77924937D01*
X105142982Y-77924937D01*
X105257268Y-77867794D01*
X105314411Y-77810651D01*
X105371554Y-77696365D01*
X105371554Y-77353508D01*
X105314411Y-77239222D01*
X105257268Y-77182080D01*
X105142982Y-77124937D01*
X104914411Y-77124937D01*
X104800125Y-77182080D01*
X103371554Y-76667794D02*
X104400125Y-78210651D01*
X102457268Y-77867794D02*
X102571554Y-77924937D01*
X102800125Y-77924937D01*
X102914411Y-77867794D01*
X102971554Y-77810651D01*
X103028697Y-77696365D01*
X103028697Y-77353508D01*
X102971554Y-77239222D01*
X102914411Y-77182080D01*
X102800125Y-77124937D01*
X102571554Y-77124937D01*
X102457268Y-77182080D01*
X101485840Y-77867794D02*
X101600125Y-77924937D01*
X101828697Y-77924937D01*
X101942982Y-77867794D01*
X102000125Y-77753508D01*
X102000125Y-77296365D01*
X101942982Y-77182080D01*
X101828697Y-77124937D01*
X101600125Y-77124937D01*
X101485840Y-77182080D01*
X101428697Y-77296365D01*
X101428697Y-77410651D01*
X102000125Y-77524937D01*
X100914411Y-77924937D02*
X100914411Y-77124937D01*
X100914411Y-77353508D02*
X100857268Y-77239222D01*
X100800125Y-77182080D01*
X100685840Y-77124937D01*
X100571554Y-77124937D01*
X100171554Y-77124937D02*
X100171554Y-77924937D01*
X100171554Y-77239222D02*
X100114411Y-77182080D01*
X100000125Y-77124937D01*
X99828697Y-77124937D01*
X99714411Y-77182080D01*
X99657268Y-77296365D01*
X99657268Y-77924937D01*
X98914411Y-77924937D02*
X99028697Y-77867794D01*
X99085840Y-77810651D01*
X99142982Y-77696365D01*
X99142982Y-77353508D01*
X99085840Y-77239222D01*
X99028697Y-77182080D01*
X98914411Y-77124937D01*
X98742982Y-77124937D01*
X98628697Y-77182080D01*
X98571554Y-77239222D01*
X98514411Y-77353508D01*
X98514411Y-77696365D01*
X98571554Y-77810651D01*
X98628697Y-77867794D01*
X98742982Y-77924937D01*
X98914411Y-77924937D01*
X98000125Y-77924937D02*
X98000125Y-76724937D01*
X97485840Y-77924937D02*
X97485840Y-77296365D01*
X97542982Y-77182080D01*
X97657268Y-77124937D01*
X97828697Y-77124937D01*
X97942982Y-77182080D01*
X98000125Y-77239222D01*
X96742982Y-77924937D02*
X96857268Y-77867794D01*
X96914411Y-77753508D01*
X96914411Y-76724937D01*
X118443362Y-61846931D02*
X118500505Y-61904074D01*
X118671934Y-61961217D01*
X118786220Y-61961217D01*
X118957648Y-61904074D01*
X119071934Y-61789788D01*
X119129077Y-61675502D01*
X119186220Y-61446931D01*
X119186220Y-61275502D01*
X119129077Y-61046931D01*
X119071934Y-60932645D01*
X118957648Y-60818360D01*
X118786220Y-60761217D01*
X118671934Y-60761217D01*
X118500505Y-60818360D01*
X118443362Y-60875502D01*
X118043362Y-61161217D02*
X117757648Y-61961217D01*
X117471934Y-61161217D02*
X117757648Y-61961217D01*
X117871934Y-62246931D01*
X117929077Y-62304074D01*
X118043362Y-62361217D01*
X116500505Y-61904074D02*
X116614791Y-61961217D01*
X116843362Y-61961217D01*
X116957648Y-61904074D01*
X117014791Y-61846931D01*
X117071934Y-61732645D01*
X117071934Y-61389788D01*
X117014791Y-61275502D01*
X116957648Y-61218360D01*
X116843362Y-61161217D01*
X116614791Y-61161217D01*
X116500505Y-61218360D01*
X115814791Y-61961217D02*
X115929077Y-61904074D01*
X115986220Y-61789788D01*
X115986220Y-60761217D01*
X115186220Y-61961217D02*
X115300505Y-61904074D01*
X115357648Y-61846931D01*
X115414791Y-61732645D01*
X115414791Y-61389788D01*
X115357648Y-61275502D01*
X115300505Y-61218360D01*
X115186220Y-61161217D01*
X115014791Y-61161217D01*
X114900505Y-61218360D01*
X114843362Y-61275502D01*
X114786220Y-61389788D01*
X114786220Y-61732645D01*
X114843362Y-61846931D01*
X114900505Y-61904074D01*
X115014791Y-61961217D01*
X115186220Y-61961217D01*
X114271934Y-61161217D02*
X114271934Y-61961217D01*
X114271934Y-61275502D02*
X114214791Y-61218360D01*
X114100505Y-61161217D01*
X113929077Y-61161217D01*
X113814791Y-61218360D01*
X113757648Y-61332645D01*
X113757648Y-61961217D01*
X112729077Y-61904074D02*
X112843362Y-61961217D01*
X113071934Y-61961217D01*
X113186220Y-61904074D01*
X113243362Y-61789788D01*
X113243362Y-61332645D01*
X113186220Y-61218360D01*
X113071934Y-61161217D01*
X112843362Y-61161217D01*
X112729077Y-61218360D01*
X112671934Y-61332645D01*
X112671934Y-61446931D01*
X113243362Y-61561217D01*
X110614791Y-61961217D02*
X111300505Y-61961217D01*
X110957648Y-61961217D02*
X110957648Y-60761217D01*
X111071934Y-60932645D01*
X111186220Y-61046931D01*
X111300505Y-61104074D01*
X109871934Y-60761217D02*
X109757648Y-60761217D01*
X109643362Y-60818360D01*
X109586220Y-60875502D01*
X109529077Y-60989788D01*
X109471934Y-61218360D01*
X109471934Y-61504074D01*
X109529077Y-61732645D01*
X109586220Y-61846931D01*
X109643362Y-61904074D01*
X109757648Y-61961217D01*
X109871934Y-61961217D01*
X109986220Y-61904074D01*
X110043362Y-61846931D01*
X110100505Y-61732645D01*
X110157648Y-61504074D01*
X110157648Y-61218360D01*
X110100505Y-60989788D01*
X110043362Y-60875502D01*
X109986220Y-60818360D01*
X109871934Y-60761217D01*
X108100505Y-61618360D02*
X107529077Y-61618360D01*
X108214791Y-61961217D02*
X107814791Y-60761217D01*
X107414791Y-61961217D01*
X106500505Y-61961217D02*
X106500505Y-60761217D01*
X106500505Y-61904074D02*
X106614791Y-61961217D01*
X106843362Y-61961217D01*
X106957648Y-61904074D01*
X107014791Y-61846931D01*
X107071934Y-61732645D01*
X107071934Y-61389788D01*
X107014791Y-61275502D01*
X106957648Y-61218360D01*
X106843362Y-61161217D01*
X106614791Y-61161217D01*
X106500505Y-61218360D01*
X105414791Y-61961217D02*
X105414791Y-60761217D01*
X105414791Y-61904074D02*
X105529077Y-61961217D01*
X105757648Y-61961217D01*
X105871934Y-61904074D01*
X105929077Y-61846931D01*
X105986220Y-61732645D01*
X105986220Y-61389788D01*
X105929077Y-61275502D01*
X105871934Y-61218360D01*
X105757648Y-61161217D01*
X105529077Y-61161217D01*
X105414791Y-61218360D01*
X104671934Y-61961217D02*
X104786220Y-61904074D01*
X104843362Y-61846931D01*
X104900505Y-61732645D01*
X104900505Y-61389788D01*
X104843362Y-61275502D01*
X104786220Y-61218360D01*
X104671934Y-61161217D01*
X104500505Y-61161217D01*
X104386220Y-61218360D01*
X104329077Y-61275502D01*
X104271934Y-61389788D01*
X104271934Y-61732645D01*
X104329077Y-61846931D01*
X104386220Y-61904074D01*
X104500505Y-61961217D01*
X104671934Y-61961217D01*
X103757648Y-61161217D02*
X103757648Y-61961217D01*
X103757648Y-61275502D02*
X103700505Y-61218360D01*
X103586220Y-61161217D01*
X103414791Y-61161217D01*
X103300505Y-61218360D01*
X103243362Y-61332645D01*
X103243362Y-61961217D01*
X101757648Y-61961217D02*
X101757648Y-60761217D01*
X101757648Y-61218360D02*
X101643362Y-61161217D01*
X101414791Y-61161217D01*
X101300505Y-61218360D01*
X101243362Y-61275502D01*
X101186220Y-61389788D01*
X101186220Y-61732645D01*
X101243362Y-61846931D01*
X101300505Y-61904074D01*
X101414791Y-61961217D01*
X101643362Y-61961217D01*
X101757648Y-61904074D01*
X100500505Y-61961217D02*
X100614791Y-61904074D01*
X100671934Y-61846931D01*
X100729077Y-61732645D01*
X100729077Y-61389788D01*
X100671934Y-61275502D01*
X100614791Y-61218360D01*
X100500505Y-61161217D01*
X100329077Y-61161217D01*
X100214791Y-61218360D01*
X100157648Y-61275502D01*
X100100505Y-61389788D01*
X100100505Y-61732645D01*
X100157648Y-61846931D01*
X100214791Y-61904074D01*
X100329077Y-61961217D01*
X100500505Y-61961217D01*
X99071934Y-61961217D02*
X99071934Y-61332645D01*
X99129077Y-61218360D01*
X99243362Y-61161217D01*
X99471934Y-61161217D01*
X99586220Y-61218360D01*
X99071934Y-61904074D02*
X99186220Y-61961217D01*
X99471934Y-61961217D01*
X99586220Y-61904074D01*
X99643362Y-61789788D01*
X99643362Y-61675502D01*
X99586220Y-61561217D01*
X99471934Y-61504074D01*
X99186220Y-61504074D01*
X99071934Y-61446931D01*
X98500505Y-61961217D02*
X98500505Y-61161217D01*
X98500505Y-61389788D02*
X98443362Y-61275502D01*
X98386220Y-61218360D01*
X98271934Y-61161217D01*
X98157648Y-61161217D01*
X97243362Y-61961217D02*
X97243362Y-60761217D01*
X97243362Y-61904074D02*
X97357648Y-61961217D01*
X97586220Y-61961217D01*
X97700505Y-61904074D01*
X97757648Y-61846931D01*
X97814791Y-61732645D01*
X97814791Y-61389788D01*
X97757648Y-61275502D01*
X97700505Y-61218360D01*
X97586220Y-61161217D01*
X97357648Y-61161217D01*
X97243362Y-61218360D01*
X111100505Y-63946931D02*
X111157648Y-64004074D01*
X111329077Y-64061217D01*
X111443362Y-64061217D01*
X111614791Y-64004074D01*
X111729077Y-63889788D01*
X111786220Y-63775502D01*
X111843362Y-63546931D01*
X111843362Y-63375502D01*
X111786220Y-63146931D01*
X111729077Y-63032645D01*
X111614791Y-62918360D01*
X111443362Y-62861217D01*
X111329077Y-62861217D01*
X111157648Y-62918360D01*
X111100505Y-62975502D01*
X110586220Y-64061217D02*
X110586220Y-63261217D01*
X110586220Y-63489788D02*
X110529077Y-63375502D01*
X110471934Y-63318360D01*
X110357648Y-63261217D01*
X110243362Y-63261217D01*
X109386220Y-64004074D02*
X109500505Y-64061217D01*
X109729077Y-64061217D01*
X109843362Y-64004074D01*
X109900505Y-63889788D01*
X109900505Y-63432645D01*
X109843362Y-63318360D01*
X109729077Y-63261217D01*
X109500505Y-63261217D01*
X109386220Y-63318360D01*
X109329077Y-63432645D01*
X109329077Y-63546931D01*
X109900505Y-63661217D01*
X108300505Y-64061217D02*
X108300505Y-63432645D01*
X108357648Y-63318360D01*
X108471934Y-63261217D01*
X108700505Y-63261217D01*
X108814791Y-63318360D01*
X108300505Y-64004074D02*
X108414791Y-64061217D01*
X108700505Y-64061217D01*
X108814791Y-64004074D01*
X108871934Y-63889788D01*
X108871934Y-63775502D01*
X108814791Y-63661217D01*
X108700505Y-63604074D01*
X108414791Y-63604074D01*
X108300505Y-63546931D01*
X107900505Y-63261217D02*
X107443362Y-63261217D01*
X107729077Y-62861217D02*
X107729077Y-63889788D01*
X107671934Y-64004074D01*
X107557648Y-64061217D01*
X107443362Y-64061217D01*
X106586220Y-64004074D02*
X106700505Y-64061217D01*
X106929077Y-64061217D01*
X107043362Y-64004074D01*
X107100505Y-63889788D01*
X107100505Y-63432645D01*
X107043362Y-63318360D01*
X106929077Y-63261217D01*
X106700505Y-63261217D01*
X106586220Y-63318360D01*
X106529077Y-63432645D01*
X106529077Y-63546931D01*
X107100505Y-63661217D01*
X105500505Y-64061217D02*
X105500505Y-62861217D01*
X105500505Y-64004074D02*
X105614791Y-64061217D01*
X105843362Y-64061217D01*
X105957648Y-64004074D01*
X106014791Y-63946931D01*
X106071934Y-63832645D01*
X106071934Y-63489788D01*
X106014791Y-63375502D01*
X105957648Y-63318360D01*
X105843362Y-63261217D01*
X105614791Y-63261217D01*
X105500505Y-63318360D01*
X109357648Y-66161217D02*
X109357648Y-64961217D01*
X109357648Y-65418360D02*
X109243362Y-65361217D01*
X109014791Y-65361217D01*
X108900505Y-65418360D01*
X108843362Y-65475502D01*
X108786220Y-65589788D01*
X108786220Y-65932645D01*
X108843362Y-66046931D01*
X108900505Y-66104074D01*
X109014791Y-66161217D01*
X109243362Y-66161217D01*
X109357648Y-66104074D01*
X108386220Y-65361217D02*
X108100505Y-66161217D01*
X107814791Y-65361217D02*
X108100505Y-66161217D01*
X108214791Y-66446931D01*
X108271934Y-66504074D01*
X108386220Y-66561217D01*
X116729077Y-68204074D02*
X116557648Y-68261217D01*
X116271934Y-68261217D01*
X116157648Y-68204074D01*
X116100505Y-68146931D01*
X116043362Y-68032645D01*
X116043362Y-67918360D01*
X116100505Y-67804074D01*
X116157648Y-67746931D01*
X116271934Y-67689788D01*
X116500505Y-67632645D01*
X116614791Y-67575502D01*
X116671934Y-67518360D01*
X116729077Y-67404074D01*
X116729077Y-67289788D01*
X116671934Y-67175502D01*
X116614791Y-67118360D01*
X116500505Y-67061217D01*
X116214791Y-67061217D01*
X116043362Y-67118360D01*
X115014791Y-67461217D02*
X115014791Y-68261217D01*
X115529077Y-67461217D02*
X115529077Y-68089788D01*
X115471934Y-68204074D01*
X115357648Y-68261217D01*
X115186220Y-68261217D01*
X115071934Y-68204074D01*
X115014791Y-68146931D01*
X114443362Y-68261217D02*
X114443362Y-67061217D01*
X114443362Y-67518360D02*
X114329077Y-67461217D01*
X114100505Y-67461217D01*
X113986220Y-67518360D01*
X113929077Y-67575502D01*
X113871934Y-67689788D01*
X113871934Y-68032645D01*
X113929077Y-68146931D01*
X113986220Y-68204074D01*
X114100505Y-68261217D01*
X114329077Y-68261217D01*
X114443362Y-68204074D01*
X112843362Y-68204074D02*
X112957648Y-68261217D01*
X113186220Y-68261217D01*
X113300505Y-68204074D01*
X113357648Y-68146931D01*
X113414791Y-68032645D01*
X113414791Y-67689788D01*
X113357648Y-67575502D01*
X113300505Y-67518360D01*
X113186220Y-67461217D01*
X112957648Y-67461217D01*
X112843362Y-67518360D01*
X112329077Y-68261217D02*
X112329077Y-67461217D01*
X112329077Y-67689788D02*
X112271934Y-67575502D01*
X112214791Y-67518360D01*
X112100505Y-67461217D01*
X111986220Y-67461217D01*
X111586220Y-68261217D02*
X111586220Y-67461217D01*
X111586220Y-67061217D02*
X111643362Y-67118360D01*
X111586220Y-67175502D01*
X111529077Y-67118360D01*
X111586220Y-67061217D01*
X111586220Y-67175502D01*
X111186220Y-67461217D02*
X110729077Y-67461217D01*
X111014791Y-67061217D02*
X111014791Y-68089788D01*
X110957648Y-68204074D01*
X110843362Y-68261217D01*
X110729077Y-68261217D01*
X110329077Y-68261217D02*
X110329077Y-67461217D01*
X110329077Y-67061217D02*
X110386220Y-67118360D01*
X110329077Y-67175502D01*
X110271934Y-67118360D01*
X110329077Y-67061217D01*
X110329077Y-67175502D01*
X109243362Y-68204074D02*
X109357648Y-68261217D01*
X109586220Y-68261217D01*
X109700505Y-68204074D01*
X109757648Y-68146931D01*
X109814791Y-68032645D01*
X109814791Y-67689788D01*
X109757648Y-67575502D01*
X109700505Y-67518360D01*
X109586220Y-67461217D01*
X109357648Y-67461217D01*
X109243362Y-67518360D01*
X108214791Y-68261217D02*
X108214791Y-67632645D01*
X108271934Y-67518360D01*
X108386220Y-67461217D01*
X108614791Y-67461217D01*
X108729077Y-67518360D01*
X108214791Y-68204074D02*
X108329077Y-68261217D01*
X108614791Y-68261217D01*
X108729077Y-68204074D01*
X108786220Y-68089788D01*
X108786220Y-67975502D01*
X108729077Y-67861217D01*
X108614791Y-67804074D01*
X108329077Y-67804074D01*
X108214791Y-67746931D01*
X107471934Y-68261217D02*
X107586220Y-68204074D01*
X107643362Y-68089788D01*
X107643362Y-67061217D01*
X106957648Y-68204074D02*
X106957648Y-68261217D01*
X107014791Y-68375502D01*
X107071934Y-68432645D01*
X106443362Y-68261217D02*
X106443362Y-67061217D01*
X105757648Y-68261217D01*
X105757648Y-67061217D01*
X104671934Y-68261217D02*
X104671934Y-67632645D01*
X104729077Y-67518360D01*
X104843362Y-67461217D01*
X105071934Y-67461217D01*
X105186220Y-67518360D01*
X104671934Y-68204074D02*
X104786220Y-68261217D01*
X105071934Y-68261217D01*
X105186220Y-68204074D01*
X105243362Y-68089788D01*
X105243362Y-67975502D01*
X105186220Y-67861217D01*
X105071934Y-67804074D01*
X104786220Y-67804074D01*
X104671934Y-67746931D01*
X104100505Y-68261217D02*
X104100505Y-67061217D01*
X104100505Y-67518360D02*
X103986220Y-67461217D01*
X103757648Y-67461217D01*
X103643362Y-67518360D01*
X103586220Y-67575502D01*
X103529077Y-67689788D01*
X103529077Y-68032645D01*
X103586220Y-68146931D01*
X103643362Y-68204074D01*
X103757648Y-68261217D01*
X103986220Y-68261217D01*
X104100505Y-68204074D01*
X102500505Y-68261217D02*
X102500505Y-67632645D01*
X102557648Y-67518360D01*
X102671934Y-67461217D01*
X102900505Y-67461217D01*
X103014791Y-67518360D01*
X102500505Y-68204074D02*
X102614791Y-68261217D01*
X102900505Y-68261217D01*
X103014791Y-68204074D01*
X103071934Y-68089788D01*
X103071934Y-67975502D01*
X103014791Y-67861217D01*
X102900505Y-67804074D01*
X102614791Y-67804074D01*
X102500505Y-67746931D01*
X102100505Y-67461217D02*
X101643362Y-67461217D01*
X101929077Y-67061217D02*
X101929077Y-68089788D01*
X101871934Y-68204074D01*
X101757648Y-68261217D01*
X101643362Y-68261217D01*
X100786220Y-68204074D02*
X100900505Y-68261217D01*
X101129077Y-68261217D01*
X101243362Y-68204074D01*
X101300505Y-68089788D01*
X101300505Y-67632645D01*
X101243362Y-67518360D01*
X101129077Y-67461217D01*
X100900505Y-67461217D01*
X100786220Y-67518360D01*
X100729077Y-67632645D01*
X100729077Y-67746931D01*
X101300505Y-67861217D01*
X100043362Y-68261217D02*
X100157648Y-68204074D01*
X100214791Y-68146931D01*
X100271934Y-68032645D01*
X100271934Y-67689788D01*
X100214791Y-67575502D01*
X100157648Y-67518360D01*
X100043362Y-67461217D01*
X99871934Y-67461217D01*
X99757648Y-67518360D01*
X99700505Y-67575502D01*
X99643362Y-67689788D01*
X99643362Y-68032645D01*
X99700505Y-68146931D01*
X99757648Y-68204074D01*
X99871934Y-68261217D01*
X100043362Y-68261217D01*
X116443362Y-70361217D02*
X116443362Y-69732645D01*
X116500505Y-69618360D01*
X116614791Y-69561217D01*
X116843362Y-69561217D01*
X116957648Y-69618360D01*
X116443362Y-70304074D02*
X116557648Y-70361217D01*
X116843362Y-70361217D01*
X116957648Y-70304074D01*
X117014791Y-70189788D01*
X117014791Y-70075502D01*
X116957648Y-69961217D01*
X116843362Y-69904074D01*
X116557648Y-69904074D01*
X116443362Y-69846931D01*
X115357648Y-69561217D02*
X115357648Y-70532645D01*
X115414791Y-70646931D01*
X115471934Y-70704074D01*
X115586220Y-70761217D01*
X115757648Y-70761217D01*
X115871934Y-70704074D01*
X115357648Y-70304074D02*
X115471934Y-70361217D01*
X115700505Y-70361217D01*
X115814791Y-70304074D01*
X115871934Y-70246931D01*
X115929077Y-70132645D01*
X115929077Y-69789788D01*
X115871934Y-69675502D01*
X115814791Y-69618360D01*
X115700505Y-69561217D01*
X115471934Y-69561217D01*
X115357648Y-69618360D01*
X114786220Y-69561217D02*
X114786220Y-70361217D01*
X114786220Y-69675502D02*
X114729077Y-69618360D01*
X114614791Y-69561217D01*
X114443362Y-69561217D01*
X114329077Y-69618360D01*
X114271934Y-69732645D01*
X114271934Y-70361217D01*
X113186220Y-69561217D02*
X113186220Y-70361217D01*
X113700505Y-69561217D02*
X113700505Y-70189788D01*
X113643362Y-70304074D01*
X113529077Y-70361217D01*
X113357648Y-70361217D01*
X113243362Y-70304074D01*
X113186220Y-70246931D01*
X112100505Y-70304074D02*
X112214791Y-70361217D01*
X112443362Y-70361217D01*
X112557648Y-70304074D01*
X112614791Y-70246931D01*
X112671934Y-70132645D01*
X112671934Y-69789788D01*
X112614791Y-69675502D01*
X112557648Y-69618360D01*
X112443362Y-69561217D01*
X112214791Y-69561217D01*
X112100505Y-69618360D01*
X111071934Y-70361217D02*
X111071934Y-69732645D01*
X111129077Y-69618360D01*
X111243362Y-69561217D01*
X111471934Y-69561217D01*
X111586220Y-69618360D01*
X111071934Y-70304074D02*
X111186220Y-70361217D01*
X111471934Y-70361217D01*
X111586220Y-70304074D01*
X111643362Y-70189788D01*
X111643362Y-70075502D01*
X111586220Y-69961217D01*
X111471934Y-69904074D01*
X111186220Y-69904074D01*
X111071934Y-69846931D01*
X110443362Y-70304074D02*
X110443362Y-70361217D01*
X110500505Y-70475502D01*
X110557648Y-70532645D01*
X109186220Y-69161217D02*
X108500505Y-69161217D01*
X108843362Y-70361217D02*
X108843362Y-69161217D01*
X108100505Y-70361217D02*
X108100505Y-69161217D01*
X107586220Y-70361217D02*
X107586220Y-69732645D01*
X107643362Y-69618360D01*
X107757648Y-69561217D01*
X107929077Y-69561217D01*
X108043362Y-69618360D01*
X108100505Y-69675502D01*
X106557648Y-70304074D02*
X106671934Y-70361217D01*
X106900505Y-70361217D01*
X107014791Y-70304074D01*
X107071934Y-70189788D01*
X107071934Y-69732645D01*
X107014791Y-69618360D01*
X106900505Y-69561217D01*
X106671934Y-69561217D01*
X106557648Y-69618360D01*
X106500505Y-69732645D01*
X106500505Y-69846931D01*
X107071934Y-69961217D01*
X106043362Y-70304074D02*
X105871934Y-70361217D01*
X105586220Y-70361217D01*
X105471934Y-70304074D01*
X105414791Y-70246931D01*
X105357648Y-70132645D01*
X105357648Y-70018360D01*
X105414791Y-69904074D01*
X105471934Y-69846931D01*
X105586220Y-69789788D01*
X105814791Y-69732645D01*
X105929077Y-69675502D01*
X105986220Y-69618360D01*
X106043362Y-69504074D01*
X106043362Y-69389788D01*
X105986220Y-69275502D01*
X105929077Y-69218360D01*
X105814791Y-69161217D01*
X105529077Y-69161217D01*
X105357648Y-69218360D01*
X104671934Y-70361217D02*
X104786220Y-70304074D01*
X104843362Y-70246931D01*
X104900505Y-70132645D01*
X104900505Y-69789788D01*
X104843362Y-69675502D01*
X104786220Y-69618360D01*
X104671934Y-69561217D01*
X104500505Y-69561217D01*
X104386220Y-69618360D01*
X104329077Y-69675502D01*
X104271934Y-69789788D01*
X104271934Y-70132645D01*
X104329077Y-70246931D01*
X104386220Y-70304074D01*
X104500505Y-70361217D01*
X104671934Y-70361217D01*
X103757648Y-69561217D02*
X103757648Y-70361217D01*
X103757648Y-69675502D02*
X103700505Y-69618360D01*
X103586220Y-69561217D01*
X103414791Y-69561217D01*
X103300505Y-69618360D01*
X103243362Y-69732645D01*
X103243362Y-70361217D01*
X102157648Y-70361217D02*
X102157648Y-69161217D01*
X102157648Y-70304074D02*
X102271934Y-70361217D01*
X102500505Y-70361217D01*
X102614791Y-70304074D01*
X102671934Y-70246931D01*
X102729077Y-70132645D01*
X102729077Y-69789788D01*
X102671934Y-69675502D01*
X102614791Y-69618360D01*
X102500505Y-69561217D01*
X102271934Y-69561217D01*
X102157648Y-69618360D01*
X101129077Y-70304074D02*
X101243362Y-70361217D01*
X101471934Y-70361217D01*
X101586220Y-70304074D01*
X101643362Y-70189788D01*
X101643362Y-69732645D01*
X101586220Y-69618360D01*
X101471934Y-69561217D01*
X101243362Y-69561217D01*
X101129077Y-69618360D01*
X101071934Y-69732645D01*
X101071934Y-69846931D01*
X101643362Y-69961217D01*
X100557648Y-70361217D02*
X100557648Y-69561217D01*
X100557648Y-69789788D02*
X100500505Y-69675502D01*
X100443362Y-69618360D01*
X100329077Y-69561217D01*
X100214791Y-69561217D01*
X99871934Y-70304074D02*
X99757648Y-70361217D01*
X99529077Y-70361217D01*
X99414791Y-70304074D01*
X99357648Y-70189788D01*
X99357648Y-70132645D01*
X99414791Y-70018360D01*
X99529077Y-69961217D01*
X99700505Y-69961217D01*
X99814791Y-69904074D01*
X99871934Y-69789788D01*
X99871934Y-69732645D01*
X99814791Y-69618360D01*
X99700505Y-69561217D01*
X99529077Y-69561217D01*
X99414791Y-69618360D01*
D11*
%TO.C,G\u002A\u002A\u002A*%
G36*
X115862100Y-71772780D02*
G01*
X115807593Y-71937880D01*
X115775927Y-72042213D01*
X115749141Y-72145199D01*
X115735511Y-72210930D01*
X115717935Y-72318880D01*
X115895890Y-72318880D01*
X115991105Y-72320996D01*
X116069502Y-72326542D01*
X116114023Y-72334297D01*
X116126363Y-72344156D01*
X116135929Y-72366921D01*
X116143061Y-72408306D01*
X116148102Y-72474026D01*
X116151392Y-72569795D01*
X116153273Y-72701328D01*
X116154084Y-72874339D01*
X116154200Y-73007397D01*
X116154200Y-73665080D01*
X116408200Y-73665080D01*
X116526646Y-73663820D01*
X116602690Y-73659208D01*
X116644689Y-73649988D01*
X116660998Y-73634908D01*
X116662200Y-73626980D01*
X116682305Y-73593300D01*
X116699857Y-73588880D01*
X116711772Y-73582608D01*
X116721151Y-73560093D01*
X116728388Y-73515788D01*
X116733875Y-73444143D01*
X116738003Y-73339612D01*
X116741166Y-73196644D01*
X116743755Y-73009692D01*
X116744307Y-72960230D01*
X116747120Y-72699880D01*
X116687600Y-72699880D01*
X116687600Y-73538080D01*
X116222681Y-73538080D01*
X116239241Y-73267428D01*
X116246398Y-73135771D01*
X116251999Y-73004817D01*
X116255272Y-72894100D01*
X116255800Y-72848328D01*
X116255800Y-72699880D01*
X116687600Y-72699880D01*
X116747120Y-72699880D01*
X116751100Y-72331580D01*
X116890339Y-72323698D01*
X116985626Y-72313326D01*
X117050406Y-72289378D01*
X117090393Y-72243513D01*
X117111301Y-72167390D01*
X117118843Y-72052665D01*
X117119400Y-71989298D01*
X117119400Y-71759192D01*
X115862100Y-71772780D01*
G37*
X115862100Y-71772780D02*
X115807593Y-71937880D01*
X115775927Y-72042213D01*
X115749141Y-72145199D01*
X115735511Y-72210930D01*
X115717935Y-72318880D01*
X115895890Y-72318880D01*
X115991105Y-72320996D01*
X116069502Y-72326542D01*
X116114023Y-72334297D01*
X116126363Y-72344156D01*
X116135929Y-72366921D01*
X116143061Y-72408306D01*
X116148102Y-72474026D01*
X116151392Y-72569795D01*
X116153273Y-72701328D01*
X116154084Y-72874339D01*
X116154200Y-73007397D01*
X116154200Y-73665080D01*
X116408200Y-73665080D01*
X116526646Y-73663820D01*
X116602690Y-73659208D01*
X116644689Y-73649988D01*
X116660998Y-73634908D01*
X116662200Y-73626980D01*
X116682305Y-73593300D01*
X116699857Y-73588880D01*
X116711772Y-73582608D01*
X116721151Y-73560093D01*
X116728388Y-73515788D01*
X116733875Y-73444143D01*
X116738003Y-73339612D01*
X116741166Y-73196644D01*
X116743755Y-73009692D01*
X116744307Y-72960230D01*
X116747120Y-72699880D01*
X116687600Y-72699880D01*
X116687600Y-73538080D01*
X116222681Y-73538080D01*
X116239241Y-73267428D01*
X116246398Y-73135771D01*
X116251999Y-73004817D01*
X116255272Y-72894100D01*
X116255800Y-72848328D01*
X116255800Y-72699880D01*
X116687600Y-72699880D01*
X116747120Y-72699880D01*
X116751100Y-72331580D01*
X116890339Y-72323698D01*
X116985626Y-72313326D01*
X117050406Y-72289378D01*
X117090393Y-72243513D01*
X117111301Y-72167390D01*
X117118843Y-72052665D01*
X117119400Y-71989298D01*
X117119400Y-71759192D01*
X115862100Y-71772780D01*
G36*
X115311205Y-71760761D02*
G01*
X115233948Y-71763908D01*
X115189579Y-71771176D01*
X115169141Y-71784220D01*
X115163683Y-71804695D01*
X115163600Y-71809380D01*
X115151937Y-71858005D01*
X115138200Y-71874380D01*
X115127609Y-71905285D01*
X115119336Y-71977469D01*
X115114169Y-72081435D01*
X115112800Y-72180679D01*
X115112800Y-72471280D01*
X114858800Y-72471280D01*
X114858800Y-71760080D01*
X114592100Y-71760080D01*
X114473005Y-71760761D01*
X114395748Y-71763908D01*
X114351379Y-71771176D01*
X114330941Y-71784220D01*
X114325483Y-71804695D01*
X114325400Y-71809380D01*
X114313737Y-71858005D01*
X114300000Y-71874380D01*
X114292668Y-71904290D01*
X114286494Y-71982818D01*
X114281541Y-72107795D01*
X114277869Y-72277051D01*
X114275540Y-72488416D01*
X114274615Y-72739721D01*
X114274600Y-72777579D01*
X114274600Y-73665080D01*
X114541300Y-73665080D01*
X114663090Y-73663911D01*
X114742318Y-73659626D01*
X114787184Y-73651052D01*
X114805890Y-73637018D01*
X114808000Y-73626980D01*
X114821288Y-73593172D01*
X114832594Y-73588880D01*
X114843201Y-73564930D01*
X114852702Y-73498886D01*
X114860170Y-73399451D01*
X114864344Y-73290430D01*
X114867795Y-73163475D01*
X114872188Y-73078514D01*
X114879442Y-73026748D01*
X114891474Y-72999380D01*
X114910202Y-72987611D01*
X114931234Y-72983524D01*
X115005643Y-72983090D01*
X115051884Y-72990358D01*
X115076732Y-72998182D01*
X115093696Y-73012632D01*
X115104279Y-73042229D01*
X115109987Y-73095497D01*
X115112325Y-73180957D01*
X115112798Y-73307132D01*
X115112800Y-73335363D01*
X115112800Y-73665080D01*
X115361156Y-73665080D01*
X115478638Y-73663863D01*
X115556444Y-73658919D01*
X115605664Y-73648309D01*
X115637389Y-73630093D01*
X115653256Y-73613989D01*
X115664885Y-73596615D01*
X115674270Y-73571028D01*
X115681646Y-73532072D01*
X115687251Y-73474593D01*
X115691321Y-73393437D01*
X115694094Y-73283449D01*
X115695805Y-73139474D01*
X115696691Y-72956358D01*
X115696990Y-72728946D01*
X115696994Y-72699880D01*
X115646200Y-72699880D01*
X115646200Y-73538080D01*
X115214400Y-73538080D01*
X115214400Y-72852280D01*
X114808000Y-72852280D01*
X114808000Y-73538080D01*
X114376200Y-73538080D01*
X114376200Y-72699880D01*
X115646200Y-72699880D01*
X115696994Y-72699880D01*
X115697000Y-72661489D01*
X115697000Y-71760080D01*
X115430300Y-71760080D01*
X115311205Y-71760761D01*
G37*
X115311205Y-71760761D02*
X115233948Y-71763908D01*
X115189579Y-71771176D01*
X115169141Y-71784220D01*
X115163683Y-71804695D01*
X115163600Y-71809380D01*
X115151937Y-71858005D01*
X115138200Y-71874380D01*
X115127609Y-71905285D01*
X115119336Y-71977469D01*
X115114169Y-72081435D01*
X115112800Y-72180679D01*
X115112800Y-72471280D01*
X114858800Y-72471280D01*
X114858800Y-71760080D01*
X114592100Y-71760080D01*
X114473005Y-71760761D01*
X114395748Y-71763908D01*
X114351379Y-71771176D01*
X114330941Y-71784220D01*
X114325483Y-71804695D01*
X114325400Y-71809380D01*
X114313737Y-71858005D01*
X114300000Y-71874380D01*
X114292668Y-71904290D01*
X114286494Y-71982818D01*
X114281541Y-72107795D01*
X114277869Y-72277051D01*
X114275540Y-72488416D01*
X114274615Y-72739721D01*
X114274600Y-72777579D01*
X114274600Y-73665080D01*
X114541300Y-73665080D01*
X114663090Y-73663911D01*
X114742318Y-73659626D01*
X114787184Y-73651052D01*
X114805890Y-73637018D01*
X114808000Y-73626980D01*
X114821288Y-73593172D01*
X114832594Y-73588880D01*
X114843201Y-73564930D01*
X114852702Y-73498886D01*
X114860170Y-73399451D01*
X114864344Y-73290430D01*
X114867795Y-73163475D01*
X114872188Y-73078514D01*
X114879442Y-73026748D01*
X114891474Y-72999380D01*
X114910202Y-72987611D01*
X114931234Y-72983524D01*
X115005643Y-72983090D01*
X115051884Y-72990358D01*
X115076732Y-72998182D01*
X115093696Y-73012632D01*
X115104279Y-73042229D01*
X115109987Y-73095497D01*
X115112325Y-73180957D01*
X115112798Y-73307132D01*
X115112800Y-73335363D01*
X115112800Y-73665080D01*
X115361156Y-73665080D01*
X115478638Y-73663863D01*
X115556444Y-73658919D01*
X115605664Y-73648309D01*
X115637389Y-73630093D01*
X115653256Y-73613989D01*
X115664885Y-73596615D01*
X115674270Y-73571028D01*
X115681646Y-73532072D01*
X115687251Y-73474593D01*
X115691321Y-73393437D01*
X115694094Y-73283449D01*
X115695805Y-73139474D01*
X115696691Y-72956358D01*
X115696990Y-72728946D01*
X115696994Y-72699880D01*
X115646200Y-72699880D01*
X115646200Y-73538080D01*
X115214400Y-73538080D01*
X115214400Y-72852280D01*
X114808000Y-72852280D01*
X114808000Y-73538080D01*
X114376200Y-73538080D01*
X114376200Y-72699880D01*
X115646200Y-72699880D01*
X115696994Y-72699880D01*
X115697000Y-72661489D01*
X115697000Y-71760080D01*
X115430300Y-71760080D01*
X115311205Y-71760761D01*
G36*
X113195100Y-71772780D02*
G01*
X113138680Y-71941547D01*
X113106634Y-72045521D01*
X113079732Y-72147117D01*
X113065583Y-72214597D01*
X113048908Y-72318880D01*
X113291377Y-72318880D01*
X113425469Y-72320346D01*
X113516765Y-72326253D01*
X113573223Y-72338856D01*
X113602800Y-72360416D01*
X113613454Y-72393190D01*
X113614200Y-72410497D01*
X113612293Y-72438310D01*
X113600325Y-72456004D01*
X113568930Y-72465868D01*
X113508741Y-72470189D01*
X113410392Y-72471253D01*
X113365303Y-72471280D01*
X113116406Y-72471279D01*
X113085903Y-72555633D01*
X113069750Y-72626221D01*
X113058692Y-72724109D01*
X113055400Y-72809633D01*
X113055400Y-72979280D01*
X113294623Y-72979280D01*
X113428846Y-72980896D01*
X113520116Y-72987026D01*
X113576218Y-72999592D01*
X113604932Y-73020516D01*
X113614042Y-73051718D01*
X113614200Y-73058197D01*
X113610059Y-73080127D01*
X113591545Y-73094171D01*
X113549526Y-73102059D01*
X113474869Y-73105519D01*
X113360200Y-73106280D01*
X113241930Y-73107515D01*
X113166005Y-73112071D01*
X113124011Y-73121220D01*
X113107535Y-73136235D01*
X113106200Y-73144724D01*
X113093278Y-73197316D01*
X113077071Y-73229812D01*
X113064412Y-73267181D01*
X113066588Y-73323835D01*
X113084654Y-73411362D01*
X113098384Y-73464417D01*
X113148826Y-73652380D01*
X113642126Y-73659246D01*
X113812544Y-73661353D01*
X113939443Y-73661851D01*
X114030095Y-73660135D01*
X114091770Y-73655601D01*
X114131740Y-73647643D01*
X114157276Y-73635655D01*
X114175649Y-73619033D01*
X114179613Y-73614506D01*
X114191350Y-73597157D01*
X114200821Y-73571915D01*
X114208265Y-73533616D01*
X114213924Y-73477097D01*
X114218034Y-73397195D01*
X114220836Y-73288747D01*
X114222570Y-73146591D01*
X114223473Y-72965562D01*
X114223786Y-72740498D01*
X114223793Y-72699880D01*
X114173000Y-72699880D01*
X114173000Y-73539225D01*
X113709539Y-73532302D01*
X113246078Y-73525380D01*
X113216054Y-73433667D01*
X113189934Y-73342507D01*
X113168999Y-73251171D01*
X113168855Y-73250403D01*
X113151679Y-73158852D01*
X113427390Y-73151616D01*
X113703100Y-73144380D01*
X113718336Y-72852280D01*
X113157000Y-72852280D01*
X113157000Y-72699880D01*
X114173000Y-72699880D01*
X114223793Y-72699880D01*
X114223800Y-72660963D01*
X114223800Y-71759028D01*
X113195100Y-71772780D01*
G37*
X113195100Y-71772780D02*
X113138680Y-71941547D01*
X113106634Y-72045521D01*
X113079732Y-72147117D01*
X113065583Y-72214597D01*
X113048908Y-72318880D01*
X113291377Y-72318880D01*
X113425469Y-72320346D01*
X113516765Y-72326253D01*
X113573223Y-72338856D01*
X113602800Y-72360416D01*
X113613454Y-72393190D01*
X113614200Y-72410497D01*
X113612293Y-72438310D01*
X113600325Y-72456004D01*
X113568930Y-72465868D01*
X113508741Y-72470189D01*
X113410392Y-72471253D01*
X113365303Y-72471280D01*
X113116406Y-72471279D01*
X113085903Y-72555633D01*
X113069750Y-72626221D01*
X113058692Y-72724109D01*
X113055400Y-72809633D01*
X113055400Y-72979280D01*
X113294623Y-72979280D01*
X113428846Y-72980896D01*
X113520116Y-72987026D01*
X113576218Y-72999592D01*
X113604932Y-73020516D01*
X113614042Y-73051718D01*
X113614200Y-73058197D01*
X113610059Y-73080127D01*
X113591545Y-73094171D01*
X113549526Y-73102059D01*
X113474869Y-73105519D01*
X113360200Y-73106280D01*
X113241930Y-73107515D01*
X113166005Y-73112071D01*
X113124011Y-73121220D01*
X113107535Y-73136235D01*
X113106200Y-73144724D01*
X113093278Y-73197316D01*
X113077071Y-73229812D01*
X113064412Y-73267181D01*
X113066588Y-73323835D01*
X113084654Y-73411362D01*
X113098384Y-73464417D01*
X113148826Y-73652380D01*
X113642126Y-73659246D01*
X113812544Y-73661353D01*
X113939443Y-73661851D01*
X114030095Y-73660135D01*
X114091770Y-73655601D01*
X114131740Y-73647643D01*
X114157276Y-73635655D01*
X114175649Y-73619033D01*
X114179613Y-73614506D01*
X114191350Y-73597157D01*
X114200821Y-73571915D01*
X114208265Y-73533616D01*
X114213924Y-73477097D01*
X114218034Y-73397195D01*
X114220836Y-73288747D01*
X114222570Y-73146591D01*
X114223473Y-72965562D01*
X114223786Y-72740498D01*
X114223793Y-72699880D01*
X114173000Y-72699880D01*
X114173000Y-73539225D01*
X113709539Y-73532302D01*
X113246078Y-73525380D01*
X113216054Y-73433667D01*
X113189934Y-73342507D01*
X113168999Y-73251171D01*
X113168855Y-73250403D01*
X113151679Y-73158852D01*
X113427390Y-73151616D01*
X113703100Y-73144380D01*
X113718336Y-72852280D01*
X113157000Y-72852280D01*
X113157000Y-72699880D01*
X114173000Y-72699880D01*
X114223793Y-72699880D01*
X114223800Y-72660963D01*
X114223800Y-71759028D01*
X113195100Y-71772780D01*
G36*
X111044712Y-71829930D02*
G01*
X111020485Y-71900166D01*
X110994553Y-71991340D01*
X110970030Y-72089938D01*
X110950029Y-72182446D01*
X110937666Y-72255350D01*
X110936053Y-72295136D01*
X110936969Y-72297473D01*
X110966182Y-72305989D01*
X111035475Y-72312898D01*
X111134134Y-72317442D01*
X111238722Y-72318879D01*
X111358030Y-72320186D01*
X111460941Y-72323728D01*
X111535405Y-72328941D01*
X111567423Y-72334297D01*
X111598663Y-72368956D01*
X111607600Y-72410497D01*
X111607600Y-72471280D01*
X111290100Y-72471280D01*
X111158231Y-72471779D01*
X111068926Y-72474131D01*
X111013954Y-72479612D01*
X110985082Y-72489501D01*
X110974080Y-72505077D01*
X110972600Y-72520580D01*
X110960937Y-72569205D01*
X110947200Y-72585580D01*
X110934916Y-72616902D01*
X110925898Y-72685127D01*
X110921869Y-72776378D01*
X110921800Y-72790279D01*
X110921800Y-72979280D01*
X111224523Y-72979280D01*
X111372755Y-72980351D01*
X111477505Y-72984568D01*
X111546066Y-72993431D01*
X111585730Y-73008444D01*
X111603789Y-73031108D01*
X111607600Y-73058197D01*
X111604040Y-73078350D01*
X111587831Y-73091938D01*
X111550685Y-73100241D01*
X111484314Y-73104538D01*
X111380426Y-73106111D01*
X111296316Y-73106280D01*
X110985031Y-73106280D01*
X110956280Y-73198137D01*
X110940599Y-73303696D01*
X110948439Y-73369587D01*
X110968749Y-73447222D01*
X110992474Y-73538334D01*
X110997354Y-73557130D01*
X111025359Y-73665080D01*
X111577535Y-73665080D01*
X111759245Y-73664836D01*
X111896956Y-73663718D01*
X111997471Y-73661141D01*
X112067591Y-73656523D01*
X112114115Y-73649281D01*
X112143846Y-73638831D01*
X112163584Y-73624591D01*
X112173456Y-73613989D01*
X112185085Y-73596615D01*
X112194470Y-73571028D01*
X112201846Y-73532072D01*
X112207451Y-73474593D01*
X112211521Y-73393437D01*
X112214294Y-73283449D01*
X112216005Y-73139474D01*
X112216891Y-72956358D01*
X112217190Y-72728946D01*
X112217194Y-72699880D01*
X112166400Y-72699880D01*
X112166400Y-73539110D01*
X111114500Y-73525380D01*
X111084943Y-73423233D01*
X111060764Y-73334692D01*
X111039925Y-73250452D01*
X111037540Y-73239833D01*
X111019694Y-73158580D01*
X111696500Y-73144380D01*
X111711736Y-72852280D01*
X111023400Y-72852280D01*
X111023400Y-72699880D01*
X112166400Y-72699880D01*
X112217194Y-72699880D01*
X112217200Y-72661489D01*
X112217200Y-71760080D01*
X111072943Y-71760080D01*
X111044712Y-71829930D01*
G37*
X111044712Y-71829930D02*
X111020485Y-71900166D01*
X110994553Y-71991340D01*
X110970030Y-72089938D01*
X110950029Y-72182446D01*
X110937666Y-72255350D01*
X110936053Y-72295136D01*
X110936969Y-72297473D01*
X110966182Y-72305989D01*
X111035475Y-72312898D01*
X111134134Y-72317442D01*
X111238722Y-72318879D01*
X111358030Y-72320186D01*
X111460941Y-72323728D01*
X111535405Y-72328941D01*
X111567423Y-72334297D01*
X111598663Y-72368956D01*
X111607600Y-72410497D01*
X111607600Y-72471280D01*
X111290100Y-72471280D01*
X111158231Y-72471779D01*
X111068926Y-72474131D01*
X111013954Y-72479612D01*
X110985082Y-72489501D01*
X110974080Y-72505077D01*
X110972600Y-72520580D01*
X110960937Y-72569205D01*
X110947200Y-72585580D01*
X110934916Y-72616902D01*
X110925898Y-72685127D01*
X110921869Y-72776378D01*
X110921800Y-72790279D01*
X110921800Y-72979280D01*
X111224523Y-72979280D01*
X111372755Y-72980351D01*
X111477505Y-72984568D01*
X111546066Y-72993431D01*
X111585730Y-73008444D01*
X111603789Y-73031108D01*
X111607600Y-73058197D01*
X111604040Y-73078350D01*
X111587831Y-73091938D01*
X111550685Y-73100241D01*
X111484314Y-73104538D01*
X111380426Y-73106111D01*
X111296316Y-73106280D01*
X110985031Y-73106280D01*
X110956280Y-73198137D01*
X110940599Y-73303696D01*
X110948439Y-73369587D01*
X110968749Y-73447222D01*
X110992474Y-73538334D01*
X110997354Y-73557130D01*
X111025359Y-73665080D01*
X111577535Y-73665080D01*
X111759245Y-73664836D01*
X111896956Y-73663718D01*
X111997471Y-73661141D01*
X112067591Y-73656523D01*
X112114115Y-73649281D01*
X112143846Y-73638831D01*
X112163584Y-73624591D01*
X112173456Y-73613989D01*
X112185085Y-73596615D01*
X112194470Y-73571028D01*
X112201846Y-73532072D01*
X112207451Y-73474593D01*
X112211521Y-73393437D01*
X112214294Y-73283449D01*
X112216005Y-73139474D01*
X112216891Y-72956358D01*
X112217190Y-72728946D01*
X112217194Y-72699880D01*
X112166400Y-72699880D01*
X112166400Y-73539110D01*
X111114500Y-73525380D01*
X111084943Y-73423233D01*
X111060764Y-73334692D01*
X111039925Y-73250452D01*
X111037540Y-73239833D01*
X111019694Y-73158580D01*
X111696500Y-73144380D01*
X111711736Y-72852280D01*
X111023400Y-72852280D01*
X111023400Y-72699880D01*
X112166400Y-72699880D01*
X112217194Y-72699880D01*
X112217200Y-72661489D01*
X112217200Y-71760080D01*
X111072943Y-71760080D01*
X111044712Y-71829930D01*
G36*
X109526405Y-71856819D02*
G01*
X109515704Y-71893072D01*
X109511648Y-71927187D01*
X109516768Y-71966993D01*
X109533597Y-72020321D01*
X109564666Y-72094997D01*
X109612507Y-72198852D01*
X109679652Y-72339715D01*
X109688644Y-72358469D01*
X109882809Y-72763380D01*
X109705166Y-73124211D01*
X109642410Y-73255167D01*
X109587108Y-73377104D01*
X109543714Y-73479700D01*
X109516683Y-73552629D01*
X109510635Y-73575061D01*
X109493747Y-73665080D01*
X109756924Y-73664906D01*
X110020100Y-73664732D01*
X110075858Y-73582356D01*
X110116902Y-73516798D01*
X110145707Y-73462144D01*
X110148425Y-73455530D01*
X110169030Y-73419058D01*
X110192762Y-73420855D01*
X110224291Y-73464333D01*
X110261400Y-73538080D01*
X110320884Y-73665080D01*
X110583242Y-73665080D01*
X110703897Y-73663882D01*
X110782044Y-73659489D01*
X110825936Y-73650704D01*
X110843826Y-73636327D01*
X110845600Y-73626980D01*
X110859316Y-73593178D01*
X110871000Y-73588880D01*
X110894050Y-73571160D01*
X110892303Y-73516938D01*
X110882820Y-73484547D01*
X110827166Y-73484547D01*
X110821390Y-73517456D01*
X110793930Y-73533515D01*
X110744800Y-73538535D01*
X110674011Y-73538329D01*
X110634232Y-73538080D01*
X110419441Y-73538080D01*
X110328973Y-73347580D01*
X110285776Y-73260296D01*
X110249669Y-73194053D01*
X110226651Y-73159624D01*
X110222900Y-73157080D01*
X110205843Y-73178487D01*
X110174081Y-73235477D01*
X110133516Y-73317197D01*
X110119279Y-73347580D01*
X110031262Y-73538080D01*
X109814420Y-73538080D01*
X109732656Y-73538683D01*
X109672852Y-73536635D01*
X109635015Y-73526145D01*
X109619156Y-73501424D01*
X109625285Y-73456683D01*
X109653410Y-73386132D01*
X109703543Y-73283983D01*
X109775692Y-73144445D01*
X109815207Y-73068180D01*
X109998903Y-72712580D01*
X110451900Y-72712580D01*
X110633167Y-73068180D01*
X110714259Y-73226605D01*
X110773614Y-73344934D01*
X110811245Y-73428977D01*
X110827166Y-73484547D01*
X110882820Y-73484547D01*
X110865272Y-73424615D01*
X110812472Y-73292594D01*
X110733416Y-73119277D01*
X110718600Y-73088238D01*
X110658417Y-72960773D01*
X110606949Y-72847916D01*
X110567943Y-72758198D01*
X110545149Y-72700151D01*
X110540800Y-72683619D01*
X110551307Y-72650124D01*
X110580340Y-72579482D01*
X110624174Y-72480211D01*
X110679083Y-72360829D01*
X110718600Y-72277207D01*
X110779209Y-72145905D01*
X110830943Y-72025522D01*
X110869968Y-71925649D01*
X110892448Y-71855878D01*
X110896400Y-71832441D01*
X110896400Y-71760080D01*
X110371478Y-71760080D01*
X110294348Y-71909631D01*
X110217218Y-72059183D01*
X110145739Y-71909631D01*
X110074260Y-71760080D01*
X109816296Y-71760079D01*
X109558332Y-71760079D01*
X109526405Y-71856819D01*
G37*
X109526405Y-71856819D02*
X109515704Y-71893072D01*
X109511648Y-71927187D01*
X109516768Y-71966993D01*
X109533597Y-72020321D01*
X109564666Y-72094997D01*
X109612507Y-72198852D01*
X109679652Y-72339715D01*
X109688644Y-72358469D01*
X109882809Y-72763380D01*
X109705166Y-73124211D01*
X109642410Y-73255167D01*
X109587108Y-73377104D01*
X109543714Y-73479700D01*
X109516683Y-73552629D01*
X109510635Y-73575061D01*
X109493747Y-73665080D01*
X109756924Y-73664906D01*
X110020100Y-73664732D01*
X110075858Y-73582356D01*
X110116902Y-73516798D01*
X110145707Y-73462144D01*
X110148425Y-73455530D01*
X110169030Y-73419058D01*
X110192762Y-73420855D01*
X110224291Y-73464333D01*
X110261400Y-73538080D01*
X110320884Y-73665080D01*
X110583242Y-73665080D01*
X110703897Y-73663882D01*
X110782044Y-73659489D01*
X110825936Y-73650704D01*
X110843826Y-73636327D01*
X110845600Y-73626980D01*
X110859316Y-73593178D01*
X110871000Y-73588880D01*
X110894050Y-73571160D01*
X110892303Y-73516938D01*
X110882820Y-73484547D01*
X110827166Y-73484547D01*
X110821390Y-73517456D01*
X110793930Y-73533515D01*
X110744800Y-73538535D01*
X110674011Y-73538329D01*
X110634232Y-73538080D01*
X110419441Y-73538080D01*
X110328973Y-73347580D01*
X110285776Y-73260296D01*
X110249669Y-73194053D01*
X110226651Y-73159624D01*
X110222900Y-73157080D01*
X110205843Y-73178487D01*
X110174081Y-73235477D01*
X110133516Y-73317197D01*
X110119279Y-73347580D01*
X110031262Y-73538080D01*
X109814420Y-73538080D01*
X109732656Y-73538683D01*
X109672852Y-73536635D01*
X109635015Y-73526145D01*
X109619156Y-73501424D01*
X109625285Y-73456683D01*
X109653410Y-73386132D01*
X109703543Y-73283983D01*
X109775692Y-73144445D01*
X109815207Y-73068180D01*
X109998903Y-72712580D01*
X110451900Y-72712580D01*
X110633167Y-73068180D01*
X110714259Y-73226605D01*
X110773614Y-73344934D01*
X110811245Y-73428977D01*
X110827166Y-73484547D01*
X110882820Y-73484547D01*
X110865272Y-73424615D01*
X110812472Y-73292594D01*
X110733416Y-73119277D01*
X110718600Y-73088238D01*
X110658417Y-72960773D01*
X110606949Y-72847916D01*
X110567943Y-72758198D01*
X110545149Y-72700151D01*
X110540800Y-72683619D01*
X110551307Y-72650124D01*
X110580340Y-72579482D01*
X110624174Y-72480211D01*
X110679083Y-72360829D01*
X110718600Y-72277207D01*
X110779209Y-72145905D01*
X110830943Y-72025522D01*
X110869968Y-71925649D01*
X110892448Y-71855878D01*
X110896400Y-71832441D01*
X110896400Y-71760080D01*
X110371478Y-71760080D01*
X110294348Y-71909631D01*
X110217218Y-72059183D01*
X110145739Y-71909631D01*
X110074260Y-71760080D01*
X109816296Y-71760079D01*
X109558332Y-71760079D01*
X109526405Y-71856819D01*
G36*
X108677638Y-71760996D02*
G01*
X108516207Y-71763571D01*
X108376860Y-71767541D01*
X108267400Y-71772644D01*
X108195624Y-71778615D01*
X108172304Y-71783045D01*
X108136085Y-71804393D01*
X108107632Y-71841366D01*
X108086087Y-71899428D01*
X108070592Y-71984040D01*
X108060288Y-72100666D01*
X108054317Y-72254767D01*
X108051820Y-72451807D01*
X108051600Y-72551125D01*
X108052164Y-72737684D01*
X108054148Y-72880105D01*
X108057991Y-72985042D01*
X108064130Y-73059147D01*
X108073003Y-73109073D01*
X108085049Y-73141474D01*
X108091141Y-73151428D01*
X108109312Y-73173656D01*
X108133161Y-73189131D01*
X108171349Y-73199072D01*
X108232536Y-73204696D01*
X108325381Y-73207223D01*
X108458545Y-73207869D01*
X108492461Y-73207880D01*
X108661534Y-73209880D01*
X108782165Y-73215995D01*
X108856559Y-73226397D01*
X108884720Y-73238360D01*
X108901262Y-73281060D01*
X108911854Y-73364355D01*
X108915200Y-73466960D01*
X108915200Y-73665080D01*
X109150856Y-73665080D01*
X109265202Y-73663714D01*
X109340267Y-73658220D01*
X109387529Y-73646497D01*
X109418465Y-73626448D01*
X109430256Y-73613989D01*
X109441885Y-73596615D01*
X109451270Y-73571028D01*
X109458646Y-73532072D01*
X109464251Y-73474593D01*
X109468321Y-73393437D01*
X109471094Y-73283449D01*
X109472805Y-73139474D01*
X109473691Y-72956358D01*
X109473990Y-72728946D01*
X109473994Y-72699880D01*
X109423200Y-72699880D01*
X109423200Y-73538080D01*
X108991400Y-73538080D01*
X108991400Y-73080880D01*
X108618751Y-73080880D01*
X108454573Y-73079884D01*
X108334351Y-73074621D01*
X108251245Y-73061674D01*
X108198419Y-73037629D01*
X108169033Y-72999069D01*
X108156251Y-72942580D01*
X108153234Y-72864746D01*
X108153200Y-72848343D01*
X108153200Y-72699880D01*
X109423200Y-72699880D01*
X109473994Y-72699880D01*
X109474000Y-72661489D01*
X109474000Y-72486697D01*
X108889800Y-72486697D01*
X108889800Y-72623680D01*
X108610400Y-72623680D01*
X108610400Y-72318880D01*
X108709923Y-72318880D01*
X108803766Y-72323026D01*
X108857823Y-72342168D01*
X108882870Y-72386356D01*
X108889679Y-72465642D01*
X108889800Y-72486697D01*
X109474000Y-72486697D01*
X109474000Y-71760080D01*
X108853354Y-71760079D01*
X108677638Y-71760996D01*
G37*
X108677638Y-71760996D02*
X108516207Y-71763571D01*
X108376860Y-71767541D01*
X108267400Y-71772644D01*
X108195624Y-71778615D01*
X108172304Y-71783045D01*
X108136085Y-71804393D01*
X108107632Y-71841366D01*
X108086087Y-71899428D01*
X108070592Y-71984040D01*
X108060288Y-72100666D01*
X108054317Y-72254767D01*
X108051820Y-72451807D01*
X108051600Y-72551125D01*
X108052164Y-72737684D01*
X108054148Y-72880105D01*
X108057991Y-72985042D01*
X108064130Y-73059147D01*
X108073003Y-73109073D01*
X108085049Y-73141474D01*
X108091141Y-73151428D01*
X108109312Y-73173656D01*
X108133161Y-73189131D01*
X108171349Y-73199072D01*
X108232536Y-73204696D01*
X108325381Y-73207223D01*
X108458545Y-73207869D01*
X108492461Y-73207880D01*
X108661534Y-73209880D01*
X108782165Y-73215995D01*
X108856559Y-73226397D01*
X108884720Y-73238360D01*
X108901262Y-73281060D01*
X108911854Y-73364355D01*
X108915200Y-73466960D01*
X108915200Y-73665080D01*
X109150856Y-73665080D01*
X109265202Y-73663714D01*
X109340267Y-73658220D01*
X109387529Y-73646497D01*
X109418465Y-73626448D01*
X109430256Y-73613989D01*
X109441885Y-73596615D01*
X109451270Y-73571028D01*
X109458646Y-73532072D01*
X109464251Y-73474593D01*
X109468321Y-73393437D01*
X109471094Y-73283449D01*
X109472805Y-73139474D01*
X109473691Y-72956358D01*
X109473990Y-72728946D01*
X109473994Y-72699880D01*
X109423200Y-72699880D01*
X109423200Y-73538080D01*
X108991400Y-73538080D01*
X108991400Y-73080880D01*
X108618751Y-73080880D01*
X108454573Y-73079884D01*
X108334351Y-73074621D01*
X108251245Y-73061674D01*
X108198419Y-73037629D01*
X108169033Y-72999069D01*
X108156251Y-72942580D01*
X108153234Y-72864746D01*
X108153200Y-72848343D01*
X108153200Y-72699880D01*
X109423200Y-72699880D01*
X109473994Y-72699880D01*
X109474000Y-72661489D01*
X109474000Y-72486697D01*
X108889800Y-72486697D01*
X108889800Y-72623680D01*
X108610400Y-72623680D01*
X108610400Y-72318880D01*
X108709923Y-72318880D01*
X108803766Y-72323026D01*
X108857823Y-72342168D01*
X108882870Y-72386356D01*
X108889679Y-72465642D01*
X108889800Y-72486697D01*
X109474000Y-72486697D01*
X109474000Y-71760080D01*
X108853354Y-71760079D01*
X108677638Y-71760996D01*
G36*
X106972100Y-71772780D02*
G01*
X106915680Y-71941547D01*
X106883634Y-72045521D01*
X106856732Y-72147117D01*
X106842583Y-72214597D01*
X106825908Y-72318880D01*
X107068377Y-72318880D01*
X107202469Y-72320346D01*
X107293765Y-72326253D01*
X107350223Y-72338856D01*
X107379800Y-72360416D01*
X107390454Y-72393190D01*
X107391200Y-72410497D01*
X107389293Y-72438310D01*
X107377325Y-72456004D01*
X107345930Y-72465868D01*
X107285741Y-72470189D01*
X107187392Y-72471253D01*
X107142303Y-72471280D01*
X106893406Y-72471279D01*
X106862903Y-72555633D01*
X106846750Y-72626221D01*
X106835692Y-72724109D01*
X106832400Y-72809633D01*
X106832400Y-72979280D01*
X107071623Y-72979280D01*
X107205846Y-72980896D01*
X107297116Y-72987026D01*
X107353218Y-72999592D01*
X107381932Y-73020516D01*
X107391042Y-73051718D01*
X107391200Y-73058197D01*
X107387059Y-73080127D01*
X107368545Y-73094171D01*
X107326526Y-73102059D01*
X107251869Y-73105519D01*
X107137200Y-73106280D01*
X107018930Y-73107515D01*
X106943005Y-73112071D01*
X106901011Y-73121220D01*
X106884535Y-73136235D01*
X106883200Y-73144724D01*
X106870278Y-73197316D01*
X106854071Y-73229812D01*
X106841412Y-73267181D01*
X106843588Y-73323835D01*
X106861654Y-73411362D01*
X106875384Y-73464417D01*
X106925826Y-73652380D01*
X107419126Y-73659246D01*
X107589544Y-73661353D01*
X107716443Y-73661851D01*
X107807095Y-73660135D01*
X107868770Y-73655601D01*
X107908740Y-73647643D01*
X107934276Y-73635655D01*
X107952649Y-73619033D01*
X107956613Y-73614506D01*
X107968350Y-73597157D01*
X107977821Y-73571915D01*
X107985265Y-73533616D01*
X107990924Y-73477097D01*
X107995034Y-73397195D01*
X107997836Y-73288747D01*
X107999570Y-73146591D01*
X108000473Y-72965562D01*
X108000786Y-72740498D01*
X108000793Y-72699880D01*
X107950000Y-72699880D01*
X107950000Y-73539225D01*
X107486539Y-73532302D01*
X107023078Y-73525380D01*
X106993054Y-73433667D01*
X106966934Y-73342507D01*
X106945999Y-73251171D01*
X106945855Y-73250403D01*
X106928679Y-73158852D01*
X107204390Y-73151616D01*
X107480100Y-73144380D01*
X107495336Y-72852280D01*
X106934000Y-72852280D01*
X106934000Y-72699880D01*
X107950000Y-72699880D01*
X108000793Y-72699880D01*
X108000800Y-72660963D01*
X108000800Y-71759028D01*
X106972100Y-71772780D01*
G37*
X106972100Y-71772780D02*
X106915680Y-71941547D01*
X106883634Y-72045521D01*
X106856732Y-72147117D01*
X106842583Y-72214597D01*
X106825908Y-72318880D01*
X107068377Y-72318880D01*
X107202469Y-72320346D01*
X107293765Y-72326253D01*
X107350223Y-72338856D01*
X107379800Y-72360416D01*
X107390454Y-72393190D01*
X107391200Y-72410497D01*
X107389293Y-72438310D01*
X107377325Y-72456004D01*
X107345930Y-72465868D01*
X107285741Y-72470189D01*
X107187392Y-72471253D01*
X107142303Y-72471280D01*
X106893406Y-72471279D01*
X106862903Y-72555633D01*
X106846750Y-72626221D01*
X106835692Y-72724109D01*
X106832400Y-72809633D01*
X106832400Y-72979280D01*
X107071623Y-72979280D01*
X107205846Y-72980896D01*
X107297116Y-72987026D01*
X107353218Y-72999592D01*
X107381932Y-73020516D01*
X107391042Y-73051718D01*
X107391200Y-73058197D01*
X107387059Y-73080127D01*
X107368545Y-73094171D01*
X107326526Y-73102059D01*
X107251869Y-73105519D01*
X107137200Y-73106280D01*
X107018930Y-73107515D01*
X106943005Y-73112071D01*
X106901011Y-73121220D01*
X106884535Y-73136235D01*
X106883200Y-73144724D01*
X106870278Y-73197316D01*
X106854071Y-73229812D01*
X106841412Y-73267181D01*
X106843588Y-73323835D01*
X106861654Y-73411362D01*
X106875384Y-73464417D01*
X106925826Y-73652380D01*
X107419126Y-73659246D01*
X107589544Y-73661353D01*
X107716443Y-73661851D01*
X107807095Y-73660135D01*
X107868770Y-73655601D01*
X107908740Y-73647643D01*
X107934276Y-73635655D01*
X107952649Y-73619033D01*
X107956613Y-73614506D01*
X107968350Y-73597157D01*
X107977821Y-73571915D01*
X107985265Y-73533616D01*
X107990924Y-73477097D01*
X107995034Y-73397195D01*
X107997836Y-73288747D01*
X107999570Y-73146591D01*
X108000473Y-72965562D01*
X108000786Y-72740498D01*
X108000793Y-72699880D01*
X107950000Y-72699880D01*
X107950000Y-73539225D01*
X107486539Y-73532302D01*
X107023078Y-73525380D01*
X106993054Y-73433667D01*
X106966934Y-73342507D01*
X106945999Y-73251171D01*
X106945855Y-73250403D01*
X106928679Y-73158852D01*
X107204390Y-73151616D01*
X107480100Y-73144380D01*
X107495336Y-72852280D01*
X106934000Y-72852280D01*
X106934000Y-72699880D01*
X107950000Y-72699880D01*
X108000793Y-72699880D01*
X108000800Y-72660963D01*
X108000800Y-71759028D01*
X106972100Y-71772780D01*
G36*
X105405380Y-71842629D02*
G01*
X105385563Y-71872292D01*
X105370817Y-71902975D01*
X105360434Y-71942225D01*
X105353707Y-71997593D01*
X105349926Y-72076627D01*
X105348385Y-72186876D01*
X105348375Y-72335890D01*
X105348805Y-72445880D01*
X105349647Y-72605314D01*
X105350663Y-72748790D01*
X105351775Y-72868048D01*
X105352901Y-72954827D01*
X105353964Y-73000865D01*
X105354179Y-73004680D01*
X105354238Y-73043821D01*
X105352138Y-73122354D01*
X105348245Y-73228934D01*
X105342929Y-73352215D01*
X105342850Y-73353930D01*
X105328450Y-73665080D01*
X105585125Y-73665080D01*
X105704281Y-73663841D01*
X105781002Y-73659301D01*
X105823609Y-73650224D01*
X105840426Y-73635376D01*
X105841800Y-73626980D01*
X105855516Y-73593178D01*
X105867200Y-73588880D01*
X105881200Y-73565933D01*
X105890426Y-73506819D01*
X105892600Y-73451257D01*
X105895282Y-73345775D01*
X105907856Y-73281126D01*
X105937118Y-73247438D01*
X105989863Y-73234839D01*
X106042638Y-73233280D01*
X106120348Y-73239425D01*
X106178398Y-73254947D01*
X106192320Y-73263760D01*
X106208915Y-73306093D01*
X106219604Y-73387233D01*
X106222800Y-73479660D01*
X106222800Y-73665080D01*
X106458456Y-73665080D01*
X106572802Y-73663714D01*
X106647867Y-73658220D01*
X106695129Y-73646497D01*
X106726065Y-73626448D01*
X106737856Y-73613989D01*
X106749485Y-73596615D01*
X106758870Y-73571028D01*
X106766246Y-73532072D01*
X106771851Y-73474593D01*
X106775921Y-73393437D01*
X106778694Y-73283449D01*
X106780405Y-73139474D01*
X106781291Y-72956358D01*
X106781590Y-72728946D01*
X106781594Y-72699880D01*
X106730800Y-72699880D01*
X106730800Y-73538080D01*
X106299000Y-73538080D01*
X106299000Y-73106280D01*
X105847422Y-73106280D01*
X105860892Y-73322180D01*
X105874361Y-73538080D01*
X105403941Y-73538080D01*
X105414641Y-73293445D01*
X105420700Y-73178423D01*
X105428803Y-73102287D01*
X105442004Y-73053129D01*
X105463354Y-73019047D01*
X105492087Y-72991397D01*
X105558834Y-72933984D01*
X105497117Y-72876004D01*
X105453759Y-72818136D01*
X105435404Y-72759618D01*
X105435400Y-72758952D01*
X105435400Y-72699880D01*
X106730800Y-72699880D01*
X106781594Y-72699880D01*
X106781600Y-72661489D01*
X106781600Y-72497163D01*
X106197400Y-72497163D01*
X106197400Y-72649080D01*
X105915576Y-72649080D01*
X105923138Y-72490330D01*
X105928547Y-72403551D01*
X105938248Y-72355196D01*
X105958190Y-72332913D01*
X105994322Y-72324353D01*
X106003620Y-72323246D01*
X106081103Y-72322303D01*
X106136970Y-72330080D01*
X106170761Y-72343233D01*
X106188915Y-72369793D01*
X106196198Y-72422936D01*
X106197400Y-72497163D01*
X106781600Y-72497163D01*
X106781600Y-71760080D01*
X106122930Y-71760079D01*
X105464260Y-71760079D01*
X105405380Y-71842629D01*
G37*
X105405380Y-71842629D02*
X105385563Y-71872292D01*
X105370817Y-71902975D01*
X105360434Y-71942225D01*
X105353707Y-71997593D01*
X105349926Y-72076627D01*
X105348385Y-72186876D01*
X105348375Y-72335890D01*
X105348805Y-72445880D01*
X105349647Y-72605314D01*
X105350663Y-72748790D01*
X105351775Y-72868048D01*
X105352901Y-72954827D01*
X105353964Y-73000865D01*
X105354179Y-73004680D01*
X105354238Y-73043821D01*
X105352138Y-73122354D01*
X105348245Y-73228934D01*
X105342929Y-73352215D01*
X105342850Y-73353930D01*
X105328450Y-73665080D01*
X105585125Y-73665080D01*
X105704281Y-73663841D01*
X105781002Y-73659301D01*
X105823609Y-73650224D01*
X105840426Y-73635376D01*
X105841800Y-73626980D01*
X105855516Y-73593178D01*
X105867200Y-73588880D01*
X105881200Y-73565933D01*
X105890426Y-73506819D01*
X105892600Y-73451257D01*
X105895282Y-73345775D01*
X105907856Y-73281126D01*
X105937118Y-73247438D01*
X105989863Y-73234839D01*
X106042638Y-73233280D01*
X106120348Y-73239425D01*
X106178398Y-73254947D01*
X106192320Y-73263760D01*
X106208915Y-73306093D01*
X106219604Y-73387233D01*
X106222800Y-73479660D01*
X106222800Y-73665080D01*
X106458456Y-73665080D01*
X106572802Y-73663714D01*
X106647867Y-73658220D01*
X106695129Y-73646497D01*
X106726065Y-73626448D01*
X106737856Y-73613989D01*
X106749485Y-73596615D01*
X106758870Y-73571028D01*
X106766246Y-73532072D01*
X106771851Y-73474593D01*
X106775921Y-73393437D01*
X106778694Y-73283449D01*
X106780405Y-73139474D01*
X106781291Y-72956358D01*
X106781590Y-72728946D01*
X106781594Y-72699880D01*
X106730800Y-72699880D01*
X106730800Y-73538080D01*
X106299000Y-73538080D01*
X106299000Y-73106280D01*
X105847422Y-73106280D01*
X105860892Y-73322180D01*
X105874361Y-73538080D01*
X105403941Y-73538080D01*
X105414641Y-73293445D01*
X105420700Y-73178423D01*
X105428803Y-73102287D01*
X105442004Y-73053129D01*
X105463354Y-73019047D01*
X105492087Y-72991397D01*
X105558834Y-72933984D01*
X105497117Y-72876004D01*
X105453759Y-72818136D01*
X105435404Y-72759618D01*
X105435400Y-72758952D01*
X105435400Y-72699880D01*
X106730800Y-72699880D01*
X106781594Y-72699880D01*
X106781600Y-72661489D01*
X106781600Y-72497163D01*
X106197400Y-72497163D01*
X106197400Y-72649080D01*
X105915576Y-72649080D01*
X105923138Y-72490330D01*
X105928547Y-72403551D01*
X105938248Y-72355196D01*
X105958190Y-72332913D01*
X105994322Y-72324353D01*
X106003620Y-72323246D01*
X106081103Y-72322303D01*
X106136970Y-72330080D01*
X106170761Y-72343233D01*
X106188915Y-72369793D01*
X106196198Y-72422936D01*
X106197400Y-72497163D01*
X106781600Y-72497163D01*
X106781600Y-71760080D01*
X106122930Y-71760079D01*
X105464260Y-71760079D01*
X105405380Y-71842629D01*
G36*
X104740503Y-71855329D02*
G01*
X104736723Y-71903180D01*
X104733252Y-71995078D01*
X104730204Y-72124271D01*
X104727692Y-72284006D01*
X104725830Y-72467531D01*
X104724732Y-72668095D01*
X104724480Y-72807830D01*
X104724200Y-73665080D01*
X104959856Y-73665080D01*
X105074202Y-73663714D01*
X105149267Y-73658220D01*
X105196529Y-73646497D01*
X105227465Y-73626448D01*
X105239256Y-73613989D01*
X105250885Y-73596615D01*
X105260270Y-73571028D01*
X105267646Y-73532072D01*
X105273251Y-73474593D01*
X105277321Y-73393437D01*
X105280094Y-73283449D01*
X105281805Y-73139474D01*
X105282691Y-72956358D01*
X105282990Y-72728946D01*
X105282994Y-72699880D01*
X105232200Y-72699880D01*
X105232200Y-73538080D01*
X104800400Y-73538080D01*
X104800400Y-72699880D01*
X105232200Y-72699880D01*
X105282994Y-72699880D01*
X105283000Y-72661489D01*
X105283000Y-71760080D01*
X105019624Y-71760079D01*
X104756247Y-71760079D01*
X104740503Y-71855329D01*
G37*
X104740503Y-71855329D02*
X104736723Y-71903180D01*
X104733252Y-71995078D01*
X104730204Y-72124271D01*
X104727692Y-72284006D01*
X104725830Y-72467531D01*
X104724732Y-72668095D01*
X104724480Y-72807830D01*
X104724200Y-73665080D01*
X104959856Y-73665080D01*
X105074202Y-73663714D01*
X105149267Y-73658220D01*
X105196529Y-73646497D01*
X105227465Y-73626448D01*
X105239256Y-73613989D01*
X105250885Y-73596615D01*
X105260270Y-73571028D01*
X105267646Y-73532072D01*
X105273251Y-73474593D01*
X105277321Y-73393437D01*
X105280094Y-73283449D01*
X105281805Y-73139474D01*
X105282691Y-72956358D01*
X105282990Y-72728946D01*
X105282994Y-72699880D01*
X105232200Y-72699880D01*
X105232200Y-73538080D01*
X104800400Y-73538080D01*
X104800400Y-72699880D01*
X105232200Y-72699880D01*
X105282994Y-72699880D01*
X105283000Y-72661489D01*
X105283000Y-71760080D01*
X105019624Y-71760079D01*
X104756247Y-71760079D01*
X104740503Y-71855329D01*
G36*
X103973944Y-72077057D02*
G01*
X103918208Y-72191870D01*
X103869755Y-72288222D01*
X103832895Y-72357798D01*
X103811938Y-72392289D01*
X103809330Y-72394557D01*
X103793900Y-72373298D01*
X103760582Y-72314570D01*
X103713793Y-72226547D01*
X103657951Y-72117403D01*
X103638009Y-72077579D01*
X103479858Y-71760079D01*
X102927447Y-71760079D01*
X102911703Y-71855329D01*
X102907923Y-71903180D01*
X102904452Y-71995078D01*
X102901404Y-72124271D01*
X102898892Y-72284006D01*
X102897030Y-72467531D01*
X102895932Y-72668095D01*
X102895680Y-72807830D01*
X102895400Y-73665080D01*
X103149400Y-73665080D01*
X103267846Y-73663820D01*
X103343890Y-73659208D01*
X103385889Y-73649988D01*
X103402198Y-73634908D01*
X103403400Y-73626980D01*
X103417116Y-73593178D01*
X103428800Y-73588880D01*
X103441599Y-73565242D01*
X103450519Y-73501256D01*
X103454177Y-73407313D01*
X103454200Y-73398380D01*
X103456964Y-73307325D01*
X103464273Y-73239966D01*
X103474658Y-73208713D01*
X103476770Y-73207880D01*
X103497702Y-73228939D01*
X103534754Y-73285318D01*
X103581487Y-73366820D01*
X103605056Y-73411080D01*
X103665803Y-73519252D01*
X103717642Y-73586311D01*
X103765296Y-73611124D01*
X103813492Y-73592558D01*
X103866952Y-73529482D01*
X103930402Y-73420763D01*
X103981303Y-73320916D01*
X104026446Y-73234173D01*
X104064924Y-73168357D01*
X104090314Y-73134185D01*
X104094770Y-73131680D01*
X104102911Y-73155327D01*
X104109432Y-73219276D01*
X104113553Y-73313033D01*
X104114600Y-73398380D01*
X104114600Y-73665080D01*
X104337556Y-73665080D01*
X104448743Y-73663535D01*
X104521086Y-73657382D01*
X104566490Y-73644339D01*
X104596856Y-73622127D01*
X104604256Y-73613989D01*
X104615885Y-73596615D01*
X104625270Y-73571028D01*
X104632646Y-73532072D01*
X104638251Y-73474593D01*
X104642321Y-73393437D01*
X104645094Y-73283449D01*
X104646805Y-73139474D01*
X104647691Y-72956358D01*
X104647990Y-72728946D01*
X104647994Y-72699880D01*
X104597200Y-72699880D01*
X104597200Y-73538080D01*
X104184731Y-73538080D01*
X104195074Y-73131680D01*
X104197759Y-72994577D01*
X104198521Y-72877333D01*
X104197429Y-72788415D01*
X104194552Y-72736296D01*
X104191758Y-72726163D01*
X104177004Y-72748301D01*
X104145209Y-72808823D01*
X104100301Y-72899841D01*
X104046212Y-73013468D01*
X104012374Y-73086205D01*
X103953473Y-73210377D01*
X103899704Y-73317309D01*
X103855435Y-73398798D01*
X103825029Y-73446644D01*
X103815724Y-73455672D01*
X103793160Y-73437477D01*
X103752859Y-73377520D01*
X103697604Y-73280509D01*
X103630178Y-73151153D01*
X103600450Y-73091463D01*
X103416100Y-72716947D01*
X103409121Y-73127513D01*
X103402142Y-73538080D01*
X102971600Y-73538080D01*
X102971600Y-73351482D01*
X102973609Y-73234240D01*
X102978925Y-73093439D01*
X102986482Y-72956129D01*
X102988104Y-72932382D01*
X103004607Y-72699880D01*
X104597200Y-72699880D01*
X104647994Y-72699880D01*
X104648000Y-72661489D01*
X104648000Y-71760080D01*
X104386694Y-71760079D01*
X104125387Y-71760079D01*
X103973944Y-72077057D01*
G37*
X103973944Y-72077057D02*
X103918208Y-72191870D01*
X103869755Y-72288222D01*
X103832895Y-72357798D01*
X103811938Y-72392289D01*
X103809330Y-72394557D01*
X103793900Y-72373298D01*
X103760582Y-72314570D01*
X103713793Y-72226547D01*
X103657951Y-72117403D01*
X103638009Y-72077579D01*
X103479858Y-71760079D01*
X102927447Y-71760079D01*
X102911703Y-71855329D01*
X102907923Y-71903180D01*
X102904452Y-71995078D01*
X102901404Y-72124271D01*
X102898892Y-72284006D01*
X102897030Y-72467531D01*
X102895932Y-72668095D01*
X102895680Y-72807830D01*
X102895400Y-73665080D01*
X103149400Y-73665080D01*
X103267846Y-73663820D01*
X103343890Y-73659208D01*
X103385889Y-73649988D01*
X103402198Y-73634908D01*
X103403400Y-73626980D01*
X103417116Y-73593178D01*
X103428800Y-73588880D01*
X103441599Y-73565242D01*
X103450519Y-73501256D01*
X103454177Y-73407313D01*
X103454200Y-73398380D01*
X103456964Y-73307325D01*
X103464273Y-73239966D01*
X103474658Y-73208713D01*
X103476770Y-73207880D01*
X103497702Y-73228939D01*
X103534754Y-73285318D01*
X103581487Y-73366820D01*
X103605056Y-73411080D01*
X103665803Y-73519252D01*
X103717642Y-73586311D01*
X103765296Y-73611124D01*
X103813492Y-73592558D01*
X103866952Y-73529482D01*
X103930402Y-73420763D01*
X103981303Y-73320916D01*
X104026446Y-73234173D01*
X104064924Y-73168357D01*
X104090314Y-73134185D01*
X104094770Y-73131680D01*
X104102911Y-73155327D01*
X104109432Y-73219276D01*
X104113553Y-73313033D01*
X104114600Y-73398380D01*
X104114600Y-73665080D01*
X104337556Y-73665080D01*
X104448743Y-73663535D01*
X104521086Y-73657382D01*
X104566490Y-73644339D01*
X104596856Y-73622127D01*
X104604256Y-73613989D01*
X104615885Y-73596615D01*
X104625270Y-73571028D01*
X104632646Y-73532072D01*
X104638251Y-73474593D01*
X104642321Y-73393437D01*
X104645094Y-73283449D01*
X104646805Y-73139474D01*
X104647691Y-72956358D01*
X104647990Y-72728946D01*
X104647994Y-72699880D01*
X104597200Y-72699880D01*
X104597200Y-73538080D01*
X104184731Y-73538080D01*
X104195074Y-73131680D01*
X104197759Y-72994577D01*
X104198521Y-72877333D01*
X104197429Y-72788415D01*
X104194552Y-72736296D01*
X104191758Y-72726163D01*
X104177004Y-72748301D01*
X104145209Y-72808823D01*
X104100301Y-72899841D01*
X104046212Y-73013468D01*
X104012374Y-73086205D01*
X103953473Y-73210377D01*
X103899704Y-73317309D01*
X103855435Y-73398798D01*
X103825029Y-73446644D01*
X103815724Y-73455672D01*
X103793160Y-73437477D01*
X103752859Y-73377520D01*
X103697604Y-73280509D01*
X103630178Y-73151153D01*
X103600450Y-73091463D01*
X103416100Y-72716947D01*
X103409121Y-73127513D01*
X103402142Y-73538080D01*
X102971600Y-73538080D01*
X102971600Y-73351482D01*
X102973609Y-73234240D01*
X102978925Y-73093439D01*
X102986482Y-72956129D01*
X102988104Y-72932382D01*
X103004607Y-72699880D01*
X104597200Y-72699880D01*
X104647994Y-72699880D01*
X104648000Y-72661489D01*
X104648000Y-71760080D01*
X104386694Y-71760079D01*
X104125387Y-71760079D01*
X103973944Y-72077057D01*
G36*
X101790500Y-71772780D02*
G01*
X101734080Y-71941547D01*
X101702034Y-72045521D01*
X101675132Y-72147117D01*
X101660983Y-72214597D01*
X101644308Y-72318880D01*
X101886777Y-72318880D01*
X102020869Y-72320346D01*
X102112165Y-72326253D01*
X102168623Y-72338856D01*
X102198200Y-72360416D01*
X102208854Y-72393190D01*
X102209600Y-72410497D01*
X102207693Y-72438310D01*
X102195725Y-72456004D01*
X102164330Y-72465868D01*
X102104141Y-72470189D01*
X102005792Y-72471253D01*
X101960703Y-72471280D01*
X101711806Y-72471279D01*
X101681303Y-72555633D01*
X101665150Y-72626221D01*
X101654092Y-72724109D01*
X101650800Y-72809633D01*
X101650800Y-72979280D01*
X101890023Y-72979280D01*
X102024246Y-72980896D01*
X102115516Y-72987026D01*
X102171618Y-72999592D01*
X102200332Y-73020516D01*
X102209442Y-73051718D01*
X102209600Y-73058197D01*
X102205459Y-73080127D01*
X102186945Y-73094171D01*
X102144926Y-73102059D01*
X102070269Y-73105519D01*
X101955600Y-73106280D01*
X101837330Y-73107515D01*
X101761405Y-73112071D01*
X101719411Y-73121220D01*
X101702935Y-73136235D01*
X101701600Y-73144724D01*
X101688678Y-73197316D01*
X101672471Y-73229812D01*
X101659812Y-73267181D01*
X101661988Y-73323835D01*
X101680054Y-73411362D01*
X101693784Y-73464417D01*
X101744226Y-73652380D01*
X102237526Y-73659246D01*
X102407944Y-73661353D01*
X102534843Y-73661851D01*
X102625495Y-73660135D01*
X102687170Y-73655601D01*
X102727140Y-73647643D01*
X102752676Y-73635655D01*
X102771049Y-73619033D01*
X102775013Y-73614506D01*
X102786750Y-73597157D01*
X102796221Y-73571915D01*
X102803665Y-73533616D01*
X102809324Y-73477097D01*
X102813434Y-73397195D01*
X102816236Y-73288747D01*
X102817970Y-73146591D01*
X102818873Y-72965562D01*
X102819186Y-72740498D01*
X102819193Y-72699880D01*
X102768400Y-72699880D01*
X102768400Y-73539225D01*
X102304939Y-73532302D01*
X101841478Y-73525380D01*
X101811454Y-73433667D01*
X101785334Y-73342507D01*
X101764399Y-73251171D01*
X101764255Y-73250403D01*
X101747079Y-73158852D01*
X102022790Y-73151616D01*
X102298500Y-73144380D01*
X102313736Y-72852280D01*
X101752400Y-72852280D01*
X101752400Y-72699880D01*
X102768400Y-72699880D01*
X102819193Y-72699880D01*
X102819200Y-72660963D01*
X102819200Y-71759028D01*
X101790500Y-71772780D01*
G37*
X101790500Y-71772780D02*
X101734080Y-71941547D01*
X101702034Y-72045521D01*
X101675132Y-72147117D01*
X101660983Y-72214597D01*
X101644308Y-72318880D01*
X101886777Y-72318880D01*
X102020869Y-72320346D01*
X102112165Y-72326253D01*
X102168623Y-72338856D01*
X102198200Y-72360416D01*
X102208854Y-72393190D01*
X102209600Y-72410497D01*
X102207693Y-72438310D01*
X102195725Y-72456004D01*
X102164330Y-72465868D01*
X102104141Y-72470189D01*
X102005792Y-72471253D01*
X101960703Y-72471280D01*
X101711806Y-72471279D01*
X101681303Y-72555633D01*
X101665150Y-72626221D01*
X101654092Y-72724109D01*
X101650800Y-72809633D01*
X101650800Y-72979280D01*
X101890023Y-72979280D01*
X102024246Y-72980896D01*
X102115516Y-72987026D01*
X102171618Y-72999592D01*
X102200332Y-73020516D01*
X102209442Y-73051718D01*
X102209600Y-73058197D01*
X102205459Y-73080127D01*
X102186945Y-73094171D01*
X102144926Y-73102059D01*
X102070269Y-73105519D01*
X101955600Y-73106280D01*
X101837330Y-73107515D01*
X101761405Y-73112071D01*
X101719411Y-73121220D01*
X101702935Y-73136235D01*
X101701600Y-73144724D01*
X101688678Y-73197316D01*
X101672471Y-73229812D01*
X101659812Y-73267181D01*
X101661988Y-73323835D01*
X101680054Y-73411362D01*
X101693784Y-73464417D01*
X101744226Y-73652380D01*
X102237526Y-73659246D01*
X102407944Y-73661353D01*
X102534843Y-73661851D01*
X102625495Y-73660135D01*
X102687170Y-73655601D01*
X102727140Y-73647643D01*
X102752676Y-73635655D01*
X102771049Y-73619033D01*
X102775013Y-73614506D01*
X102786750Y-73597157D01*
X102796221Y-73571915D01*
X102803665Y-73533616D01*
X102809324Y-73477097D01*
X102813434Y-73397195D01*
X102816236Y-73288747D01*
X102817970Y-73146591D01*
X102818873Y-72965562D01*
X102819186Y-72740498D01*
X102819193Y-72699880D01*
X102768400Y-72699880D01*
X102768400Y-73539225D01*
X102304939Y-73532302D01*
X101841478Y-73525380D01*
X101811454Y-73433667D01*
X101785334Y-73342507D01*
X101764399Y-73251171D01*
X101764255Y-73250403D01*
X101747079Y-73158852D01*
X102022790Y-73151616D01*
X102298500Y-73144380D01*
X102313736Y-72852280D01*
X101752400Y-72852280D01*
X101752400Y-72699880D01*
X102768400Y-72699880D01*
X102819193Y-72699880D01*
X102819200Y-72660963D01*
X102819200Y-71759028D01*
X101790500Y-71772780D01*
G36*
X100824938Y-72126950D02*
G01*
X100596700Y-72493820D01*
X100582642Y-71760080D01*
X100332645Y-71760079D01*
X100082647Y-71760079D01*
X100066903Y-71855329D01*
X100063123Y-71903180D01*
X100059652Y-71995078D01*
X100056604Y-72124271D01*
X100054092Y-72284006D01*
X100052230Y-72467531D01*
X100051132Y-72668095D01*
X100050880Y-72807830D01*
X100050600Y-73665080D01*
X100548248Y-73665080D01*
X100675491Y-73468230D01*
X100750743Y-73350535D01*
X100832588Y-73220546D01*
X100905015Y-73103721D01*
X100914167Y-73088759D01*
X100966972Y-73007289D01*
X101011544Y-72947760D01*
X101040661Y-72919475D01*
X101046100Y-72918808D01*
X101053388Y-72947398D01*
X101059535Y-73017420D01*
X101064033Y-73119509D01*
X101066379Y-73244302D01*
X101066600Y-73298279D01*
X101066600Y-73665080D01*
X101289556Y-73665080D01*
X101400743Y-73663535D01*
X101473086Y-73657382D01*
X101518490Y-73644339D01*
X101548856Y-73622127D01*
X101556256Y-73613989D01*
X101567885Y-73596615D01*
X101577270Y-73571028D01*
X101584646Y-73532072D01*
X101590251Y-73474593D01*
X101594321Y-73393437D01*
X101597094Y-73283449D01*
X101598805Y-73139474D01*
X101599691Y-72956358D01*
X101599990Y-72728946D01*
X101599994Y-72699880D01*
X101549200Y-72699880D01*
X101549200Y-73538080D01*
X101142800Y-73538080D01*
X101142800Y-73236825D01*
X101144191Y-73104753D01*
X101147957Y-72979024D01*
X101153493Y-72875380D01*
X101158953Y-72817725D01*
X101174981Y-72700780D01*
X101042506Y-72700780D01*
X101013306Y-72757480D01*
X100990677Y-72797851D01*
X100946895Y-72872996D01*
X100887090Y-72974216D01*
X100816393Y-73092812D01*
X100766409Y-73176130D01*
X100548711Y-73538080D01*
X100126800Y-73538080D01*
X100126800Y-73159157D01*
X100127775Y-73022966D01*
X100130455Y-72903000D01*
X100134479Y-72809321D01*
X100139484Y-72751993D01*
X100141880Y-72740938D01*
X100154077Y-72726477D01*
X100182498Y-72715949D01*
X100234031Y-72708757D01*
X100315564Y-72704302D01*
X100433982Y-72701987D01*
X100596173Y-72701214D01*
X100599733Y-72701211D01*
X101042506Y-72700780D01*
X101174981Y-72700780D01*
X101175105Y-72699880D01*
X101549200Y-72699880D01*
X101599994Y-72699880D01*
X101600000Y-72661489D01*
X101600000Y-71760080D01*
X101326588Y-71760079D01*
X101053176Y-71760079D01*
X100824938Y-72126950D01*
G37*
X100824938Y-72126950D02*
X100596700Y-72493820D01*
X100582642Y-71760080D01*
X100332645Y-71760079D01*
X100082647Y-71760079D01*
X100066903Y-71855329D01*
X100063123Y-71903180D01*
X100059652Y-71995078D01*
X100056604Y-72124271D01*
X100054092Y-72284006D01*
X100052230Y-72467531D01*
X100051132Y-72668095D01*
X100050880Y-72807830D01*
X100050600Y-73665080D01*
X100548248Y-73665080D01*
X100675491Y-73468230D01*
X100750743Y-73350535D01*
X100832588Y-73220546D01*
X100905015Y-73103721D01*
X100914167Y-73088759D01*
X100966972Y-73007289D01*
X101011544Y-72947760D01*
X101040661Y-72919475D01*
X101046100Y-72918808D01*
X101053388Y-72947398D01*
X101059535Y-73017420D01*
X101064033Y-73119509D01*
X101066379Y-73244302D01*
X101066600Y-73298279D01*
X101066600Y-73665080D01*
X101289556Y-73665080D01*
X101400743Y-73663535D01*
X101473086Y-73657382D01*
X101518490Y-73644339D01*
X101548856Y-73622127D01*
X101556256Y-73613989D01*
X101567885Y-73596615D01*
X101577270Y-73571028D01*
X101584646Y-73532072D01*
X101590251Y-73474593D01*
X101594321Y-73393437D01*
X101597094Y-73283449D01*
X101598805Y-73139474D01*
X101599691Y-72956358D01*
X101599990Y-72728946D01*
X101599994Y-72699880D01*
X101549200Y-72699880D01*
X101549200Y-73538080D01*
X101142800Y-73538080D01*
X101142800Y-73236825D01*
X101144191Y-73104753D01*
X101147957Y-72979024D01*
X101153493Y-72875380D01*
X101158953Y-72817725D01*
X101174981Y-72700780D01*
X101042506Y-72700780D01*
X101013306Y-72757480D01*
X100990677Y-72797851D01*
X100946895Y-72872996D01*
X100887090Y-72974216D01*
X100816393Y-73092812D01*
X100766409Y-73176130D01*
X100548711Y-73538080D01*
X100126800Y-73538080D01*
X100126800Y-73159157D01*
X100127775Y-73022966D01*
X100130455Y-72903000D01*
X100134479Y-72809321D01*
X100139484Y-72751993D01*
X100141880Y-72740938D01*
X100154077Y-72726477D01*
X100182498Y-72715949D01*
X100234031Y-72708757D01*
X100315564Y-72704302D01*
X100433982Y-72701987D01*
X100596173Y-72701214D01*
X100599733Y-72701211D01*
X101042506Y-72700780D01*
X101174981Y-72700780D01*
X101175105Y-72699880D01*
X101549200Y-72699880D01*
X101599994Y-72699880D01*
X101600000Y-72661489D01*
X101600000Y-71760080D01*
X101326588Y-71760079D01*
X101053176Y-71760079D01*
X100824938Y-72126950D01*
G36*
X99155751Y-71760838D02*
G01*
X99003989Y-71763291D01*
X98893236Y-71767704D01*
X98818607Y-71774343D01*
X98775217Y-71783475D01*
X98760003Y-71792392D01*
X98739168Y-71834380D01*
X98712171Y-71910833D01*
X98683301Y-72006504D01*
X98656842Y-72106144D01*
X98637084Y-72194504D01*
X98628311Y-72256338D01*
X98628200Y-72261219D01*
X98631985Y-72292423D01*
X98650991Y-72309726D01*
X98696701Y-72317189D01*
X98780596Y-72318873D01*
X98791223Y-72318879D01*
X98863795Y-72317907D01*
X98920389Y-72318710D01*
X98962977Y-72326869D01*
X98993532Y-72347963D01*
X99014027Y-72387575D01*
X99026434Y-72451282D01*
X99032726Y-72544667D01*
X99034876Y-72673309D01*
X99034855Y-72842789D01*
X99034600Y-73007397D01*
X99034600Y-73665080D01*
X99288600Y-73665080D01*
X99407046Y-73663820D01*
X99483090Y-73659208D01*
X99525089Y-73649988D01*
X99541398Y-73634908D01*
X99542600Y-73626980D01*
X99562932Y-73593305D01*
X99580700Y-73588880D01*
X99592602Y-73583119D01*
X99601791Y-73562117D01*
X99605704Y-73538080D01*
X99568000Y-73538080D01*
X99110800Y-73538080D01*
X99110800Y-73275105D01*
X99112481Y-73143145D01*
X99116981Y-73010271D01*
X99123492Y-72897302D01*
X99127119Y-72856005D01*
X99143437Y-72699880D01*
X99535954Y-72699880D01*
X99551698Y-72795130D01*
X99557817Y-72857437D01*
X99562875Y-72956904D01*
X99566349Y-73079891D01*
X99567720Y-73212759D01*
X99567721Y-73214230D01*
X99568000Y-73538080D01*
X99605704Y-73538080D01*
X99608601Y-73520294D01*
X99613368Y-73452068D01*
X99616427Y-73351860D01*
X99618112Y-73214088D01*
X99618758Y-73033172D01*
X99618800Y-72953880D01*
X99618800Y-72318880D01*
X99783900Y-72318880D01*
X99876508Y-72316336D01*
X99927979Y-72307247D01*
X99947792Y-72289426D01*
X99949000Y-72280780D01*
X99969584Y-72247893D01*
X99990445Y-72242680D01*
X100016103Y-72223900D01*
X100021044Y-72166050D01*
X100005083Y-72066859D01*
X99968034Y-71924058D01*
X99962822Y-71906130D01*
X99919996Y-71760080D01*
X99353408Y-71760080D01*
X99155751Y-71760838D01*
G37*
X99155751Y-71760838D02*
X99003989Y-71763291D01*
X98893236Y-71767704D01*
X98818607Y-71774343D01*
X98775217Y-71783475D01*
X98760003Y-71792392D01*
X98739168Y-71834380D01*
X98712171Y-71910833D01*
X98683301Y-72006504D01*
X98656842Y-72106144D01*
X98637084Y-72194504D01*
X98628311Y-72256338D01*
X98628200Y-72261219D01*
X98631985Y-72292423D01*
X98650991Y-72309726D01*
X98696701Y-72317189D01*
X98780596Y-72318873D01*
X98791223Y-72318879D01*
X98863795Y-72317907D01*
X98920389Y-72318710D01*
X98962977Y-72326869D01*
X98993532Y-72347963D01*
X99014027Y-72387575D01*
X99026434Y-72451282D01*
X99032726Y-72544667D01*
X99034876Y-72673309D01*
X99034855Y-72842789D01*
X99034600Y-73007397D01*
X99034600Y-73665080D01*
X99288600Y-73665080D01*
X99407046Y-73663820D01*
X99483090Y-73659208D01*
X99525089Y-73649988D01*
X99541398Y-73634908D01*
X99542600Y-73626980D01*
X99562932Y-73593305D01*
X99580700Y-73588880D01*
X99592602Y-73583119D01*
X99601791Y-73562117D01*
X99605704Y-73538080D01*
X99568000Y-73538080D01*
X99110800Y-73538080D01*
X99110800Y-73275105D01*
X99112481Y-73143145D01*
X99116981Y-73010271D01*
X99123492Y-72897302D01*
X99127119Y-72856005D01*
X99143437Y-72699880D01*
X99535954Y-72699880D01*
X99551698Y-72795130D01*
X99557817Y-72857437D01*
X99562875Y-72956904D01*
X99566349Y-73079891D01*
X99567720Y-73212759D01*
X99567721Y-73214230D01*
X99568000Y-73538080D01*
X99605704Y-73538080D01*
X99608601Y-73520294D01*
X99613368Y-73452068D01*
X99616427Y-73351860D01*
X99618112Y-73214088D01*
X99618758Y-73033172D01*
X99618800Y-72953880D01*
X99618800Y-72318880D01*
X99783900Y-72318880D01*
X99876508Y-72316336D01*
X99927979Y-72307247D01*
X99947792Y-72289426D01*
X99949000Y-72280780D01*
X99969584Y-72247893D01*
X99990445Y-72242680D01*
X100016103Y-72223900D01*
X100021044Y-72166050D01*
X100005083Y-72066859D01*
X99968034Y-71924058D01*
X99962822Y-71906130D01*
X99919996Y-71760080D01*
X99353408Y-71760080D01*
X99155751Y-71760838D01*
G36*
X117999303Y-72591930D02*
G01*
X117990576Y-72670939D01*
X117984738Y-72773772D01*
X117983280Y-72845930D01*
X117983000Y-73004680D01*
X118332956Y-73004680D01*
X118474204Y-73004086D01*
X118573582Y-73001532D01*
X118640013Y-72995860D01*
X118682421Y-72985913D01*
X118709729Y-72970532D01*
X118726656Y-72953589D01*
X118750658Y-72911421D01*
X118764433Y-72846656D01*
X118770010Y-72747523D01*
X118770397Y-72699880D01*
X118719600Y-72699880D01*
X118719600Y-72877680D01*
X118389400Y-72877680D01*
X118254445Y-72877199D01*
X118162219Y-72874962D01*
X118104655Y-72869781D01*
X118073684Y-72860462D01*
X118061240Y-72845818D01*
X118059200Y-72828957D01*
X118061463Y-72777305D01*
X118073541Y-72741659D01*
X118103368Y-72719059D01*
X118158877Y-72706539D01*
X118248003Y-72701138D01*
X118378679Y-72699891D01*
X118404818Y-72699880D01*
X118719600Y-72699880D01*
X118770397Y-72699880D01*
X118770400Y-72699589D01*
X118770400Y-72496680D01*
X118015047Y-72496680D01*
X117999303Y-72591930D01*
G37*
X117999303Y-72591930D02*
X117990576Y-72670939D01*
X117984738Y-72773772D01*
X117983280Y-72845930D01*
X117983000Y-73004680D01*
X118332956Y-73004680D01*
X118474204Y-73004086D01*
X118573582Y-73001532D01*
X118640013Y-72995860D01*
X118682421Y-72985913D01*
X118709729Y-72970532D01*
X118726656Y-72953589D01*
X118750658Y-72911421D01*
X118764433Y-72846656D01*
X118770010Y-72747523D01*
X118770397Y-72699880D01*
X118719600Y-72699880D01*
X118719600Y-72877680D01*
X118389400Y-72877680D01*
X118254445Y-72877199D01*
X118162219Y-72874962D01*
X118104655Y-72869781D01*
X118073684Y-72860462D01*
X118061240Y-72845818D01*
X118059200Y-72828957D01*
X118061463Y-72777305D01*
X118073541Y-72741659D01*
X118103368Y-72719059D01*
X118158877Y-72706539D01*
X118248003Y-72701138D01*
X118378679Y-72699891D01*
X118404818Y-72699880D01*
X118719600Y-72699880D01*
X118770397Y-72699880D01*
X118770400Y-72699589D01*
X118770400Y-72496680D01*
X118015047Y-72496680D01*
X117999303Y-72591930D01*
G36*
X97044303Y-72591930D02*
G01*
X97035576Y-72670939D01*
X97029738Y-72773772D01*
X97028280Y-72845930D01*
X97028000Y-73004680D01*
X97377956Y-73004680D01*
X97519204Y-73004086D01*
X97618582Y-73001532D01*
X97685013Y-72995860D01*
X97727421Y-72985913D01*
X97754729Y-72970532D01*
X97771656Y-72953589D01*
X97795658Y-72911421D01*
X97809433Y-72846656D01*
X97815010Y-72747523D01*
X97815397Y-72699880D01*
X97764600Y-72699880D01*
X97764600Y-72877680D01*
X97434400Y-72877680D01*
X97299445Y-72877199D01*
X97207219Y-72874962D01*
X97149655Y-72869781D01*
X97118684Y-72860462D01*
X97106240Y-72845818D01*
X97104200Y-72828957D01*
X97106463Y-72777305D01*
X97118541Y-72741659D01*
X97148368Y-72719059D01*
X97203877Y-72706539D01*
X97293003Y-72701138D01*
X97423679Y-72699891D01*
X97449818Y-72699880D01*
X97764600Y-72699880D01*
X97815397Y-72699880D01*
X97815400Y-72699589D01*
X97815400Y-72496680D01*
X97060047Y-72496680D01*
X97044303Y-72591930D01*
G37*
X97044303Y-72591930D02*
X97035576Y-72670939D01*
X97029738Y-72773772D01*
X97028280Y-72845930D01*
X97028000Y-73004680D01*
X97377956Y-73004680D01*
X97519204Y-73004086D01*
X97618582Y-73001532D01*
X97685013Y-72995860D01*
X97727421Y-72985913D01*
X97754729Y-72970532D01*
X97771656Y-72953589D01*
X97795658Y-72911421D01*
X97809433Y-72846656D01*
X97815010Y-72747523D01*
X97815397Y-72699880D01*
X97764600Y-72699880D01*
X97764600Y-72877680D01*
X97434400Y-72877680D01*
X97299445Y-72877199D01*
X97207219Y-72874962D01*
X97149655Y-72869781D01*
X97118684Y-72860462D01*
X97106240Y-72845818D01*
X97104200Y-72828957D01*
X97106463Y-72777305D01*
X97118541Y-72741659D01*
X97148368Y-72719059D01*
X97203877Y-72706539D01*
X97293003Y-72701138D01*
X97423679Y-72699891D01*
X97449818Y-72699880D01*
X97764600Y-72699880D01*
X97815397Y-72699880D01*
X97815400Y-72699589D01*
X97815400Y-72496680D01*
X97060047Y-72496680D01*
X97044303Y-72591930D01*
D12*
%TO.C,R23*%
X65312600Y-112995064D02*
X65312600Y-112540936D01*
X66782600Y-112995064D02*
X66782600Y-112540936D01*
%TO.C,R20*%
X63234900Y-113000064D02*
X63234900Y-112545936D01*
X64704900Y-113000064D02*
X64704900Y-112545936D01*
%TO.C,R19*%
X61162300Y-113008064D02*
X61162300Y-112553936D01*
X62632300Y-113008064D02*
X62632300Y-112553936D01*
%TO.C,R8*%
X59117600Y-113008064D02*
X59117600Y-112553936D01*
X60587600Y-113008064D02*
X60587600Y-112553936D01*
%TO.C,R7*%
X57070300Y-113013064D02*
X57070300Y-112558936D01*
X58540300Y-113013064D02*
X58540300Y-112558936D01*
%TO.C,R6*%
X55025600Y-113013064D02*
X55025600Y-112558936D01*
X56495600Y-113013064D02*
X56495600Y-112558936D01*
%TO.C,R23*%
D13*
X66489820Y-115307762D02*
X66013630Y-114974429D01*
X66489820Y-114736334D02*
X65489820Y-114736334D01*
X65489820Y-115117286D01*
X65537440Y-115212524D01*
X65585059Y-115260143D01*
X65680297Y-115307762D01*
X65823154Y-115307762D01*
X65918392Y-115260143D01*
X65966011Y-115212524D01*
X66013630Y-115117286D01*
X66013630Y-114736334D01*
X65585059Y-115688715D02*
X65537440Y-115736334D01*
X65489820Y-115831572D01*
X65489820Y-116069667D01*
X65537440Y-116164905D01*
X65585059Y-116212524D01*
X65680297Y-116260143D01*
X65775535Y-116260143D01*
X65918392Y-116212524D01*
X66489820Y-115641096D01*
X66489820Y-116260143D01*
X65489820Y-116593477D02*
X65489820Y-117212524D01*
X65870773Y-116879191D01*
X65870773Y-117022048D01*
X65918392Y-117117286D01*
X65966011Y-117164905D01*
X66061249Y-117212524D01*
X66299344Y-117212524D01*
X66394582Y-117164905D01*
X66442201Y-117117286D01*
X66489820Y-117022048D01*
X66489820Y-116736334D01*
X66442201Y-116641096D01*
X66394582Y-116593477D01*
%TO.C,R20*%
X64404500Y-115307682D02*
X63928310Y-114974349D01*
X64404500Y-114736254D02*
X63404500Y-114736254D01*
X63404500Y-115117206D01*
X63452120Y-115212444D01*
X63499739Y-115260063D01*
X63594977Y-115307682D01*
X63737834Y-115307682D01*
X63833072Y-115260063D01*
X63880691Y-115212444D01*
X63928310Y-115117206D01*
X63928310Y-114736254D01*
X63499739Y-115688635D02*
X63452120Y-115736254D01*
X63404500Y-115831492D01*
X63404500Y-116069587D01*
X63452120Y-116164825D01*
X63499739Y-116212444D01*
X63594977Y-116260063D01*
X63690215Y-116260063D01*
X63833072Y-116212444D01*
X64404500Y-115641016D01*
X64404500Y-116260063D01*
X63404500Y-116879111D02*
X63404500Y-116974349D01*
X63452120Y-117069587D01*
X63499739Y-117117206D01*
X63594977Y-117164825D01*
X63785453Y-117212444D01*
X64023548Y-117212444D01*
X64214024Y-117164825D01*
X64309262Y-117117206D01*
X64356881Y-117069587D01*
X64404500Y-116974349D01*
X64404500Y-116879111D01*
X64356881Y-116783873D01*
X64309262Y-116736254D01*
X64214024Y-116688635D01*
X64023548Y-116641016D01*
X63785453Y-116641016D01*
X63594977Y-116688635D01*
X63499739Y-116736254D01*
X63452120Y-116783873D01*
X63404500Y-116879111D01*
%TO.C,R19*%
X62362380Y-115308062D02*
X61886190Y-114974729D01*
X62362380Y-114736634D02*
X61362380Y-114736634D01*
X61362380Y-115117586D01*
X61410000Y-115212824D01*
X61457619Y-115260443D01*
X61552857Y-115308062D01*
X61695714Y-115308062D01*
X61790952Y-115260443D01*
X61838571Y-115212824D01*
X61886190Y-115117586D01*
X61886190Y-114736634D01*
X62362380Y-116260443D02*
X62362380Y-115689015D01*
X62362380Y-115974729D02*
X61362380Y-115974729D01*
X61505238Y-115879491D01*
X61600476Y-115784253D01*
X61648095Y-115689015D01*
X62362380Y-116736634D02*
X62362380Y-116927110D01*
X62314761Y-117022348D01*
X62267142Y-117069967D01*
X62124285Y-117165205D01*
X61933809Y-117212824D01*
X61552857Y-117212824D01*
X61457619Y-117165205D01*
X61410000Y-117117586D01*
X61362380Y-117022348D01*
X61362380Y-116831872D01*
X61410000Y-116736634D01*
X61457619Y-116689015D01*
X61552857Y-116641396D01*
X61790952Y-116641396D01*
X61886190Y-116689015D01*
X61933809Y-116736634D01*
X61981428Y-116831872D01*
X61981428Y-117022348D01*
X61933809Y-117117586D01*
X61886190Y-117165205D01*
X61790952Y-117212824D01*
%TO.C,R8*%
X60304980Y-115784253D02*
X59828790Y-115450920D01*
X60304980Y-115212824D02*
X59304980Y-115212824D01*
X59304980Y-115593777D01*
X59352600Y-115689015D01*
X59400219Y-115736634D01*
X59495457Y-115784253D01*
X59638314Y-115784253D01*
X59733552Y-115736634D01*
X59781171Y-115689015D01*
X59828790Y-115593777D01*
X59828790Y-115212824D01*
X59733552Y-116355681D02*
X59685933Y-116260443D01*
X59638314Y-116212824D01*
X59543076Y-116165205D01*
X59495457Y-116165205D01*
X59400219Y-116212824D01*
X59352600Y-116260443D01*
X59304980Y-116355681D01*
X59304980Y-116546158D01*
X59352600Y-116641396D01*
X59400219Y-116689015D01*
X59495457Y-116736634D01*
X59543076Y-116736634D01*
X59638314Y-116689015D01*
X59685933Y-116641396D01*
X59733552Y-116546158D01*
X59733552Y-116355681D01*
X59781171Y-116260443D01*
X59828790Y-116212824D01*
X59924028Y-116165205D01*
X60114504Y-116165205D01*
X60209742Y-116212824D01*
X60257361Y-116260443D01*
X60304980Y-116355681D01*
X60304980Y-116546158D01*
X60257361Y-116641396D01*
X60209742Y-116689015D01*
X60114504Y-116736634D01*
X59924028Y-116736634D01*
X59828790Y-116689015D01*
X59781171Y-116641396D01*
X59733552Y-116546158D01*
%TO.C,R7*%
X58252600Y-115784173D02*
X57776410Y-115450840D01*
X58252600Y-115212744D02*
X57252600Y-115212744D01*
X57252600Y-115593697D01*
X57300220Y-115688935D01*
X57347839Y-115736554D01*
X57443077Y-115784173D01*
X57585934Y-115784173D01*
X57681172Y-115736554D01*
X57728791Y-115688935D01*
X57776410Y-115593697D01*
X57776410Y-115212744D01*
X57252600Y-116117506D02*
X57252600Y-116784173D01*
X58252600Y-116355601D01*
%TO.C,R6*%
X56215520Y-115784173D02*
X55739330Y-115450840D01*
X56215520Y-115212744D02*
X55215520Y-115212744D01*
X55215520Y-115593697D01*
X55263140Y-115688935D01*
X55310759Y-115736554D01*
X55405997Y-115784173D01*
X55548854Y-115784173D01*
X55644092Y-115736554D01*
X55691711Y-115688935D01*
X55739330Y-115593697D01*
X55739330Y-115212744D01*
X55215520Y-116641316D02*
X55215520Y-116450840D01*
X55263140Y-116355601D01*
X55310759Y-116307982D01*
X55453616Y-116212744D01*
X55644092Y-116165125D01*
X56025044Y-116165125D01*
X56120282Y-116212744D01*
X56167901Y-116260363D01*
X56215520Y-116355601D01*
X56215520Y-116546078D01*
X56167901Y-116641316D01*
X56120282Y-116688935D01*
X56025044Y-116736554D01*
X55786949Y-116736554D01*
X55691711Y-116688935D01*
X55644092Y-116641316D01*
X55596473Y-116546078D01*
X55596473Y-116355601D01*
X55644092Y-116260363D01*
X55691711Y-116212744D01*
X55786949Y-116165125D01*
%TD*%
M02*
