%TF.GenerationSoftware,KiCad,Pcbnew,(5.1.8)-1*%
%TF.CreationDate,2021-04-17T11:25:56+02:00*%
%TF.ProjectId,CYC10 Board,43594331-3020-4426-9f61-72642e6b6963,rev?*%
%TF.SameCoordinates,Original*%
%TF.FileFunction,Copper,L2,Bot*%
%TF.FilePolarity,Positive*%
%FSLAX46Y46*%
G04 Gerber Fmt 4.6, Leading zero omitted, Abs format (unit mm)*
G04 Created by KiCad (PCBNEW (5.1.8)-1) date 2021-04-17 11:25:56*
%MOMM*%
%LPD*%
G01*
G04 APERTURE LIST*
%TA.AperFunction,ComponentPad*%
%ADD10R,3.500000X2.500000*%
%TD*%
%TA.AperFunction,ComponentPad*%
%ADD11O,1.750000X3.500000*%
%TD*%
%TA.AperFunction,ComponentPad*%
%ADD12C,3.316000*%
%TD*%
%TA.AperFunction,ComponentPad*%
%ADD13C,1.408000*%
%TD*%
%TA.AperFunction,ComponentPad*%
%ADD14R,1.700000X1.700000*%
%TD*%
%TA.AperFunction,ComponentPad*%
%ADD15O,1.700000X1.700000*%
%TD*%
%TA.AperFunction,ComponentPad*%
%ADD16O,1.650000X3.300000*%
%TD*%
%TA.AperFunction,ComponentPad*%
%ADD17O,1.350000X2.700000*%
%TD*%
%TA.AperFunction,ComponentPad*%
%ADD18O,2.300000X1.800000*%
%TD*%
%TA.AperFunction,ComponentPad*%
%ADD19C,4.000000*%
%TD*%
%TA.AperFunction,ComponentPad*%
%ADD20C,1.600000*%
%TD*%
%TA.AperFunction,ComponentPad*%
%ADD21R,1.600000X1.600000*%
%TD*%
%TA.AperFunction,ViaPad*%
%ADD22C,0.800000*%
%TD*%
%TA.AperFunction,Conductor*%
%ADD23C,0.250000*%
%TD*%
%TA.AperFunction,Conductor*%
%ADD24C,0.800000*%
%TD*%
%TA.AperFunction,Conductor*%
%ADD25C,0.200000*%
%TD*%
%TA.AperFunction,Conductor*%
%ADD26C,0.254000*%
%TD*%
%TA.AperFunction,Conductor*%
%ADD27C,0.100000*%
%TD*%
G04 APERTURE END LIST*
D10*
%TO.P,J11,1*%
%TO.N,GND*%
X92014000Y-24002100D03*
D11*
%TO.P,J11,3*%
%TO.N,Net-(J11-Pad2)*%
X97014000Y-29008100D03*
%TO.P,J11,2*%
X87014000Y-29008100D03*
%TO.P,J11,11*%
%TO.N,Net-(J11-Pad11)*%
X94514000Y-29008100D03*
%TO.P,J11,10*%
%TO.N,Net-(J11-Pad10)*%
X89514000Y-29008100D03*
%TD*%
%TO.P,R23,2*%
%TO.N,K16_JOY_FIRE2*%
%TA.AperFunction,SMDPad,CuDef*%
G36*
G01*
X66497601Y-112368000D02*
X65597599Y-112368000D01*
G75*
G02*
X65347600Y-112118001I0J249999D01*
G01*
X65347600Y-111592999D01*
G75*
G02*
X65597599Y-111343000I249999J0D01*
G01*
X66497601Y-111343000D01*
G75*
G02*
X66747600Y-111592999I0J-249999D01*
G01*
X66747600Y-112118001D01*
G75*
G02*
X66497601Y-112368000I-249999J0D01*
G01*
G37*
%TD.AperFunction*%
%TO.P,R23,1*%
%TO.N,+3.3VP*%
%TA.AperFunction,SMDPad,CuDef*%
G36*
G01*
X66497601Y-114193000D02*
X65597599Y-114193000D01*
G75*
G02*
X65347600Y-113943001I0J249999D01*
G01*
X65347600Y-113417999D01*
G75*
G02*
X65597599Y-113168000I249999J0D01*
G01*
X66497601Y-113168000D01*
G75*
G02*
X66747600Y-113417999I0J-249999D01*
G01*
X66747600Y-113943001D01*
G75*
G02*
X66497601Y-114193000I-249999J0D01*
G01*
G37*
%TD.AperFunction*%
%TD*%
%TO.P,R20,2*%
%TO.N,N16_JOY_RIGHT*%
%TA.AperFunction,SMDPad,CuDef*%
G36*
G01*
X64419901Y-112373000D02*
X63519899Y-112373000D01*
G75*
G02*
X63269900Y-112123001I0J249999D01*
G01*
X63269900Y-111597999D01*
G75*
G02*
X63519899Y-111348000I249999J0D01*
G01*
X64419901Y-111348000D01*
G75*
G02*
X64669900Y-111597999I0J-249999D01*
G01*
X64669900Y-112123001D01*
G75*
G02*
X64419901Y-112373000I-249999J0D01*
G01*
G37*
%TD.AperFunction*%
%TO.P,R20,1*%
%TO.N,+3.3VP*%
%TA.AperFunction,SMDPad,CuDef*%
G36*
G01*
X64419901Y-114198000D02*
X63519899Y-114198000D01*
G75*
G02*
X63269900Y-113948001I0J249999D01*
G01*
X63269900Y-113422999D01*
G75*
G02*
X63519899Y-113173000I249999J0D01*
G01*
X64419901Y-113173000D01*
G75*
G02*
X64669900Y-113422999I0J-249999D01*
G01*
X64669900Y-113948001D01*
G75*
G02*
X64419901Y-114198000I-249999J0D01*
G01*
G37*
%TD.AperFunction*%
%TD*%
%TO.P,R19,2*%
%TO.N,T15_JOY_LEFT*%
%TA.AperFunction,SMDPad,CuDef*%
G36*
G01*
X62347301Y-112381000D02*
X61447299Y-112381000D01*
G75*
G02*
X61197300Y-112131001I0J249999D01*
G01*
X61197300Y-111605999D01*
G75*
G02*
X61447299Y-111356000I249999J0D01*
G01*
X62347301Y-111356000D01*
G75*
G02*
X62597300Y-111605999I0J-249999D01*
G01*
X62597300Y-112131001D01*
G75*
G02*
X62347301Y-112381000I-249999J0D01*
G01*
G37*
%TD.AperFunction*%
%TO.P,R19,1*%
%TO.N,+3.3VP*%
%TA.AperFunction,SMDPad,CuDef*%
G36*
G01*
X62347301Y-114206000D02*
X61447299Y-114206000D01*
G75*
G02*
X61197300Y-113956001I0J249999D01*
G01*
X61197300Y-113430999D01*
G75*
G02*
X61447299Y-113181000I249999J0D01*
G01*
X62347301Y-113181000D01*
G75*
G02*
X62597300Y-113430999I0J-249999D01*
G01*
X62597300Y-113956001D01*
G75*
G02*
X62347301Y-114206000I-249999J0D01*
G01*
G37*
%TD.AperFunction*%
%TD*%
%TO.P,R8,2*%
%TO.N,R1_JOY_DOWN*%
%TA.AperFunction,SMDPad,CuDef*%
G36*
G01*
X60302601Y-112381000D02*
X59402599Y-112381000D01*
G75*
G02*
X59152600Y-112131001I0J249999D01*
G01*
X59152600Y-111605999D01*
G75*
G02*
X59402599Y-111356000I249999J0D01*
G01*
X60302601Y-111356000D01*
G75*
G02*
X60552600Y-111605999I0J-249999D01*
G01*
X60552600Y-112131001D01*
G75*
G02*
X60302601Y-112381000I-249999J0D01*
G01*
G37*
%TD.AperFunction*%
%TO.P,R8,1*%
%TO.N,+3.3VP*%
%TA.AperFunction,SMDPad,CuDef*%
G36*
G01*
X60302601Y-114206000D02*
X59402599Y-114206000D01*
G75*
G02*
X59152600Y-113956001I0J249999D01*
G01*
X59152600Y-113430999D01*
G75*
G02*
X59402599Y-113181000I249999J0D01*
G01*
X60302601Y-113181000D01*
G75*
G02*
X60552600Y-113430999I0J-249999D01*
G01*
X60552600Y-113956001D01*
G75*
G02*
X60302601Y-114206000I-249999J0D01*
G01*
G37*
%TD.AperFunction*%
%TD*%
%TO.P,R7,2*%
%TO.N,K15_JOY_FIRE1*%
%TA.AperFunction,SMDPad,CuDef*%
G36*
G01*
X58255301Y-112386000D02*
X57355299Y-112386000D01*
G75*
G02*
X57105300Y-112136001I0J249999D01*
G01*
X57105300Y-111610999D01*
G75*
G02*
X57355299Y-111361000I249999J0D01*
G01*
X58255301Y-111361000D01*
G75*
G02*
X58505300Y-111610999I0J-249999D01*
G01*
X58505300Y-112136001D01*
G75*
G02*
X58255301Y-112386000I-249999J0D01*
G01*
G37*
%TD.AperFunction*%
%TO.P,R7,1*%
%TO.N,+3.3VP*%
%TA.AperFunction,SMDPad,CuDef*%
G36*
G01*
X58255301Y-114211000D02*
X57355299Y-114211000D01*
G75*
G02*
X57105300Y-113961001I0J249999D01*
G01*
X57105300Y-113435999D01*
G75*
G02*
X57355299Y-113186000I249999J0D01*
G01*
X58255301Y-113186000D01*
G75*
G02*
X58505300Y-113435999I0J-249999D01*
G01*
X58505300Y-113961001D01*
G75*
G02*
X58255301Y-114211000I-249999J0D01*
G01*
G37*
%TD.AperFunction*%
%TD*%
%TO.P,R6,2*%
%TO.N,J14_JOY_UP*%
%TA.AperFunction,SMDPad,CuDef*%
G36*
G01*
X56210601Y-112386000D02*
X55310599Y-112386000D01*
G75*
G02*
X55060600Y-112136001I0J249999D01*
G01*
X55060600Y-111610999D01*
G75*
G02*
X55310599Y-111361000I249999J0D01*
G01*
X56210601Y-111361000D01*
G75*
G02*
X56460600Y-111610999I0J-249999D01*
G01*
X56460600Y-112136001D01*
G75*
G02*
X56210601Y-112386000I-249999J0D01*
G01*
G37*
%TD.AperFunction*%
%TO.P,R6,1*%
%TO.N,+3.3VP*%
%TA.AperFunction,SMDPad,CuDef*%
G36*
G01*
X56210601Y-114211000D02*
X55310599Y-114211000D01*
G75*
G02*
X55060600Y-113961001I0J249999D01*
G01*
X55060600Y-113435999D01*
G75*
G02*
X55310599Y-113186000I249999J0D01*
G01*
X56210601Y-113186000D01*
G75*
G02*
X56460600Y-113435999I0J-249999D01*
G01*
X56460600Y-113961001D01*
G75*
G02*
X56210601Y-114211000I-249999J0D01*
G01*
G37*
%TD.AperFunction*%
%TD*%
D12*
%TO.P,J10,Z5*%
%TO.N,N/C*%
X43319300Y-113954000D03*
%TO.P,J10,Z4*%
X36469300Y-114754000D03*
%TO.P,J10,Z3*%
X29619300Y-113954000D03*
%TO.P,J10,Z2*%
X43319300Y-104054000D03*
%TO.P,J10,Z1*%
X29619300Y-104054000D03*
D13*
%TO.P,J10,3*%
%TO.N,GND*%
X39869300Y-111104000D03*
%TO.P,J10,1*%
%TO.N,Net-(D4-Pad3)*%
X37769300Y-111104000D03*
%TO.P,J10,2*%
%TO.N,Net-(J10-Pad2)*%
X35169300Y-111104000D03*
%TO.P,J10,4*%
%TO.N,+5V*%
X33069300Y-111104000D03*
%TO.P,J10,5*%
%TO.N,Net-(D2-Pad3)*%
X39869300Y-108654000D03*
%TO.P,J10,6*%
%TO.N,Net-(J10-Pad6)*%
X33069300Y-108654000D03*
%TO.P,J10,11*%
%TO.N,Net-(D3-Pad3)*%
X39869300Y-101604000D03*
%TO.P,J10,12*%
%TO.N,Net-(J10-Pad12)*%
X33069300Y-101604000D03*
%TO.P,J10,10*%
%TO.N,+5V*%
X33069300Y-104054000D03*
%TO.P,J10,9*%
%TO.N,GND*%
X39869300Y-104054000D03*
%TO.P,J10,8*%
%TO.N,Net-(J10-Pad8)*%
X35169300Y-104054000D03*
%TO.P,J10,7*%
%TO.N,Net-(D1-Pad3)*%
X37769300Y-104054000D03*
%TD*%
D14*
%TO.P,J13,1*%
%TO.N,Net-(J13-Pad1)*%
X86441300Y-43568600D03*
D15*
%TO.P,J13,2*%
%TO.N,+5V*%
X83901300Y-43568600D03*
%TO.P,J13,3*%
%TO.N,Net-(J13-Pad3)*%
X86441300Y-46108600D03*
%TO.P,J13,4*%
%TO.N,+5V*%
X83901300Y-46108600D03*
%TO.P,J13,5*%
%TO.N,Net-(J13-Pad5)*%
X86441300Y-48648600D03*
%TO.P,J13,6*%
%TO.N,GND*%
X83901300Y-48648600D03*
%TO.P,J13,7*%
%TO.N,TMS*%
X86441300Y-51188600D03*
%TO.P,J13,8*%
%TO.N,D16_PI_RX*%
X83901300Y-51188600D03*
%TO.P,J13,9*%
%TO.N,GND*%
X86441300Y-53728600D03*
%TO.P,J13,10*%
%TO.N,D15_PI_TX*%
X83901300Y-53728600D03*
%TO.P,J13,11*%
%TO.N,TCK*%
X86441300Y-56268600D03*
%TO.P,J13,12*%
%TO.N,Net-(J13-Pad12)*%
X83901300Y-56268600D03*
%TO.P,J13,13*%
%TO.N,TDO*%
X86441300Y-58808600D03*
%TO.P,J13,14*%
%TO.N,GND*%
X83901300Y-58808600D03*
%TO.P,J13,15*%
%TO.N,TDI*%
X86441300Y-61348600D03*
%TO.P,J13,16*%
%TO.N,Net-(J13-Pad16)*%
X83901300Y-61348600D03*
%TO.P,J13,17*%
%TO.N,Net-(J13-Pad17)*%
X86441300Y-63888600D03*
%TO.P,J13,18*%
%TO.N,Net-(J13-Pad18)*%
X83901300Y-63888600D03*
%TO.P,J13,19*%
%TO.N,F16_PI_MOSI*%
X86441300Y-66428600D03*
%TO.P,J13,20*%
%TO.N,GND*%
X83901300Y-66428600D03*
%TO.P,J13,21*%
%TO.N,F15_PI_MISO*%
X86441300Y-68968600D03*
%TO.P,J13,22*%
%TO.N,Net-(J13-Pad22)*%
X83901300Y-68968600D03*
%TO.P,J13,23*%
%TO.N,F13_PI_CLK*%
X86441300Y-71508600D03*
%TO.P,J13,24*%
%TO.N,C15_PI_CS*%
X83901300Y-71508600D03*
%TO.P,J13,25*%
%TO.N,GND*%
X86441300Y-74048600D03*
%TO.P,J13,26*%
%TO.N,Net-(J13-Pad26)*%
X83901300Y-74048600D03*
%TO.P,J13,27*%
%TO.N,Net-(J13-Pad27)*%
X86441300Y-76588600D03*
%TO.P,J13,28*%
%TO.N,Net-(J13-Pad28)*%
X83901300Y-76588600D03*
%TO.P,J13,29*%
%TO.N,Net-(J13-Pad29)*%
X86441300Y-79128600D03*
%TO.P,J13,30*%
%TO.N,GND*%
X83901300Y-79128600D03*
%TO.P,J13,31*%
%TO.N,Net-(J13-Pad31)*%
X86441300Y-81668600D03*
%TO.P,J13,32*%
%TO.N,Net-(J13-Pad32)*%
X83901300Y-81668600D03*
%TO.P,J13,33*%
%TO.N,Net-(J13-Pad33)*%
X86441300Y-84208600D03*
%TO.P,J13,34*%
%TO.N,GND*%
X83901300Y-84208600D03*
%TO.P,J13,35*%
%TO.N,Net-(J13-Pad35)*%
X86441300Y-86748600D03*
%TO.P,J13,36*%
%TO.N,Net-(J13-Pad36)*%
X83901300Y-86748600D03*
%TO.P,J13,37*%
%TO.N,Net-(J13-Pad37)*%
X86441300Y-89288600D03*
%TO.P,J13,38*%
%TO.N,Net-(J13-Pad38)*%
X83901300Y-89288600D03*
%TO.P,J13,39*%
%TO.N,GND*%
X86441300Y-91828600D03*
%TO.P,J13,40*%
%TO.N,Net-(J13-Pad40)*%
X83901300Y-91828600D03*
%TD*%
D10*
%TO.P,J12,1*%
%TO.N,GND*%
X33495000Y-23936100D03*
D11*
%TO.P,J12,3*%
%TO.N,Net-(C19-Pad2)*%
X38495000Y-28942100D03*
%TO.P,J12,2*%
%TO.N,Net-(C18-Pad2)*%
X28495000Y-28942100D03*
%TO.P,J12,11*%
%TO.N,Net-(J12-Pad11)*%
X35995000Y-28942100D03*
%TO.P,J12,10*%
%TO.N,Net-(J12-Pad10)*%
X30995000Y-28942100D03*
%TD*%
D16*
%TO.P,J8,SH*%
%TO.N,GND*%
X67781600Y-28999900D03*
X82281600Y-28999900D03*
D17*
X82281600Y-23039900D03*
X67781600Y-23039900D03*
%TD*%
D18*
%TO.P,SW1,1*%
%TO.N,IN_5V*%
X36449000Y-50765400D03*
%TO.P,SW1,2*%
%TO.N,+5V*%
X36449000Y-46065400D03*
%TO.P,SW1,3*%
%TO.N,Net-(SW1-Pad3)*%
X36449000Y-41365400D03*
%TD*%
D19*
%TO.P,J6,0*%
%TO.N,N/C*%
X74389900Y-107938000D03*
X49389900Y-107938000D03*
D20*
%TO.P,J6,9*%
%TO.N,K16_JOY_FIRE2*%
X66044900Y-109358000D03*
%TO.P,J6,8*%
%TO.N,GND*%
X63274900Y-109358000D03*
%TO.P,J6,7*%
%TO.N,Net-(J6-Pad7)*%
X60504900Y-109358000D03*
%TO.P,J6,6*%
%TO.N,K15_JOY_FIRE1*%
X57734900Y-109358000D03*
%TO.P,J6,5*%
%TO.N,+5V*%
X67429900Y-106518000D03*
%TO.P,J6,4*%
%TO.N,N16_JOY_RIGHT*%
X64659900Y-106518000D03*
%TO.P,J6,3*%
%TO.N,T15_JOY_LEFT*%
X61889900Y-106518000D03*
%TO.P,J6,2*%
%TO.N,R1_JOY_DOWN*%
X59119900Y-106518000D03*
D21*
%TO.P,J6,1*%
%TO.N,J14_JOY_UP*%
X56349900Y-106518000D03*
%TD*%
D14*
%TO.P,J5,1*%
%TO.N,F13_PI_CLK*%
X59551700Y-78963500D03*
D15*
%TO.P,J5,7*%
%TO.N,D15_PI_TX*%
X59551700Y-81503500D03*
%TO.P,J5,2*%
%TO.N,F15_PI_MISO*%
X57011700Y-78963500D03*
%TO.P,J5,8*%
%TO.N,C15_PI_CS*%
X57011700Y-81503500D03*
%TO.P,J5,3*%
%TO.N,F16_PI_MOSI*%
X54471700Y-78963500D03*
%TO.P,J5,9*%
%TO.N,B16_MDAT*%
X54471700Y-81503500D03*
%TO.P,J5,4*%
%TO.N,D16_PI_RX*%
X51931700Y-78963500D03*
%TO.P,J5,10*%
%TO.N,C16_MCLK*%
X51931700Y-81503500D03*
%TO.P,J5,5*%
%TO.N,GND*%
X49391700Y-78963500D03*
%TO.P,J5,11*%
X49391700Y-81503500D03*
%TO.P,J5,6*%
%TO.N,+3.3V*%
X46851700Y-78963500D03*
%TO.P,J5,12*%
X46851700Y-81503500D03*
%TD*%
%TO.P,J4,14*%
%TO.N,TMDS_2_P*%
X63490000Y-76398100D03*
%TO.P,J4,13*%
%TO.N,TMDS_2_N*%
X63490000Y-73858100D03*
%TO.P,J4,12*%
%TO.N,TMDS_0_P*%
X63490000Y-71318100D03*
%TO.P,J4,11*%
%TO.N,TMDS_1_N*%
X63490000Y-68778100D03*
%TO.P,J4,10*%
%TO.N,TMDS_1_P*%
X63490000Y-66238100D03*
%TO.P,J4,9*%
%TO.N,K2_KDAT*%
X63490000Y-63698100D03*
%TO.P,J4,8*%
%TO.N,L2_KCLK*%
X63490000Y-61158100D03*
%TO.P,J4,7*%
%TO.N,TMDS_0_N*%
X63490000Y-58618100D03*
%TO.P,J4,6*%
%TO.N,R1_JOY_DOWN*%
X63490000Y-56078100D03*
%TO.P,J4,5*%
%TO.N,RESET*%
X63490000Y-53538100D03*
%TO.P,J4,4*%
%TO.N,GND*%
X63490000Y-50998100D03*
%TO.P,J4,3*%
%TO.N,+3.3V*%
X63490000Y-48458100D03*
%TO.P,J4,2*%
%TO.N,VIN*%
X63490000Y-45918100D03*
D14*
%TO.P,J4,1*%
%TO.N,+5V*%
X63490000Y-43378100D03*
%TD*%
D15*
%TO.P,J3,6*%
%TO.N,TMS*%
X60950000Y-56078100D03*
%TO.P,J3,5*%
%TO.N,TDI*%
X60950000Y-53538100D03*
%TO.P,J3,4*%
%TO.N,TDO*%
X60950000Y-50998100D03*
%TO.P,J3,3*%
%TO.N,TCK*%
X60950000Y-48458100D03*
%TO.P,J3,2*%
%TO.N,Net-(J3-Pad2)*%
X60950000Y-45918100D03*
D14*
%TO.P,J3,1*%
%TO.N,GND*%
X60950000Y-43378100D03*
%TD*%
D15*
%TO.P,J2,3*%
%TO.N,R11_RIGHT*%
X45539700Y-48458100D03*
%TO.P,J2,2*%
%TO.N,GND*%
X45539700Y-45918100D03*
D14*
%TO.P,J2,1*%
%TO.N,T12_LEFT*%
X45539700Y-43378100D03*
%TD*%
D15*
%TO.P,J1,14*%
%TO.N,J14_JOY_UP*%
X42999700Y-76388000D03*
%TO.P,J1,13*%
%TO.N,K16_JOY_FIRE2*%
X42999700Y-73848000D03*
%TO.P,J1,12*%
%TO.N,K15_JOY_FIRE1*%
X42999700Y-71308000D03*
%TO.P,J1,11*%
%TO.N,TMDSC_N*%
X42999700Y-68768000D03*
%TO.P,J1,10*%
%TO.N,TMDSC_P*%
X42999700Y-66228000D03*
%TO.P,J1,9*%
%TO.N,N16_JOY_RIGHT*%
X42999700Y-63688000D03*
%TO.P,J1,8*%
%TO.N,T15_JOY_LEFT*%
X42999700Y-61148000D03*
%TO.P,J1,7*%
%TO.N,R14_SD_DATA2*%
X42999700Y-58608000D03*
%TO.P,J1,6*%
%TO.N,P14_SD_DATA1*%
X42999700Y-56068000D03*
%TO.P,J1,5*%
%TO.N,T14_SD_MOSI*%
X42999700Y-53528000D03*
%TO.P,J1,4*%
%TO.N,R13_SD_MISO*%
X42999700Y-50988000D03*
%TO.P,J1,3*%
%TO.N,T13_SD_CLK*%
X42999700Y-48448000D03*
%TO.P,J1,2*%
%TO.N,R12_SD_CS*%
X42999700Y-45908000D03*
D14*
%TO.P,J1,1*%
%TO.N,EAR*%
X42999700Y-43368000D03*
%TD*%
D22*
%TO.N,GND*%
X72444700Y-32312500D03*
%TO.N,+3.3V*%
X59716100Y-75704900D03*
X79433500Y-61091000D03*
%TO.N,+3.3VP*%
X48409900Y-39144800D03*
X32430400Y-59848500D03*
X86487100Y-32871200D03*
%TO.N,TMDSC_N*%
X68736700Y-73012300D03*
%TO.N,TMDSC_P*%
X67686700Y-73012300D03*
%TO.N,N16_JOY_RIGHT*%
X63982800Y-101261000D03*
%TO.N,P14_SD_DATA1*%
X57561300Y-35241900D03*
%TO.N,R13_SD_MISO*%
X55780000Y-34607000D03*
%TO.N,TMDS_0_P*%
X72840000Y-64767900D03*
%TO.N,TMDS_1_N*%
X67617300Y-68002600D03*
%TO.N,TMDS_1_P*%
X67617300Y-66952600D03*
%TO.N,TMDS_0_N*%
X72097500Y-64025400D03*
%TO.N,Net-(J8-Pad9)*%
X74005100Y-33628800D03*
X74564400Y-27855900D03*
%TO.N,Net-(D1-Pad3)*%
X37300300Y-93646700D03*
%TO.N,Net-(D3-Pad3)*%
X38331500Y-93111800D03*
%TO.N,Net-(D4-Pad3)*%
X40008100Y-92679400D03*
%TO.N,K2_KDAT*%
X40848000Y-86764800D03*
%TO.N,L2_KCLK*%
X38231600Y-80655500D03*
%TO.N,B16_MDAT*%
X43403500Y-90130500D03*
%TO.N,C16_MCLK*%
X39759300Y-87539400D03*
%TD*%
D23*
%TO.N,GND*%
X72444700Y-32312500D02*
X69132100Y-28999900D01*
X69132100Y-28999900D02*
X67781600Y-28999900D01*
X83901300Y-84208600D02*
X83901300Y-83033300D01*
X83901300Y-83033300D02*
X84268600Y-83033300D01*
X84268600Y-83033300D02*
X85076600Y-82225300D01*
X85076600Y-82225300D02*
X85076600Y-81111800D01*
X85076600Y-81111800D02*
X84268700Y-80303900D01*
X84268700Y-80303900D02*
X83901300Y-80303900D01*
X83901300Y-80303900D02*
X83901300Y-79128600D01*
X86441300Y-74048600D02*
X86441300Y-75223900D01*
X86441300Y-75223900D02*
X86073900Y-75223900D01*
X86073900Y-75223900D02*
X85076600Y-76221200D01*
X85076600Y-76221200D02*
X85076600Y-77145400D01*
X85076600Y-77145400D02*
X84268700Y-77953300D01*
X84268700Y-77953300D02*
X83901300Y-77953300D01*
X83901300Y-77953300D02*
X83901300Y-79128600D01*
X92014000Y-24002100D02*
X89938700Y-24002100D01*
X89938700Y-24002100D02*
X88894800Y-22958200D01*
X88894800Y-22958200D02*
X82363300Y-22958200D01*
X82363300Y-22958200D02*
X82281600Y-23039900D01*
%TO.N,TMS*%
X60950000Y-56078100D02*
X60950000Y-54902800D01*
X60950000Y-54902800D02*
X60582700Y-54902800D01*
X60582700Y-54902800D02*
X59754800Y-54074900D01*
X59754800Y-54074900D02*
X59754800Y-47930500D01*
X59754800Y-47930500D02*
X60427100Y-47258200D01*
X60427100Y-47258200D02*
X61274100Y-47258200D01*
X61274100Y-47258200D02*
X62220000Y-46312300D01*
X62220000Y-46312300D02*
X62220000Y-45523300D01*
X62220000Y-45523300D02*
X63008000Y-44735300D01*
X63008000Y-44735300D02*
X76537100Y-44735300D01*
X76537100Y-44735300D02*
X81815100Y-50013300D01*
X81815100Y-50013300D02*
X84458100Y-50013300D01*
X84458100Y-50013300D02*
X85266000Y-50821200D01*
X85266000Y-50821200D02*
X85266000Y-51188600D01*
X85266000Y-51188600D02*
X86441300Y-51188600D01*
%TO.N,TDI*%
X60950000Y-53538100D02*
X62125300Y-53538100D01*
X62125300Y-53538100D02*
X62125300Y-53905500D01*
X62125300Y-53905500D02*
X62933200Y-54713400D01*
X62933200Y-54713400D02*
X64570700Y-54713400D01*
X64570700Y-54713400D02*
X72381200Y-62523900D01*
X72381200Y-62523900D02*
X84458100Y-62523900D01*
X84458100Y-62523900D02*
X85266000Y-61716000D01*
X85266000Y-61716000D02*
X85266000Y-61348600D01*
X85266000Y-61348600D02*
X86441300Y-61348600D01*
%TO.N,TDO*%
X60950000Y-50998100D02*
X62125300Y-50998100D01*
X62125300Y-50998100D02*
X62125300Y-51365500D01*
X62125300Y-51365500D02*
X62933200Y-52173400D01*
X62933200Y-52173400D02*
X64570700Y-52173400D01*
X64570700Y-52173400D02*
X74213700Y-61816400D01*
X74213700Y-61816400D02*
X81533300Y-61816400D01*
X81533300Y-61816400D02*
X83365800Y-59983900D01*
X83365800Y-59983900D02*
X84458100Y-59983900D01*
X84458100Y-59983900D02*
X85266000Y-59176000D01*
X85266000Y-59176000D02*
X85266000Y-58808600D01*
X85266000Y-58808600D02*
X86441300Y-58808600D01*
%TO.N,TCK*%
X60950000Y-48458100D02*
X62125300Y-48458100D01*
X62125300Y-48458100D02*
X62125300Y-48090800D01*
X62125300Y-48090800D02*
X62950800Y-47265300D01*
X62950800Y-47265300D02*
X73778900Y-47265300D01*
X73778900Y-47265300D02*
X81606900Y-55093300D01*
X81606900Y-55093300D02*
X84458100Y-55093300D01*
X84458100Y-55093300D02*
X85266000Y-55901200D01*
X85266000Y-55901200D02*
X85266000Y-56268600D01*
X85266000Y-56268600D02*
X86441300Y-56268600D01*
D24*
%TO.N,+3.3V*%
X46851700Y-78963500D02*
X50110300Y-75704900D01*
X50110300Y-75704900D02*
X59716100Y-75704900D01*
X63490000Y-48458100D02*
X64940300Y-48458100D01*
X64940300Y-48458100D02*
X77573200Y-61091000D01*
X77573200Y-61091000D02*
X79433500Y-61091000D01*
%TO.N,+5V*%
X36449000Y-46065400D02*
X36449000Y-44565100D01*
X36449000Y-44565100D02*
X47407400Y-33606700D01*
X47407400Y-33606700D02*
X57342200Y-33606700D01*
X57342200Y-33606700D02*
X63490000Y-39754500D01*
X63490000Y-39754500D02*
X63490000Y-43378100D01*
X35369300Y-106354000D02*
X35369300Y-108804000D01*
X35369300Y-108804000D02*
X33069300Y-111104000D01*
X83901300Y-43568600D02*
X82451000Y-43568600D01*
X82451000Y-43568600D02*
X82260500Y-43378100D01*
X82260500Y-43378100D02*
X63490000Y-43378100D01*
X33069300Y-104054000D02*
X35369300Y-106354000D01*
X35369300Y-106354000D02*
X44416700Y-106354000D01*
X44416700Y-106354000D02*
X45708600Y-105062000D01*
X45708600Y-105062000D02*
X65974000Y-105062000D01*
X65974000Y-105062000D02*
X67429900Y-106518000D01*
%TO.N,+3.3VP*%
X66047400Y-113680300D02*
X66047600Y-113680000D01*
X66046400Y-113681500D02*
X66047400Y-113680300D01*
X66047400Y-113680300D02*
X66047600Y-113680000D01*
X66046400Y-113681500D02*
X66047400Y-113680300D01*
X66047600Y-113680500D02*
X66047400Y-113680300D01*
X63969900Y-113686000D02*
X66042600Y-113686000D01*
X66042600Y-113686000D02*
X66045100Y-113683000D01*
X61897300Y-113694000D02*
X63961900Y-113694000D01*
X63961900Y-113694000D02*
X63969900Y-113686000D01*
X63969900Y-113685500D02*
X63969900Y-113686000D01*
X59852600Y-113694000D02*
X61897300Y-113694000D01*
X61897300Y-113693500D02*
X61897300Y-113694000D01*
X57805300Y-113698000D02*
X59847600Y-113698000D01*
X59847600Y-113698000D02*
X59852600Y-113694000D01*
X59852600Y-113693500D02*
X59852600Y-113694000D01*
X55760600Y-113698000D02*
X57805300Y-113698000D01*
X57805300Y-113698500D02*
X57805300Y-113698000D01*
X55760600Y-113698500D02*
X55760600Y-113698000D01*
X66045100Y-113683000D02*
X66046400Y-113681500D01*
X66045100Y-113683000D02*
X66046400Y-113681500D01*
X66047600Y-113680000D02*
X66187900Y-113680000D01*
X66187900Y-113680000D02*
X68865300Y-111003000D01*
X68865300Y-111003000D02*
X68865300Y-105946000D01*
X68865300Y-105946000D02*
X65527200Y-102608000D01*
X65527200Y-102608000D02*
X52662200Y-102608000D01*
X52662200Y-102608000D02*
X34533600Y-84479800D01*
X34533600Y-84479800D02*
X34533600Y-61951700D01*
X34533600Y-61951700D02*
X32430400Y-59848500D01*
X32430400Y-59848500D02*
X40532200Y-51746700D01*
X40532200Y-51746700D02*
X40532200Y-48415400D01*
X40532200Y-48415400D02*
X40532200Y-43227300D01*
X40532200Y-43227300D02*
X44614700Y-39144800D01*
X44614700Y-39144800D02*
X48409900Y-39144800D01*
X40532200Y-48415400D02*
X36381300Y-48415400D01*
X36381300Y-48415400D02*
X34661200Y-46695300D01*
X34661200Y-46695300D02*
X34661200Y-40753500D01*
X34661200Y-40753500D02*
X42844500Y-32570200D01*
X42844500Y-32570200D02*
X70343100Y-32570200D01*
X70343100Y-32570200D02*
X72402100Y-34629200D01*
X72402100Y-34629200D02*
X84729100Y-34629200D01*
X84729100Y-34629200D02*
X86487100Y-32871200D01*
D23*
%TO.N,J14_JOY_UP*%
X55760600Y-111873500D02*
X55760600Y-111874000D01*
X56349900Y-106518000D02*
X56349900Y-107643000D01*
X56349900Y-107643000D02*
X55760600Y-108233000D01*
X55760600Y-108233000D02*
X55760600Y-111873500D01*
%TO.N,K16_JOY_FIRE2*%
X66047600Y-111855500D02*
X66047600Y-111856000D01*
X66044900Y-109358000D02*
X66047600Y-109361000D01*
X66047600Y-109361000D02*
X66047600Y-111855500D01*
%TO.N,K15_JOY_FIRE1*%
X57805300Y-111873500D02*
X57805300Y-111874000D01*
X57734900Y-109358000D02*
X57805300Y-109428000D01*
X57805300Y-109428000D02*
X57805300Y-111873500D01*
D25*
%TO.N,TMDSC_N*%
X42999700Y-68768000D02*
X43871000Y-67896700D01*
X43871000Y-67896700D02*
X45289300Y-67896700D01*
X45289300Y-67896700D02*
X45295800Y-67903300D01*
X45295800Y-67903300D02*
X45939200Y-67903300D01*
X45939200Y-67903300D02*
X52154600Y-74118700D01*
X52154600Y-74118700D02*
X62340000Y-74118700D01*
X62340000Y-74118700D02*
X62340000Y-74410100D01*
X62340000Y-74410100D02*
X62938000Y-75008100D01*
X62938000Y-75008100D02*
X64042000Y-75008100D01*
X64042000Y-75008100D02*
X64931400Y-74118700D01*
X64931400Y-74118700D02*
X67630300Y-74118700D01*
X67630300Y-74118700D02*
X68736700Y-73012300D01*
%TO.N,TMDSC_P*%
X42999700Y-66228000D02*
X44225000Y-67453300D01*
X44225000Y-67453300D02*
X46125600Y-67453300D01*
X46125600Y-67453300D02*
X52341000Y-73668700D01*
X52341000Y-73668700D02*
X62340000Y-73668700D01*
X62340000Y-73668700D02*
X62340000Y-73306100D01*
X62340000Y-73306100D02*
X62938000Y-72708100D01*
X62938000Y-72708100D02*
X64042000Y-72708100D01*
X64042000Y-72708100D02*
X65002600Y-73668700D01*
X65002600Y-73668700D02*
X67443900Y-73668700D01*
X67443900Y-73668700D02*
X67686700Y-73425900D01*
X67686700Y-73425900D02*
X67686700Y-73012300D01*
D23*
%TO.N,N16_JOY_RIGHT*%
X63969900Y-111860000D02*
X63969900Y-111860500D01*
X64659900Y-106518000D02*
X64659900Y-111170000D01*
X64659900Y-111170000D02*
X63969900Y-111860000D01*
X42999700Y-63688000D02*
X39033900Y-67653800D01*
X39033900Y-67653800D02*
X39033900Y-87863300D01*
X39033900Y-87863300D02*
X52432000Y-101261000D01*
X52432000Y-101261000D02*
X63982800Y-101261000D01*
%TO.N,T15_JOY_LEFT*%
X61897300Y-111868500D02*
X61893600Y-111864800D01*
X61893600Y-111864800D02*
X61893600Y-111864000D01*
X61889900Y-106518000D02*
X61889900Y-111861000D01*
X61889900Y-111861000D02*
X61893600Y-111864000D01*
%TO.N,P14_SD_DATA1*%
X42999700Y-56068000D02*
X42999700Y-54892700D01*
X42999700Y-54892700D02*
X43367000Y-54892700D01*
X43367000Y-54892700D02*
X50589500Y-47670200D01*
X50589500Y-47670200D02*
X50589500Y-42213700D01*
X50589500Y-42213700D02*
X57561300Y-35241900D01*
%TO.N,R13_SD_MISO*%
X42999700Y-50988000D02*
X44717400Y-50988000D01*
X44717400Y-50988000D02*
X49938400Y-45767000D01*
X49938400Y-45767000D02*
X49938400Y-40448600D01*
X49938400Y-40448600D02*
X55780000Y-34607000D01*
D25*
%TO.N,TMDS_0_P*%
X63490000Y-71318100D02*
X65865500Y-71318100D01*
X65865500Y-71318100D02*
X72415700Y-64767900D01*
X72415700Y-64767900D02*
X72840000Y-64767900D01*
%TO.N,TMDS_1_N*%
X63490000Y-68760100D02*
X63490000Y-68778100D01*
X67617300Y-68002600D02*
X67317300Y-67702600D01*
X67317300Y-67702600D02*
X64547500Y-67702600D01*
X64547500Y-67702600D02*
X63490000Y-68760100D01*
X63490000Y-68760100D02*
X63477100Y-68773000D01*
%TO.N,TMDS_1_P*%
X67617300Y-66952600D02*
X67317300Y-67252600D01*
X67317300Y-67252600D02*
X64539900Y-67252600D01*
X64539900Y-67252600D02*
X63525400Y-66238100D01*
X63525400Y-66238100D02*
X63490000Y-66238100D01*
%TO.N,TMDS_0_N*%
X64046800Y-59172600D02*
X63494900Y-58620700D01*
X72097500Y-64025400D02*
X72097500Y-64449700D01*
X72097500Y-64449700D02*
X71839600Y-64707600D01*
X71839600Y-64707600D02*
X69581800Y-64707600D01*
X69581800Y-64707600D02*
X64046800Y-59172600D01*
X64046800Y-59172600D02*
X64044500Y-59172600D01*
X64044500Y-59172600D02*
X63490000Y-58618100D01*
D23*
%TO.N,R1_JOY_DOWN*%
X59852600Y-111868500D02*
X59852600Y-111868000D01*
X59119900Y-106518000D02*
X59119900Y-111136000D01*
X59119900Y-111136000D02*
X59852600Y-111868000D01*
%TO.N,Net-(J8-Pad9)*%
X74005100Y-33628800D02*
X74564400Y-33069500D01*
X74564400Y-33069500D02*
X74564400Y-27855900D01*
%TO.N,Net-(D1-Pad3)*%
X37769300Y-104054000D02*
X37769300Y-94115700D01*
X37769300Y-94115700D02*
X37300300Y-93646700D01*
%TO.N,Net-(D3-Pad3)*%
X39869300Y-101604000D02*
X38331600Y-100066000D01*
X38331600Y-100066000D02*
X38331600Y-93111800D01*
X38331600Y-93111800D02*
X38331500Y-93111800D01*
%TO.N,Net-(D4-Pad3)*%
X37769300Y-111104000D02*
X36692700Y-112181000D01*
X36692700Y-112181000D02*
X32631800Y-112181000D01*
X32631800Y-112181000D02*
X32031100Y-111580000D01*
X32031100Y-111580000D02*
X32031100Y-97885000D01*
X32031100Y-97885000D02*
X37579600Y-92336500D01*
X37579600Y-92336500D02*
X39665200Y-92336500D01*
X39665200Y-92336500D02*
X40008100Y-92679400D01*
%TO.N,K2_KDAT*%
X63490000Y-63698100D02*
X62314700Y-63698100D01*
X62314700Y-63698100D02*
X61139400Y-64873400D01*
X61139400Y-64873400D02*
X42666800Y-64873400D01*
X42666800Y-64873400D02*
X40848000Y-66692200D01*
X40848000Y-66692200D02*
X40848000Y-86764800D01*
%TO.N,L2_KCLK*%
X63490000Y-61158100D02*
X62314700Y-61158100D01*
X62314700Y-61158100D02*
X61139400Y-62333400D01*
X61139400Y-62333400D02*
X42665000Y-62333400D01*
X42665000Y-62333400D02*
X38231600Y-66766800D01*
X38231600Y-66766800D02*
X38231600Y-80655500D01*
%TO.N,B16_MDAT*%
X54471700Y-81503500D02*
X53296400Y-81503500D01*
X53296400Y-81503500D02*
X53296400Y-81870800D01*
X53296400Y-81870800D02*
X45036700Y-90130500D01*
X45036700Y-90130500D02*
X43403500Y-90130500D01*
%TO.N,C16_MCLK*%
X51931700Y-81503500D02*
X50756400Y-81503500D01*
X50756400Y-81503500D02*
X50756400Y-81870800D01*
X50756400Y-81870800D02*
X45087800Y-87539400D01*
X45087800Y-87539400D02*
X39759300Y-87539400D01*
%TO.N,F13_PI_CLK*%
X86441300Y-71508600D02*
X85266000Y-71508600D01*
X85266000Y-71508600D02*
X85266000Y-71141200D01*
X85266000Y-71141200D02*
X84458100Y-70333300D01*
X84458100Y-70333300D02*
X81984700Y-70333300D01*
X81984700Y-70333300D02*
X73354500Y-78963500D01*
X73354500Y-78963500D02*
X59551700Y-78963500D01*
%TO.N,F15_PI_MISO*%
X57011700Y-78963500D02*
X58187000Y-78963500D01*
X58187000Y-78963500D02*
X58187000Y-78155400D01*
X58187000Y-78155400D02*
X58554200Y-77788200D01*
X58554200Y-77788200D02*
X60536500Y-77788200D01*
X60536500Y-77788200D02*
X60819700Y-78071400D01*
X60819700Y-78071400D02*
X70758200Y-78071400D01*
X70758200Y-78071400D02*
X81036300Y-67793300D01*
X81036300Y-67793300D02*
X84458100Y-67793300D01*
X84458100Y-67793300D02*
X85266000Y-68601200D01*
X85266000Y-68601200D02*
X85266000Y-68968600D01*
X85266000Y-68968600D02*
X86441300Y-68968600D01*
%TO.N,C15_PI_CS*%
X57011700Y-81503500D02*
X58187000Y-81503500D01*
X58187000Y-81503500D02*
X58187000Y-81136100D01*
X58187000Y-81136100D02*
X58994900Y-80328200D01*
X58994900Y-80328200D02*
X73906400Y-80328200D01*
X73906400Y-80328200D02*
X82726000Y-71508600D01*
X82726000Y-71508600D02*
X83901300Y-71508600D01*
%TO.N,F16_PI_MOSI*%
X54471700Y-78963500D02*
X54471700Y-80138800D01*
X54471700Y-80138800D02*
X54839100Y-80138800D01*
X54839100Y-80138800D02*
X55647000Y-80946700D01*
X55647000Y-80946700D02*
X55647000Y-81806900D01*
X55647000Y-81806900D02*
X56528500Y-82688400D01*
X56528500Y-82688400D02*
X72665900Y-82688400D01*
X72665900Y-82688400D02*
X82575700Y-72778600D01*
X82575700Y-72778600D02*
X86841700Y-72778600D01*
X86841700Y-72778600D02*
X87616600Y-72003700D01*
X87616600Y-72003700D02*
X87616600Y-68411800D01*
X87616600Y-68411800D02*
X86808700Y-67603900D01*
X86808700Y-67603900D02*
X86441300Y-67603900D01*
X86441300Y-67603900D02*
X86441300Y-66428600D01*
%TO.N,D16_PI_RX*%
X51931700Y-78963500D02*
X53107000Y-78963500D01*
X53107000Y-78963500D02*
X53107000Y-78596200D01*
X53107000Y-78596200D02*
X54365300Y-77337900D01*
X54365300Y-77337900D02*
X60723100Y-77337900D01*
X60723100Y-77337900D02*
X61004500Y-77619300D01*
X61004500Y-77619300D02*
X67139700Y-77619300D01*
X67139700Y-77619300D02*
X79531700Y-65227300D01*
X79531700Y-65227300D02*
X86779600Y-65227300D01*
X86779600Y-65227300D02*
X87624200Y-64382700D01*
X87624200Y-64382700D02*
X87624200Y-53235900D01*
X87624200Y-53235900D02*
X86846900Y-52458600D01*
X86846900Y-52458600D02*
X85171300Y-52458600D01*
X85171300Y-52458600D02*
X83901300Y-51188600D01*
%TO.N,Net-(J11-Pad2)*%
X87014000Y-29008100D02*
X87014000Y-28928100D01*
X87014000Y-28928100D02*
X89037700Y-26904400D01*
X89037700Y-26904400D02*
X95016400Y-26904400D01*
X95016400Y-26904400D02*
X97014000Y-28902000D01*
X97014000Y-28902000D02*
X97014000Y-29008100D01*
%TD*%
D26*
%TO.N,GND*%
X28134764Y-20209560D02*
X27910008Y-20302657D01*
X27707733Y-20437813D01*
X27535713Y-20609833D01*
X27400557Y-20812108D01*
X27307460Y-21036864D01*
X27260000Y-21275463D01*
X27260000Y-21518737D01*
X27307460Y-21757336D01*
X27400557Y-21982092D01*
X27535713Y-22184367D01*
X27707733Y-22356387D01*
X27910008Y-22491543D01*
X28134764Y-22584640D01*
X28373363Y-22632100D01*
X28616637Y-22632100D01*
X28855236Y-22584640D01*
X29079992Y-22491543D01*
X29282267Y-22356387D01*
X29454287Y-22184367D01*
X29589443Y-21982092D01*
X29682540Y-21757336D01*
X29730000Y-21518737D01*
X29730000Y-21275463D01*
X29682540Y-21036864D01*
X29589443Y-20812108D01*
X29454287Y-20609833D01*
X29282267Y-20437813D01*
X29079992Y-20302657D01*
X28855236Y-20209560D01*
X28778719Y-20194340D01*
X38211281Y-20194340D01*
X38134764Y-20209560D01*
X37910008Y-20302657D01*
X37707733Y-20437813D01*
X37535713Y-20609833D01*
X37400557Y-20812108D01*
X37307460Y-21036864D01*
X37260000Y-21275463D01*
X37260000Y-21518737D01*
X37307460Y-21757336D01*
X37400557Y-21982092D01*
X37535713Y-22184367D01*
X37707733Y-22356387D01*
X37910008Y-22491543D01*
X38134764Y-22584640D01*
X38373363Y-22632100D01*
X38616637Y-22632100D01*
X38855236Y-22584640D01*
X39079992Y-22491543D01*
X39171031Y-22430712D01*
X47938300Y-22430712D01*
X47938300Y-22654288D01*
X47981917Y-22873567D01*
X48067476Y-23080124D01*
X48191688Y-23266020D01*
X48349780Y-23424112D01*
X48535676Y-23548324D01*
X48742233Y-23633883D01*
X48961512Y-23677500D01*
X49185088Y-23677500D01*
X49404367Y-23633883D01*
X49610924Y-23548324D01*
X49796820Y-23424112D01*
X49954912Y-23266020D01*
X50079124Y-23080124D01*
X50164683Y-22873567D01*
X50208300Y-22654288D01*
X50208300Y-22430712D01*
X55918300Y-22430712D01*
X55918300Y-22654288D01*
X55961917Y-22873567D01*
X56047476Y-23080124D01*
X56171688Y-23266020D01*
X56329780Y-23424112D01*
X56515676Y-23548324D01*
X56722233Y-23633883D01*
X56941512Y-23677500D01*
X57165088Y-23677500D01*
X57384367Y-23633883D01*
X57590924Y-23548324D01*
X57776820Y-23424112D01*
X57934912Y-23266020D01*
X58001142Y-23166900D01*
X66471600Y-23166900D01*
X66471600Y-23841900D01*
X66521548Y-24095028D01*
X66619919Y-24333548D01*
X66762933Y-24548294D01*
X66945094Y-24731013D01*
X67159401Y-24874683D01*
X67397619Y-24973783D01*
X67452200Y-24982810D01*
X67654600Y-24859124D01*
X67654600Y-23166900D01*
X67908600Y-23166900D01*
X67908600Y-24859124D01*
X68111000Y-24982810D01*
X68165581Y-24973783D01*
X68403799Y-24874683D01*
X68618106Y-24731013D01*
X68800267Y-24548294D01*
X68943281Y-24333548D01*
X69041652Y-24095028D01*
X69091600Y-23841900D01*
X69091600Y-23166900D01*
X80971600Y-23166900D01*
X80971600Y-23841900D01*
X81021548Y-24095028D01*
X81119919Y-24333548D01*
X81262933Y-24548294D01*
X81445094Y-24731013D01*
X81659401Y-24874683D01*
X81897619Y-24973783D01*
X81952200Y-24982810D01*
X82154600Y-24859124D01*
X82154600Y-23166900D01*
X82408600Y-23166900D01*
X82408600Y-24859124D01*
X82611000Y-24982810D01*
X82665581Y-24973783D01*
X82903799Y-24874683D01*
X83118106Y-24731013D01*
X83300267Y-24548294D01*
X83443281Y-24333548D01*
X83541652Y-24095028D01*
X83591600Y-23841900D01*
X83591600Y-23841463D01*
X85779000Y-23841463D01*
X85779000Y-24084737D01*
X85826460Y-24323336D01*
X85919557Y-24548092D01*
X86054713Y-24750367D01*
X86226733Y-24922387D01*
X86429008Y-25057543D01*
X86653764Y-25150640D01*
X86892363Y-25198100D01*
X87135637Y-25198100D01*
X87374236Y-25150640D01*
X87598992Y-25057543D01*
X87801267Y-24922387D01*
X87973287Y-24750367D01*
X88108443Y-24548092D01*
X88201540Y-24323336D01*
X88249000Y-24084737D01*
X88249000Y-23841463D01*
X88201540Y-23602864D01*
X88108443Y-23378108D01*
X87973287Y-23175833D01*
X87801267Y-23003813D01*
X87598992Y-22868657D01*
X87374236Y-22775560D01*
X87256294Y-22752100D01*
X89625928Y-22752100D01*
X89629000Y-23716350D01*
X89787750Y-23875100D01*
X91887000Y-23875100D01*
X91887000Y-22275850D01*
X92141000Y-22275850D01*
X92141000Y-23875100D01*
X94240250Y-23875100D01*
X94273887Y-23841463D01*
X95779000Y-23841463D01*
X95779000Y-24084737D01*
X95826460Y-24323336D01*
X95919557Y-24548092D01*
X96054713Y-24750367D01*
X96226733Y-24922387D01*
X96429008Y-25057543D01*
X96653764Y-25150640D01*
X96892363Y-25198100D01*
X97135637Y-25198100D01*
X97374236Y-25150640D01*
X97598992Y-25057543D01*
X97801267Y-24922387D01*
X97973287Y-24750367D01*
X98108443Y-24548092D01*
X98201540Y-24323336D01*
X98249000Y-24084737D01*
X98249000Y-23841463D01*
X98201540Y-23602864D01*
X98108443Y-23378108D01*
X97973287Y-23175833D01*
X97801267Y-23003813D01*
X97598992Y-22868657D01*
X97374236Y-22775560D01*
X97135637Y-22728100D01*
X96892363Y-22728100D01*
X96653764Y-22775560D01*
X96429008Y-22868657D01*
X96226733Y-23003813D01*
X96054713Y-23175833D01*
X95919557Y-23378108D01*
X95826460Y-23602864D01*
X95779000Y-23841463D01*
X94273887Y-23841463D01*
X94399000Y-23716350D01*
X94402072Y-22752100D01*
X94389812Y-22627618D01*
X94353502Y-22507920D01*
X94294537Y-22397606D01*
X94215185Y-22300915D01*
X94118494Y-22221563D01*
X94008180Y-22162598D01*
X93888482Y-22126288D01*
X93764000Y-22114028D01*
X92299750Y-22117100D01*
X92141000Y-22275850D01*
X91887000Y-22275850D01*
X91728250Y-22117100D01*
X90264000Y-22114028D01*
X90139518Y-22126288D01*
X90019820Y-22162598D01*
X89909506Y-22221563D01*
X89812815Y-22300915D01*
X89733463Y-22397606D01*
X89674498Y-22507920D01*
X89638188Y-22627618D01*
X89625928Y-22752100D01*
X87256294Y-22752100D01*
X87135637Y-22728100D01*
X86892363Y-22728100D01*
X86653764Y-22775560D01*
X86429008Y-22868657D01*
X86226733Y-23003813D01*
X86054713Y-23175833D01*
X85919557Y-23378108D01*
X85826460Y-23602864D01*
X85779000Y-23841463D01*
X83591600Y-23841463D01*
X83591600Y-23166900D01*
X82408600Y-23166900D01*
X82154600Y-23166900D01*
X80971600Y-23166900D01*
X69091600Y-23166900D01*
X67908600Y-23166900D01*
X67654600Y-23166900D01*
X66471600Y-23166900D01*
X58001142Y-23166900D01*
X58059124Y-23080124D01*
X58144683Y-22873567D01*
X58188300Y-22654288D01*
X58188300Y-22430712D01*
X58149948Y-22237900D01*
X66471600Y-22237900D01*
X66471600Y-22912900D01*
X67654600Y-22912900D01*
X67654600Y-21220676D01*
X67908600Y-21220676D01*
X67908600Y-22912900D01*
X69091600Y-22912900D01*
X69091600Y-22237900D01*
X80971600Y-22237900D01*
X80971600Y-22912900D01*
X82154600Y-22912900D01*
X82154600Y-21220676D01*
X82408600Y-21220676D01*
X82408600Y-22912900D01*
X83591600Y-22912900D01*
X83591600Y-22237900D01*
X83541652Y-21984772D01*
X83443281Y-21746252D01*
X83300267Y-21531506D01*
X83118106Y-21348787D01*
X83107182Y-21341463D01*
X85779000Y-21341463D01*
X85779000Y-21584737D01*
X85826460Y-21823336D01*
X85919557Y-22048092D01*
X86054713Y-22250367D01*
X86226733Y-22422387D01*
X86429008Y-22557543D01*
X86653764Y-22650640D01*
X86892363Y-22698100D01*
X87135637Y-22698100D01*
X87374236Y-22650640D01*
X87598992Y-22557543D01*
X87801267Y-22422387D01*
X87973287Y-22250367D01*
X88108443Y-22048092D01*
X88201540Y-21823336D01*
X88249000Y-21584737D01*
X88249000Y-21341463D01*
X95779000Y-21341463D01*
X95779000Y-21584737D01*
X95826460Y-21823336D01*
X95919557Y-22048092D01*
X96054713Y-22250367D01*
X96226733Y-22422387D01*
X96429008Y-22557543D01*
X96653764Y-22650640D01*
X96892363Y-22698100D01*
X97135637Y-22698100D01*
X97374236Y-22650640D01*
X97598992Y-22557543D01*
X97801267Y-22422387D01*
X97973287Y-22250367D01*
X98108443Y-22048092D01*
X98201540Y-21823336D01*
X98249000Y-21584737D01*
X98249000Y-21341463D01*
X98201540Y-21102864D01*
X98108443Y-20878108D01*
X97973287Y-20675833D01*
X97801267Y-20503813D01*
X97598992Y-20368657D01*
X97374236Y-20275560D01*
X97135637Y-20228100D01*
X96892363Y-20228100D01*
X96653764Y-20275560D01*
X96429008Y-20368657D01*
X96226733Y-20503813D01*
X96054713Y-20675833D01*
X95919557Y-20878108D01*
X95826460Y-21102864D01*
X95779000Y-21341463D01*
X88249000Y-21341463D01*
X88201540Y-21102864D01*
X88108443Y-20878108D01*
X87973287Y-20675833D01*
X87801267Y-20503813D01*
X87598992Y-20368657D01*
X87374236Y-20275560D01*
X87135637Y-20228100D01*
X86892363Y-20228100D01*
X86653764Y-20275560D01*
X86429008Y-20368657D01*
X86226733Y-20503813D01*
X86054713Y-20675833D01*
X85919557Y-20878108D01*
X85826460Y-21102864D01*
X85779000Y-21341463D01*
X83107182Y-21341463D01*
X82903799Y-21205117D01*
X82665581Y-21106017D01*
X82611000Y-21096990D01*
X82408600Y-21220676D01*
X82154600Y-21220676D01*
X81952200Y-21096990D01*
X81897619Y-21106017D01*
X81659401Y-21205117D01*
X81445094Y-21348787D01*
X81262933Y-21531506D01*
X81119919Y-21746252D01*
X81021548Y-21984772D01*
X80971600Y-22237900D01*
X69091600Y-22237900D01*
X69041652Y-21984772D01*
X68943281Y-21746252D01*
X68800267Y-21531506D01*
X68618106Y-21348787D01*
X68403799Y-21205117D01*
X68165581Y-21106017D01*
X68111000Y-21096990D01*
X67908600Y-21220676D01*
X67654600Y-21220676D01*
X67452200Y-21096990D01*
X67397619Y-21106017D01*
X67159401Y-21205117D01*
X66945094Y-21348787D01*
X66762933Y-21531506D01*
X66619919Y-21746252D01*
X66521548Y-21984772D01*
X66471600Y-22237900D01*
X58149948Y-22237900D01*
X58144683Y-22211433D01*
X58059124Y-22004876D01*
X57934912Y-21818980D01*
X57776820Y-21660888D01*
X57590924Y-21536676D01*
X57384367Y-21451117D01*
X57165088Y-21407500D01*
X56941512Y-21407500D01*
X56722233Y-21451117D01*
X56515676Y-21536676D01*
X56329780Y-21660888D01*
X56171688Y-21818980D01*
X56047476Y-22004876D01*
X55961917Y-22211433D01*
X55918300Y-22430712D01*
X50208300Y-22430712D01*
X50164683Y-22211433D01*
X50079124Y-22004876D01*
X49954912Y-21818980D01*
X49796820Y-21660888D01*
X49610924Y-21536676D01*
X49404367Y-21451117D01*
X49185088Y-21407500D01*
X48961512Y-21407500D01*
X48742233Y-21451117D01*
X48535676Y-21536676D01*
X48349780Y-21660888D01*
X48191688Y-21818980D01*
X48067476Y-22004876D01*
X47981917Y-22211433D01*
X47938300Y-22430712D01*
X39171031Y-22430712D01*
X39282267Y-22356387D01*
X39454287Y-22184367D01*
X39589443Y-21982092D01*
X39682540Y-21757336D01*
X39730000Y-21518737D01*
X39730000Y-21275463D01*
X39682540Y-21036864D01*
X39589443Y-20812108D01*
X39454287Y-20609833D01*
X39282267Y-20437813D01*
X39079992Y-20302657D01*
X38855236Y-20209560D01*
X38778719Y-20194340D01*
X125670439Y-20194340D01*
X125670242Y-97774140D01*
X81576226Y-97774140D01*
X81543653Y-97770721D01*
X81506497Y-97774140D01*
X81504203Y-97774140D01*
X81471588Y-97777352D01*
X81404385Y-97783536D01*
X81402187Y-97784187D01*
X81399896Y-97784413D01*
X81335034Y-97804089D01*
X81270291Y-97823276D01*
X81268261Y-97824344D01*
X81266060Y-97825012D01*
X81206308Y-97856950D01*
X81146528Y-97888412D01*
X81144746Y-97889856D01*
X81142717Y-97890940D01*
X81090329Y-97933934D01*
X81037850Y-97976442D01*
X81036384Y-97978205D01*
X81034605Y-97979665D01*
X80991555Y-98032122D01*
X80948434Y-98083984D01*
X80947342Y-98085995D01*
X80945880Y-98087777D01*
X80913911Y-98147587D01*
X80881716Y-98206901D01*
X80881036Y-98209092D01*
X80879952Y-98211120D01*
X80860290Y-98275938D01*
X80840260Y-98340474D01*
X80840021Y-98342755D01*
X80839353Y-98344956D01*
X80832710Y-98412407D01*
X80829319Y-98444713D01*
X80829304Y-98446984D01*
X80825645Y-98484140D01*
X80828857Y-98516755D01*
X80698998Y-118774143D01*
X27090440Y-118774338D01*
X27090440Y-113728159D01*
X27326300Y-113728159D01*
X27326300Y-114179841D01*
X27414419Y-114622843D01*
X27587270Y-115040143D01*
X27838210Y-115415702D01*
X28157598Y-115735090D01*
X28533157Y-115986030D01*
X28950457Y-116158881D01*
X29393459Y-116247000D01*
X29845141Y-116247000D01*
X30288143Y-116158881D01*
X30705443Y-115986030D01*
X31081002Y-115735090D01*
X31400390Y-115415702D01*
X31651330Y-115040143D01*
X31824181Y-114622843D01*
X31912300Y-114179841D01*
X31912300Y-113728159D01*
X31824181Y-113285157D01*
X31651330Y-112867857D01*
X31400390Y-112492298D01*
X31081002Y-112172910D01*
X30705443Y-111921970D01*
X30288143Y-111749119D01*
X29845141Y-111661000D01*
X29393459Y-111661000D01*
X28950457Y-111749119D01*
X28533157Y-111921970D01*
X28157598Y-112172910D01*
X27838210Y-112492298D01*
X27587270Y-112867857D01*
X27414419Y-113285157D01*
X27326300Y-113728159D01*
X27090440Y-113728159D01*
X27090440Y-103828159D01*
X27326300Y-103828159D01*
X27326300Y-104279841D01*
X27414419Y-104722843D01*
X27587270Y-105140143D01*
X27838210Y-105515702D01*
X28157598Y-105835090D01*
X28533157Y-106086030D01*
X28950457Y-106258881D01*
X29393459Y-106347000D01*
X29845141Y-106347000D01*
X30288143Y-106258881D01*
X30705443Y-106086030D01*
X31081002Y-105835090D01*
X31271100Y-105644992D01*
X31271100Y-111542582D01*
X31267424Y-111579810D01*
X31271100Y-111617230D01*
X31271100Y-111617332D01*
X31274945Y-111656369D01*
X31282060Y-111728798D01*
X31282088Y-111728889D01*
X31282097Y-111728985D01*
X31303833Y-111800640D01*
X31325481Y-111872070D01*
X31325526Y-111872155D01*
X31325554Y-111872246D01*
X31360361Y-111937364D01*
X31396020Y-112004117D01*
X31396082Y-112004192D01*
X31396126Y-112004275D01*
X31443715Y-112062262D01*
X31467173Y-112090861D01*
X31467238Y-112090926D01*
X31491099Y-112120001D01*
X31520028Y-112143742D01*
X32067940Y-112691928D01*
X32091799Y-112721001D01*
X32150480Y-112769160D01*
X32207365Y-112815867D01*
X32207447Y-112815911D01*
X32207524Y-112815974D01*
X32274805Y-112851937D01*
X32339377Y-112886473D01*
X32339468Y-112886501D01*
X32339553Y-112886546D01*
X32412083Y-112908548D01*
X32482626Y-112929965D01*
X32482719Y-112929974D01*
X32482814Y-112930003D01*
X32560510Y-112937656D01*
X32631609Y-112944676D01*
X32669027Y-112941000D01*
X35055355Y-112941000D01*
X35007598Y-112972910D01*
X34688210Y-113292298D01*
X34437270Y-113667857D01*
X34264419Y-114085157D01*
X34176300Y-114528159D01*
X34176300Y-114979841D01*
X34264419Y-115422843D01*
X34437270Y-115840143D01*
X34688210Y-116215702D01*
X35007598Y-116535090D01*
X35383157Y-116786030D01*
X35800457Y-116958881D01*
X36243459Y-117047000D01*
X36695141Y-117047000D01*
X37138143Y-116958881D01*
X37555443Y-116786030D01*
X37931002Y-116535090D01*
X38250390Y-116215702D01*
X38501330Y-115840143D01*
X38674181Y-115422843D01*
X38762300Y-114979841D01*
X38762300Y-114528159D01*
X38674181Y-114085157D01*
X38526308Y-113728159D01*
X41026300Y-113728159D01*
X41026300Y-114179841D01*
X41114419Y-114622843D01*
X41287270Y-115040143D01*
X41538210Y-115415702D01*
X41857598Y-115735090D01*
X42233157Y-115986030D01*
X42650457Y-116158881D01*
X43093459Y-116247000D01*
X43545141Y-116247000D01*
X43988143Y-116158881D01*
X44405443Y-115986030D01*
X44781002Y-115735090D01*
X45100390Y-115415702D01*
X45351330Y-115040143D01*
X45524181Y-114622843D01*
X45612300Y-114179841D01*
X45612300Y-113728159D01*
X45524181Y-113285157D01*
X45351330Y-112867857D01*
X45100390Y-112492298D01*
X44781002Y-112172910D01*
X44405443Y-111921970D01*
X43988143Y-111749119D01*
X43545141Y-111661000D01*
X43093459Y-111661000D01*
X42650457Y-111749119D01*
X42233157Y-111921970D01*
X41857598Y-112172910D01*
X41538210Y-112492298D01*
X41287270Y-112867857D01*
X41114419Y-113285157D01*
X41026300Y-113728159D01*
X38526308Y-113728159D01*
X38501330Y-113667857D01*
X38250390Y-113292298D01*
X37931002Y-112972910D01*
X37555443Y-112721970D01*
X37322843Y-112625624D01*
X37527296Y-112421095D01*
X37637420Y-112443000D01*
X37901180Y-112443000D01*
X38159872Y-112391543D01*
X38403554Y-112290607D01*
X38622863Y-112144069D01*
X38738804Y-112028128D01*
X39124777Y-112028128D01*
X39184723Y-112262305D01*
X39423851Y-112373602D01*
X39680097Y-112436109D01*
X39943614Y-112447425D01*
X40204276Y-112407114D01*
X40452064Y-112316724D01*
X40553877Y-112262305D01*
X40613823Y-112028128D01*
X39869300Y-111283605D01*
X39124777Y-112028128D01*
X38738804Y-112028128D01*
X38809369Y-111957563D01*
X38891421Y-111834764D01*
X38945172Y-111848523D01*
X39689695Y-111104000D01*
X39675553Y-111089858D01*
X39855158Y-110910253D01*
X39869300Y-110924395D01*
X40207195Y-110586500D01*
X40566405Y-110586500D01*
X40048905Y-111104000D01*
X40793428Y-111848523D01*
X41027605Y-111788577D01*
X41138902Y-111549449D01*
X41201409Y-111293203D01*
X41212725Y-111029686D01*
X41172414Y-110769024D01*
X41082024Y-110521236D01*
X41027605Y-110419423D01*
X40793428Y-110359477D01*
X40621681Y-110531224D01*
X40621681Y-109761677D01*
X40722863Y-109694069D01*
X40909369Y-109507563D01*
X41055907Y-109288254D01*
X41156843Y-109044572D01*
X41208300Y-108785880D01*
X41208300Y-108522120D01*
X41156843Y-108263428D01*
X41055907Y-108019746D01*
X40909369Y-107800437D01*
X40722863Y-107613931D01*
X40503554Y-107467393D01*
X40314296Y-107389000D01*
X44365892Y-107389000D01*
X44416740Y-107394006D01*
X44490335Y-107386755D01*
X44619595Y-107374024D01*
X44619620Y-107374016D01*
X44619634Y-107374015D01*
X44697686Y-107350335D01*
X44814693Y-107314841D01*
X44814714Y-107314830D01*
X44814730Y-107314825D01*
X44889044Y-107275100D01*
X44994497Y-107218734D01*
X44994516Y-107218719D01*
X44994530Y-107218711D01*
X45061426Y-107163807D01*
X45152096Y-107089396D01*
X45184519Y-107049889D01*
X46137335Y-106097000D01*
X47504447Y-106097000D01*
X47343162Y-106258285D01*
X47054793Y-106689859D01*
X46856161Y-107169399D01*
X46754900Y-107678475D01*
X46754900Y-108197525D01*
X46856161Y-108706601D01*
X47054793Y-109186141D01*
X47343162Y-109617715D01*
X47710185Y-109984738D01*
X48141759Y-110273107D01*
X48621299Y-110471739D01*
X49130375Y-110573000D01*
X49649425Y-110573000D01*
X50158501Y-110471739D01*
X50638041Y-110273107D01*
X51069615Y-109984738D01*
X51436638Y-109617715D01*
X51725007Y-109186141D01*
X51923639Y-108706601D01*
X52024900Y-108197525D01*
X52024900Y-107678475D01*
X51923639Y-107169399D01*
X51725007Y-106689859D01*
X51436638Y-106258285D01*
X51275353Y-106097000D01*
X54911828Y-106097000D01*
X54911828Y-107318000D01*
X54924088Y-107442482D01*
X54960398Y-107562180D01*
X55019363Y-107672494D01*
X55098715Y-107769185D01*
X55134186Y-107798295D01*
X55125626Y-107808725D01*
X55125519Y-107808926D01*
X55125375Y-107809101D01*
X55090457Y-107874521D01*
X55055054Y-107940754D01*
X55054987Y-107940974D01*
X55054881Y-107941173D01*
X55033379Y-108012210D01*
X55011597Y-108084015D01*
X55011575Y-108084242D01*
X55011509Y-108084459D01*
X55004320Y-108157898D01*
X55000600Y-108195668D01*
X55000600Y-108195901D01*
X54996924Y-108233453D01*
X55000600Y-108270551D01*
X55000601Y-110781473D01*
X54970749Y-110790528D01*
X54817213Y-110872595D01*
X54682638Y-110983038D01*
X54572195Y-111117613D01*
X54490128Y-111271149D01*
X54439592Y-111437745D01*
X54422528Y-111610999D01*
X54422528Y-112136001D01*
X54439592Y-112309255D01*
X54490128Y-112475851D01*
X54572195Y-112629387D01*
X54682638Y-112763962D01*
X54709491Y-112786000D01*
X54682638Y-112808038D01*
X54572195Y-112942613D01*
X54490128Y-113096149D01*
X54439592Y-113262745D01*
X54422528Y-113435999D01*
X54422528Y-113961001D01*
X54439592Y-114134255D01*
X54490128Y-114300851D01*
X54572195Y-114454387D01*
X54682638Y-114588962D01*
X54817213Y-114699405D01*
X54970749Y-114781472D01*
X55137345Y-114832008D01*
X55310599Y-114849072D01*
X56210601Y-114849072D01*
X56383855Y-114832008D01*
X56550451Y-114781472D01*
X56641135Y-114733000D01*
X56924765Y-114733000D01*
X57015449Y-114781472D01*
X57182045Y-114832008D01*
X57355299Y-114849072D01*
X58255301Y-114849072D01*
X58428555Y-114832008D01*
X58595151Y-114781472D01*
X58685835Y-114733000D01*
X58981419Y-114733000D01*
X59062749Y-114776472D01*
X59229345Y-114827008D01*
X59402599Y-114844072D01*
X60302601Y-114844072D01*
X60475855Y-114827008D01*
X60642451Y-114776472D01*
X60731265Y-114729000D01*
X61018635Y-114729000D01*
X61107449Y-114776472D01*
X61274045Y-114827008D01*
X61447299Y-114844072D01*
X62347301Y-114844072D01*
X62520555Y-114827008D01*
X62687151Y-114776472D01*
X62775965Y-114729000D01*
X63106202Y-114729000D01*
X63180049Y-114768472D01*
X63346645Y-114819008D01*
X63519899Y-114836072D01*
X64419901Y-114836072D01*
X64593155Y-114819008D01*
X64759751Y-114768472D01*
X64848565Y-114721000D01*
X65178290Y-114721000D01*
X65257749Y-114763472D01*
X65424345Y-114814008D01*
X65597599Y-114831072D01*
X66497601Y-114831072D01*
X66670855Y-114814008D01*
X66837451Y-114763472D01*
X66990987Y-114681405D01*
X67125562Y-114570962D01*
X67236005Y-114436387D01*
X67318072Y-114282851D01*
X67368608Y-114116255D01*
X67385343Y-113946337D01*
X69561176Y-111770829D01*
X69600696Y-111738396D01*
X69665256Y-111659729D01*
X69729991Y-111580862D01*
X69730010Y-111580826D01*
X69730034Y-111580797D01*
X69776122Y-111494572D01*
X69826111Y-111401066D01*
X69826123Y-111401027D01*
X69826141Y-111400993D01*
X69858839Y-111293203D01*
X69885308Y-111205971D01*
X69885311Y-111205937D01*
X69885324Y-111205895D01*
X69896559Y-111091823D01*
X69905307Y-111003078D01*
X69900300Y-110952204D01*
X69900300Y-107678475D01*
X71754900Y-107678475D01*
X71754900Y-108197525D01*
X71856161Y-108706601D01*
X72054793Y-109186141D01*
X72343162Y-109617715D01*
X72710185Y-109984738D01*
X73141759Y-110273107D01*
X73621299Y-110471739D01*
X74130375Y-110573000D01*
X74649425Y-110573000D01*
X75158501Y-110471739D01*
X75638041Y-110273107D01*
X76069615Y-109984738D01*
X76436638Y-109617715D01*
X76725007Y-109186141D01*
X76923639Y-108706601D01*
X77024900Y-108197525D01*
X77024900Y-107678475D01*
X76923639Y-107169399D01*
X76725007Y-106689859D01*
X76436638Y-106258285D01*
X76069615Y-105891262D01*
X75638041Y-105602893D01*
X75158501Y-105404261D01*
X74649425Y-105303000D01*
X74130375Y-105303000D01*
X73621299Y-105404261D01*
X73141759Y-105602893D01*
X72710185Y-105891262D01*
X72343162Y-106258285D01*
X72054793Y-106689859D01*
X71856161Y-107169399D01*
X71754900Y-107678475D01*
X69900300Y-107678475D01*
X69900300Y-105996827D01*
X69905307Y-105945984D01*
X69897443Y-105866151D01*
X69885324Y-105743105D01*
X69885320Y-105743093D01*
X69885320Y-105743089D01*
X69859535Y-105658092D01*
X69826141Y-105548007D01*
X69826138Y-105548001D01*
X69826135Y-105547992D01*
X69745653Y-105397425D01*
X69730034Y-105368203D01*
X69730030Y-105368198D01*
X69730025Y-105368189D01*
X69645251Y-105264895D01*
X69600696Y-105210604D01*
X69561202Y-105178192D01*
X66295002Y-101912091D01*
X66262596Y-101872604D01*
X66104997Y-101743266D01*
X66104988Y-101743261D01*
X66104984Y-101743258D01*
X66051499Y-101714671D01*
X65925193Y-101647159D01*
X65925182Y-101647156D01*
X65925179Y-101647154D01*
X65884441Y-101634797D01*
X65730095Y-101587976D01*
X65730081Y-101587975D01*
X65730079Y-101587974D01*
X65700451Y-101585056D01*
X65578038Y-101573000D01*
X65578020Y-101573000D01*
X65527185Y-101567994D01*
X65476365Y-101573000D01*
X64973842Y-101573000D01*
X64978026Y-101562898D01*
X65017800Y-101362939D01*
X65017800Y-101159061D01*
X64978026Y-100959102D01*
X64900005Y-100770744D01*
X64786737Y-100601226D01*
X64642574Y-100457063D01*
X64473056Y-100343795D01*
X64284698Y-100265774D01*
X64084739Y-100226000D01*
X63880861Y-100226000D01*
X63680902Y-100265774D01*
X63492544Y-100343795D01*
X63323026Y-100457063D01*
X63279089Y-100501000D01*
X52746797Y-100501000D01*
X43411017Y-91165500D01*
X43505439Y-91165500D01*
X43705398Y-91125726D01*
X43893756Y-91047705D01*
X44063274Y-90934437D01*
X44107211Y-90890500D01*
X44999378Y-90890500D01*
X45036700Y-90894176D01*
X45074022Y-90890500D01*
X45074033Y-90890500D01*
X45185686Y-90879503D01*
X45328947Y-90836046D01*
X45460976Y-90765474D01*
X45576701Y-90670501D01*
X45600504Y-90641497D01*
X53561011Y-82680991D01*
X53768289Y-82819490D01*
X54038542Y-82931432D01*
X54325440Y-82988500D01*
X54617960Y-82988500D01*
X54904858Y-82931432D01*
X55175111Y-82819490D01*
X55418332Y-82656975D01*
X55420303Y-82655004D01*
X55964701Y-83199403D01*
X55988499Y-83228401D01*
X56104224Y-83323374D01*
X56236253Y-83393946D01*
X56379514Y-83437403D01*
X56491167Y-83448400D01*
X56491176Y-83448400D01*
X56528499Y-83452076D01*
X56565822Y-83448400D01*
X72628578Y-83448400D01*
X72665900Y-83452076D01*
X72703222Y-83448400D01*
X72703233Y-83448400D01*
X72814886Y-83437403D01*
X72958147Y-83393946D01*
X73090176Y-83323374D01*
X73205901Y-83228401D01*
X73229704Y-83199397D01*
X82416300Y-74012802D01*
X82416300Y-74194860D01*
X82473368Y-74481758D01*
X82585310Y-74752011D01*
X82747825Y-74995232D01*
X82954668Y-75202075D01*
X83129060Y-75318600D01*
X82954668Y-75435125D01*
X82747825Y-75641968D01*
X82585310Y-75885189D01*
X82473368Y-76155442D01*
X82416300Y-76442340D01*
X82416300Y-76734860D01*
X82473368Y-77021758D01*
X82585310Y-77292011D01*
X82747825Y-77535232D01*
X82954668Y-77742075D01*
X83136834Y-77863795D01*
X83019945Y-77933422D01*
X82803712Y-78128331D01*
X82629659Y-78361680D01*
X82504475Y-78624501D01*
X82459824Y-78771710D01*
X82581145Y-79001600D01*
X83774300Y-79001600D01*
X83774300Y-78981600D01*
X84028300Y-78981600D01*
X84028300Y-79001600D01*
X84048300Y-79001600D01*
X84048300Y-79255600D01*
X84028300Y-79255600D01*
X84028300Y-79275600D01*
X83774300Y-79275600D01*
X83774300Y-79255600D01*
X82581145Y-79255600D01*
X82459824Y-79485490D01*
X82504475Y-79632699D01*
X82629659Y-79895520D01*
X82803712Y-80128869D01*
X83019945Y-80323778D01*
X83136834Y-80393405D01*
X82954668Y-80515125D01*
X82747825Y-80721968D01*
X82585310Y-80965189D01*
X82473368Y-81235442D01*
X82416300Y-81522340D01*
X82416300Y-81814860D01*
X82473368Y-82101758D01*
X82585310Y-82372011D01*
X82747825Y-82615232D01*
X82954668Y-82822075D01*
X83136834Y-82943795D01*
X83019945Y-83013422D01*
X82803712Y-83208331D01*
X82629659Y-83441680D01*
X82504475Y-83704501D01*
X82459824Y-83851710D01*
X82581145Y-84081600D01*
X83774300Y-84081600D01*
X83774300Y-84061600D01*
X84028300Y-84061600D01*
X84028300Y-84081600D01*
X84048300Y-84081600D01*
X84048300Y-84335600D01*
X84028300Y-84335600D01*
X84028300Y-84355600D01*
X83774300Y-84355600D01*
X83774300Y-84335600D01*
X82581145Y-84335600D01*
X82459824Y-84565490D01*
X82504475Y-84712699D01*
X82629659Y-84975520D01*
X82803712Y-85208869D01*
X83019945Y-85403778D01*
X83136834Y-85473405D01*
X82954668Y-85595125D01*
X82747825Y-85801968D01*
X82585310Y-86045189D01*
X82473368Y-86315442D01*
X82416300Y-86602340D01*
X82416300Y-86894860D01*
X82473368Y-87181758D01*
X82585310Y-87452011D01*
X82747825Y-87695232D01*
X82954668Y-87902075D01*
X83129060Y-88018600D01*
X82954668Y-88135125D01*
X82747825Y-88341968D01*
X82585310Y-88585189D01*
X82473368Y-88855442D01*
X82416300Y-89142340D01*
X82416300Y-89434860D01*
X82473368Y-89721758D01*
X82585310Y-89992011D01*
X82747825Y-90235232D01*
X82954668Y-90442075D01*
X83129060Y-90558600D01*
X82954668Y-90675125D01*
X82747825Y-90881968D01*
X82585310Y-91125189D01*
X82473368Y-91395442D01*
X82416300Y-91682340D01*
X82416300Y-91974860D01*
X82473368Y-92261758D01*
X82585310Y-92532011D01*
X82747825Y-92775232D01*
X82954668Y-92982075D01*
X83197889Y-93144590D01*
X83468142Y-93256532D01*
X83755040Y-93313600D01*
X84047560Y-93313600D01*
X84334458Y-93256532D01*
X84604711Y-93144590D01*
X84847932Y-92982075D01*
X85054775Y-92775232D01*
X85172400Y-92599194D01*
X85343712Y-92828869D01*
X85559945Y-93023778D01*
X85810048Y-93172757D01*
X86084409Y-93270081D01*
X86314300Y-93149414D01*
X86314300Y-91955600D01*
X86568300Y-91955600D01*
X86568300Y-93149414D01*
X86798191Y-93270081D01*
X87072552Y-93172757D01*
X87322655Y-93023778D01*
X87538888Y-92828869D01*
X87712941Y-92595520D01*
X87838125Y-92332699D01*
X87882776Y-92185490D01*
X87761455Y-91955600D01*
X86568300Y-91955600D01*
X86314300Y-91955600D01*
X86294300Y-91955600D01*
X86294300Y-91701600D01*
X86314300Y-91701600D01*
X86314300Y-91681600D01*
X86568300Y-91681600D01*
X86568300Y-91701600D01*
X87761455Y-91701600D01*
X87882776Y-91471710D01*
X87838125Y-91324501D01*
X87712941Y-91061680D01*
X87610898Y-90924872D01*
X117104000Y-90924872D01*
X117104000Y-91365128D01*
X117189890Y-91796925D01*
X117358369Y-92203669D01*
X117602962Y-92569729D01*
X117914271Y-92881038D01*
X118280331Y-93125631D01*
X118687075Y-93294110D01*
X119118872Y-93380000D01*
X119559128Y-93380000D01*
X119990925Y-93294110D01*
X120397669Y-93125631D01*
X120763729Y-92881038D01*
X121075038Y-92569729D01*
X121319631Y-92203669D01*
X121488110Y-91796925D01*
X121574000Y-91365128D01*
X121574000Y-90924872D01*
X121488110Y-90493075D01*
X121319631Y-90086331D01*
X121075038Y-89720271D01*
X120763729Y-89408962D01*
X120397669Y-89164369D01*
X119990925Y-88995890D01*
X119559128Y-88910000D01*
X119118872Y-88910000D01*
X118687075Y-88995890D01*
X118280331Y-89164369D01*
X117914271Y-89408962D01*
X117602962Y-89720271D01*
X117358369Y-90086331D01*
X117189890Y-90493075D01*
X117104000Y-90924872D01*
X87610898Y-90924872D01*
X87538888Y-90828331D01*
X87322655Y-90633422D01*
X87205766Y-90563795D01*
X87387932Y-90442075D01*
X87594775Y-90235232D01*
X87757290Y-89992011D01*
X87869232Y-89721758D01*
X87926300Y-89434860D01*
X87926300Y-89142340D01*
X87869232Y-88855442D01*
X87757290Y-88585189D01*
X87594775Y-88341968D01*
X87387932Y-88135125D01*
X87213540Y-88018600D01*
X87387932Y-87902075D01*
X87594775Y-87695232D01*
X87757290Y-87452011D01*
X87869232Y-87181758D01*
X87926300Y-86894860D01*
X87926300Y-86602340D01*
X87869232Y-86315442D01*
X87757290Y-86045189D01*
X87594775Y-85801968D01*
X87387932Y-85595125D01*
X87213540Y-85478600D01*
X87387932Y-85362075D01*
X87594775Y-85155232D01*
X87757290Y-84912011D01*
X87869232Y-84641758D01*
X87926300Y-84354860D01*
X87926300Y-84062340D01*
X87869232Y-83775442D01*
X87757290Y-83505189D01*
X87594775Y-83261968D01*
X87387932Y-83055125D01*
X87213540Y-82938600D01*
X87387932Y-82822075D01*
X87594775Y-82615232D01*
X87757290Y-82372011D01*
X87869232Y-82101758D01*
X87926300Y-81814860D01*
X87926300Y-81522340D01*
X87869232Y-81235442D01*
X87757290Y-80965189D01*
X87594775Y-80721968D01*
X87387932Y-80515125D01*
X87213540Y-80398600D01*
X87387932Y-80282075D01*
X87594775Y-80075232D01*
X87757290Y-79832011D01*
X87869232Y-79561758D01*
X87926300Y-79274860D01*
X87926300Y-78982340D01*
X87869232Y-78695442D01*
X87757290Y-78425189D01*
X87594775Y-78181968D01*
X87387932Y-77975125D01*
X87213540Y-77858600D01*
X87387932Y-77742075D01*
X87594775Y-77535232D01*
X87757290Y-77292011D01*
X87869232Y-77021758D01*
X87926300Y-76734860D01*
X87926300Y-76442340D01*
X87869232Y-76155442D01*
X87757290Y-75885189D01*
X87594775Y-75641968D01*
X87387932Y-75435125D01*
X87205766Y-75313405D01*
X87322655Y-75243778D01*
X87538888Y-75048869D01*
X87712941Y-74815520D01*
X87838125Y-74552699D01*
X87882776Y-74405490D01*
X87761455Y-74175600D01*
X86568300Y-74175600D01*
X86568300Y-74195600D01*
X86314300Y-74195600D01*
X86314300Y-74175600D01*
X86294300Y-74175600D01*
X86294300Y-73921600D01*
X86314300Y-73921600D01*
X86314300Y-73901600D01*
X86568300Y-73901600D01*
X86568300Y-73921600D01*
X87761455Y-73921600D01*
X87882776Y-73691710D01*
X87838125Y-73544501D01*
X87712941Y-73281680D01*
X87584978Y-73110123D01*
X88127604Y-72567498D01*
X88156601Y-72543701D01*
X88190627Y-72502240D01*
X88251574Y-72427977D01*
X88322146Y-72295947D01*
X88333777Y-72257603D01*
X88365603Y-72152686D01*
X88376600Y-72041033D01*
X88376600Y-72041024D01*
X88380276Y-72003701D01*
X88376600Y-71966378D01*
X88376600Y-68449122D01*
X88380276Y-68411799D01*
X88376600Y-68374476D01*
X88376600Y-68374467D01*
X88365603Y-68262814D01*
X88322146Y-68119553D01*
X88299809Y-68077764D01*
X88251574Y-67987523D01*
X88180399Y-67900797D01*
X88156601Y-67871799D01*
X88127602Y-67848001D01*
X87618831Y-67339230D01*
X87757290Y-67132011D01*
X87869232Y-66861758D01*
X87926300Y-66574860D01*
X87926300Y-66282340D01*
X87869232Y-65995442D01*
X87757290Y-65725189D01*
X87596761Y-65484940D01*
X88135204Y-64946498D01*
X88164201Y-64922701D01*
X88259174Y-64806976D01*
X88329746Y-64674947D01*
X88373203Y-64531686D01*
X88384200Y-64420033D01*
X88384200Y-64420025D01*
X88387876Y-64382700D01*
X88384200Y-64345375D01*
X88384200Y-53273222D01*
X88387876Y-53235899D01*
X88384200Y-53198576D01*
X88384200Y-53198567D01*
X88373203Y-53086914D01*
X88329746Y-52943653D01*
X88259174Y-52811624D01*
X88164201Y-52695899D01*
X88135202Y-52672101D01*
X87596200Y-52133099D01*
X87757290Y-51892011D01*
X87869232Y-51621758D01*
X87926300Y-51334860D01*
X87926300Y-51042340D01*
X87869232Y-50755442D01*
X87757290Y-50485189D01*
X87594775Y-50241968D01*
X87387932Y-50035125D01*
X87213540Y-49918600D01*
X87387932Y-49802075D01*
X87594775Y-49595232D01*
X87757290Y-49352011D01*
X87869232Y-49081758D01*
X87926300Y-48794860D01*
X87926300Y-48502340D01*
X87869232Y-48215442D01*
X87757290Y-47945189D01*
X87594775Y-47701968D01*
X87387932Y-47495125D01*
X87213540Y-47378600D01*
X87387932Y-47262075D01*
X87594775Y-47055232D01*
X87757290Y-46812011D01*
X87869232Y-46541758D01*
X87926300Y-46254860D01*
X87926300Y-45962340D01*
X87869232Y-45675442D01*
X87757290Y-45405189D01*
X87594775Y-45161968D01*
X87462920Y-45030113D01*
X87535480Y-45008102D01*
X87645794Y-44949137D01*
X87742485Y-44869785D01*
X87821837Y-44773094D01*
X87880802Y-44662780D01*
X87917112Y-44543082D01*
X87929372Y-44418600D01*
X87929372Y-42718600D01*
X87917112Y-42594118D01*
X87880802Y-42474420D01*
X87821837Y-42364106D01*
X87742485Y-42267415D01*
X87645794Y-42188063D01*
X87535480Y-42129098D01*
X87415782Y-42092788D01*
X87291300Y-42080528D01*
X85591300Y-42080528D01*
X85466818Y-42092788D01*
X85347120Y-42129098D01*
X85236806Y-42188063D01*
X85140115Y-42267415D01*
X85060763Y-42364106D01*
X85001798Y-42474420D01*
X84979787Y-42546980D01*
X84847932Y-42415125D01*
X84604711Y-42252610D01*
X84334458Y-42140668D01*
X84047560Y-42083600D01*
X83755040Y-42083600D01*
X83468142Y-42140668D01*
X83197889Y-42252610D01*
X82954668Y-42415125D01*
X82848255Y-42521538D01*
X82838297Y-42513366D01*
X82658493Y-42417259D01*
X82463395Y-42358076D01*
X82311338Y-42343100D01*
X82311328Y-42343100D01*
X82260500Y-42338094D01*
X82209672Y-42343100D01*
X64947454Y-42343100D01*
X64929502Y-42283920D01*
X64870537Y-42173606D01*
X64791185Y-42076915D01*
X64694494Y-41997563D01*
X64584180Y-41938598D01*
X64525000Y-41920646D01*
X64525000Y-39805327D01*
X64530006Y-39754499D01*
X64525000Y-39703671D01*
X64525000Y-39703662D01*
X64510024Y-39551605D01*
X64450841Y-39356507D01*
X64392169Y-39246739D01*
X64354734Y-39176702D01*
X64257803Y-39058592D01*
X64225396Y-39019104D01*
X64185908Y-38986697D01*
X58804410Y-33605200D01*
X69914390Y-33605200D01*
X71634297Y-35325108D01*
X71666704Y-35364596D01*
X71706192Y-35397003D01*
X71824302Y-35493934D01*
X71880936Y-35524205D01*
X72004107Y-35590041D01*
X72199205Y-35649224D01*
X72351262Y-35664200D01*
X72351265Y-35664200D01*
X72402100Y-35669207D01*
X72452935Y-35664200D01*
X84678272Y-35664200D01*
X84729100Y-35669206D01*
X84779928Y-35664200D01*
X84779938Y-35664200D01*
X84931995Y-35649224D01*
X85127093Y-35590041D01*
X85306897Y-35493934D01*
X85464496Y-35364596D01*
X85496907Y-35325103D01*
X87254903Y-33567108D01*
X87291037Y-33530974D01*
X87319425Y-33488488D01*
X87351834Y-33448998D01*
X87375916Y-33403944D01*
X87404305Y-33361456D01*
X87423862Y-33314241D01*
X87447940Y-33269194D01*
X87462766Y-33220319D01*
X87482326Y-33173098D01*
X87492297Y-33122971D01*
X87507123Y-33074096D01*
X87512129Y-33023266D01*
X87522100Y-32973139D01*
X87522100Y-32922029D01*
X87527106Y-32871201D01*
X87522100Y-32820373D01*
X87522100Y-32769261D01*
X87512129Y-32719132D01*
X87507123Y-32668306D01*
X87492298Y-32619434D01*
X87482326Y-32569302D01*
X87462765Y-32522077D01*
X87447940Y-32473207D01*
X87423864Y-32428164D01*
X87404305Y-32380944D01*
X87375913Y-32338452D01*
X87351834Y-32293403D01*
X87319430Y-32253919D01*
X87291037Y-32211426D01*
X87254895Y-32175284D01*
X87222495Y-32135805D01*
X87183016Y-32103405D01*
X87146874Y-32067263D01*
X87104381Y-32038870D01*
X87064897Y-32006466D01*
X87019848Y-31982387D01*
X86977356Y-31953995D01*
X86930136Y-31934436D01*
X86885093Y-31910360D01*
X86836223Y-31895535D01*
X86788998Y-31875974D01*
X86738866Y-31866002D01*
X86689994Y-31851177D01*
X86639168Y-31846171D01*
X86589039Y-31836200D01*
X86537927Y-31836200D01*
X86487099Y-31831194D01*
X86436271Y-31836200D01*
X86385161Y-31836200D01*
X86335034Y-31846171D01*
X86284204Y-31851177D01*
X86235329Y-31866003D01*
X86185202Y-31875974D01*
X86137981Y-31895534D01*
X86089106Y-31910360D01*
X86044059Y-31934438D01*
X85996844Y-31953995D01*
X85954356Y-31982384D01*
X85909302Y-32006466D01*
X85869812Y-32038875D01*
X85827326Y-32067263D01*
X85791192Y-32103397D01*
X84300390Y-33594200D01*
X75116958Y-33594200D01*
X75199374Y-33493776D01*
X75269946Y-33361747D01*
X75313403Y-33218486D01*
X75324400Y-33106833D01*
X75324400Y-33106825D01*
X75328076Y-33069500D01*
X75324400Y-33032175D01*
X75324400Y-29126900D01*
X80821600Y-29126900D01*
X80821600Y-29951900D01*
X80874430Y-30234292D01*
X80981337Y-30500951D01*
X81138212Y-30741630D01*
X81339027Y-30947079D01*
X81576065Y-31109404D01*
X81840216Y-31222366D01*
X81928635Y-31241592D01*
X82154600Y-31119938D01*
X82154600Y-29126900D01*
X82408600Y-29126900D01*
X82408600Y-31119938D01*
X82634565Y-31241592D01*
X82722984Y-31222366D01*
X82987135Y-31109404D01*
X83224173Y-30947079D01*
X83424988Y-30741630D01*
X83581863Y-30500951D01*
X83688770Y-30234292D01*
X83741600Y-29951900D01*
X83741600Y-29126900D01*
X82408600Y-29126900D01*
X82154600Y-29126900D01*
X80821600Y-29126900D01*
X75324400Y-29126900D01*
X75324400Y-28559611D01*
X75368337Y-28515674D01*
X75481605Y-28346156D01*
X75559626Y-28157798D01*
X75599400Y-27957839D01*
X75599400Y-27753961D01*
X75559626Y-27554002D01*
X75481605Y-27365644D01*
X75393101Y-27233188D01*
X76346600Y-27233188D01*
X76346600Y-27466612D01*
X76392139Y-27695552D01*
X76481466Y-27911208D01*
X76611150Y-28105294D01*
X76776206Y-28270350D01*
X76970292Y-28400034D01*
X77185948Y-28489361D01*
X77414888Y-28534900D01*
X77648312Y-28534900D01*
X77877252Y-28489361D01*
X78092908Y-28400034D01*
X78286994Y-28270350D01*
X78452050Y-28105294D01*
X78490399Y-28047900D01*
X80821600Y-28047900D01*
X80821600Y-28872900D01*
X82154600Y-28872900D01*
X82154600Y-26879862D01*
X82408600Y-26879862D01*
X82408600Y-28872900D01*
X83741600Y-28872900D01*
X83741600Y-28058923D01*
X85504000Y-28058923D01*
X85504000Y-29957278D01*
X85525850Y-30179112D01*
X85612193Y-30463748D01*
X85752407Y-30726070D01*
X85941104Y-30955997D01*
X86171031Y-31144694D01*
X86433353Y-31284908D01*
X86717989Y-31371251D01*
X87014000Y-31400406D01*
X87310012Y-31371251D01*
X87594648Y-31284908D01*
X87856970Y-31144694D01*
X88086897Y-30955997D01*
X88264001Y-30740197D01*
X88441104Y-30955997D01*
X88671031Y-31144694D01*
X88933353Y-31284908D01*
X89217989Y-31371251D01*
X89514000Y-31400406D01*
X89810012Y-31371251D01*
X90094648Y-31284908D01*
X90356970Y-31144694D01*
X90586897Y-30955997D01*
X90775594Y-30726070D01*
X90915808Y-30463748D01*
X91002151Y-30179112D01*
X91024000Y-29957278D01*
X91024000Y-29704402D01*
X91054713Y-29750367D01*
X91226733Y-29922387D01*
X91429008Y-30057543D01*
X91653764Y-30150640D01*
X91892363Y-30198100D01*
X92135637Y-30198100D01*
X92374236Y-30150640D01*
X92598992Y-30057543D01*
X92801267Y-29922387D01*
X92973287Y-29750367D01*
X93004000Y-29704402D01*
X93004000Y-29957278D01*
X93025850Y-30179112D01*
X93112193Y-30463748D01*
X93252407Y-30726070D01*
X93441104Y-30955997D01*
X93671031Y-31144694D01*
X93933353Y-31284908D01*
X94217989Y-31371251D01*
X94514000Y-31400406D01*
X94810012Y-31371251D01*
X95094648Y-31284908D01*
X95356970Y-31144694D01*
X95586897Y-30955997D01*
X95764001Y-30740197D01*
X95941104Y-30955997D01*
X96171031Y-31144694D01*
X96433353Y-31284908D01*
X96717989Y-31371251D01*
X97014000Y-31400406D01*
X97310012Y-31371251D01*
X97594648Y-31284908D01*
X97856970Y-31144694D01*
X98086897Y-30955997D01*
X98275594Y-30726070D01*
X98415808Y-30463748D01*
X98502151Y-30179112D01*
X98524000Y-29957278D01*
X98524000Y-28058922D01*
X98502151Y-27837088D01*
X98415808Y-27552452D01*
X98275594Y-27290130D01*
X98086897Y-27060203D01*
X97921996Y-26924872D01*
X117104000Y-26924872D01*
X117104000Y-27365128D01*
X117189890Y-27796925D01*
X117358369Y-28203669D01*
X117602962Y-28569729D01*
X117914271Y-28881038D01*
X118280331Y-29125631D01*
X118687075Y-29294110D01*
X119118872Y-29380000D01*
X119559128Y-29380000D01*
X119990925Y-29294110D01*
X120397669Y-29125631D01*
X120763729Y-28881038D01*
X121075038Y-28569729D01*
X121319631Y-28203669D01*
X121488110Y-27796925D01*
X121574000Y-27365128D01*
X121574000Y-26924872D01*
X121488110Y-26493075D01*
X121319631Y-26086331D01*
X121075038Y-25720271D01*
X120763729Y-25408962D01*
X120397669Y-25164369D01*
X119990925Y-24995890D01*
X119559128Y-24910000D01*
X119118872Y-24910000D01*
X118687075Y-24995890D01*
X118280331Y-25164369D01*
X117914271Y-25408962D01*
X117602962Y-25720271D01*
X117358369Y-26086331D01*
X117189890Y-26493075D01*
X117104000Y-26924872D01*
X97921996Y-26924872D01*
X97856969Y-26871506D01*
X97594647Y-26731292D01*
X97310011Y-26644949D01*
X97014000Y-26615794D01*
X96717988Y-26644949D01*
X96433352Y-26731292D01*
X96171030Y-26871506D01*
X96109118Y-26922316D01*
X95580204Y-26393403D01*
X95556401Y-26364399D01*
X95440676Y-26269426D01*
X95308647Y-26198854D01*
X95165386Y-26155397D01*
X95053733Y-26144400D01*
X95053722Y-26144400D01*
X95016400Y-26140724D01*
X94979078Y-26144400D01*
X89075022Y-26144400D01*
X89037700Y-26140724D01*
X89000377Y-26144400D01*
X89000367Y-26144400D01*
X88888714Y-26155397D01*
X88745453Y-26198854D01*
X88613423Y-26269426D01*
X88529783Y-26338068D01*
X88497699Y-26364399D01*
X88473901Y-26393397D01*
X87933217Y-26934081D01*
X87856969Y-26871506D01*
X87594647Y-26731292D01*
X87310011Y-26644949D01*
X87014000Y-26615794D01*
X86717988Y-26644949D01*
X86433352Y-26731292D01*
X86171030Y-26871506D01*
X85941103Y-27060203D01*
X85752406Y-27290131D01*
X85612192Y-27552453D01*
X85525849Y-27837089D01*
X85504000Y-28058923D01*
X83741600Y-28058923D01*
X83741600Y-28047900D01*
X83688770Y-27765508D01*
X83581863Y-27498849D01*
X83424988Y-27258170D01*
X83224173Y-27052721D01*
X82987135Y-26890396D01*
X82722984Y-26777434D01*
X82634565Y-26758208D01*
X82408600Y-26879862D01*
X82154600Y-26879862D01*
X81928635Y-26758208D01*
X81840216Y-26777434D01*
X81576065Y-26890396D01*
X81339027Y-27052721D01*
X81138212Y-27258170D01*
X80981337Y-27498849D01*
X80874430Y-27765508D01*
X80821600Y-28047900D01*
X78490399Y-28047900D01*
X78581734Y-27911208D01*
X78671061Y-27695552D01*
X78716600Y-27466612D01*
X78716600Y-27233188D01*
X78671061Y-27004248D01*
X78581734Y-26788592D01*
X78452050Y-26594506D01*
X78286994Y-26429450D01*
X78092908Y-26299766D01*
X77877252Y-26210439D01*
X77648312Y-26164900D01*
X77414888Y-26164900D01*
X77185948Y-26210439D01*
X76970292Y-26299766D01*
X76776206Y-26429450D01*
X76611150Y-26594506D01*
X76481466Y-26788592D01*
X76392139Y-27004248D01*
X76346600Y-27233188D01*
X75393101Y-27233188D01*
X75368337Y-27196126D01*
X75224174Y-27051963D01*
X75054656Y-26938695D01*
X74866298Y-26860674D01*
X74666339Y-26820900D01*
X74462461Y-26820900D01*
X74262502Y-26860674D01*
X74074144Y-26938695D01*
X73904626Y-27051963D01*
X73760463Y-27196126D01*
X73716600Y-27261772D01*
X73716600Y-27233188D01*
X73671061Y-27004248D01*
X73581734Y-26788592D01*
X73452050Y-26594506D01*
X73286994Y-26429450D01*
X73092908Y-26299766D01*
X72877252Y-26210439D01*
X72648312Y-26164900D01*
X72414888Y-26164900D01*
X72185948Y-26210439D01*
X71970292Y-26299766D01*
X71776206Y-26429450D01*
X71611150Y-26594506D01*
X71481466Y-26788592D01*
X71392139Y-27004248D01*
X71346600Y-27233188D01*
X71346600Y-27466612D01*
X71392139Y-27695552D01*
X71481466Y-27911208D01*
X71611150Y-28105294D01*
X71776206Y-28270350D01*
X71970292Y-28400034D01*
X72185948Y-28489361D01*
X72414888Y-28534900D01*
X72648312Y-28534900D01*
X72877252Y-28489361D01*
X73092908Y-28400034D01*
X73286994Y-28270350D01*
X73452050Y-28105294D01*
X73534258Y-27982261D01*
X73569174Y-28157798D01*
X73647195Y-28346156D01*
X73760463Y-28515674D01*
X73804401Y-28559612D01*
X73804400Y-32613445D01*
X73703202Y-32633574D01*
X73514844Y-32711595D01*
X73345326Y-32824863D01*
X73201163Y-32969026D01*
X73087895Y-33138544D01*
X73009874Y-33326902D01*
X72970100Y-33526861D01*
X72970100Y-33594200D01*
X72830811Y-33594200D01*
X71110907Y-31874297D01*
X71078496Y-31834804D01*
X70920897Y-31705466D01*
X70741093Y-31609359D01*
X70545995Y-31550176D01*
X70393938Y-31535200D01*
X70393928Y-31535200D01*
X70343100Y-31530194D01*
X70292272Y-31535200D01*
X42895335Y-31535200D01*
X42844500Y-31530193D01*
X42793665Y-31535200D01*
X42793662Y-31535200D01*
X42641605Y-31550176D01*
X42446507Y-31609359D01*
X42362809Y-31654096D01*
X42266702Y-31705466D01*
X42148592Y-31802397D01*
X42109104Y-31834804D01*
X42076697Y-31874292D01*
X33965293Y-39985697D01*
X33925805Y-40018104D01*
X33893398Y-40057592D01*
X33893397Y-40057593D01*
X33796466Y-40175703D01*
X33700360Y-40355507D01*
X33641177Y-40550605D01*
X33621194Y-40753500D01*
X33626201Y-40804338D01*
X33626200Y-46644472D01*
X33621194Y-46695300D01*
X33626200Y-46746128D01*
X33626200Y-46746137D01*
X33641176Y-46898194D01*
X33700359Y-47093292D01*
X33796466Y-47273097D01*
X33925804Y-47430696D01*
X33965297Y-47463107D01*
X35613497Y-49111308D01*
X35645904Y-49150796D01*
X35685392Y-49183203D01*
X35803502Y-49280134D01*
X35804896Y-49280879D01*
X35608739Y-49340383D01*
X35342073Y-49482919D01*
X35108339Y-49674739D01*
X34916519Y-49908473D01*
X34773983Y-50175139D01*
X34686210Y-50464487D01*
X34656573Y-50765400D01*
X34686210Y-51066313D01*
X34773983Y-51355661D01*
X34916519Y-51622327D01*
X35108339Y-51856061D01*
X35342073Y-52047881D01*
X35608739Y-52190417D01*
X35898087Y-52278190D01*
X36123592Y-52300400D01*
X36774408Y-52300400D01*
X36999913Y-52278190D01*
X37289261Y-52190417D01*
X37555927Y-52047881D01*
X37789661Y-51856061D01*
X37981481Y-51622327D01*
X38124017Y-51355661D01*
X38211790Y-51066313D01*
X38241427Y-50765400D01*
X38211790Y-50464487D01*
X38124017Y-50175139D01*
X37981481Y-49908473D01*
X37789661Y-49674739D01*
X37555927Y-49482919D01*
X37495088Y-49450400D01*
X39497201Y-49450400D01*
X39497200Y-51317989D01*
X31770629Y-59044561D01*
X31770626Y-59044563D01*
X31734492Y-59080697D01*
X31695004Y-59113104D01*
X31662597Y-59152592D01*
X31626463Y-59188726D01*
X31598072Y-59231216D01*
X31589421Y-59241758D01*
X31565666Y-59270703D01*
X31541587Y-59315752D01*
X31513195Y-59358244D01*
X31493636Y-59405464D01*
X31469560Y-59450507D01*
X31454735Y-59499378D01*
X31435174Y-59546602D01*
X31425203Y-59596732D01*
X31410377Y-59645605D01*
X31405371Y-59696433D01*
X31395400Y-59746561D01*
X31395400Y-59797672D01*
X31390394Y-59848500D01*
X31395400Y-59899328D01*
X31395400Y-59950439D01*
X31405371Y-60000567D01*
X31410377Y-60051395D01*
X31425203Y-60100268D01*
X31435174Y-60150398D01*
X31454735Y-60197622D01*
X31469560Y-60246493D01*
X31493636Y-60291536D01*
X31513195Y-60338756D01*
X31541587Y-60381248D01*
X31565666Y-60426297D01*
X31598072Y-60465784D01*
X31626463Y-60508274D01*
X31662596Y-60544407D01*
X31695004Y-60583896D01*
X31734492Y-60616303D01*
X31770626Y-60652437D01*
X31770629Y-60652439D01*
X33498601Y-62380412D01*
X33498601Y-71821112D01*
X33468904Y-71671817D01*
X33387115Y-71474360D01*
X33268375Y-71296653D01*
X33117247Y-71145525D01*
X32939540Y-71026785D01*
X32742083Y-70944996D01*
X32532463Y-70903300D01*
X32318737Y-70903300D01*
X32109117Y-70944996D01*
X31911660Y-71026785D01*
X31733953Y-71145525D01*
X31582825Y-71296653D01*
X31464085Y-71474360D01*
X31382296Y-71671817D01*
X31340600Y-71881437D01*
X31340600Y-72095163D01*
X31382296Y-72304783D01*
X31464085Y-72502240D01*
X31582825Y-72679947D01*
X31733953Y-72831075D01*
X31911660Y-72949815D01*
X32109117Y-73031604D01*
X32318737Y-73073300D01*
X32532463Y-73073300D01*
X32742083Y-73031604D01*
X32939540Y-72949815D01*
X33117247Y-72831075D01*
X33268375Y-72679947D01*
X33387115Y-72502240D01*
X33468904Y-72304783D01*
X33498601Y-72155488D01*
X33498600Y-76221111D01*
X33468904Y-76071817D01*
X33387115Y-75874360D01*
X33268375Y-75696653D01*
X33117247Y-75545525D01*
X32939540Y-75426785D01*
X32742083Y-75344996D01*
X32532463Y-75303300D01*
X32318737Y-75303300D01*
X32109117Y-75344996D01*
X31911660Y-75426785D01*
X31733953Y-75545525D01*
X31582825Y-75696653D01*
X31464085Y-75874360D01*
X31382296Y-76071817D01*
X31340600Y-76281437D01*
X31340600Y-76495163D01*
X31382296Y-76704783D01*
X31464085Y-76902240D01*
X31582825Y-77079947D01*
X31733953Y-77231075D01*
X31911660Y-77349815D01*
X32109117Y-77431604D01*
X32318737Y-77473300D01*
X32532463Y-77473300D01*
X32742083Y-77431604D01*
X32939540Y-77349815D01*
X33117247Y-77231075D01*
X33268375Y-77079947D01*
X33387115Y-76902240D01*
X33468904Y-76704783D01*
X33498600Y-76555489D01*
X33498600Y-84428978D01*
X33493594Y-84479811D01*
X33498600Y-84530634D01*
X33498600Y-84530637D01*
X33513576Y-84682694D01*
X33513579Y-84682703D01*
X33513579Y-84682706D01*
X33522678Y-84712699D01*
X33572759Y-84877792D01*
X33572762Y-84877798D01*
X33572764Y-84877804D01*
X33610479Y-84948361D01*
X33668866Y-85057597D01*
X33798204Y-85215196D01*
X33837700Y-85247610D01*
X40265569Y-91675337D01*
X40110039Y-91644400D01*
X39982602Y-91644400D01*
X39957447Y-91630954D01*
X39814186Y-91587497D01*
X39702533Y-91576500D01*
X39702522Y-91576500D01*
X39665200Y-91572824D01*
X39627878Y-91576500D01*
X37616923Y-91576500D01*
X37579600Y-91572824D01*
X37542277Y-91576500D01*
X37542267Y-91576500D01*
X37430614Y-91587497D01*
X37287353Y-91630954D01*
X37155323Y-91701526D01*
X37071683Y-91770168D01*
X37039599Y-91796499D01*
X37015801Y-91825497D01*
X31520098Y-97321201D01*
X31491100Y-97344999D01*
X31467302Y-97373997D01*
X31467301Y-97373998D01*
X31396126Y-97460724D01*
X31325554Y-97592754D01*
X31295280Y-97692558D01*
X31282098Y-97736014D01*
X31277331Y-97784413D01*
X31267424Y-97885000D01*
X31271101Y-97922332D01*
X31271101Y-100781500D01*
X30888110Y-100781500D01*
X30888110Y-102144024D01*
X30705443Y-102021970D01*
X30288143Y-101849119D01*
X29845141Y-101761000D01*
X29393459Y-101761000D01*
X28950457Y-101849119D01*
X28533157Y-102021970D01*
X28157598Y-102272910D01*
X27838210Y-102592298D01*
X27587270Y-102967857D01*
X27414419Y-103385157D01*
X27326300Y-103828159D01*
X27090440Y-103828159D01*
X27090440Y-86129672D01*
X28554900Y-86129672D01*
X28554900Y-86569928D01*
X28640790Y-87001725D01*
X28809269Y-87408469D01*
X29053862Y-87774529D01*
X29365171Y-88085838D01*
X29731231Y-88330431D01*
X30137975Y-88498910D01*
X30569772Y-88584800D01*
X31010028Y-88584800D01*
X31441825Y-88498910D01*
X31848569Y-88330431D01*
X32214629Y-88085838D01*
X32525938Y-87774529D01*
X32770531Y-87408469D01*
X32939010Y-87001725D01*
X33024900Y-86569928D01*
X33024900Y-86129672D01*
X32939010Y-85697875D01*
X32770531Y-85291131D01*
X32525938Y-84925071D01*
X32214629Y-84613762D01*
X31848569Y-84369169D01*
X31441825Y-84200690D01*
X31010028Y-84114800D01*
X30569772Y-84114800D01*
X30137975Y-84200690D01*
X29731231Y-84369169D01*
X29365171Y-84613762D01*
X29053862Y-84925071D01*
X28809269Y-85291131D01*
X28640790Y-85697875D01*
X28554900Y-86129672D01*
X27090440Y-86129672D01*
X27090440Y-30388673D01*
X27093193Y-30397748D01*
X27233407Y-30660070D01*
X27422104Y-30889997D01*
X27652031Y-31078694D01*
X27914353Y-31218908D01*
X28198989Y-31305251D01*
X28495000Y-31334406D01*
X28791012Y-31305251D01*
X29075648Y-31218908D01*
X29337970Y-31078694D01*
X29567897Y-30889997D01*
X29745001Y-30674197D01*
X29922104Y-30889997D01*
X30152031Y-31078694D01*
X30414353Y-31218908D01*
X30698989Y-31305251D01*
X30995000Y-31334406D01*
X31291012Y-31305251D01*
X31575648Y-31218908D01*
X31837970Y-31078694D01*
X32067897Y-30889997D01*
X32256594Y-30660070D01*
X32396808Y-30397748D01*
X32483151Y-30113112D01*
X32505000Y-29891278D01*
X32505000Y-29638402D01*
X32535713Y-29684367D01*
X32707733Y-29856387D01*
X32910008Y-29991543D01*
X33134764Y-30084640D01*
X33373363Y-30132100D01*
X33616637Y-30132100D01*
X33855236Y-30084640D01*
X34079992Y-29991543D01*
X34282267Y-29856387D01*
X34454287Y-29684367D01*
X34485000Y-29638402D01*
X34485000Y-29891278D01*
X34506850Y-30113112D01*
X34593193Y-30397748D01*
X34733407Y-30660070D01*
X34922104Y-30889997D01*
X35152031Y-31078694D01*
X35414353Y-31218908D01*
X35698989Y-31305251D01*
X35995000Y-31334406D01*
X36291012Y-31305251D01*
X36575648Y-31218908D01*
X36837970Y-31078694D01*
X37067897Y-30889997D01*
X37245001Y-30674197D01*
X37422104Y-30889997D01*
X37652031Y-31078694D01*
X37914353Y-31218908D01*
X38198989Y-31305251D01*
X38495000Y-31334406D01*
X38791012Y-31305251D01*
X39075648Y-31218908D01*
X39337970Y-31078694D01*
X39567897Y-30889997D01*
X39756594Y-30660070D01*
X39896808Y-30397748D01*
X39983151Y-30113112D01*
X40005000Y-29891278D01*
X40005000Y-29126900D01*
X66321600Y-29126900D01*
X66321600Y-29951900D01*
X66374430Y-30234292D01*
X66481337Y-30500951D01*
X66638212Y-30741630D01*
X66839027Y-30947079D01*
X67076065Y-31109404D01*
X67340216Y-31222366D01*
X67428635Y-31241592D01*
X67654600Y-31119938D01*
X67654600Y-29126900D01*
X67908600Y-29126900D01*
X67908600Y-31119938D01*
X68134565Y-31241592D01*
X68222984Y-31222366D01*
X68487135Y-31109404D01*
X68724173Y-30947079D01*
X68924988Y-30741630D01*
X69081863Y-30500951D01*
X69188770Y-30234292D01*
X69241600Y-29951900D01*
X69241600Y-29126900D01*
X67908600Y-29126900D01*
X67654600Y-29126900D01*
X66321600Y-29126900D01*
X40005000Y-29126900D01*
X40005000Y-28047900D01*
X66321600Y-28047900D01*
X66321600Y-28872900D01*
X67654600Y-28872900D01*
X67654600Y-26879862D01*
X67908600Y-26879862D01*
X67908600Y-28872900D01*
X69241600Y-28872900D01*
X69241600Y-28047900D01*
X69188770Y-27765508D01*
X69081863Y-27498849D01*
X68924988Y-27258170D01*
X68724173Y-27052721D01*
X68487135Y-26890396D01*
X68222984Y-26777434D01*
X68134565Y-26758208D01*
X67908600Y-26879862D01*
X67654600Y-26879862D01*
X67428635Y-26758208D01*
X67340216Y-26777434D01*
X67076065Y-26890396D01*
X66839027Y-27052721D01*
X66638212Y-27258170D01*
X66481337Y-27498849D01*
X66374430Y-27765508D01*
X66321600Y-28047900D01*
X40005000Y-28047900D01*
X40005000Y-27992922D01*
X39983151Y-27771088D01*
X39896808Y-27486452D01*
X39756594Y-27224130D01*
X39567897Y-26994203D01*
X39337969Y-26805506D01*
X39075647Y-26665292D01*
X38791011Y-26578949D01*
X38495000Y-26549794D01*
X38198988Y-26578949D01*
X37914352Y-26665292D01*
X37652030Y-26805506D01*
X37422103Y-26994203D01*
X37245000Y-27210003D01*
X37067897Y-26994203D01*
X36837969Y-26805506D01*
X36575647Y-26665292D01*
X36291011Y-26578949D01*
X35995000Y-26549794D01*
X35698988Y-26578949D01*
X35414352Y-26665292D01*
X35152030Y-26805506D01*
X34922103Y-26994203D01*
X34733406Y-27224131D01*
X34593192Y-27486453D01*
X34506849Y-27771089D01*
X34485000Y-27992923D01*
X34485000Y-28155798D01*
X34454287Y-28109833D01*
X34282267Y-27937813D01*
X34079992Y-27802657D01*
X33855236Y-27709560D01*
X33616637Y-27662100D01*
X33373363Y-27662100D01*
X33134764Y-27709560D01*
X32910008Y-27802657D01*
X32707733Y-27937813D01*
X32535713Y-28109833D01*
X32505000Y-28155798D01*
X32505000Y-27992922D01*
X32483151Y-27771088D01*
X32396808Y-27486452D01*
X32256594Y-27224130D01*
X32067897Y-26994203D01*
X31837969Y-26805506D01*
X31575647Y-26665292D01*
X31291011Y-26578949D01*
X30995000Y-26549794D01*
X30698988Y-26578949D01*
X30414352Y-26665292D01*
X30152030Y-26805506D01*
X29922103Y-26994203D01*
X29745000Y-27210003D01*
X29567897Y-26994203D01*
X29337969Y-26805506D01*
X29075647Y-26665292D01*
X28791011Y-26578949D01*
X28495000Y-26549794D01*
X28198988Y-26578949D01*
X27914352Y-26665292D01*
X27652030Y-26805506D01*
X27422103Y-26994203D01*
X27233406Y-27224131D01*
X27093192Y-27486453D01*
X27090440Y-27495525D01*
X27090440Y-25186100D01*
X31106928Y-25186100D01*
X31119188Y-25310582D01*
X31155498Y-25430280D01*
X31214463Y-25540594D01*
X31293815Y-25637285D01*
X31390506Y-25716637D01*
X31500820Y-25775602D01*
X31620518Y-25811912D01*
X31745000Y-25824172D01*
X33209250Y-25821100D01*
X33368000Y-25662350D01*
X33368000Y-24063100D01*
X33622000Y-24063100D01*
X33622000Y-25662350D01*
X33780750Y-25821100D01*
X35245000Y-25824172D01*
X35369482Y-25811912D01*
X35489180Y-25775602D01*
X35599494Y-25716637D01*
X35696185Y-25637285D01*
X35775537Y-25540594D01*
X35834502Y-25430280D01*
X35870812Y-25310582D01*
X35876571Y-25252100D01*
X89625928Y-25252100D01*
X89638188Y-25376582D01*
X89674498Y-25496280D01*
X89733463Y-25606594D01*
X89812815Y-25703285D01*
X89909506Y-25782637D01*
X90019820Y-25841602D01*
X90139518Y-25877912D01*
X90264000Y-25890172D01*
X91728250Y-25887100D01*
X91887000Y-25728350D01*
X91887000Y-24129100D01*
X92141000Y-24129100D01*
X92141000Y-25728350D01*
X92299750Y-25887100D01*
X93764000Y-25890172D01*
X93888482Y-25877912D01*
X94008180Y-25841602D01*
X94118494Y-25782637D01*
X94215185Y-25703285D01*
X94294537Y-25606594D01*
X94353502Y-25496280D01*
X94389812Y-25376582D01*
X94402072Y-25252100D01*
X94399000Y-24287850D01*
X94240250Y-24129100D01*
X92141000Y-24129100D01*
X91887000Y-24129100D01*
X89787750Y-24129100D01*
X89629000Y-24287850D01*
X89625928Y-25252100D01*
X35876571Y-25252100D01*
X35883072Y-25186100D01*
X35880000Y-24221850D01*
X35721250Y-24063100D01*
X33622000Y-24063100D01*
X33368000Y-24063100D01*
X31268750Y-24063100D01*
X31110000Y-24221850D01*
X31106928Y-25186100D01*
X27090440Y-25186100D01*
X27090440Y-23775463D01*
X27260000Y-23775463D01*
X27260000Y-24018737D01*
X27307460Y-24257336D01*
X27400557Y-24482092D01*
X27535713Y-24684367D01*
X27707733Y-24856387D01*
X27910008Y-24991543D01*
X28134764Y-25084640D01*
X28373363Y-25132100D01*
X28616637Y-25132100D01*
X28855236Y-25084640D01*
X29079992Y-24991543D01*
X29282267Y-24856387D01*
X29454287Y-24684367D01*
X29589443Y-24482092D01*
X29682540Y-24257336D01*
X29730000Y-24018737D01*
X29730000Y-23775463D01*
X29682540Y-23536864D01*
X29589443Y-23312108D01*
X29454287Y-23109833D01*
X29282267Y-22937813D01*
X29079992Y-22802657D01*
X28855236Y-22709560D01*
X28737294Y-22686100D01*
X31106928Y-22686100D01*
X31110000Y-23650350D01*
X31268750Y-23809100D01*
X33368000Y-23809100D01*
X33368000Y-22209850D01*
X33622000Y-22209850D01*
X33622000Y-23809100D01*
X35721250Y-23809100D01*
X35754887Y-23775463D01*
X37260000Y-23775463D01*
X37260000Y-24018737D01*
X37307460Y-24257336D01*
X37400557Y-24482092D01*
X37535713Y-24684367D01*
X37707733Y-24856387D01*
X37910008Y-24991543D01*
X38134764Y-25084640D01*
X38373363Y-25132100D01*
X38616637Y-25132100D01*
X38855236Y-25084640D01*
X39079992Y-24991543D01*
X39282267Y-24856387D01*
X39454287Y-24684367D01*
X39589443Y-24482092D01*
X39682540Y-24257336D01*
X39730000Y-24018737D01*
X39730000Y-23775463D01*
X39682540Y-23536864D01*
X39589443Y-23312108D01*
X39454287Y-23109833D01*
X39282267Y-22937813D01*
X39079992Y-22802657D01*
X38855236Y-22709560D01*
X38616637Y-22662100D01*
X38373363Y-22662100D01*
X38134764Y-22709560D01*
X37910008Y-22802657D01*
X37707733Y-22937813D01*
X37535713Y-23109833D01*
X37400557Y-23312108D01*
X37307460Y-23536864D01*
X37260000Y-23775463D01*
X35754887Y-23775463D01*
X35880000Y-23650350D01*
X35883072Y-22686100D01*
X35870812Y-22561618D01*
X35834502Y-22441920D01*
X35775537Y-22331606D01*
X35696185Y-22234915D01*
X35599494Y-22155563D01*
X35489180Y-22096598D01*
X35369482Y-22060288D01*
X35245000Y-22048028D01*
X33780750Y-22051100D01*
X33622000Y-22209850D01*
X33368000Y-22209850D01*
X33209250Y-22051100D01*
X31745000Y-22048028D01*
X31620518Y-22060288D01*
X31500820Y-22096598D01*
X31390506Y-22155563D01*
X31293815Y-22234915D01*
X31214463Y-22331606D01*
X31155498Y-22441920D01*
X31119188Y-22561618D01*
X31106928Y-22686100D01*
X28737294Y-22686100D01*
X28616637Y-22662100D01*
X28373363Y-22662100D01*
X28134764Y-22709560D01*
X27910008Y-22802657D01*
X27707733Y-22937813D01*
X27535713Y-23109833D01*
X27400557Y-23312108D01*
X27307460Y-23536864D01*
X27260000Y-23775463D01*
X27090440Y-23775463D01*
X27090440Y-20194340D01*
X28211281Y-20194340D01*
X28134764Y-20209560D01*
%TA.AperFunction,Conductor*%
D27*
G36*
X28134764Y-20209560D02*
G01*
X27910008Y-20302657D01*
X27707733Y-20437813D01*
X27535713Y-20609833D01*
X27400557Y-20812108D01*
X27307460Y-21036864D01*
X27260000Y-21275463D01*
X27260000Y-21518737D01*
X27307460Y-21757336D01*
X27400557Y-21982092D01*
X27535713Y-22184367D01*
X27707733Y-22356387D01*
X27910008Y-22491543D01*
X28134764Y-22584640D01*
X28373363Y-22632100D01*
X28616637Y-22632100D01*
X28855236Y-22584640D01*
X29079992Y-22491543D01*
X29282267Y-22356387D01*
X29454287Y-22184367D01*
X29589443Y-21982092D01*
X29682540Y-21757336D01*
X29730000Y-21518737D01*
X29730000Y-21275463D01*
X29682540Y-21036864D01*
X29589443Y-20812108D01*
X29454287Y-20609833D01*
X29282267Y-20437813D01*
X29079992Y-20302657D01*
X28855236Y-20209560D01*
X28778719Y-20194340D01*
X38211281Y-20194340D01*
X38134764Y-20209560D01*
X37910008Y-20302657D01*
X37707733Y-20437813D01*
X37535713Y-20609833D01*
X37400557Y-20812108D01*
X37307460Y-21036864D01*
X37260000Y-21275463D01*
X37260000Y-21518737D01*
X37307460Y-21757336D01*
X37400557Y-21982092D01*
X37535713Y-22184367D01*
X37707733Y-22356387D01*
X37910008Y-22491543D01*
X38134764Y-22584640D01*
X38373363Y-22632100D01*
X38616637Y-22632100D01*
X38855236Y-22584640D01*
X39079992Y-22491543D01*
X39171031Y-22430712D01*
X47938300Y-22430712D01*
X47938300Y-22654288D01*
X47981917Y-22873567D01*
X48067476Y-23080124D01*
X48191688Y-23266020D01*
X48349780Y-23424112D01*
X48535676Y-23548324D01*
X48742233Y-23633883D01*
X48961512Y-23677500D01*
X49185088Y-23677500D01*
X49404367Y-23633883D01*
X49610924Y-23548324D01*
X49796820Y-23424112D01*
X49954912Y-23266020D01*
X50079124Y-23080124D01*
X50164683Y-22873567D01*
X50208300Y-22654288D01*
X50208300Y-22430712D01*
X55918300Y-22430712D01*
X55918300Y-22654288D01*
X55961917Y-22873567D01*
X56047476Y-23080124D01*
X56171688Y-23266020D01*
X56329780Y-23424112D01*
X56515676Y-23548324D01*
X56722233Y-23633883D01*
X56941512Y-23677500D01*
X57165088Y-23677500D01*
X57384367Y-23633883D01*
X57590924Y-23548324D01*
X57776820Y-23424112D01*
X57934912Y-23266020D01*
X58001142Y-23166900D01*
X66471600Y-23166900D01*
X66471600Y-23841900D01*
X66521548Y-24095028D01*
X66619919Y-24333548D01*
X66762933Y-24548294D01*
X66945094Y-24731013D01*
X67159401Y-24874683D01*
X67397619Y-24973783D01*
X67452200Y-24982810D01*
X67654600Y-24859124D01*
X67654600Y-23166900D01*
X67908600Y-23166900D01*
X67908600Y-24859124D01*
X68111000Y-24982810D01*
X68165581Y-24973783D01*
X68403799Y-24874683D01*
X68618106Y-24731013D01*
X68800267Y-24548294D01*
X68943281Y-24333548D01*
X69041652Y-24095028D01*
X69091600Y-23841900D01*
X69091600Y-23166900D01*
X80971600Y-23166900D01*
X80971600Y-23841900D01*
X81021548Y-24095028D01*
X81119919Y-24333548D01*
X81262933Y-24548294D01*
X81445094Y-24731013D01*
X81659401Y-24874683D01*
X81897619Y-24973783D01*
X81952200Y-24982810D01*
X82154600Y-24859124D01*
X82154600Y-23166900D01*
X82408600Y-23166900D01*
X82408600Y-24859124D01*
X82611000Y-24982810D01*
X82665581Y-24973783D01*
X82903799Y-24874683D01*
X83118106Y-24731013D01*
X83300267Y-24548294D01*
X83443281Y-24333548D01*
X83541652Y-24095028D01*
X83591600Y-23841900D01*
X83591600Y-23841463D01*
X85779000Y-23841463D01*
X85779000Y-24084737D01*
X85826460Y-24323336D01*
X85919557Y-24548092D01*
X86054713Y-24750367D01*
X86226733Y-24922387D01*
X86429008Y-25057543D01*
X86653764Y-25150640D01*
X86892363Y-25198100D01*
X87135637Y-25198100D01*
X87374236Y-25150640D01*
X87598992Y-25057543D01*
X87801267Y-24922387D01*
X87973287Y-24750367D01*
X88108443Y-24548092D01*
X88201540Y-24323336D01*
X88249000Y-24084737D01*
X88249000Y-23841463D01*
X88201540Y-23602864D01*
X88108443Y-23378108D01*
X87973287Y-23175833D01*
X87801267Y-23003813D01*
X87598992Y-22868657D01*
X87374236Y-22775560D01*
X87256294Y-22752100D01*
X89625928Y-22752100D01*
X89629000Y-23716350D01*
X89787750Y-23875100D01*
X91887000Y-23875100D01*
X91887000Y-22275850D01*
X92141000Y-22275850D01*
X92141000Y-23875100D01*
X94240250Y-23875100D01*
X94273887Y-23841463D01*
X95779000Y-23841463D01*
X95779000Y-24084737D01*
X95826460Y-24323336D01*
X95919557Y-24548092D01*
X96054713Y-24750367D01*
X96226733Y-24922387D01*
X96429008Y-25057543D01*
X96653764Y-25150640D01*
X96892363Y-25198100D01*
X97135637Y-25198100D01*
X97374236Y-25150640D01*
X97598992Y-25057543D01*
X97801267Y-24922387D01*
X97973287Y-24750367D01*
X98108443Y-24548092D01*
X98201540Y-24323336D01*
X98249000Y-24084737D01*
X98249000Y-23841463D01*
X98201540Y-23602864D01*
X98108443Y-23378108D01*
X97973287Y-23175833D01*
X97801267Y-23003813D01*
X97598992Y-22868657D01*
X97374236Y-22775560D01*
X97135637Y-22728100D01*
X96892363Y-22728100D01*
X96653764Y-22775560D01*
X96429008Y-22868657D01*
X96226733Y-23003813D01*
X96054713Y-23175833D01*
X95919557Y-23378108D01*
X95826460Y-23602864D01*
X95779000Y-23841463D01*
X94273887Y-23841463D01*
X94399000Y-23716350D01*
X94402072Y-22752100D01*
X94389812Y-22627618D01*
X94353502Y-22507920D01*
X94294537Y-22397606D01*
X94215185Y-22300915D01*
X94118494Y-22221563D01*
X94008180Y-22162598D01*
X93888482Y-22126288D01*
X93764000Y-22114028D01*
X92299750Y-22117100D01*
X92141000Y-22275850D01*
X91887000Y-22275850D01*
X91728250Y-22117100D01*
X90264000Y-22114028D01*
X90139518Y-22126288D01*
X90019820Y-22162598D01*
X89909506Y-22221563D01*
X89812815Y-22300915D01*
X89733463Y-22397606D01*
X89674498Y-22507920D01*
X89638188Y-22627618D01*
X89625928Y-22752100D01*
X87256294Y-22752100D01*
X87135637Y-22728100D01*
X86892363Y-22728100D01*
X86653764Y-22775560D01*
X86429008Y-22868657D01*
X86226733Y-23003813D01*
X86054713Y-23175833D01*
X85919557Y-23378108D01*
X85826460Y-23602864D01*
X85779000Y-23841463D01*
X83591600Y-23841463D01*
X83591600Y-23166900D01*
X82408600Y-23166900D01*
X82154600Y-23166900D01*
X80971600Y-23166900D01*
X69091600Y-23166900D01*
X67908600Y-23166900D01*
X67654600Y-23166900D01*
X66471600Y-23166900D01*
X58001142Y-23166900D01*
X58059124Y-23080124D01*
X58144683Y-22873567D01*
X58188300Y-22654288D01*
X58188300Y-22430712D01*
X58149948Y-22237900D01*
X66471600Y-22237900D01*
X66471600Y-22912900D01*
X67654600Y-22912900D01*
X67654600Y-21220676D01*
X67908600Y-21220676D01*
X67908600Y-22912900D01*
X69091600Y-22912900D01*
X69091600Y-22237900D01*
X80971600Y-22237900D01*
X80971600Y-22912900D01*
X82154600Y-22912900D01*
X82154600Y-21220676D01*
X82408600Y-21220676D01*
X82408600Y-22912900D01*
X83591600Y-22912900D01*
X83591600Y-22237900D01*
X83541652Y-21984772D01*
X83443281Y-21746252D01*
X83300267Y-21531506D01*
X83118106Y-21348787D01*
X83107182Y-21341463D01*
X85779000Y-21341463D01*
X85779000Y-21584737D01*
X85826460Y-21823336D01*
X85919557Y-22048092D01*
X86054713Y-22250367D01*
X86226733Y-22422387D01*
X86429008Y-22557543D01*
X86653764Y-22650640D01*
X86892363Y-22698100D01*
X87135637Y-22698100D01*
X87374236Y-22650640D01*
X87598992Y-22557543D01*
X87801267Y-22422387D01*
X87973287Y-22250367D01*
X88108443Y-22048092D01*
X88201540Y-21823336D01*
X88249000Y-21584737D01*
X88249000Y-21341463D01*
X95779000Y-21341463D01*
X95779000Y-21584737D01*
X95826460Y-21823336D01*
X95919557Y-22048092D01*
X96054713Y-22250367D01*
X96226733Y-22422387D01*
X96429008Y-22557543D01*
X96653764Y-22650640D01*
X96892363Y-22698100D01*
X97135637Y-22698100D01*
X97374236Y-22650640D01*
X97598992Y-22557543D01*
X97801267Y-22422387D01*
X97973287Y-22250367D01*
X98108443Y-22048092D01*
X98201540Y-21823336D01*
X98249000Y-21584737D01*
X98249000Y-21341463D01*
X98201540Y-21102864D01*
X98108443Y-20878108D01*
X97973287Y-20675833D01*
X97801267Y-20503813D01*
X97598992Y-20368657D01*
X97374236Y-20275560D01*
X97135637Y-20228100D01*
X96892363Y-20228100D01*
X96653764Y-20275560D01*
X96429008Y-20368657D01*
X96226733Y-20503813D01*
X96054713Y-20675833D01*
X95919557Y-20878108D01*
X95826460Y-21102864D01*
X95779000Y-21341463D01*
X88249000Y-21341463D01*
X88201540Y-21102864D01*
X88108443Y-20878108D01*
X87973287Y-20675833D01*
X87801267Y-20503813D01*
X87598992Y-20368657D01*
X87374236Y-20275560D01*
X87135637Y-20228100D01*
X86892363Y-20228100D01*
X86653764Y-20275560D01*
X86429008Y-20368657D01*
X86226733Y-20503813D01*
X86054713Y-20675833D01*
X85919557Y-20878108D01*
X85826460Y-21102864D01*
X85779000Y-21341463D01*
X83107182Y-21341463D01*
X82903799Y-21205117D01*
X82665581Y-21106017D01*
X82611000Y-21096990D01*
X82408600Y-21220676D01*
X82154600Y-21220676D01*
X81952200Y-21096990D01*
X81897619Y-21106017D01*
X81659401Y-21205117D01*
X81445094Y-21348787D01*
X81262933Y-21531506D01*
X81119919Y-21746252D01*
X81021548Y-21984772D01*
X80971600Y-22237900D01*
X69091600Y-22237900D01*
X69041652Y-21984772D01*
X68943281Y-21746252D01*
X68800267Y-21531506D01*
X68618106Y-21348787D01*
X68403799Y-21205117D01*
X68165581Y-21106017D01*
X68111000Y-21096990D01*
X67908600Y-21220676D01*
X67654600Y-21220676D01*
X67452200Y-21096990D01*
X67397619Y-21106017D01*
X67159401Y-21205117D01*
X66945094Y-21348787D01*
X66762933Y-21531506D01*
X66619919Y-21746252D01*
X66521548Y-21984772D01*
X66471600Y-22237900D01*
X58149948Y-22237900D01*
X58144683Y-22211433D01*
X58059124Y-22004876D01*
X57934912Y-21818980D01*
X57776820Y-21660888D01*
X57590924Y-21536676D01*
X57384367Y-21451117D01*
X57165088Y-21407500D01*
X56941512Y-21407500D01*
X56722233Y-21451117D01*
X56515676Y-21536676D01*
X56329780Y-21660888D01*
X56171688Y-21818980D01*
X56047476Y-22004876D01*
X55961917Y-22211433D01*
X55918300Y-22430712D01*
X50208300Y-22430712D01*
X50164683Y-22211433D01*
X50079124Y-22004876D01*
X49954912Y-21818980D01*
X49796820Y-21660888D01*
X49610924Y-21536676D01*
X49404367Y-21451117D01*
X49185088Y-21407500D01*
X48961512Y-21407500D01*
X48742233Y-21451117D01*
X48535676Y-21536676D01*
X48349780Y-21660888D01*
X48191688Y-21818980D01*
X48067476Y-22004876D01*
X47981917Y-22211433D01*
X47938300Y-22430712D01*
X39171031Y-22430712D01*
X39282267Y-22356387D01*
X39454287Y-22184367D01*
X39589443Y-21982092D01*
X39682540Y-21757336D01*
X39730000Y-21518737D01*
X39730000Y-21275463D01*
X39682540Y-21036864D01*
X39589443Y-20812108D01*
X39454287Y-20609833D01*
X39282267Y-20437813D01*
X39079992Y-20302657D01*
X38855236Y-20209560D01*
X38778719Y-20194340D01*
X125670439Y-20194340D01*
X125670242Y-97774140D01*
X81576226Y-97774140D01*
X81543653Y-97770721D01*
X81506497Y-97774140D01*
X81504203Y-97774140D01*
X81471588Y-97777352D01*
X81404385Y-97783536D01*
X81402187Y-97784187D01*
X81399896Y-97784413D01*
X81335034Y-97804089D01*
X81270291Y-97823276D01*
X81268261Y-97824344D01*
X81266060Y-97825012D01*
X81206308Y-97856950D01*
X81146528Y-97888412D01*
X81144746Y-97889856D01*
X81142717Y-97890940D01*
X81090329Y-97933934D01*
X81037850Y-97976442D01*
X81036384Y-97978205D01*
X81034605Y-97979665D01*
X80991555Y-98032122D01*
X80948434Y-98083984D01*
X80947342Y-98085995D01*
X80945880Y-98087777D01*
X80913911Y-98147587D01*
X80881716Y-98206901D01*
X80881036Y-98209092D01*
X80879952Y-98211120D01*
X80860290Y-98275938D01*
X80840260Y-98340474D01*
X80840021Y-98342755D01*
X80839353Y-98344956D01*
X80832710Y-98412407D01*
X80829319Y-98444713D01*
X80829304Y-98446984D01*
X80825645Y-98484140D01*
X80828857Y-98516755D01*
X80698998Y-118774143D01*
X27090440Y-118774338D01*
X27090440Y-113728159D01*
X27326300Y-113728159D01*
X27326300Y-114179841D01*
X27414419Y-114622843D01*
X27587270Y-115040143D01*
X27838210Y-115415702D01*
X28157598Y-115735090D01*
X28533157Y-115986030D01*
X28950457Y-116158881D01*
X29393459Y-116247000D01*
X29845141Y-116247000D01*
X30288143Y-116158881D01*
X30705443Y-115986030D01*
X31081002Y-115735090D01*
X31400390Y-115415702D01*
X31651330Y-115040143D01*
X31824181Y-114622843D01*
X31912300Y-114179841D01*
X31912300Y-113728159D01*
X31824181Y-113285157D01*
X31651330Y-112867857D01*
X31400390Y-112492298D01*
X31081002Y-112172910D01*
X30705443Y-111921970D01*
X30288143Y-111749119D01*
X29845141Y-111661000D01*
X29393459Y-111661000D01*
X28950457Y-111749119D01*
X28533157Y-111921970D01*
X28157598Y-112172910D01*
X27838210Y-112492298D01*
X27587270Y-112867857D01*
X27414419Y-113285157D01*
X27326300Y-113728159D01*
X27090440Y-113728159D01*
X27090440Y-103828159D01*
X27326300Y-103828159D01*
X27326300Y-104279841D01*
X27414419Y-104722843D01*
X27587270Y-105140143D01*
X27838210Y-105515702D01*
X28157598Y-105835090D01*
X28533157Y-106086030D01*
X28950457Y-106258881D01*
X29393459Y-106347000D01*
X29845141Y-106347000D01*
X30288143Y-106258881D01*
X30705443Y-106086030D01*
X31081002Y-105835090D01*
X31271100Y-105644992D01*
X31271100Y-111542582D01*
X31267424Y-111579810D01*
X31271100Y-111617230D01*
X31271100Y-111617332D01*
X31274945Y-111656369D01*
X31282060Y-111728798D01*
X31282088Y-111728889D01*
X31282097Y-111728985D01*
X31303833Y-111800640D01*
X31325481Y-111872070D01*
X31325526Y-111872155D01*
X31325554Y-111872246D01*
X31360361Y-111937364D01*
X31396020Y-112004117D01*
X31396082Y-112004192D01*
X31396126Y-112004275D01*
X31443715Y-112062262D01*
X31467173Y-112090861D01*
X31467238Y-112090926D01*
X31491099Y-112120001D01*
X31520028Y-112143742D01*
X32067940Y-112691928D01*
X32091799Y-112721001D01*
X32150480Y-112769160D01*
X32207365Y-112815867D01*
X32207447Y-112815911D01*
X32207524Y-112815974D01*
X32274805Y-112851937D01*
X32339377Y-112886473D01*
X32339468Y-112886501D01*
X32339553Y-112886546D01*
X32412083Y-112908548D01*
X32482626Y-112929965D01*
X32482719Y-112929974D01*
X32482814Y-112930003D01*
X32560510Y-112937656D01*
X32631609Y-112944676D01*
X32669027Y-112941000D01*
X35055355Y-112941000D01*
X35007598Y-112972910D01*
X34688210Y-113292298D01*
X34437270Y-113667857D01*
X34264419Y-114085157D01*
X34176300Y-114528159D01*
X34176300Y-114979841D01*
X34264419Y-115422843D01*
X34437270Y-115840143D01*
X34688210Y-116215702D01*
X35007598Y-116535090D01*
X35383157Y-116786030D01*
X35800457Y-116958881D01*
X36243459Y-117047000D01*
X36695141Y-117047000D01*
X37138143Y-116958881D01*
X37555443Y-116786030D01*
X37931002Y-116535090D01*
X38250390Y-116215702D01*
X38501330Y-115840143D01*
X38674181Y-115422843D01*
X38762300Y-114979841D01*
X38762300Y-114528159D01*
X38674181Y-114085157D01*
X38526308Y-113728159D01*
X41026300Y-113728159D01*
X41026300Y-114179841D01*
X41114419Y-114622843D01*
X41287270Y-115040143D01*
X41538210Y-115415702D01*
X41857598Y-115735090D01*
X42233157Y-115986030D01*
X42650457Y-116158881D01*
X43093459Y-116247000D01*
X43545141Y-116247000D01*
X43988143Y-116158881D01*
X44405443Y-115986030D01*
X44781002Y-115735090D01*
X45100390Y-115415702D01*
X45351330Y-115040143D01*
X45524181Y-114622843D01*
X45612300Y-114179841D01*
X45612300Y-113728159D01*
X45524181Y-113285157D01*
X45351330Y-112867857D01*
X45100390Y-112492298D01*
X44781002Y-112172910D01*
X44405443Y-111921970D01*
X43988143Y-111749119D01*
X43545141Y-111661000D01*
X43093459Y-111661000D01*
X42650457Y-111749119D01*
X42233157Y-111921970D01*
X41857598Y-112172910D01*
X41538210Y-112492298D01*
X41287270Y-112867857D01*
X41114419Y-113285157D01*
X41026300Y-113728159D01*
X38526308Y-113728159D01*
X38501330Y-113667857D01*
X38250390Y-113292298D01*
X37931002Y-112972910D01*
X37555443Y-112721970D01*
X37322843Y-112625624D01*
X37527296Y-112421095D01*
X37637420Y-112443000D01*
X37901180Y-112443000D01*
X38159872Y-112391543D01*
X38403554Y-112290607D01*
X38622863Y-112144069D01*
X38738804Y-112028128D01*
X39124777Y-112028128D01*
X39184723Y-112262305D01*
X39423851Y-112373602D01*
X39680097Y-112436109D01*
X39943614Y-112447425D01*
X40204276Y-112407114D01*
X40452064Y-112316724D01*
X40553877Y-112262305D01*
X40613823Y-112028128D01*
X39869300Y-111283605D01*
X39124777Y-112028128D01*
X38738804Y-112028128D01*
X38809369Y-111957563D01*
X38891421Y-111834764D01*
X38945172Y-111848523D01*
X39689695Y-111104000D01*
X39675553Y-111089858D01*
X39855158Y-110910253D01*
X39869300Y-110924395D01*
X40207195Y-110586500D01*
X40566405Y-110586500D01*
X40048905Y-111104000D01*
X40793428Y-111848523D01*
X41027605Y-111788577D01*
X41138902Y-111549449D01*
X41201409Y-111293203D01*
X41212725Y-111029686D01*
X41172414Y-110769024D01*
X41082024Y-110521236D01*
X41027605Y-110419423D01*
X40793428Y-110359477D01*
X40621681Y-110531224D01*
X40621681Y-109761677D01*
X40722863Y-109694069D01*
X40909369Y-109507563D01*
X41055907Y-109288254D01*
X41156843Y-109044572D01*
X41208300Y-108785880D01*
X41208300Y-108522120D01*
X41156843Y-108263428D01*
X41055907Y-108019746D01*
X40909369Y-107800437D01*
X40722863Y-107613931D01*
X40503554Y-107467393D01*
X40314296Y-107389000D01*
X44365892Y-107389000D01*
X44416740Y-107394006D01*
X44490335Y-107386755D01*
X44619595Y-107374024D01*
X44619620Y-107374016D01*
X44619634Y-107374015D01*
X44697686Y-107350335D01*
X44814693Y-107314841D01*
X44814714Y-107314830D01*
X44814730Y-107314825D01*
X44889044Y-107275100D01*
X44994497Y-107218734D01*
X44994516Y-107218719D01*
X44994530Y-107218711D01*
X45061426Y-107163807D01*
X45152096Y-107089396D01*
X45184519Y-107049889D01*
X46137335Y-106097000D01*
X47504447Y-106097000D01*
X47343162Y-106258285D01*
X47054793Y-106689859D01*
X46856161Y-107169399D01*
X46754900Y-107678475D01*
X46754900Y-108197525D01*
X46856161Y-108706601D01*
X47054793Y-109186141D01*
X47343162Y-109617715D01*
X47710185Y-109984738D01*
X48141759Y-110273107D01*
X48621299Y-110471739D01*
X49130375Y-110573000D01*
X49649425Y-110573000D01*
X50158501Y-110471739D01*
X50638041Y-110273107D01*
X51069615Y-109984738D01*
X51436638Y-109617715D01*
X51725007Y-109186141D01*
X51923639Y-108706601D01*
X52024900Y-108197525D01*
X52024900Y-107678475D01*
X51923639Y-107169399D01*
X51725007Y-106689859D01*
X51436638Y-106258285D01*
X51275353Y-106097000D01*
X54911828Y-106097000D01*
X54911828Y-107318000D01*
X54924088Y-107442482D01*
X54960398Y-107562180D01*
X55019363Y-107672494D01*
X55098715Y-107769185D01*
X55134186Y-107798295D01*
X55125626Y-107808725D01*
X55125519Y-107808926D01*
X55125375Y-107809101D01*
X55090457Y-107874521D01*
X55055054Y-107940754D01*
X55054987Y-107940974D01*
X55054881Y-107941173D01*
X55033379Y-108012210D01*
X55011597Y-108084015D01*
X55011575Y-108084242D01*
X55011509Y-108084459D01*
X55004320Y-108157898D01*
X55000600Y-108195668D01*
X55000600Y-108195901D01*
X54996924Y-108233453D01*
X55000600Y-108270551D01*
X55000601Y-110781473D01*
X54970749Y-110790528D01*
X54817213Y-110872595D01*
X54682638Y-110983038D01*
X54572195Y-111117613D01*
X54490128Y-111271149D01*
X54439592Y-111437745D01*
X54422528Y-111610999D01*
X54422528Y-112136001D01*
X54439592Y-112309255D01*
X54490128Y-112475851D01*
X54572195Y-112629387D01*
X54682638Y-112763962D01*
X54709491Y-112786000D01*
X54682638Y-112808038D01*
X54572195Y-112942613D01*
X54490128Y-113096149D01*
X54439592Y-113262745D01*
X54422528Y-113435999D01*
X54422528Y-113961001D01*
X54439592Y-114134255D01*
X54490128Y-114300851D01*
X54572195Y-114454387D01*
X54682638Y-114588962D01*
X54817213Y-114699405D01*
X54970749Y-114781472D01*
X55137345Y-114832008D01*
X55310599Y-114849072D01*
X56210601Y-114849072D01*
X56383855Y-114832008D01*
X56550451Y-114781472D01*
X56641135Y-114733000D01*
X56924765Y-114733000D01*
X57015449Y-114781472D01*
X57182045Y-114832008D01*
X57355299Y-114849072D01*
X58255301Y-114849072D01*
X58428555Y-114832008D01*
X58595151Y-114781472D01*
X58685835Y-114733000D01*
X58981419Y-114733000D01*
X59062749Y-114776472D01*
X59229345Y-114827008D01*
X59402599Y-114844072D01*
X60302601Y-114844072D01*
X60475855Y-114827008D01*
X60642451Y-114776472D01*
X60731265Y-114729000D01*
X61018635Y-114729000D01*
X61107449Y-114776472D01*
X61274045Y-114827008D01*
X61447299Y-114844072D01*
X62347301Y-114844072D01*
X62520555Y-114827008D01*
X62687151Y-114776472D01*
X62775965Y-114729000D01*
X63106202Y-114729000D01*
X63180049Y-114768472D01*
X63346645Y-114819008D01*
X63519899Y-114836072D01*
X64419901Y-114836072D01*
X64593155Y-114819008D01*
X64759751Y-114768472D01*
X64848565Y-114721000D01*
X65178290Y-114721000D01*
X65257749Y-114763472D01*
X65424345Y-114814008D01*
X65597599Y-114831072D01*
X66497601Y-114831072D01*
X66670855Y-114814008D01*
X66837451Y-114763472D01*
X66990987Y-114681405D01*
X67125562Y-114570962D01*
X67236005Y-114436387D01*
X67318072Y-114282851D01*
X67368608Y-114116255D01*
X67385343Y-113946337D01*
X69561176Y-111770829D01*
X69600696Y-111738396D01*
X69665256Y-111659729D01*
X69729991Y-111580862D01*
X69730010Y-111580826D01*
X69730034Y-111580797D01*
X69776122Y-111494572D01*
X69826111Y-111401066D01*
X69826123Y-111401027D01*
X69826141Y-111400993D01*
X69858839Y-111293203D01*
X69885308Y-111205971D01*
X69885311Y-111205937D01*
X69885324Y-111205895D01*
X69896559Y-111091823D01*
X69905307Y-111003078D01*
X69900300Y-110952204D01*
X69900300Y-107678475D01*
X71754900Y-107678475D01*
X71754900Y-108197525D01*
X71856161Y-108706601D01*
X72054793Y-109186141D01*
X72343162Y-109617715D01*
X72710185Y-109984738D01*
X73141759Y-110273107D01*
X73621299Y-110471739D01*
X74130375Y-110573000D01*
X74649425Y-110573000D01*
X75158501Y-110471739D01*
X75638041Y-110273107D01*
X76069615Y-109984738D01*
X76436638Y-109617715D01*
X76725007Y-109186141D01*
X76923639Y-108706601D01*
X77024900Y-108197525D01*
X77024900Y-107678475D01*
X76923639Y-107169399D01*
X76725007Y-106689859D01*
X76436638Y-106258285D01*
X76069615Y-105891262D01*
X75638041Y-105602893D01*
X75158501Y-105404261D01*
X74649425Y-105303000D01*
X74130375Y-105303000D01*
X73621299Y-105404261D01*
X73141759Y-105602893D01*
X72710185Y-105891262D01*
X72343162Y-106258285D01*
X72054793Y-106689859D01*
X71856161Y-107169399D01*
X71754900Y-107678475D01*
X69900300Y-107678475D01*
X69900300Y-105996827D01*
X69905307Y-105945984D01*
X69897443Y-105866151D01*
X69885324Y-105743105D01*
X69885320Y-105743093D01*
X69885320Y-105743089D01*
X69859535Y-105658092D01*
X69826141Y-105548007D01*
X69826138Y-105548001D01*
X69826135Y-105547992D01*
X69745653Y-105397425D01*
X69730034Y-105368203D01*
X69730030Y-105368198D01*
X69730025Y-105368189D01*
X69645251Y-105264895D01*
X69600696Y-105210604D01*
X69561202Y-105178192D01*
X66295002Y-101912091D01*
X66262596Y-101872604D01*
X66104997Y-101743266D01*
X66104988Y-101743261D01*
X66104984Y-101743258D01*
X66051499Y-101714671D01*
X65925193Y-101647159D01*
X65925182Y-101647156D01*
X65925179Y-101647154D01*
X65884441Y-101634797D01*
X65730095Y-101587976D01*
X65730081Y-101587975D01*
X65730079Y-101587974D01*
X65700451Y-101585056D01*
X65578038Y-101573000D01*
X65578020Y-101573000D01*
X65527185Y-101567994D01*
X65476365Y-101573000D01*
X64973842Y-101573000D01*
X64978026Y-101562898D01*
X65017800Y-101362939D01*
X65017800Y-101159061D01*
X64978026Y-100959102D01*
X64900005Y-100770744D01*
X64786737Y-100601226D01*
X64642574Y-100457063D01*
X64473056Y-100343795D01*
X64284698Y-100265774D01*
X64084739Y-100226000D01*
X63880861Y-100226000D01*
X63680902Y-100265774D01*
X63492544Y-100343795D01*
X63323026Y-100457063D01*
X63279089Y-100501000D01*
X52746797Y-100501000D01*
X43411017Y-91165500D01*
X43505439Y-91165500D01*
X43705398Y-91125726D01*
X43893756Y-91047705D01*
X44063274Y-90934437D01*
X44107211Y-90890500D01*
X44999378Y-90890500D01*
X45036700Y-90894176D01*
X45074022Y-90890500D01*
X45074033Y-90890500D01*
X45185686Y-90879503D01*
X45328947Y-90836046D01*
X45460976Y-90765474D01*
X45576701Y-90670501D01*
X45600504Y-90641497D01*
X53561011Y-82680991D01*
X53768289Y-82819490D01*
X54038542Y-82931432D01*
X54325440Y-82988500D01*
X54617960Y-82988500D01*
X54904858Y-82931432D01*
X55175111Y-82819490D01*
X55418332Y-82656975D01*
X55420303Y-82655004D01*
X55964701Y-83199403D01*
X55988499Y-83228401D01*
X56104224Y-83323374D01*
X56236253Y-83393946D01*
X56379514Y-83437403D01*
X56491167Y-83448400D01*
X56491176Y-83448400D01*
X56528499Y-83452076D01*
X56565822Y-83448400D01*
X72628578Y-83448400D01*
X72665900Y-83452076D01*
X72703222Y-83448400D01*
X72703233Y-83448400D01*
X72814886Y-83437403D01*
X72958147Y-83393946D01*
X73090176Y-83323374D01*
X73205901Y-83228401D01*
X73229704Y-83199397D01*
X82416300Y-74012802D01*
X82416300Y-74194860D01*
X82473368Y-74481758D01*
X82585310Y-74752011D01*
X82747825Y-74995232D01*
X82954668Y-75202075D01*
X83129060Y-75318600D01*
X82954668Y-75435125D01*
X82747825Y-75641968D01*
X82585310Y-75885189D01*
X82473368Y-76155442D01*
X82416300Y-76442340D01*
X82416300Y-76734860D01*
X82473368Y-77021758D01*
X82585310Y-77292011D01*
X82747825Y-77535232D01*
X82954668Y-77742075D01*
X83136834Y-77863795D01*
X83019945Y-77933422D01*
X82803712Y-78128331D01*
X82629659Y-78361680D01*
X82504475Y-78624501D01*
X82459824Y-78771710D01*
X82581145Y-79001600D01*
X83774300Y-79001600D01*
X83774300Y-78981600D01*
X84028300Y-78981600D01*
X84028300Y-79001600D01*
X84048300Y-79001600D01*
X84048300Y-79255600D01*
X84028300Y-79255600D01*
X84028300Y-79275600D01*
X83774300Y-79275600D01*
X83774300Y-79255600D01*
X82581145Y-79255600D01*
X82459824Y-79485490D01*
X82504475Y-79632699D01*
X82629659Y-79895520D01*
X82803712Y-80128869D01*
X83019945Y-80323778D01*
X83136834Y-80393405D01*
X82954668Y-80515125D01*
X82747825Y-80721968D01*
X82585310Y-80965189D01*
X82473368Y-81235442D01*
X82416300Y-81522340D01*
X82416300Y-81814860D01*
X82473368Y-82101758D01*
X82585310Y-82372011D01*
X82747825Y-82615232D01*
X82954668Y-82822075D01*
X83136834Y-82943795D01*
X83019945Y-83013422D01*
X82803712Y-83208331D01*
X82629659Y-83441680D01*
X82504475Y-83704501D01*
X82459824Y-83851710D01*
X82581145Y-84081600D01*
X83774300Y-84081600D01*
X83774300Y-84061600D01*
X84028300Y-84061600D01*
X84028300Y-84081600D01*
X84048300Y-84081600D01*
X84048300Y-84335600D01*
X84028300Y-84335600D01*
X84028300Y-84355600D01*
X83774300Y-84355600D01*
X83774300Y-84335600D01*
X82581145Y-84335600D01*
X82459824Y-84565490D01*
X82504475Y-84712699D01*
X82629659Y-84975520D01*
X82803712Y-85208869D01*
X83019945Y-85403778D01*
X83136834Y-85473405D01*
X82954668Y-85595125D01*
X82747825Y-85801968D01*
X82585310Y-86045189D01*
X82473368Y-86315442D01*
X82416300Y-86602340D01*
X82416300Y-86894860D01*
X82473368Y-87181758D01*
X82585310Y-87452011D01*
X82747825Y-87695232D01*
X82954668Y-87902075D01*
X83129060Y-88018600D01*
X82954668Y-88135125D01*
X82747825Y-88341968D01*
X82585310Y-88585189D01*
X82473368Y-88855442D01*
X82416300Y-89142340D01*
X82416300Y-89434860D01*
X82473368Y-89721758D01*
X82585310Y-89992011D01*
X82747825Y-90235232D01*
X82954668Y-90442075D01*
X83129060Y-90558600D01*
X82954668Y-90675125D01*
X82747825Y-90881968D01*
X82585310Y-91125189D01*
X82473368Y-91395442D01*
X82416300Y-91682340D01*
X82416300Y-91974860D01*
X82473368Y-92261758D01*
X82585310Y-92532011D01*
X82747825Y-92775232D01*
X82954668Y-92982075D01*
X83197889Y-93144590D01*
X83468142Y-93256532D01*
X83755040Y-93313600D01*
X84047560Y-93313600D01*
X84334458Y-93256532D01*
X84604711Y-93144590D01*
X84847932Y-92982075D01*
X85054775Y-92775232D01*
X85172400Y-92599194D01*
X85343712Y-92828869D01*
X85559945Y-93023778D01*
X85810048Y-93172757D01*
X86084409Y-93270081D01*
X86314300Y-93149414D01*
X86314300Y-91955600D01*
X86568300Y-91955600D01*
X86568300Y-93149414D01*
X86798191Y-93270081D01*
X87072552Y-93172757D01*
X87322655Y-93023778D01*
X87538888Y-92828869D01*
X87712941Y-92595520D01*
X87838125Y-92332699D01*
X87882776Y-92185490D01*
X87761455Y-91955600D01*
X86568300Y-91955600D01*
X86314300Y-91955600D01*
X86294300Y-91955600D01*
X86294300Y-91701600D01*
X86314300Y-91701600D01*
X86314300Y-91681600D01*
X86568300Y-91681600D01*
X86568300Y-91701600D01*
X87761455Y-91701600D01*
X87882776Y-91471710D01*
X87838125Y-91324501D01*
X87712941Y-91061680D01*
X87610898Y-90924872D01*
X117104000Y-90924872D01*
X117104000Y-91365128D01*
X117189890Y-91796925D01*
X117358369Y-92203669D01*
X117602962Y-92569729D01*
X117914271Y-92881038D01*
X118280331Y-93125631D01*
X118687075Y-93294110D01*
X119118872Y-93380000D01*
X119559128Y-93380000D01*
X119990925Y-93294110D01*
X120397669Y-93125631D01*
X120763729Y-92881038D01*
X121075038Y-92569729D01*
X121319631Y-92203669D01*
X121488110Y-91796925D01*
X121574000Y-91365128D01*
X121574000Y-90924872D01*
X121488110Y-90493075D01*
X121319631Y-90086331D01*
X121075038Y-89720271D01*
X120763729Y-89408962D01*
X120397669Y-89164369D01*
X119990925Y-88995890D01*
X119559128Y-88910000D01*
X119118872Y-88910000D01*
X118687075Y-88995890D01*
X118280331Y-89164369D01*
X117914271Y-89408962D01*
X117602962Y-89720271D01*
X117358369Y-90086331D01*
X117189890Y-90493075D01*
X117104000Y-90924872D01*
X87610898Y-90924872D01*
X87538888Y-90828331D01*
X87322655Y-90633422D01*
X87205766Y-90563795D01*
X87387932Y-90442075D01*
X87594775Y-90235232D01*
X87757290Y-89992011D01*
X87869232Y-89721758D01*
X87926300Y-89434860D01*
X87926300Y-89142340D01*
X87869232Y-88855442D01*
X87757290Y-88585189D01*
X87594775Y-88341968D01*
X87387932Y-88135125D01*
X87213540Y-88018600D01*
X87387932Y-87902075D01*
X87594775Y-87695232D01*
X87757290Y-87452011D01*
X87869232Y-87181758D01*
X87926300Y-86894860D01*
X87926300Y-86602340D01*
X87869232Y-86315442D01*
X87757290Y-86045189D01*
X87594775Y-85801968D01*
X87387932Y-85595125D01*
X87213540Y-85478600D01*
X87387932Y-85362075D01*
X87594775Y-85155232D01*
X87757290Y-84912011D01*
X87869232Y-84641758D01*
X87926300Y-84354860D01*
X87926300Y-84062340D01*
X87869232Y-83775442D01*
X87757290Y-83505189D01*
X87594775Y-83261968D01*
X87387932Y-83055125D01*
X87213540Y-82938600D01*
X87387932Y-82822075D01*
X87594775Y-82615232D01*
X87757290Y-82372011D01*
X87869232Y-82101758D01*
X87926300Y-81814860D01*
X87926300Y-81522340D01*
X87869232Y-81235442D01*
X87757290Y-80965189D01*
X87594775Y-80721968D01*
X87387932Y-80515125D01*
X87213540Y-80398600D01*
X87387932Y-80282075D01*
X87594775Y-80075232D01*
X87757290Y-79832011D01*
X87869232Y-79561758D01*
X87926300Y-79274860D01*
X87926300Y-78982340D01*
X87869232Y-78695442D01*
X87757290Y-78425189D01*
X87594775Y-78181968D01*
X87387932Y-77975125D01*
X87213540Y-77858600D01*
X87387932Y-77742075D01*
X87594775Y-77535232D01*
X87757290Y-77292011D01*
X87869232Y-77021758D01*
X87926300Y-76734860D01*
X87926300Y-76442340D01*
X87869232Y-76155442D01*
X87757290Y-75885189D01*
X87594775Y-75641968D01*
X87387932Y-75435125D01*
X87205766Y-75313405D01*
X87322655Y-75243778D01*
X87538888Y-75048869D01*
X87712941Y-74815520D01*
X87838125Y-74552699D01*
X87882776Y-74405490D01*
X87761455Y-74175600D01*
X86568300Y-74175600D01*
X86568300Y-74195600D01*
X86314300Y-74195600D01*
X86314300Y-74175600D01*
X86294300Y-74175600D01*
X86294300Y-73921600D01*
X86314300Y-73921600D01*
X86314300Y-73901600D01*
X86568300Y-73901600D01*
X86568300Y-73921600D01*
X87761455Y-73921600D01*
X87882776Y-73691710D01*
X87838125Y-73544501D01*
X87712941Y-73281680D01*
X87584978Y-73110123D01*
X88127604Y-72567498D01*
X88156601Y-72543701D01*
X88190627Y-72502240D01*
X88251574Y-72427977D01*
X88322146Y-72295947D01*
X88333777Y-72257603D01*
X88365603Y-72152686D01*
X88376600Y-72041033D01*
X88376600Y-72041024D01*
X88380276Y-72003701D01*
X88376600Y-71966378D01*
X88376600Y-68449122D01*
X88380276Y-68411799D01*
X88376600Y-68374476D01*
X88376600Y-68374467D01*
X88365603Y-68262814D01*
X88322146Y-68119553D01*
X88299809Y-68077764D01*
X88251574Y-67987523D01*
X88180399Y-67900797D01*
X88156601Y-67871799D01*
X88127602Y-67848001D01*
X87618831Y-67339230D01*
X87757290Y-67132011D01*
X87869232Y-66861758D01*
X87926300Y-66574860D01*
X87926300Y-66282340D01*
X87869232Y-65995442D01*
X87757290Y-65725189D01*
X87596761Y-65484940D01*
X88135204Y-64946498D01*
X88164201Y-64922701D01*
X88259174Y-64806976D01*
X88329746Y-64674947D01*
X88373203Y-64531686D01*
X88384200Y-64420033D01*
X88384200Y-64420025D01*
X88387876Y-64382700D01*
X88384200Y-64345375D01*
X88384200Y-53273222D01*
X88387876Y-53235899D01*
X88384200Y-53198576D01*
X88384200Y-53198567D01*
X88373203Y-53086914D01*
X88329746Y-52943653D01*
X88259174Y-52811624D01*
X88164201Y-52695899D01*
X88135202Y-52672101D01*
X87596200Y-52133099D01*
X87757290Y-51892011D01*
X87869232Y-51621758D01*
X87926300Y-51334860D01*
X87926300Y-51042340D01*
X87869232Y-50755442D01*
X87757290Y-50485189D01*
X87594775Y-50241968D01*
X87387932Y-50035125D01*
X87213540Y-49918600D01*
X87387932Y-49802075D01*
X87594775Y-49595232D01*
X87757290Y-49352011D01*
X87869232Y-49081758D01*
X87926300Y-48794860D01*
X87926300Y-48502340D01*
X87869232Y-48215442D01*
X87757290Y-47945189D01*
X87594775Y-47701968D01*
X87387932Y-47495125D01*
X87213540Y-47378600D01*
X87387932Y-47262075D01*
X87594775Y-47055232D01*
X87757290Y-46812011D01*
X87869232Y-46541758D01*
X87926300Y-46254860D01*
X87926300Y-45962340D01*
X87869232Y-45675442D01*
X87757290Y-45405189D01*
X87594775Y-45161968D01*
X87462920Y-45030113D01*
X87535480Y-45008102D01*
X87645794Y-44949137D01*
X87742485Y-44869785D01*
X87821837Y-44773094D01*
X87880802Y-44662780D01*
X87917112Y-44543082D01*
X87929372Y-44418600D01*
X87929372Y-42718600D01*
X87917112Y-42594118D01*
X87880802Y-42474420D01*
X87821837Y-42364106D01*
X87742485Y-42267415D01*
X87645794Y-42188063D01*
X87535480Y-42129098D01*
X87415782Y-42092788D01*
X87291300Y-42080528D01*
X85591300Y-42080528D01*
X85466818Y-42092788D01*
X85347120Y-42129098D01*
X85236806Y-42188063D01*
X85140115Y-42267415D01*
X85060763Y-42364106D01*
X85001798Y-42474420D01*
X84979787Y-42546980D01*
X84847932Y-42415125D01*
X84604711Y-42252610D01*
X84334458Y-42140668D01*
X84047560Y-42083600D01*
X83755040Y-42083600D01*
X83468142Y-42140668D01*
X83197889Y-42252610D01*
X82954668Y-42415125D01*
X82848255Y-42521538D01*
X82838297Y-42513366D01*
X82658493Y-42417259D01*
X82463395Y-42358076D01*
X82311338Y-42343100D01*
X82311328Y-42343100D01*
X82260500Y-42338094D01*
X82209672Y-42343100D01*
X64947454Y-42343100D01*
X64929502Y-42283920D01*
X64870537Y-42173606D01*
X64791185Y-42076915D01*
X64694494Y-41997563D01*
X64584180Y-41938598D01*
X64525000Y-41920646D01*
X64525000Y-39805327D01*
X64530006Y-39754499D01*
X64525000Y-39703671D01*
X64525000Y-39703662D01*
X64510024Y-39551605D01*
X64450841Y-39356507D01*
X64392169Y-39246739D01*
X64354734Y-39176702D01*
X64257803Y-39058592D01*
X64225396Y-39019104D01*
X64185908Y-38986697D01*
X58804410Y-33605200D01*
X69914390Y-33605200D01*
X71634297Y-35325108D01*
X71666704Y-35364596D01*
X71706192Y-35397003D01*
X71824302Y-35493934D01*
X71880936Y-35524205D01*
X72004107Y-35590041D01*
X72199205Y-35649224D01*
X72351262Y-35664200D01*
X72351265Y-35664200D01*
X72402100Y-35669207D01*
X72452935Y-35664200D01*
X84678272Y-35664200D01*
X84729100Y-35669206D01*
X84779928Y-35664200D01*
X84779938Y-35664200D01*
X84931995Y-35649224D01*
X85127093Y-35590041D01*
X85306897Y-35493934D01*
X85464496Y-35364596D01*
X85496907Y-35325103D01*
X87254903Y-33567108D01*
X87291037Y-33530974D01*
X87319425Y-33488488D01*
X87351834Y-33448998D01*
X87375916Y-33403944D01*
X87404305Y-33361456D01*
X87423862Y-33314241D01*
X87447940Y-33269194D01*
X87462766Y-33220319D01*
X87482326Y-33173098D01*
X87492297Y-33122971D01*
X87507123Y-33074096D01*
X87512129Y-33023266D01*
X87522100Y-32973139D01*
X87522100Y-32922029D01*
X87527106Y-32871201D01*
X87522100Y-32820373D01*
X87522100Y-32769261D01*
X87512129Y-32719132D01*
X87507123Y-32668306D01*
X87492298Y-32619434D01*
X87482326Y-32569302D01*
X87462765Y-32522077D01*
X87447940Y-32473207D01*
X87423864Y-32428164D01*
X87404305Y-32380944D01*
X87375913Y-32338452D01*
X87351834Y-32293403D01*
X87319430Y-32253919D01*
X87291037Y-32211426D01*
X87254895Y-32175284D01*
X87222495Y-32135805D01*
X87183016Y-32103405D01*
X87146874Y-32067263D01*
X87104381Y-32038870D01*
X87064897Y-32006466D01*
X87019848Y-31982387D01*
X86977356Y-31953995D01*
X86930136Y-31934436D01*
X86885093Y-31910360D01*
X86836223Y-31895535D01*
X86788998Y-31875974D01*
X86738866Y-31866002D01*
X86689994Y-31851177D01*
X86639168Y-31846171D01*
X86589039Y-31836200D01*
X86537927Y-31836200D01*
X86487099Y-31831194D01*
X86436271Y-31836200D01*
X86385161Y-31836200D01*
X86335034Y-31846171D01*
X86284204Y-31851177D01*
X86235329Y-31866003D01*
X86185202Y-31875974D01*
X86137981Y-31895534D01*
X86089106Y-31910360D01*
X86044059Y-31934438D01*
X85996844Y-31953995D01*
X85954356Y-31982384D01*
X85909302Y-32006466D01*
X85869812Y-32038875D01*
X85827326Y-32067263D01*
X85791192Y-32103397D01*
X84300390Y-33594200D01*
X75116958Y-33594200D01*
X75199374Y-33493776D01*
X75269946Y-33361747D01*
X75313403Y-33218486D01*
X75324400Y-33106833D01*
X75324400Y-33106825D01*
X75328076Y-33069500D01*
X75324400Y-33032175D01*
X75324400Y-29126900D01*
X80821600Y-29126900D01*
X80821600Y-29951900D01*
X80874430Y-30234292D01*
X80981337Y-30500951D01*
X81138212Y-30741630D01*
X81339027Y-30947079D01*
X81576065Y-31109404D01*
X81840216Y-31222366D01*
X81928635Y-31241592D01*
X82154600Y-31119938D01*
X82154600Y-29126900D01*
X82408600Y-29126900D01*
X82408600Y-31119938D01*
X82634565Y-31241592D01*
X82722984Y-31222366D01*
X82987135Y-31109404D01*
X83224173Y-30947079D01*
X83424988Y-30741630D01*
X83581863Y-30500951D01*
X83688770Y-30234292D01*
X83741600Y-29951900D01*
X83741600Y-29126900D01*
X82408600Y-29126900D01*
X82154600Y-29126900D01*
X80821600Y-29126900D01*
X75324400Y-29126900D01*
X75324400Y-28559611D01*
X75368337Y-28515674D01*
X75481605Y-28346156D01*
X75559626Y-28157798D01*
X75599400Y-27957839D01*
X75599400Y-27753961D01*
X75559626Y-27554002D01*
X75481605Y-27365644D01*
X75393101Y-27233188D01*
X76346600Y-27233188D01*
X76346600Y-27466612D01*
X76392139Y-27695552D01*
X76481466Y-27911208D01*
X76611150Y-28105294D01*
X76776206Y-28270350D01*
X76970292Y-28400034D01*
X77185948Y-28489361D01*
X77414888Y-28534900D01*
X77648312Y-28534900D01*
X77877252Y-28489361D01*
X78092908Y-28400034D01*
X78286994Y-28270350D01*
X78452050Y-28105294D01*
X78490399Y-28047900D01*
X80821600Y-28047900D01*
X80821600Y-28872900D01*
X82154600Y-28872900D01*
X82154600Y-26879862D01*
X82408600Y-26879862D01*
X82408600Y-28872900D01*
X83741600Y-28872900D01*
X83741600Y-28058923D01*
X85504000Y-28058923D01*
X85504000Y-29957278D01*
X85525850Y-30179112D01*
X85612193Y-30463748D01*
X85752407Y-30726070D01*
X85941104Y-30955997D01*
X86171031Y-31144694D01*
X86433353Y-31284908D01*
X86717989Y-31371251D01*
X87014000Y-31400406D01*
X87310012Y-31371251D01*
X87594648Y-31284908D01*
X87856970Y-31144694D01*
X88086897Y-30955997D01*
X88264001Y-30740197D01*
X88441104Y-30955997D01*
X88671031Y-31144694D01*
X88933353Y-31284908D01*
X89217989Y-31371251D01*
X89514000Y-31400406D01*
X89810012Y-31371251D01*
X90094648Y-31284908D01*
X90356970Y-31144694D01*
X90586897Y-30955997D01*
X90775594Y-30726070D01*
X90915808Y-30463748D01*
X91002151Y-30179112D01*
X91024000Y-29957278D01*
X91024000Y-29704402D01*
X91054713Y-29750367D01*
X91226733Y-29922387D01*
X91429008Y-30057543D01*
X91653764Y-30150640D01*
X91892363Y-30198100D01*
X92135637Y-30198100D01*
X92374236Y-30150640D01*
X92598992Y-30057543D01*
X92801267Y-29922387D01*
X92973287Y-29750367D01*
X93004000Y-29704402D01*
X93004000Y-29957278D01*
X93025850Y-30179112D01*
X93112193Y-30463748D01*
X93252407Y-30726070D01*
X93441104Y-30955997D01*
X93671031Y-31144694D01*
X93933353Y-31284908D01*
X94217989Y-31371251D01*
X94514000Y-31400406D01*
X94810012Y-31371251D01*
X95094648Y-31284908D01*
X95356970Y-31144694D01*
X95586897Y-30955997D01*
X95764001Y-30740197D01*
X95941104Y-30955997D01*
X96171031Y-31144694D01*
X96433353Y-31284908D01*
X96717989Y-31371251D01*
X97014000Y-31400406D01*
X97310012Y-31371251D01*
X97594648Y-31284908D01*
X97856970Y-31144694D01*
X98086897Y-30955997D01*
X98275594Y-30726070D01*
X98415808Y-30463748D01*
X98502151Y-30179112D01*
X98524000Y-29957278D01*
X98524000Y-28058922D01*
X98502151Y-27837088D01*
X98415808Y-27552452D01*
X98275594Y-27290130D01*
X98086897Y-27060203D01*
X97921996Y-26924872D01*
X117104000Y-26924872D01*
X117104000Y-27365128D01*
X117189890Y-27796925D01*
X117358369Y-28203669D01*
X117602962Y-28569729D01*
X117914271Y-28881038D01*
X118280331Y-29125631D01*
X118687075Y-29294110D01*
X119118872Y-29380000D01*
X119559128Y-29380000D01*
X119990925Y-29294110D01*
X120397669Y-29125631D01*
X120763729Y-28881038D01*
X121075038Y-28569729D01*
X121319631Y-28203669D01*
X121488110Y-27796925D01*
X121574000Y-27365128D01*
X121574000Y-26924872D01*
X121488110Y-26493075D01*
X121319631Y-26086331D01*
X121075038Y-25720271D01*
X120763729Y-25408962D01*
X120397669Y-25164369D01*
X119990925Y-24995890D01*
X119559128Y-24910000D01*
X119118872Y-24910000D01*
X118687075Y-24995890D01*
X118280331Y-25164369D01*
X117914271Y-25408962D01*
X117602962Y-25720271D01*
X117358369Y-26086331D01*
X117189890Y-26493075D01*
X117104000Y-26924872D01*
X97921996Y-26924872D01*
X97856969Y-26871506D01*
X97594647Y-26731292D01*
X97310011Y-26644949D01*
X97014000Y-26615794D01*
X96717988Y-26644949D01*
X96433352Y-26731292D01*
X96171030Y-26871506D01*
X96109118Y-26922316D01*
X95580204Y-26393403D01*
X95556401Y-26364399D01*
X95440676Y-26269426D01*
X95308647Y-26198854D01*
X95165386Y-26155397D01*
X95053733Y-26144400D01*
X95053722Y-26144400D01*
X95016400Y-26140724D01*
X94979078Y-26144400D01*
X89075022Y-26144400D01*
X89037700Y-26140724D01*
X89000377Y-26144400D01*
X89000367Y-26144400D01*
X88888714Y-26155397D01*
X88745453Y-26198854D01*
X88613423Y-26269426D01*
X88529783Y-26338068D01*
X88497699Y-26364399D01*
X88473901Y-26393397D01*
X87933217Y-26934081D01*
X87856969Y-26871506D01*
X87594647Y-26731292D01*
X87310011Y-26644949D01*
X87014000Y-26615794D01*
X86717988Y-26644949D01*
X86433352Y-26731292D01*
X86171030Y-26871506D01*
X85941103Y-27060203D01*
X85752406Y-27290131D01*
X85612192Y-27552453D01*
X85525849Y-27837089D01*
X85504000Y-28058923D01*
X83741600Y-28058923D01*
X83741600Y-28047900D01*
X83688770Y-27765508D01*
X83581863Y-27498849D01*
X83424988Y-27258170D01*
X83224173Y-27052721D01*
X82987135Y-26890396D01*
X82722984Y-26777434D01*
X82634565Y-26758208D01*
X82408600Y-26879862D01*
X82154600Y-26879862D01*
X81928635Y-26758208D01*
X81840216Y-26777434D01*
X81576065Y-26890396D01*
X81339027Y-27052721D01*
X81138212Y-27258170D01*
X80981337Y-27498849D01*
X80874430Y-27765508D01*
X80821600Y-28047900D01*
X78490399Y-28047900D01*
X78581734Y-27911208D01*
X78671061Y-27695552D01*
X78716600Y-27466612D01*
X78716600Y-27233188D01*
X78671061Y-27004248D01*
X78581734Y-26788592D01*
X78452050Y-26594506D01*
X78286994Y-26429450D01*
X78092908Y-26299766D01*
X77877252Y-26210439D01*
X77648312Y-26164900D01*
X77414888Y-26164900D01*
X77185948Y-26210439D01*
X76970292Y-26299766D01*
X76776206Y-26429450D01*
X76611150Y-26594506D01*
X76481466Y-26788592D01*
X76392139Y-27004248D01*
X76346600Y-27233188D01*
X75393101Y-27233188D01*
X75368337Y-27196126D01*
X75224174Y-27051963D01*
X75054656Y-26938695D01*
X74866298Y-26860674D01*
X74666339Y-26820900D01*
X74462461Y-26820900D01*
X74262502Y-26860674D01*
X74074144Y-26938695D01*
X73904626Y-27051963D01*
X73760463Y-27196126D01*
X73716600Y-27261772D01*
X73716600Y-27233188D01*
X73671061Y-27004248D01*
X73581734Y-26788592D01*
X73452050Y-26594506D01*
X73286994Y-26429450D01*
X73092908Y-26299766D01*
X72877252Y-26210439D01*
X72648312Y-26164900D01*
X72414888Y-26164900D01*
X72185948Y-26210439D01*
X71970292Y-26299766D01*
X71776206Y-26429450D01*
X71611150Y-26594506D01*
X71481466Y-26788592D01*
X71392139Y-27004248D01*
X71346600Y-27233188D01*
X71346600Y-27466612D01*
X71392139Y-27695552D01*
X71481466Y-27911208D01*
X71611150Y-28105294D01*
X71776206Y-28270350D01*
X71970292Y-28400034D01*
X72185948Y-28489361D01*
X72414888Y-28534900D01*
X72648312Y-28534900D01*
X72877252Y-28489361D01*
X73092908Y-28400034D01*
X73286994Y-28270350D01*
X73452050Y-28105294D01*
X73534258Y-27982261D01*
X73569174Y-28157798D01*
X73647195Y-28346156D01*
X73760463Y-28515674D01*
X73804401Y-28559612D01*
X73804400Y-32613445D01*
X73703202Y-32633574D01*
X73514844Y-32711595D01*
X73345326Y-32824863D01*
X73201163Y-32969026D01*
X73087895Y-33138544D01*
X73009874Y-33326902D01*
X72970100Y-33526861D01*
X72970100Y-33594200D01*
X72830811Y-33594200D01*
X71110907Y-31874297D01*
X71078496Y-31834804D01*
X70920897Y-31705466D01*
X70741093Y-31609359D01*
X70545995Y-31550176D01*
X70393938Y-31535200D01*
X70393928Y-31535200D01*
X70343100Y-31530194D01*
X70292272Y-31535200D01*
X42895335Y-31535200D01*
X42844500Y-31530193D01*
X42793665Y-31535200D01*
X42793662Y-31535200D01*
X42641605Y-31550176D01*
X42446507Y-31609359D01*
X42362809Y-31654096D01*
X42266702Y-31705466D01*
X42148592Y-31802397D01*
X42109104Y-31834804D01*
X42076697Y-31874292D01*
X33965293Y-39985697D01*
X33925805Y-40018104D01*
X33893398Y-40057592D01*
X33893397Y-40057593D01*
X33796466Y-40175703D01*
X33700360Y-40355507D01*
X33641177Y-40550605D01*
X33621194Y-40753500D01*
X33626201Y-40804338D01*
X33626200Y-46644472D01*
X33621194Y-46695300D01*
X33626200Y-46746128D01*
X33626200Y-46746137D01*
X33641176Y-46898194D01*
X33700359Y-47093292D01*
X33796466Y-47273097D01*
X33925804Y-47430696D01*
X33965297Y-47463107D01*
X35613497Y-49111308D01*
X35645904Y-49150796D01*
X35685392Y-49183203D01*
X35803502Y-49280134D01*
X35804896Y-49280879D01*
X35608739Y-49340383D01*
X35342073Y-49482919D01*
X35108339Y-49674739D01*
X34916519Y-49908473D01*
X34773983Y-50175139D01*
X34686210Y-50464487D01*
X34656573Y-50765400D01*
X34686210Y-51066313D01*
X34773983Y-51355661D01*
X34916519Y-51622327D01*
X35108339Y-51856061D01*
X35342073Y-52047881D01*
X35608739Y-52190417D01*
X35898087Y-52278190D01*
X36123592Y-52300400D01*
X36774408Y-52300400D01*
X36999913Y-52278190D01*
X37289261Y-52190417D01*
X37555927Y-52047881D01*
X37789661Y-51856061D01*
X37981481Y-51622327D01*
X38124017Y-51355661D01*
X38211790Y-51066313D01*
X38241427Y-50765400D01*
X38211790Y-50464487D01*
X38124017Y-50175139D01*
X37981481Y-49908473D01*
X37789661Y-49674739D01*
X37555927Y-49482919D01*
X37495088Y-49450400D01*
X39497201Y-49450400D01*
X39497200Y-51317989D01*
X31770629Y-59044561D01*
X31770626Y-59044563D01*
X31734492Y-59080697D01*
X31695004Y-59113104D01*
X31662597Y-59152592D01*
X31626463Y-59188726D01*
X31598072Y-59231216D01*
X31589421Y-59241758D01*
X31565666Y-59270703D01*
X31541587Y-59315752D01*
X31513195Y-59358244D01*
X31493636Y-59405464D01*
X31469560Y-59450507D01*
X31454735Y-59499378D01*
X31435174Y-59546602D01*
X31425203Y-59596732D01*
X31410377Y-59645605D01*
X31405371Y-59696433D01*
X31395400Y-59746561D01*
X31395400Y-59797672D01*
X31390394Y-59848500D01*
X31395400Y-59899328D01*
X31395400Y-59950439D01*
X31405371Y-60000567D01*
X31410377Y-60051395D01*
X31425203Y-60100268D01*
X31435174Y-60150398D01*
X31454735Y-60197622D01*
X31469560Y-60246493D01*
X31493636Y-60291536D01*
X31513195Y-60338756D01*
X31541587Y-60381248D01*
X31565666Y-60426297D01*
X31598072Y-60465784D01*
X31626463Y-60508274D01*
X31662596Y-60544407D01*
X31695004Y-60583896D01*
X31734492Y-60616303D01*
X31770626Y-60652437D01*
X31770629Y-60652439D01*
X33498601Y-62380412D01*
X33498601Y-71821112D01*
X33468904Y-71671817D01*
X33387115Y-71474360D01*
X33268375Y-71296653D01*
X33117247Y-71145525D01*
X32939540Y-71026785D01*
X32742083Y-70944996D01*
X32532463Y-70903300D01*
X32318737Y-70903300D01*
X32109117Y-70944996D01*
X31911660Y-71026785D01*
X31733953Y-71145525D01*
X31582825Y-71296653D01*
X31464085Y-71474360D01*
X31382296Y-71671817D01*
X31340600Y-71881437D01*
X31340600Y-72095163D01*
X31382296Y-72304783D01*
X31464085Y-72502240D01*
X31582825Y-72679947D01*
X31733953Y-72831075D01*
X31911660Y-72949815D01*
X32109117Y-73031604D01*
X32318737Y-73073300D01*
X32532463Y-73073300D01*
X32742083Y-73031604D01*
X32939540Y-72949815D01*
X33117247Y-72831075D01*
X33268375Y-72679947D01*
X33387115Y-72502240D01*
X33468904Y-72304783D01*
X33498601Y-72155488D01*
X33498600Y-76221111D01*
X33468904Y-76071817D01*
X33387115Y-75874360D01*
X33268375Y-75696653D01*
X33117247Y-75545525D01*
X32939540Y-75426785D01*
X32742083Y-75344996D01*
X32532463Y-75303300D01*
X32318737Y-75303300D01*
X32109117Y-75344996D01*
X31911660Y-75426785D01*
X31733953Y-75545525D01*
X31582825Y-75696653D01*
X31464085Y-75874360D01*
X31382296Y-76071817D01*
X31340600Y-76281437D01*
X31340600Y-76495163D01*
X31382296Y-76704783D01*
X31464085Y-76902240D01*
X31582825Y-77079947D01*
X31733953Y-77231075D01*
X31911660Y-77349815D01*
X32109117Y-77431604D01*
X32318737Y-77473300D01*
X32532463Y-77473300D01*
X32742083Y-77431604D01*
X32939540Y-77349815D01*
X33117247Y-77231075D01*
X33268375Y-77079947D01*
X33387115Y-76902240D01*
X33468904Y-76704783D01*
X33498600Y-76555489D01*
X33498600Y-84428978D01*
X33493594Y-84479811D01*
X33498600Y-84530634D01*
X33498600Y-84530637D01*
X33513576Y-84682694D01*
X33513579Y-84682703D01*
X33513579Y-84682706D01*
X33522678Y-84712699D01*
X33572759Y-84877792D01*
X33572762Y-84877798D01*
X33572764Y-84877804D01*
X33610479Y-84948361D01*
X33668866Y-85057597D01*
X33798204Y-85215196D01*
X33837700Y-85247610D01*
X40265569Y-91675337D01*
X40110039Y-91644400D01*
X39982602Y-91644400D01*
X39957447Y-91630954D01*
X39814186Y-91587497D01*
X39702533Y-91576500D01*
X39702522Y-91576500D01*
X39665200Y-91572824D01*
X39627878Y-91576500D01*
X37616923Y-91576500D01*
X37579600Y-91572824D01*
X37542277Y-91576500D01*
X37542267Y-91576500D01*
X37430614Y-91587497D01*
X37287353Y-91630954D01*
X37155323Y-91701526D01*
X37071683Y-91770168D01*
X37039599Y-91796499D01*
X37015801Y-91825497D01*
X31520098Y-97321201D01*
X31491100Y-97344999D01*
X31467302Y-97373997D01*
X31467301Y-97373998D01*
X31396126Y-97460724D01*
X31325554Y-97592754D01*
X31295280Y-97692558D01*
X31282098Y-97736014D01*
X31277331Y-97784413D01*
X31267424Y-97885000D01*
X31271101Y-97922332D01*
X31271101Y-100781500D01*
X30888110Y-100781500D01*
X30888110Y-102144024D01*
X30705443Y-102021970D01*
X30288143Y-101849119D01*
X29845141Y-101761000D01*
X29393459Y-101761000D01*
X28950457Y-101849119D01*
X28533157Y-102021970D01*
X28157598Y-102272910D01*
X27838210Y-102592298D01*
X27587270Y-102967857D01*
X27414419Y-103385157D01*
X27326300Y-103828159D01*
X27090440Y-103828159D01*
X27090440Y-86129672D01*
X28554900Y-86129672D01*
X28554900Y-86569928D01*
X28640790Y-87001725D01*
X28809269Y-87408469D01*
X29053862Y-87774529D01*
X29365171Y-88085838D01*
X29731231Y-88330431D01*
X30137975Y-88498910D01*
X30569772Y-88584800D01*
X31010028Y-88584800D01*
X31441825Y-88498910D01*
X31848569Y-88330431D01*
X32214629Y-88085838D01*
X32525938Y-87774529D01*
X32770531Y-87408469D01*
X32939010Y-87001725D01*
X33024900Y-86569928D01*
X33024900Y-86129672D01*
X32939010Y-85697875D01*
X32770531Y-85291131D01*
X32525938Y-84925071D01*
X32214629Y-84613762D01*
X31848569Y-84369169D01*
X31441825Y-84200690D01*
X31010028Y-84114800D01*
X30569772Y-84114800D01*
X30137975Y-84200690D01*
X29731231Y-84369169D01*
X29365171Y-84613762D01*
X29053862Y-84925071D01*
X28809269Y-85291131D01*
X28640790Y-85697875D01*
X28554900Y-86129672D01*
X27090440Y-86129672D01*
X27090440Y-30388673D01*
X27093193Y-30397748D01*
X27233407Y-30660070D01*
X27422104Y-30889997D01*
X27652031Y-31078694D01*
X27914353Y-31218908D01*
X28198989Y-31305251D01*
X28495000Y-31334406D01*
X28791012Y-31305251D01*
X29075648Y-31218908D01*
X29337970Y-31078694D01*
X29567897Y-30889997D01*
X29745001Y-30674197D01*
X29922104Y-30889997D01*
X30152031Y-31078694D01*
X30414353Y-31218908D01*
X30698989Y-31305251D01*
X30995000Y-31334406D01*
X31291012Y-31305251D01*
X31575648Y-31218908D01*
X31837970Y-31078694D01*
X32067897Y-30889997D01*
X32256594Y-30660070D01*
X32396808Y-30397748D01*
X32483151Y-30113112D01*
X32505000Y-29891278D01*
X32505000Y-29638402D01*
X32535713Y-29684367D01*
X32707733Y-29856387D01*
X32910008Y-29991543D01*
X33134764Y-30084640D01*
X33373363Y-30132100D01*
X33616637Y-30132100D01*
X33855236Y-30084640D01*
X34079992Y-29991543D01*
X34282267Y-29856387D01*
X34454287Y-29684367D01*
X34485000Y-29638402D01*
X34485000Y-29891278D01*
X34506850Y-30113112D01*
X34593193Y-30397748D01*
X34733407Y-30660070D01*
X34922104Y-30889997D01*
X35152031Y-31078694D01*
X35414353Y-31218908D01*
X35698989Y-31305251D01*
X35995000Y-31334406D01*
X36291012Y-31305251D01*
X36575648Y-31218908D01*
X36837970Y-31078694D01*
X37067897Y-30889997D01*
X37245001Y-30674197D01*
X37422104Y-30889997D01*
X37652031Y-31078694D01*
X37914353Y-31218908D01*
X38198989Y-31305251D01*
X38495000Y-31334406D01*
X38791012Y-31305251D01*
X39075648Y-31218908D01*
X39337970Y-31078694D01*
X39567897Y-30889997D01*
X39756594Y-30660070D01*
X39896808Y-30397748D01*
X39983151Y-30113112D01*
X40005000Y-29891278D01*
X40005000Y-29126900D01*
X66321600Y-29126900D01*
X66321600Y-29951900D01*
X66374430Y-30234292D01*
X66481337Y-30500951D01*
X66638212Y-30741630D01*
X66839027Y-30947079D01*
X67076065Y-31109404D01*
X67340216Y-31222366D01*
X67428635Y-31241592D01*
X67654600Y-31119938D01*
X67654600Y-29126900D01*
X67908600Y-29126900D01*
X67908600Y-31119938D01*
X68134565Y-31241592D01*
X68222984Y-31222366D01*
X68487135Y-31109404D01*
X68724173Y-30947079D01*
X68924988Y-30741630D01*
X69081863Y-30500951D01*
X69188770Y-30234292D01*
X69241600Y-29951900D01*
X69241600Y-29126900D01*
X67908600Y-29126900D01*
X67654600Y-29126900D01*
X66321600Y-29126900D01*
X40005000Y-29126900D01*
X40005000Y-28047900D01*
X66321600Y-28047900D01*
X66321600Y-28872900D01*
X67654600Y-28872900D01*
X67654600Y-26879862D01*
X67908600Y-26879862D01*
X67908600Y-28872900D01*
X69241600Y-28872900D01*
X69241600Y-28047900D01*
X69188770Y-27765508D01*
X69081863Y-27498849D01*
X68924988Y-27258170D01*
X68724173Y-27052721D01*
X68487135Y-26890396D01*
X68222984Y-26777434D01*
X68134565Y-26758208D01*
X67908600Y-26879862D01*
X67654600Y-26879862D01*
X67428635Y-26758208D01*
X67340216Y-26777434D01*
X67076065Y-26890396D01*
X66839027Y-27052721D01*
X66638212Y-27258170D01*
X66481337Y-27498849D01*
X66374430Y-27765508D01*
X66321600Y-28047900D01*
X40005000Y-28047900D01*
X40005000Y-27992922D01*
X39983151Y-27771088D01*
X39896808Y-27486452D01*
X39756594Y-27224130D01*
X39567897Y-26994203D01*
X39337969Y-26805506D01*
X39075647Y-26665292D01*
X38791011Y-26578949D01*
X38495000Y-26549794D01*
X38198988Y-26578949D01*
X37914352Y-26665292D01*
X37652030Y-26805506D01*
X37422103Y-26994203D01*
X37245000Y-27210003D01*
X37067897Y-26994203D01*
X36837969Y-26805506D01*
X36575647Y-26665292D01*
X36291011Y-26578949D01*
X35995000Y-26549794D01*
X35698988Y-26578949D01*
X35414352Y-26665292D01*
X35152030Y-26805506D01*
X34922103Y-26994203D01*
X34733406Y-27224131D01*
X34593192Y-27486453D01*
X34506849Y-27771089D01*
X34485000Y-27992923D01*
X34485000Y-28155798D01*
X34454287Y-28109833D01*
X34282267Y-27937813D01*
X34079992Y-27802657D01*
X33855236Y-27709560D01*
X33616637Y-27662100D01*
X33373363Y-27662100D01*
X33134764Y-27709560D01*
X32910008Y-27802657D01*
X32707733Y-27937813D01*
X32535713Y-28109833D01*
X32505000Y-28155798D01*
X32505000Y-27992922D01*
X32483151Y-27771088D01*
X32396808Y-27486452D01*
X32256594Y-27224130D01*
X32067897Y-26994203D01*
X31837969Y-26805506D01*
X31575647Y-26665292D01*
X31291011Y-26578949D01*
X30995000Y-26549794D01*
X30698988Y-26578949D01*
X30414352Y-26665292D01*
X30152030Y-26805506D01*
X29922103Y-26994203D01*
X29745000Y-27210003D01*
X29567897Y-26994203D01*
X29337969Y-26805506D01*
X29075647Y-26665292D01*
X28791011Y-26578949D01*
X28495000Y-26549794D01*
X28198988Y-26578949D01*
X27914352Y-26665292D01*
X27652030Y-26805506D01*
X27422103Y-26994203D01*
X27233406Y-27224131D01*
X27093192Y-27486453D01*
X27090440Y-27495525D01*
X27090440Y-25186100D01*
X31106928Y-25186100D01*
X31119188Y-25310582D01*
X31155498Y-25430280D01*
X31214463Y-25540594D01*
X31293815Y-25637285D01*
X31390506Y-25716637D01*
X31500820Y-25775602D01*
X31620518Y-25811912D01*
X31745000Y-25824172D01*
X33209250Y-25821100D01*
X33368000Y-25662350D01*
X33368000Y-24063100D01*
X33622000Y-24063100D01*
X33622000Y-25662350D01*
X33780750Y-25821100D01*
X35245000Y-25824172D01*
X35369482Y-25811912D01*
X35489180Y-25775602D01*
X35599494Y-25716637D01*
X35696185Y-25637285D01*
X35775537Y-25540594D01*
X35834502Y-25430280D01*
X35870812Y-25310582D01*
X35876571Y-25252100D01*
X89625928Y-25252100D01*
X89638188Y-25376582D01*
X89674498Y-25496280D01*
X89733463Y-25606594D01*
X89812815Y-25703285D01*
X89909506Y-25782637D01*
X90019820Y-25841602D01*
X90139518Y-25877912D01*
X90264000Y-25890172D01*
X91728250Y-25887100D01*
X91887000Y-25728350D01*
X91887000Y-24129100D01*
X92141000Y-24129100D01*
X92141000Y-25728350D01*
X92299750Y-25887100D01*
X93764000Y-25890172D01*
X93888482Y-25877912D01*
X94008180Y-25841602D01*
X94118494Y-25782637D01*
X94215185Y-25703285D01*
X94294537Y-25606594D01*
X94353502Y-25496280D01*
X94389812Y-25376582D01*
X94402072Y-25252100D01*
X94399000Y-24287850D01*
X94240250Y-24129100D01*
X92141000Y-24129100D01*
X91887000Y-24129100D01*
X89787750Y-24129100D01*
X89629000Y-24287850D01*
X89625928Y-25252100D01*
X35876571Y-25252100D01*
X35883072Y-25186100D01*
X35880000Y-24221850D01*
X35721250Y-24063100D01*
X33622000Y-24063100D01*
X33368000Y-24063100D01*
X31268750Y-24063100D01*
X31110000Y-24221850D01*
X31106928Y-25186100D01*
X27090440Y-25186100D01*
X27090440Y-23775463D01*
X27260000Y-23775463D01*
X27260000Y-24018737D01*
X27307460Y-24257336D01*
X27400557Y-24482092D01*
X27535713Y-24684367D01*
X27707733Y-24856387D01*
X27910008Y-24991543D01*
X28134764Y-25084640D01*
X28373363Y-25132100D01*
X28616637Y-25132100D01*
X28855236Y-25084640D01*
X29079992Y-24991543D01*
X29282267Y-24856387D01*
X29454287Y-24684367D01*
X29589443Y-24482092D01*
X29682540Y-24257336D01*
X29730000Y-24018737D01*
X29730000Y-23775463D01*
X29682540Y-23536864D01*
X29589443Y-23312108D01*
X29454287Y-23109833D01*
X29282267Y-22937813D01*
X29079992Y-22802657D01*
X28855236Y-22709560D01*
X28737294Y-22686100D01*
X31106928Y-22686100D01*
X31110000Y-23650350D01*
X31268750Y-23809100D01*
X33368000Y-23809100D01*
X33368000Y-22209850D01*
X33622000Y-22209850D01*
X33622000Y-23809100D01*
X35721250Y-23809100D01*
X35754887Y-23775463D01*
X37260000Y-23775463D01*
X37260000Y-24018737D01*
X37307460Y-24257336D01*
X37400557Y-24482092D01*
X37535713Y-24684367D01*
X37707733Y-24856387D01*
X37910008Y-24991543D01*
X38134764Y-25084640D01*
X38373363Y-25132100D01*
X38616637Y-25132100D01*
X38855236Y-25084640D01*
X39079992Y-24991543D01*
X39282267Y-24856387D01*
X39454287Y-24684367D01*
X39589443Y-24482092D01*
X39682540Y-24257336D01*
X39730000Y-24018737D01*
X39730000Y-23775463D01*
X39682540Y-23536864D01*
X39589443Y-23312108D01*
X39454287Y-23109833D01*
X39282267Y-22937813D01*
X39079992Y-22802657D01*
X38855236Y-22709560D01*
X38616637Y-22662100D01*
X38373363Y-22662100D01*
X38134764Y-22709560D01*
X37910008Y-22802657D01*
X37707733Y-22937813D01*
X37535713Y-23109833D01*
X37400557Y-23312108D01*
X37307460Y-23536864D01*
X37260000Y-23775463D01*
X35754887Y-23775463D01*
X35880000Y-23650350D01*
X35883072Y-22686100D01*
X35870812Y-22561618D01*
X35834502Y-22441920D01*
X35775537Y-22331606D01*
X35696185Y-22234915D01*
X35599494Y-22155563D01*
X35489180Y-22096598D01*
X35369482Y-22060288D01*
X35245000Y-22048028D01*
X33780750Y-22051100D01*
X33622000Y-22209850D01*
X33368000Y-22209850D01*
X33209250Y-22051100D01*
X31745000Y-22048028D01*
X31620518Y-22060288D01*
X31500820Y-22096598D01*
X31390506Y-22155563D01*
X31293815Y-22234915D01*
X31214463Y-22331606D01*
X31155498Y-22441920D01*
X31119188Y-22561618D01*
X31106928Y-22686100D01*
X28737294Y-22686100D01*
X28616637Y-22662100D01*
X28373363Y-22662100D01*
X28134764Y-22709560D01*
X27910008Y-22802657D01*
X27707733Y-22937813D01*
X27535713Y-23109833D01*
X27400557Y-23312108D01*
X27307460Y-23536864D01*
X27260000Y-23775463D01*
X27090440Y-23775463D01*
X27090440Y-20194340D01*
X28211281Y-20194340D01*
X28134764Y-20209560D01*
G37*
%TD.AperFunction*%
D26*
X63468648Y-109343858D02*
X63454505Y-109358000D01*
X63468648Y-109372143D01*
X63289043Y-109551748D01*
X63274900Y-109537605D01*
X63260758Y-109551748D01*
X63081153Y-109372143D01*
X63095295Y-109358000D01*
X63081153Y-109343858D01*
X63260758Y-109164253D01*
X63274900Y-109178395D01*
X63289043Y-109164253D01*
X63468648Y-109343858D01*
%TA.AperFunction,Conductor*%
D27*
G36*
X63468648Y-109343858D02*
G01*
X63454505Y-109358000D01*
X63468648Y-109372143D01*
X63289043Y-109551748D01*
X63274900Y-109537605D01*
X63260758Y-109551748D01*
X63081153Y-109372143D01*
X63095295Y-109358000D01*
X63081153Y-109343858D01*
X63260758Y-109164253D01*
X63274900Y-109178395D01*
X63289043Y-109164253D01*
X63468648Y-109343858D01*
G37*
%TD.AperFunction*%
D26*
X51894400Y-103303912D02*
X51926804Y-103343396D01*
X51966297Y-103375807D01*
X51966300Y-103375810D01*
X52019837Y-103419746D01*
X52084403Y-103472734D01*
X52084405Y-103472735D01*
X52084411Y-103472740D01*
X52206711Y-103538109D01*
X52264207Y-103568841D01*
X52264211Y-103568842D01*
X52264216Y-103568845D01*
X52332907Y-103589681D01*
X52459305Y-103628024D01*
X52611362Y-103643000D01*
X52611378Y-103643000D01*
X52662211Y-103648006D01*
X52713034Y-103643000D01*
X65098499Y-103643000D01*
X65482510Y-104027000D01*
X45759407Y-104027000D01*
X45708559Y-104021994D01*
X45632496Y-104029488D01*
X45612300Y-104031478D01*
X45612300Y-103828159D01*
X45524181Y-103385157D01*
X45351330Y-102967857D01*
X45100390Y-102592298D01*
X44781002Y-102272910D01*
X44405443Y-102021970D01*
X43988143Y-101849119D01*
X43545141Y-101761000D01*
X43093459Y-101761000D01*
X42650457Y-101849119D01*
X42233157Y-102021970D01*
X41857598Y-102272910D01*
X41538210Y-102592298D01*
X41287270Y-102967857D01*
X41114419Y-103385157D01*
X41091907Y-103498330D01*
X41082024Y-103471236D01*
X41027605Y-103369423D01*
X40793428Y-103309477D01*
X40048905Y-104054000D01*
X40793428Y-104798523D01*
X41027605Y-104738577D01*
X41090618Y-104603189D01*
X41114419Y-104722843D01*
X41287270Y-105140143D01*
X41406778Y-105319000D01*
X40308759Y-105319000D01*
X40452064Y-105266724D01*
X40553877Y-105212305D01*
X40613823Y-104978128D01*
X39869300Y-104233605D01*
X39124777Y-104978128D01*
X39184723Y-105212305D01*
X39413963Y-105319000D01*
X38214296Y-105319000D01*
X38403554Y-105240607D01*
X38622863Y-105094069D01*
X38809369Y-104907563D01*
X38891421Y-104784764D01*
X38945172Y-104798523D01*
X39689695Y-104054000D01*
X38945172Y-103309477D01*
X38891421Y-103323236D01*
X38809369Y-103200437D01*
X38622863Y-103013931D01*
X38529300Y-102951414D01*
X38529300Y-101338645D01*
X38552278Y-101361628D01*
X38530300Y-101472120D01*
X38530300Y-101735880D01*
X38581757Y-101994572D01*
X38682693Y-102238254D01*
X38829231Y-102457563D01*
X39015737Y-102644069D01*
X39235046Y-102790607D01*
X39324201Y-102827536D01*
X39286536Y-102841276D01*
X39184723Y-102895695D01*
X39124777Y-103129872D01*
X39869300Y-103874395D01*
X40613823Y-103129872D01*
X40553877Y-102895695D01*
X40410714Y-102829063D01*
X40503554Y-102790607D01*
X40722863Y-102644069D01*
X40909369Y-102457563D01*
X41055907Y-102238254D01*
X41156843Y-101994572D01*
X41208300Y-101735880D01*
X41208300Y-101472120D01*
X41156843Y-101213428D01*
X41055907Y-100969746D01*
X40909369Y-100750437D01*
X40722863Y-100563931D01*
X40503554Y-100417393D01*
X40259872Y-100316457D01*
X40001180Y-100265000D01*
X39737420Y-100265000D01*
X39627181Y-100286928D01*
X39091600Y-99751242D01*
X39091600Y-93815411D01*
X39135437Y-93771574D01*
X39248705Y-93602056D01*
X39312656Y-93447667D01*
X39348326Y-93483337D01*
X39517844Y-93596605D01*
X39706202Y-93674626D01*
X39906161Y-93714400D01*
X40110039Y-93714400D01*
X40309998Y-93674626D01*
X40498356Y-93596605D01*
X40667874Y-93483337D01*
X40812037Y-93339174D01*
X40925305Y-93169656D01*
X41003326Y-92981298D01*
X41043100Y-92781339D01*
X41043100Y-92577461D01*
X41012159Y-92421911D01*
X51894400Y-103303912D01*
%TA.AperFunction,Conductor*%
D27*
G36*
X51894400Y-103303912D02*
G01*
X51926804Y-103343396D01*
X51966297Y-103375807D01*
X51966300Y-103375810D01*
X52019837Y-103419746D01*
X52084403Y-103472734D01*
X52084405Y-103472735D01*
X52084411Y-103472740D01*
X52206711Y-103538109D01*
X52264207Y-103568841D01*
X52264211Y-103568842D01*
X52264216Y-103568845D01*
X52332907Y-103589681D01*
X52459305Y-103628024D01*
X52611362Y-103643000D01*
X52611378Y-103643000D01*
X52662211Y-103648006D01*
X52713034Y-103643000D01*
X65098499Y-103643000D01*
X65482510Y-104027000D01*
X45759407Y-104027000D01*
X45708559Y-104021994D01*
X45632496Y-104029488D01*
X45612300Y-104031478D01*
X45612300Y-103828159D01*
X45524181Y-103385157D01*
X45351330Y-102967857D01*
X45100390Y-102592298D01*
X44781002Y-102272910D01*
X44405443Y-102021970D01*
X43988143Y-101849119D01*
X43545141Y-101761000D01*
X43093459Y-101761000D01*
X42650457Y-101849119D01*
X42233157Y-102021970D01*
X41857598Y-102272910D01*
X41538210Y-102592298D01*
X41287270Y-102967857D01*
X41114419Y-103385157D01*
X41091907Y-103498330D01*
X41082024Y-103471236D01*
X41027605Y-103369423D01*
X40793428Y-103309477D01*
X40048905Y-104054000D01*
X40793428Y-104798523D01*
X41027605Y-104738577D01*
X41090618Y-104603189D01*
X41114419Y-104722843D01*
X41287270Y-105140143D01*
X41406778Y-105319000D01*
X40308759Y-105319000D01*
X40452064Y-105266724D01*
X40553877Y-105212305D01*
X40613823Y-104978128D01*
X39869300Y-104233605D01*
X39124777Y-104978128D01*
X39184723Y-105212305D01*
X39413963Y-105319000D01*
X38214296Y-105319000D01*
X38403554Y-105240607D01*
X38622863Y-105094069D01*
X38809369Y-104907563D01*
X38891421Y-104784764D01*
X38945172Y-104798523D01*
X39689695Y-104054000D01*
X38945172Y-103309477D01*
X38891421Y-103323236D01*
X38809369Y-103200437D01*
X38622863Y-103013931D01*
X38529300Y-102951414D01*
X38529300Y-101338645D01*
X38552278Y-101361628D01*
X38530300Y-101472120D01*
X38530300Y-101735880D01*
X38581757Y-101994572D01*
X38682693Y-102238254D01*
X38829231Y-102457563D01*
X39015737Y-102644069D01*
X39235046Y-102790607D01*
X39324201Y-102827536D01*
X39286536Y-102841276D01*
X39184723Y-102895695D01*
X39124777Y-103129872D01*
X39869300Y-103874395D01*
X40613823Y-103129872D01*
X40553877Y-102895695D01*
X40410714Y-102829063D01*
X40503554Y-102790607D01*
X40722863Y-102644069D01*
X40909369Y-102457563D01*
X41055907Y-102238254D01*
X41156843Y-101994572D01*
X41208300Y-101735880D01*
X41208300Y-101472120D01*
X41156843Y-101213428D01*
X41055907Y-100969746D01*
X40909369Y-100750437D01*
X40722863Y-100563931D01*
X40503554Y-100417393D01*
X40259872Y-100316457D01*
X40001180Y-100265000D01*
X39737420Y-100265000D01*
X39627181Y-100286928D01*
X39091600Y-99751242D01*
X39091600Y-93815411D01*
X39135437Y-93771574D01*
X39248705Y-93602056D01*
X39312656Y-93447667D01*
X39348326Y-93483337D01*
X39517844Y-93596605D01*
X39706202Y-93674626D01*
X39906161Y-93714400D01*
X40110039Y-93714400D01*
X40309998Y-93674626D01*
X40498356Y-93596605D01*
X40667874Y-93483337D01*
X40812037Y-93339174D01*
X40925305Y-93169656D01*
X41003326Y-92981298D01*
X41043100Y-92781339D01*
X41043100Y-92577461D01*
X41012159Y-92421911D01*
X51894400Y-103303912D01*
G37*
%TD.AperFunction*%
D26*
X49518700Y-78836500D02*
X49538700Y-78836500D01*
X49538700Y-79090500D01*
X49518700Y-79090500D01*
X49518700Y-81376500D01*
X49538700Y-81376500D01*
X49538700Y-81630500D01*
X49518700Y-81630500D01*
X49518700Y-81650500D01*
X49264700Y-81650500D01*
X49264700Y-81630500D01*
X49244700Y-81630500D01*
X49244700Y-81376500D01*
X49264700Y-81376500D01*
X49264700Y-79090500D01*
X49244700Y-79090500D01*
X49244700Y-78836500D01*
X49264700Y-78836500D01*
X49264700Y-78816500D01*
X49518700Y-78816500D01*
X49518700Y-78836500D01*
%TA.AperFunction,Conductor*%
D27*
G36*
X49518700Y-78836500D02*
G01*
X49538700Y-78836500D01*
X49538700Y-79090500D01*
X49518700Y-79090500D01*
X49518700Y-81376500D01*
X49538700Y-81376500D01*
X49538700Y-81630500D01*
X49518700Y-81630500D01*
X49518700Y-81650500D01*
X49264700Y-81650500D01*
X49264700Y-81630500D01*
X49244700Y-81630500D01*
X49244700Y-81376500D01*
X49264700Y-81376500D01*
X49264700Y-79090500D01*
X49244700Y-79090500D01*
X49244700Y-78836500D01*
X49264700Y-78836500D01*
X49264700Y-78816500D01*
X49518700Y-78816500D01*
X49518700Y-78836500D01*
G37*
%TD.AperFunction*%
D26*
X82459824Y-66071710D02*
X82581145Y-66301600D01*
X83774300Y-66301600D01*
X83774300Y-66281600D01*
X84028300Y-66281600D01*
X84028300Y-66301600D01*
X84048300Y-66301600D01*
X84048300Y-66555600D01*
X84028300Y-66555600D01*
X84028300Y-66575600D01*
X83774300Y-66575600D01*
X83774300Y-66555600D01*
X82581145Y-66555600D01*
X82459824Y-66785490D01*
X82504475Y-66932699D01*
X82552392Y-67033300D01*
X81073622Y-67033300D01*
X81036299Y-67029624D01*
X80998976Y-67033300D01*
X80998967Y-67033300D01*
X80887314Y-67044297D01*
X80744053Y-67087754D01*
X80612024Y-67158326D01*
X80612022Y-67158327D01*
X80612023Y-67158327D01*
X80525296Y-67229501D01*
X80525292Y-67229505D01*
X80496299Y-67253299D01*
X80472505Y-67282292D01*
X70443399Y-77311400D01*
X68522401Y-77311400D01*
X79846503Y-65987300D01*
X82485427Y-65987300D01*
X82459824Y-66071710D01*
%TA.AperFunction,Conductor*%
D27*
G36*
X82459824Y-66071710D02*
G01*
X82581145Y-66301600D01*
X83774300Y-66301600D01*
X83774300Y-66281600D01*
X84028300Y-66281600D01*
X84028300Y-66301600D01*
X84048300Y-66301600D01*
X84048300Y-66555600D01*
X84028300Y-66555600D01*
X84028300Y-66575600D01*
X83774300Y-66575600D01*
X83774300Y-66555600D01*
X82581145Y-66555600D01*
X82459824Y-66785490D01*
X82504475Y-66932699D01*
X82552392Y-67033300D01*
X81073622Y-67033300D01*
X81036299Y-67029624D01*
X80998976Y-67033300D01*
X80998967Y-67033300D01*
X80887314Y-67044297D01*
X80744053Y-67087754D01*
X80612024Y-67158326D01*
X80612022Y-67158327D01*
X80612023Y-67158327D01*
X80525296Y-67229501D01*
X80525292Y-67229505D01*
X80496299Y-67253299D01*
X80472505Y-67282292D01*
X70443399Y-77311400D01*
X68522401Y-77311400D01*
X79846503Y-65987300D01*
X82485427Y-65987300D01*
X82459824Y-66071710D01*
G37*
%TD.AperFunction*%
D26*
X62455000Y-40183211D02*
X62455001Y-41920646D01*
X62395820Y-41938598D01*
X62285506Y-41997563D01*
X62220000Y-42051322D01*
X62154494Y-41997563D01*
X62044180Y-41938598D01*
X61924482Y-41902288D01*
X61800000Y-41890028D01*
X61235750Y-41893100D01*
X61077000Y-42051850D01*
X61077000Y-43251100D01*
X61097000Y-43251100D01*
X61097000Y-43505100D01*
X61077000Y-43505100D01*
X61077000Y-43525100D01*
X60823000Y-43525100D01*
X60823000Y-43505100D01*
X59623750Y-43505100D01*
X59465000Y-43663850D01*
X59461928Y-44228100D01*
X59474188Y-44352582D01*
X59510498Y-44472280D01*
X59569463Y-44582594D01*
X59648815Y-44679285D01*
X59745506Y-44758637D01*
X59855820Y-44817602D01*
X59928380Y-44839613D01*
X59796525Y-44971468D01*
X59634010Y-45214689D01*
X59522068Y-45484942D01*
X59465000Y-45771840D01*
X59465000Y-46064360D01*
X59522068Y-46351258D01*
X59634010Y-46621511D01*
X59776194Y-46834304D01*
X59243798Y-47366701D01*
X59214800Y-47390499D01*
X59191002Y-47419497D01*
X59191001Y-47419498D01*
X59119826Y-47506224D01*
X59049254Y-47638254D01*
X59019814Y-47735307D01*
X59005798Y-47781514D01*
X59001811Y-47821999D01*
X58991124Y-47930500D01*
X58994801Y-47967832D01*
X58994800Y-54037577D01*
X58991124Y-54074900D01*
X58994800Y-54112222D01*
X58994800Y-54112232D01*
X59005797Y-54223885D01*
X59037872Y-54329624D01*
X59049254Y-54367146D01*
X59119826Y-54499176D01*
X59153719Y-54540474D01*
X59214799Y-54614901D01*
X59243802Y-54638703D01*
X59772509Y-55167411D01*
X59634010Y-55374689D01*
X59522068Y-55644942D01*
X59465000Y-55931840D01*
X59465000Y-56224360D01*
X59522068Y-56511258D01*
X59634010Y-56781511D01*
X59796525Y-57024732D01*
X60003368Y-57231575D01*
X60246589Y-57394090D01*
X60516842Y-57506032D01*
X60803740Y-57563100D01*
X61096260Y-57563100D01*
X61383158Y-57506032D01*
X61653411Y-57394090D01*
X61896632Y-57231575D01*
X62103475Y-57024732D01*
X62220000Y-56850340D01*
X62336525Y-57024732D01*
X62543368Y-57231575D01*
X62717760Y-57348100D01*
X62543368Y-57464625D01*
X62336525Y-57671468D01*
X62174010Y-57914689D01*
X62062068Y-58184942D01*
X62005000Y-58471840D01*
X62005000Y-58764360D01*
X62062068Y-59051258D01*
X62174010Y-59321511D01*
X62336525Y-59564732D01*
X62543368Y-59771575D01*
X62717760Y-59888100D01*
X62543368Y-60004625D01*
X62336525Y-60211468D01*
X62207204Y-60405011D01*
X62165714Y-60409097D01*
X62022453Y-60452554D01*
X61890424Y-60523126D01*
X61774699Y-60618099D01*
X61750901Y-60647097D01*
X60824599Y-61573400D01*
X44429175Y-61573400D01*
X44484700Y-61294260D01*
X44484700Y-61001740D01*
X44427632Y-60714842D01*
X44315690Y-60444589D01*
X44153175Y-60201368D01*
X43946332Y-59994525D01*
X43771940Y-59878000D01*
X43946332Y-59761475D01*
X44153175Y-59554632D01*
X44315690Y-59311411D01*
X44427632Y-59041158D01*
X44484700Y-58754260D01*
X44484700Y-58461740D01*
X44427632Y-58174842D01*
X44315690Y-57904589D01*
X44153175Y-57661368D01*
X43946332Y-57454525D01*
X43771940Y-57338000D01*
X43946332Y-57221475D01*
X44153175Y-57014632D01*
X44315690Y-56771411D01*
X44427632Y-56501158D01*
X44484700Y-56214260D01*
X44484700Y-55921740D01*
X44427632Y-55634842D01*
X44315690Y-55364589D01*
X44177191Y-55157310D01*
X51100509Y-48233994D01*
X51129501Y-48210201D01*
X51153295Y-48181208D01*
X51153299Y-48181204D01*
X51211311Y-48110515D01*
X51224474Y-48094476D01*
X51295046Y-47962447D01*
X51338503Y-47819186D01*
X51349500Y-47707533D01*
X51349500Y-47707524D01*
X51353176Y-47670201D01*
X51349500Y-47632878D01*
X51349500Y-47111673D01*
X51522662Y-47370829D01*
X51833971Y-47682138D01*
X52200031Y-47926731D01*
X52606775Y-48095210D01*
X53038572Y-48181100D01*
X53478828Y-48181100D01*
X53910625Y-48095210D01*
X54317369Y-47926731D01*
X54683429Y-47682138D01*
X54994738Y-47370829D01*
X55239331Y-47004769D01*
X55407810Y-46598025D01*
X55493700Y-46166228D01*
X55493700Y-45725972D01*
X55407810Y-45294175D01*
X55239331Y-44887431D01*
X54994738Y-44521371D01*
X54683429Y-44210062D01*
X54317369Y-43965469D01*
X53910625Y-43796990D01*
X53478828Y-43711100D01*
X53038572Y-43711100D01*
X52606775Y-43796990D01*
X52200031Y-43965469D01*
X51833971Y-44210062D01*
X51522662Y-44521371D01*
X51349500Y-44780527D01*
X51349500Y-42528501D01*
X51349901Y-42528100D01*
X59461928Y-42528100D01*
X59465000Y-43092350D01*
X59623750Y-43251100D01*
X60823000Y-43251100D01*
X60823000Y-42051850D01*
X60664250Y-41893100D01*
X60100000Y-41890028D01*
X59975518Y-41902288D01*
X59855820Y-41938598D01*
X59745506Y-41997563D01*
X59648815Y-42076915D01*
X59569463Y-42173606D01*
X59510498Y-42283920D01*
X59474188Y-42403618D01*
X59461928Y-42528100D01*
X51349901Y-42528100D01*
X57601102Y-36276900D01*
X57663239Y-36276900D01*
X57863198Y-36237126D01*
X58051556Y-36159105D01*
X58221074Y-36045837D01*
X58269350Y-35997561D01*
X62455000Y-40183211D01*
%TA.AperFunction,Conductor*%
D27*
G36*
X62455000Y-40183211D02*
G01*
X62455001Y-41920646D01*
X62395820Y-41938598D01*
X62285506Y-41997563D01*
X62220000Y-42051322D01*
X62154494Y-41997563D01*
X62044180Y-41938598D01*
X61924482Y-41902288D01*
X61800000Y-41890028D01*
X61235750Y-41893100D01*
X61077000Y-42051850D01*
X61077000Y-43251100D01*
X61097000Y-43251100D01*
X61097000Y-43505100D01*
X61077000Y-43505100D01*
X61077000Y-43525100D01*
X60823000Y-43525100D01*
X60823000Y-43505100D01*
X59623750Y-43505100D01*
X59465000Y-43663850D01*
X59461928Y-44228100D01*
X59474188Y-44352582D01*
X59510498Y-44472280D01*
X59569463Y-44582594D01*
X59648815Y-44679285D01*
X59745506Y-44758637D01*
X59855820Y-44817602D01*
X59928380Y-44839613D01*
X59796525Y-44971468D01*
X59634010Y-45214689D01*
X59522068Y-45484942D01*
X59465000Y-45771840D01*
X59465000Y-46064360D01*
X59522068Y-46351258D01*
X59634010Y-46621511D01*
X59776194Y-46834304D01*
X59243798Y-47366701D01*
X59214800Y-47390499D01*
X59191002Y-47419497D01*
X59191001Y-47419498D01*
X59119826Y-47506224D01*
X59049254Y-47638254D01*
X59019814Y-47735307D01*
X59005798Y-47781514D01*
X59001811Y-47821999D01*
X58991124Y-47930500D01*
X58994801Y-47967832D01*
X58994800Y-54037577D01*
X58991124Y-54074900D01*
X58994800Y-54112222D01*
X58994800Y-54112232D01*
X59005797Y-54223885D01*
X59037872Y-54329624D01*
X59049254Y-54367146D01*
X59119826Y-54499176D01*
X59153719Y-54540474D01*
X59214799Y-54614901D01*
X59243802Y-54638703D01*
X59772509Y-55167411D01*
X59634010Y-55374689D01*
X59522068Y-55644942D01*
X59465000Y-55931840D01*
X59465000Y-56224360D01*
X59522068Y-56511258D01*
X59634010Y-56781511D01*
X59796525Y-57024732D01*
X60003368Y-57231575D01*
X60246589Y-57394090D01*
X60516842Y-57506032D01*
X60803740Y-57563100D01*
X61096260Y-57563100D01*
X61383158Y-57506032D01*
X61653411Y-57394090D01*
X61896632Y-57231575D01*
X62103475Y-57024732D01*
X62220000Y-56850340D01*
X62336525Y-57024732D01*
X62543368Y-57231575D01*
X62717760Y-57348100D01*
X62543368Y-57464625D01*
X62336525Y-57671468D01*
X62174010Y-57914689D01*
X62062068Y-58184942D01*
X62005000Y-58471840D01*
X62005000Y-58764360D01*
X62062068Y-59051258D01*
X62174010Y-59321511D01*
X62336525Y-59564732D01*
X62543368Y-59771575D01*
X62717760Y-59888100D01*
X62543368Y-60004625D01*
X62336525Y-60211468D01*
X62207204Y-60405011D01*
X62165714Y-60409097D01*
X62022453Y-60452554D01*
X61890424Y-60523126D01*
X61774699Y-60618099D01*
X61750901Y-60647097D01*
X60824599Y-61573400D01*
X44429175Y-61573400D01*
X44484700Y-61294260D01*
X44484700Y-61001740D01*
X44427632Y-60714842D01*
X44315690Y-60444589D01*
X44153175Y-60201368D01*
X43946332Y-59994525D01*
X43771940Y-59878000D01*
X43946332Y-59761475D01*
X44153175Y-59554632D01*
X44315690Y-59311411D01*
X44427632Y-59041158D01*
X44484700Y-58754260D01*
X44484700Y-58461740D01*
X44427632Y-58174842D01*
X44315690Y-57904589D01*
X44153175Y-57661368D01*
X43946332Y-57454525D01*
X43771940Y-57338000D01*
X43946332Y-57221475D01*
X44153175Y-57014632D01*
X44315690Y-56771411D01*
X44427632Y-56501158D01*
X44484700Y-56214260D01*
X44484700Y-55921740D01*
X44427632Y-55634842D01*
X44315690Y-55364589D01*
X44177191Y-55157310D01*
X51100509Y-48233994D01*
X51129501Y-48210201D01*
X51153295Y-48181208D01*
X51153299Y-48181204D01*
X51211311Y-48110515D01*
X51224474Y-48094476D01*
X51295046Y-47962447D01*
X51338503Y-47819186D01*
X51349500Y-47707533D01*
X51349500Y-47707524D01*
X51353176Y-47670201D01*
X51349500Y-47632878D01*
X51349500Y-47111673D01*
X51522662Y-47370829D01*
X51833971Y-47682138D01*
X52200031Y-47926731D01*
X52606775Y-48095210D01*
X53038572Y-48181100D01*
X53478828Y-48181100D01*
X53910625Y-48095210D01*
X54317369Y-47926731D01*
X54683429Y-47682138D01*
X54994738Y-47370829D01*
X55239331Y-47004769D01*
X55407810Y-46598025D01*
X55493700Y-46166228D01*
X55493700Y-45725972D01*
X55407810Y-45294175D01*
X55239331Y-44887431D01*
X54994738Y-44521371D01*
X54683429Y-44210062D01*
X54317369Y-43965469D01*
X53910625Y-43796990D01*
X53478828Y-43711100D01*
X53038572Y-43711100D01*
X52606775Y-43796990D01*
X52200031Y-43965469D01*
X51833971Y-44210062D01*
X51522662Y-44521371D01*
X51349500Y-44780527D01*
X51349500Y-42528501D01*
X51349901Y-42528100D01*
X59461928Y-42528100D01*
X59465000Y-43092350D01*
X59623750Y-43251100D01*
X60823000Y-43251100D01*
X60823000Y-42051850D01*
X60664250Y-41893100D01*
X60100000Y-41890028D01*
X59975518Y-41902288D01*
X59855820Y-41938598D01*
X59745506Y-41997563D01*
X59648815Y-42076915D01*
X59569463Y-42173606D01*
X59510498Y-42283920D01*
X59474188Y-42403618D01*
X59461928Y-42528100D01*
X51349901Y-42528100D01*
X57601102Y-36276900D01*
X57663239Y-36276900D01*
X57863198Y-36237126D01*
X58051556Y-36159105D01*
X58221074Y-36045837D01*
X58269350Y-35997561D01*
X62455000Y-40183211D01*
G37*
%TD.AperFunction*%
D26*
X81043100Y-55604302D02*
X81066899Y-55633301D01*
X81182624Y-55728274D01*
X81314653Y-55798846D01*
X81457914Y-55842303D01*
X81569567Y-55853300D01*
X81569575Y-55853300D01*
X81606900Y-55856976D01*
X81644225Y-55853300D01*
X82469816Y-55853300D01*
X82416300Y-56122340D01*
X82416300Y-56414860D01*
X82473368Y-56701758D01*
X82585310Y-56972011D01*
X82747825Y-57215232D01*
X82954668Y-57422075D01*
X83136834Y-57543795D01*
X83019945Y-57613422D01*
X82803712Y-57808331D01*
X82629659Y-58041680D01*
X82504475Y-58304501D01*
X82459824Y-58451710D01*
X82581145Y-58681600D01*
X83774300Y-58681600D01*
X83774300Y-58661600D01*
X84028300Y-58661600D01*
X84028300Y-58681600D01*
X84048300Y-58681600D01*
X84048300Y-58935600D01*
X84028300Y-58935600D01*
X84028300Y-58955600D01*
X83774300Y-58955600D01*
X83774300Y-58935600D01*
X82581145Y-58935600D01*
X82459824Y-59165490D01*
X82504475Y-59312699D01*
X82629659Y-59575520D01*
X82659445Y-59615453D01*
X81218499Y-61056400D01*
X80470099Y-61056400D01*
X80468500Y-61040162D01*
X80468500Y-60989061D01*
X80458531Y-60938943D01*
X80453524Y-60888105D01*
X80438696Y-60839223D01*
X80428726Y-60789102D01*
X80409169Y-60741887D01*
X80394341Y-60693007D01*
X80370262Y-60647958D01*
X80350705Y-60600744D01*
X80322314Y-60558254D01*
X80298234Y-60513203D01*
X80265828Y-60473716D01*
X80237437Y-60431226D01*
X80201303Y-60395092D01*
X80168896Y-60355604D01*
X80129408Y-60323197D01*
X80093274Y-60287063D01*
X80050784Y-60258672D01*
X80011297Y-60226266D01*
X79966246Y-60202186D01*
X79923756Y-60173795D01*
X79876542Y-60154238D01*
X79831493Y-60130159D01*
X79782613Y-60115331D01*
X79735398Y-60095774D01*
X79685277Y-60085804D01*
X79636395Y-60070976D01*
X79585557Y-60065969D01*
X79535439Y-60056000D01*
X78001911Y-60056000D01*
X65971210Y-48025300D01*
X73464099Y-48025300D01*
X81043100Y-55604302D01*
%TA.AperFunction,Conductor*%
D27*
G36*
X81043100Y-55604302D02*
G01*
X81066899Y-55633301D01*
X81182624Y-55728274D01*
X81314653Y-55798846D01*
X81457914Y-55842303D01*
X81569567Y-55853300D01*
X81569575Y-55853300D01*
X81606900Y-55856976D01*
X81644225Y-55853300D01*
X82469816Y-55853300D01*
X82416300Y-56122340D01*
X82416300Y-56414860D01*
X82473368Y-56701758D01*
X82585310Y-56972011D01*
X82747825Y-57215232D01*
X82954668Y-57422075D01*
X83136834Y-57543795D01*
X83019945Y-57613422D01*
X82803712Y-57808331D01*
X82629659Y-58041680D01*
X82504475Y-58304501D01*
X82459824Y-58451710D01*
X82581145Y-58681600D01*
X83774300Y-58681600D01*
X83774300Y-58661600D01*
X84028300Y-58661600D01*
X84028300Y-58681600D01*
X84048300Y-58681600D01*
X84048300Y-58935600D01*
X84028300Y-58935600D01*
X84028300Y-58955600D01*
X83774300Y-58955600D01*
X83774300Y-58935600D01*
X82581145Y-58935600D01*
X82459824Y-59165490D01*
X82504475Y-59312699D01*
X82629659Y-59575520D01*
X82659445Y-59615453D01*
X81218499Y-61056400D01*
X80470099Y-61056400D01*
X80468500Y-61040162D01*
X80468500Y-60989061D01*
X80458531Y-60938943D01*
X80453524Y-60888105D01*
X80438696Y-60839223D01*
X80428726Y-60789102D01*
X80409169Y-60741887D01*
X80394341Y-60693007D01*
X80370262Y-60647958D01*
X80350705Y-60600744D01*
X80322314Y-60558254D01*
X80298234Y-60513203D01*
X80265828Y-60473716D01*
X80237437Y-60431226D01*
X80201303Y-60395092D01*
X80168896Y-60355604D01*
X80129408Y-60323197D01*
X80093274Y-60287063D01*
X80050784Y-60258672D01*
X80011297Y-60226266D01*
X79966246Y-60202186D01*
X79923756Y-60173795D01*
X79876542Y-60154238D01*
X79831493Y-60130159D01*
X79782613Y-60115331D01*
X79735398Y-60095774D01*
X79685277Y-60085804D01*
X79636395Y-60070976D01*
X79585557Y-60065969D01*
X79535439Y-60056000D01*
X78001911Y-60056000D01*
X65971210Y-48025300D01*
X73464099Y-48025300D01*
X81043100Y-55604302D01*
G37*
%TD.AperFunction*%
D26*
X76074889Y-61056400D02*
X74528503Y-61056400D01*
X65134504Y-51662403D01*
X65110701Y-51633399D01*
X64994976Y-51538426D01*
X64892458Y-51483628D01*
X64931476Y-51354990D01*
X64810155Y-51125100D01*
X63617000Y-51125100D01*
X63617000Y-51145100D01*
X63363000Y-51145100D01*
X63363000Y-51125100D01*
X63343000Y-51125100D01*
X63343000Y-50871100D01*
X63363000Y-50871100D01*
X63363000Y-50851100D01*
X63617000Y-50851100D01*
X63617000Y-50871100D01*
X64810155Y-50871100D01*
X64931476Y-50641210D01*
X64886825Y-50494001D01*
X64761641Y-50231180D01*
X64587588Y-49997831D01*
X64371355Y-49802922D01*
X64254466Y-49733295D01*
X64436632Y-49611575D01*
X64533348Y-49514859D01*
X76074889Y-61056400D01*
%TA.AperFunction,Conductor*%
D27*
G36*
X76074889Y-61056400D02*
G01*
X74528503Y-61056400D01*
X65134504Y-51662403D01*
X65110701Y-51633399D01*
X64994976Y-51538426D01*
X64892458Y-51483628D01*
X64931476Y-51354990D01*
X64810155Y-51125100D01*
X63617000Y-51125100D01*
X63617000Y-51145100D01*
X63363000Y-51145100D01*
X63363000Y-51125100D01*
X63343000Y-51125100D01*
X63343000Y-50871100D01*
X63363000Y-50871100D01*
X63363000Y-50851100D01*
X63617000Y-50851100D01*
X63617000Y-50871100D01*
X64810155Y-50871100D01*
X64931476Y-50641210D01*
X64886825Y-50494001D01*
X64761641Y-50231180D01*
X64587588Y-49997831D01*
X64371355Y-49802922D01*
X64254466Y-49733295D01*
X64436632Y-49611575D01*
X64533348Y-49514859D01*
X76074889Y-61056400D01*
G37*
%TD.AperFunction*%
D26*
X86568300Y-53601600D02*
X86588300Y-53601600D01*
X86588300Y-53855600D01*
X86568300Y-53855600D01*
X86568300Y-53875600D01*
X86314300Y-53875600D01*
X86314300Y-53855600D01*
X86294300Y-53855600D01*
X86294300Y-53601600D01*
X86314300Y-53601600D01*
X86314300Y-53581600D01*
X86568300Y-53581600D01*
X86568300Y-53601600D01*
%TA.AperFunction,Conductor*%
D27*
G36*
X86568300Y-53601600D02*
G01*
X86588300Y-53601600D01*
X86588300Y-53855600D01*
X86568300Y-53855600D01*
X86568300Y-53875600D01*
X86314300Y-53875600D01*
X86314300Y-53855600D01*
X86294300Y-53855600D01*
X86294300Y-53601600D01*
X86314300Y-53601600D01*
X86314300Y-53581600D01*
X86568300Y-53581600D01*
X86568300Y-53601600D01*
G37*
%TD.AperFunction*%
D26*
X81873203Y-44433334D02*
X82053007Y-44529441D01*
X82248105Y-44588624D01*
X82400162Y-44603600D01*
X82400165Y-44603600D01*
X82451000Y-44608607D01*
X82501835Y-44603600D01*
X82836193Y-44603600D01*
X82954668Y-44722075D01*
X83129060Y-44838600D01*
X82954668Y-44955125D01*
X82747825Y-45161968D01*
X82585310Y-45405189D01*
X82473368Y-45675442D01*
X82416300Y-45962340D01*
X82416300Y-46254860D01*
X82473368Y-46541758D01*
X82585310Y-46812011D01*
X82747825Y-47055232D01*
X82954668Y-47262075D01*
X83136834Y-47383795D01*
X83019945Y-47453422D01*
X82803712Y-47648331D01*
X82629659Y-47881680D01*
X82504475Y-48144501D01*
X82459824Y-48291710D01*
X82581145Y-48521600D01*
X83774300Y-48521600D01*
X83774300Y-48501600D01*
X84028300Y-48501600D01*
X84028300Y-48521600D01*
X84048300Y-48521600D01*
X84048300Y-48775600D01*
X84028300Y-48775600D01*
X84028300Y-48795600D01*
X83774300Y-48795600D01*
X83774300Y-48775600D01*
X82581145Y-48775600D01*
X82459824Y-49005490D01*
X82504475Y-49152699D01*
X82552392Y-49253300D01*
X82129902Y-49253300D01*
X77289701Y-44413100D01*
X81848548Y-44413100D01*
X81873203Y-44433334D01*
%TA.AperFunction,Conductor*%
D27*
G36*
X81873203Y-44433334D02*
G01*
X82053007Y-44529441D01*
X82248105Y-44588624D01*
X82400162Y-44603600D01*
X82400165Y-44603600D01*
X82451000Y-44608607D01*
X82501835Y-44603600D01*
X82836193Y-44603600D01*
X82954668Y-44722075D01*
X83129060Y-44838600D01*
X82954668Y-44955125D01*
X82747825Y-45161968D01*
X82585310Y-45405189D01*
X82473368Y-45675442D01*
X82416300Y-45962340D01*
X82416300Y-46254860D01*
X82473368Y-46541758D01*
X82585310Y-46812011D01*
X82747825Y-47055232D01*
X82954668Y-47262075D01*
X83136834Y-47383795D01*
X83019945Y-47453422D01*
X82803712Y-47648331D01*
X82629659Y-47881680D01*
X82504475Y-48144501D01*
X82459824Y-48291710D01*
X82581145Y-48521600D01*
X83774300Y-48521600D01*
X83774300Y-48501600D01*
X84028300Y-48501600D01*
X84028300Y-48521600D01*
X84048300Y-48521600D01*
X84048300Y-48775600D01*
X84028300Y-48775600D01*
X84028300Y-48795600D01*
X83774300Y-48795600D01*
X83774300Y-48775600D01*
X82581145Y-48775600D01*
X82459824Y-49005490D01*
X82504475Y-49152699D01*
X82552392Y-49253300D01*
X82129902Y-49253300D01*
X77289701Y-44413100D01*
X81848548Y-44413100D01*
X81873203Y-44433334D01*
G37*
%TD.AperFunction*%
D26*
X49427398Y-39884801D02*
X49398400Y-39908599D01*
X49374602Y-39937597D01*
X49374601Y-39937598D01*
X49303426Y-40024324D01*
X49232854Y-40156354D01*
X49189398Y-40299615D01*
X49174724Y-40448600D01*
X49178401Y-40485932D01*
X49178400Y-45452198D01*
X46861612Y-47768986D01*
X46855690Y-47754689D01*
X46693175Y-47511468D01*
X46486332Y-47304625D01*
X46304166Y-47182905D01*
X46421055Y-47113278D01*
X46637288Y-46918369D01*
X46811341Y-46685020D01*
X46936525Y-46422199D01*
X46981176Y-46274990D01*
X46859855Y-46045100D01*
X45666700Y-46045100D01*
X45666700Y-46065100D01*
X45412700Y-46065100D01*
X45412700Y-46045100D01*
X45392700Y-46045100D01*
X45392700Y-45791100D01*
X45412700Y-45791100D01*
X45412700Y-45771100D01*
X45666700Y-45771100D01*
X45666700Y-45791100D01*
X46859855Y-45791100D01*
X46981176Y-45561210D01*
X46936525Y-45414001D01*
X46811341Y-45151180D01*
X46637288Y-44917831D01*
X46553234Y-44842066D01*
X46633880Y-44817602D01*
X46744194Y-44758637D01*
X46840885Y-44679285D01*
X46920237Y-44582594D01*
X46979202Y-44472280D01*
X47015512Y-44352582D01*
X47027772Y-44228100D01*
X47027772Y-42528100D01*
X47015512Y-42403618D01*
X46979202Y-42283920D01*
X46920237Y-42173606D01*
X46840885Y-42076915D01*
X46744194Y-41997563D01*
X46633880Y-41938598D01*
X46514182Y-41902288D01*
X46389700Y-41890028D01*
X44689700Y-41890028D01*
X44565218Y-41902288D01*
X44445520Y-41938598D01*
X44335206Y-41997563D01*
X44275853Y-42046272D01*
X44204194Y-41987463D01*
X44093880Y-41928498D01*
X43974182Y-41892188D01*
X43849700Y-41879928D01*
X43343283Y-41879928D01*
X45043411Y-40179800D01*
X48511839Y-40179800D01*
X48561957Y-40169831D01*
X48612795Y-40164824D01*
X48661677Y-40149996D01*
X48711798Y-40140026D01*
X48759013Y-40120469D01*
X48807893Y-40105641D01*
X48852942Y-40081562D01*
X48900156Y-40062005D01*
X48942646Y-40033614D01*
X48987697Y-40009534D01*
X49027184Y-39977128D01*
X49069674Y-39948737D01*
X49105808Y-39912603D01*
X49145296Y-39880196D01*
X49177703Y-39840708D01*
X49213837Y-39804574D01*
X49242228Y-39762084D01*
X49274634Y-39722597D01*
X49298714Y-39677546D01*
X49327105Y-39635056D01*
X49346662Y-39587842D01*
X49370741Y-39542793D01*
X49385569Y-39493913D01*
X49405126Y-39446698D01*
X49415096Y-39396577D01*
X49429924Y-39347695D01*
X49434931Y-39296857D01*
X49444900Y-39246739D01*
X49444900Y-39195638D01*
X49449907Y-39144800D01*
X49444900Y-39093962D01*
X49444900Y-39042861D01*
X49434931Y-38992743D01*
X49429924Y-38941905D01*
X49415096Y-38893023D01*
X49405126Y-38842902D01*
X49385569Y-38795687D01*
X49370741Y-38746807D01*
X49346662Y-38701758D01*
X49327105Y-38654544D01*
X49298714Y-38612054D01*
X49274634Y-38567003D01*
X49242228Y-38527516D01*
X49213837Y-38485026D01*
X49177703Y-38448892D01*
X49145296Y-38409404D01*
X49105808Y-38376997D01*
X49069674Y-38340863D01*
X49027184Y-38312472D01*
X48987697Y-38280066D01*
X48942646Y-38255986D01*
X48900156Y-38227595D01*
X48852942Y-38208038D01*
X48807893Y-38183959D01*
X48759013Y-38169131D01*
X48711798Y-38149574D01*
X48661677Y-38139604D01*
X48612795Y-38124776D01*
X48561957Y-38119769D01*
X48511839Y-38109800D01*
X44665535Y-38109800D01*
X44614700Y-38104793D01*
X44563864Y-38109800D01*
X44563862Y-38109800D01*
X44411805Y-38124776D01*
X44327444Y-38150367D01*
X47836111Y-34641700D01*
X54670498Y-34641700D01*
X49427398Y-39884801D01*
%TA.AperFunction,Conductor*%
D27*
G36*
X49427398Y-39884801D02*
G01*
X49398400Y-39908599D01*
X49374602Y-39937597D01*
X49374601Y-39937598D01*
X49303426Y-40024324D01*
X49232854Y-40156354D01*
X49189398Y-40299615D01*
X49174724Y-40448600D01*
X49178401Y-40485932D01*
X49178400Y-45452198D01*
X46861612Y-47768986D01*
X46855690Y-47754689D01*
X46693175Y-47511468D01*
X46486332Y-47304625D01*
X46304166Y-47182905D01*
X46421055Y-47113278D01*
X46637288Y-46918369D01*
X46811341Y-46685020D01*
X46936525Y-46422199D01*
X46981176Y-46274990D01*
X46859855Y-46045100D01*
X45666700Y-46045100D01*
X45666700Y-46065100D01*
X45412700Y-46065100D01*
X45412700Y-46045100D01*
X45392700Y-46045100D01*
X45392700Y-45791100D01*
X45412700Y-45791100D01*
X45412700Y-45771100D01*
X45666700Y-45771100D01*
X45666700Y-45791100D01*
X46859855Y-45791100D01*
X46981176Y-45561210D01*
X46936525Y-45414001D01*
X46811341Y-45151180D01*
X46637288Y-44917831D01*
X46553234Y-44842066D01*
X46633880Y-44817602D01*
X46744194Y-44758637D01*
X46840885Y-44679285D01*
X46920237Y-44582594D01*
X46979202Y-44472280D01*
X47015512Y-44352582D01*
X47027772Y-44228100D01*
X47027772Y-42528100D01*
X47015512Y-42403618D01*
X46979202Y-42283920D01*
X46920237Y-42173606D01*
X46840885Y-42076915D01*
X46744194Y-41997563D01*
X46633880Y-41938598D01*
X46514182Y-41902288D01*
X46389700Y-41890028D01*
X44689700Y-41890028D01*
X44565218Y-41902288D01*
X44445520Y-41938598D01*
X44335206Y-41997563D01*
X44275853Y-42046272D01*
X44204194Y-41987463D01*
X44093880Y-41928498D01*
X43974182Y-41892188D01*
X43849700Y-41879928D01*
X43343283Y-41879928D01*
X45043411Y-40179800D01*
X48511839Y-40179800D01*
X48561957Y-40169831D01*
X48612795Y-40164824D01*
X48661677Y-40149996D01*
X48711798Y-40140026D01*
X48759013Y-40120469D01*
X48807893Y-40105641D01*
X48852942Y-40081562D01*
X48900156Y-40062005D01*
X48942646Y-40033614D01*
X48987697Y-40009534D01*
X49027184Y-39977128D01*
X49069674Y-39948737D01*
X49105808Y-39912603D01*
X49145296Y-39880196D01*
X49177703Y-39840708D01*
X49213837Y-39804574D01*
X49242228Y-39762084D01*
X49274634Y-39722597D01*
X49298714Y-39677546D01*
X49327105Y-39635056D01*
X49346662Y-39587842D01*
X49370741Y-39542793D01*
X49385569Y-39493913D01*
X49405126Y-39446698D01*
X49415096Y-39396577D01*
X49429924Y-39347695D01*
X49434931Y-39296857D01*
X49444900Y-39246739D01*
X49444900Y-39195638D01*
X49449907Y-39144800D01*
X49444900Y-39093962D01*
X49444900Y-39042861D01*
X49434931Y-38992743D01*
X49429924Y-38941905D01*
X49415096Y-38893023D01*
X49405126Y-38842902D01*
X49385569Y-38795687D01*
X49370741Y-38746807D01*
X49346662Y-38701758D01*
X49327105Y-38654544D01*
X49298714Y-38612054D01*
X49274634Y-38567003D01*
X49242228Y-38527516D01*
X49213837Y-38485026D01*
X49177703Y-38448892D01*
X49145296Y-38409404D01*
X49105808Y-38376997D01*
X49069674Y-38340863D01*
X49027184Y-38312472D01*
X48987697Y-38280066D01*
X48942646Y-38255986D01*
X48900156Y-38227595D01*
X48852942Y-38208038D01*
X48807893Y-38183959D01*
X48759013Y-38169131D01*
X48711798Y-38149574D01*
X48661677Y-38139604D01*
X48612795Y-38124776D01*
X48561957Y-38119769D01*
X48511839Y-38109800D01*
X44665535Y-38109800D01*
X44614700Y-38104793D01*
X44563864Y-38109800D01*
X44563862Y-38109800D01*
X44411805Y-38124776D01*
X44327444Y-38150367D01*
X47836111Y-34641700D01*
X54670498Y-34641700D01*
X49427398Y-39884801D01*
G37*
%TD.AperFunction*%
%TD*%
M02*
