%TF.GenerationSoftware,KiCad,Pcbnew,(5.1.8)-1*%
%TF.CreationDate,2021-04-17T11:25:56+02:00*%
%TF.ProjectId,CYC10 Board,43594331-3020-4426-9f61-72642e6b6963,rev?*%
%TF.SameCoordinates,Original*%
%TF.FileFunction,Paste,Bot*%
%TF.FilePolarity,Positive*%
%FSLAX46Y46*%
G04 Gerber Fmt 4.6, Leading zero omitted, Abs format (unit mm)*
G04 Created by KiCad (PCBNEW (5.1.8)-1) date 2021-04-17 11:25:56*
%MOMM*%
%LPD*%
G01*
G04 APERTURE LIST*
G04 APERTURE END LIST*
%TO.C,R23*%
G36*
G01*
X66497601Y-112368000D02*
X65597599Y-112368000D01*
G75*
G02*
X65347600Y-112118001I0J249999D01*
G01*
X65347600Y-111592999D01*
G75*
G02*
X65597599Y-111343000I249999J0D01*
G01*
X66497601Y-111343000D01*
G75*
G02*
X66747600Y-111592999I0J-249999D01*
G01*
X66747600Y-112118001D01*
G75*
G02*
X66497601Y-112368000I-249999J0D01*
G01*
G37*
G36*
G01*
X66497601Y-114193000D02*
X65597599Y-114193000D01*
G75*
G02*
X65347600Y-113943001I0J249999D01*
G01*
X65347600Y-113417999D01*
G75*
G02*
X65597599Y-113168000I249999J0D01*
G01*
X66497601Y-113168000D01*
G75*
G02*
X66747600Y-113417999I0J-249999D01*
G01*
X66747600Y-113943001D01*
G75*
G02*
X66497601Y-114193000I-249999J0D01*
G01*
G37*
%TD*%
%TO.C,R20*%
G36*
G01*
X64419901Y-112373000D02*
X63519899Y-112373000D01*
G75*
G02*
X63269900Y-112123001I0J249999D01*
G01*
X63269900Y-111597999D01*
G75*
G02*
X63519899Y-111348000I249999J0D01*
G01*
X64419901Y-111348000D01*
G75*
G02*
X64669900Y-111597999I0J-249999D01*
G01*
X64669900Y-112123001D01*
G75*
G02*
X64419901Y-112373000I-249999J0D01*
G01*
G37*
G36*
G01*
X64419901Y-114198000D02*
X63519899Y-114198000D01*
G75*
G02*
X63269900Y-113948001I0J249999D01*
G01*
X63269900Y-113422999D01*
G75*
G02*
X63519899Y-113173000I249999J0D01*
G01*
X64419901Y-113173000D01*
G75*
G02*
X64669900Y-113422999I0J-249999D01*
G01*
X64669900Y-113948001D01*
G75*
G02*
X64419901Y-114198000I-249999J0D01*
G01*
G37*
%TD*%
%TO.C,R19*%
G36*
G01*
X62347301Y-112381000D02*
X61447299Y-112381000D01*
G75*
G02*
X61197300Y-112131001I0J249999D01*
G01*
X61197300Y-111605999D01*
G75*
G02*
X61447299Y-111356000I249999J0D01*
G01*
X62347301Y-111356000D01*
G75*
G02*
X62597300Y-111605999I0J-249999D01*
G01*
X62597300Y-112131001D01*
G75*
G02*
X62347301Y-112381000I-249999J0D01*
G01*
G37*
G36*
G01*
X62347301Y-114206000D02*
X61447299Y-114206000D01*
G75*
G02*
X61197300Y-113956001I0J249999D01*
G01*
X61197300Y-113430999D01*
G75*
G02*
X61447299Y-113181000I249999J0D01*
G01*
X62347301Y-113181000D01*
G75*
G02*
X62597300Y-113430999I0J-249999D01*
G01*
X62597300Y-113956001D01*
G75*
G02*
X62347301Y-114206000I-249999J0D01*
G01*
G37*
%TD*%
%TO.C,R8*%
G36*
G01*
X60302601Y-112381000D02*
X59402599Y-112381000D01*
G75*
G02*
X59152600Y-112131001I0J249999D01*
G01*
X59152600Y-111605999D01*
G75*
G02*
X59402599Y-111356000I249999J0D01*
G01*
X60302601Y-111356000D01*
G75*
G02*
X60552600Y-111605999I0J-249999D01*
G01*
X60552600Y-112131001D01*
G75*
G02*
X60302601Y-112381000I-249999J0D01*
G01*
G37*
G36*
G01*
X60302601Y-114206000D02*
X59402599Y-114206000D01*
G75*
G02*
X59152600Y-113956001I0J249999D01*
G01*
X59152600Y-113430999D01*
G75*
G02*
X59402599Y-113181000I249999J0D01*
G01*
X60302601Y-113181000D01*
G75*
G02*
X60552600Y-113430999I0J-249999D01*
G01*
X60552600Y-113956001D01*
G75*
G02*
X60302601Y-114206000I-249999J0D01*
G01*
G37*
%TD*%
%TO.C,R7*%
G36*
G01*
X58255301Y-112386000D02*
X57355299Y-112386000D01*
G75*
G02*
X57105300Y-112136001I0J249999D01*
G01*
X57105300Y-111610999D01*
G75*
G02*
X57355299Y-111361000I249999J0D01*
G01*
X58255301Y-111361000D01*
G75*
G02*
X58505300Y-111610999I0J-249999D01*
G01*
X58505300Y-112136001D01*
G75*
G02*
X58255301Y-112386000I-249999J0D01*
G01*
G37*
G36*
G01*
X58255301Y-114211000D02*
X57355299Y-114211000D01*
G75*
G02*
X57105300Y-113961001I0J249999D01*
G01*
X57105300Y-113435999D01*
G75*
G02*
X57355299Y-113186000I249999J0D01*
G01*
X58255301Y-113186000D01*
G75*
G02*
X58505300Y-113435999I0J-249999D01*
G01*
X58505300Y-113961001D01*
G75*
G02*
X58255301Y-114211000I-249999J0D01*
G01*
G37*
%TD*%
%TO.C,R6*%
G36*
G01*
X56210601Y-112386000D02*
X55310599Y-112386000D01*
G75*
G02*
X55060600Y-112136001I0J249999D01*
G01*
X55060600Y-111610999D01*
G75*
G02*
X55310599Y-111361000I249999J0D01*
G01*
X56210601Y-111361000D01*
G75*
G02*
X56460600Y-111610999I0J-249999D01*
G01*
X56460600Y-112136001D01*
G75*
G02*
X56210601Y-112386000I-249999J0D01*
G01*
G37*
G36*
G01*
X56210601Y-114211000D02*
X55310599Y-114211000D01*
G75*
G02*
X55060600Y-113961001I0J249999D01*
G01*
X55060600Y-113435999D01*
G75*
G02*
X55310599Y-113186000I249999J0D01*
G01*
X56210601Y-113186000D01*
G75*
G02*
X56460600Y-113435999I0J-249999D01*
G01*
X56460600Y-113961001D01*
G75*
G02*
X56210601Y-114211000I-249999J0D01*
G01*
G37*
%TD*%
M02*
