M48
; DRILL file {KiCad (5.1.8)-1} date 04/17/21 11:25:58
; FORMAT={-:-/ absolute / inch / decimal}
; #@! TF.CreationDate,2021-04-17T11:25:58+02:00
; #@! TF.GenerationSoftware,Kicad,Pcbnew,(5.1.8)-1
; #@! TF.FileFunction,NonPlated,1,2,NPTH
FMAT,2
INCH
T1C0.0354
T2C0.0394
T3C0.0433
T4C0.0472
T5C0.1260
%
G90
G05
T1
X1.2766Y-2.8342
X1.2766Y-3.0074
T2
X1.932Y-0.8875
X2.2462Y-0.8875
T3
X2.8556Y-1.0768
X3.0524Y-1.0768
T4
X1.1219Y-0.8424
X1.1219Y-0.9408
X1.3187Y-1.1377
X1.5156Y-0.8424
X1.5156Y-0.9408
X3.4257Y-0.845
X3.4257Y-0.9434
X3.6226Y-1.1403
X3.8194Y-0.845
X3.8194Y-0.9434
T5
X2.0968Y-1.8089
X4.6984Y-1.0687
X4.6984Y-3.5884
X1.2122Y-3.3996
T0
M30
