%TF.GenerationSoftware,KiCad,Pcbnew,(5.1.8)-1*%
%TF.CreationDate,2021-04-17T11:25:56+02:00*%
%TF.ProjectId,CYC10 Board,43594331-3020-4426-9f61-72642e6b6963,rev?*%
%TF.SameCoordinates,Original*%
%TF.FileFunction,Paste,Top*%
%TF.FilePolarity,Positive*%
%FSLAX46Y46*%
G04 Gerber Fmt 4.6, Leading zero omitted, Abs format (unit mm)*
G04 Created by KiCad (PCBNEW (5.1.8)-1) date 2021-04-17 11:25:56*
%MOMM*%
%LPD*%
G01*
G04 APERTURE LIST*
%ADD10R,0.800000X0.900000*%
%ADD11R,1.700000X1.300000*%
%ADD12R,0.300000X2.600000*%
%ADD13R,0.700000X1.600000*%
%ADD14R,1.200000X1.400000*%
%ADD15R,1.600000X1.400000*%
%ADD16R,1.200000X2.200000*%
%ADD17R,2.000000X1.500000*%
%ADD18R,2.000000X3.800000*%
%ADD19R,2.500000X0.500000*%
%ADD20R,2.500000X2.000000*%
G04 APERTURE END LIST*
%TO.C,R31*%
G36*
G01*
X96313000Y-34342899D02*
X96313000Y-35242901D01*
G75*
G02*
X96063001Y-35492900I-249999J0D01*
G01*
X95537999Y-35492900D01*
G75*
G02*
X95288000Y-35242901I0J249999D01*
G01*
X95288000Y-34342899D01*
G75*
G02*
X95537999Y-34092900I249999J0D01*
G01*
X96063001Y-34092900D01*
G75*
G02*
X96313000Y-34342899I0J-249999D01*
G01*
G37*
G36*
G01*
X98138000Y-34342899D02*
X98138000Y-35242901D01*
G75*
G02*
X97888001Y-35492900I-249999J0D01*
G01*
X97362999Y-35492900D01*
G75*
G02*
X97113000Y-35242901I0J249999D01*
G01*
X97113000Y-34342899D01*
G75*
G02*
X97362999Y-34092900I249999J0D01*
G01*
X97888001Y-34092900D01*
G75*
G02*
X98138000Y-34342899I0J-249999D01*
G01*
G37*
%TD*%
%TO.C,R30*%
G36*
G01*
X98062201Y-37491700D02*
X97162199Y-37491700D01*
G75*
G02*
X96912200Y-37241701I0J249999D01*
G01*
X96912200Y-36716699D01*
G75*
G02*
X97162199Y-36466700I249999J0D01*
G01*
X98062201Y-36466700D01*
G75*
G02*
X98312200Y-36716699I0J-249999D01*
G01*
X98312200Y-37241701D01*
G75*
G02*
X98062201Y-37491700I-249999J0D01*
G01*
G37*
G36*
G01*
X98062201Y-39316700D02*
X97162199Y-39316700D01*
G75*
G02*
X96912200Y-39066701I0J249999D01*
G01*
X96912200Y-38541699D01*
G75*
G02*
X97162199Y-38291700I249999J0D01*
G01*
X98062201Y-38291700D01*
G75*
G02*
X98312200Y-38541699I0J-249999D01*
G01*
X98312200Y-39066701D01*
G75*
G02*
X98062201Y-39316700I-249999J0D01*
G01*
G37*
%TD*%
%TO.C,R29*%
G36*
G01*
X90614099Y-41832500D02*
X91514101Y-41832500D01*
G75*
G02*
X91764100Y-42082499I0J-249999D01*
G01*
X91764100Y-42607501D01*
G75*
G02*
X91514101Y-42857500I-249999J0D01*
G01*
X90614099Y-42857500D01*
G75*
G02*
X90364100Y-42607501I0J249999D01*
G01*
X90364100Y-42082499D01*
G75*
G02*
X90614099Y-41832500I249999J0D01*
G01*
G37*
G36*
G01*
X90614099Y-40007500D02*
X91514101Y-40007500D01*
G75*
G02*
X91764100Y-40257499I0J-249999D01*
G01*
X91764100Y-40782501D01*
G75*
G02*
X91514101Y-41032500I-249999J0D01*
G01*
X90614099Y-41032500D01*
G75*
G02*
X90364100Y-40782501I0J249999D01*
G01*
X90364100Y-40257499D01*
G75*
G02*
X90614099Y-40007500I249999J0D01*
G01*
G37*
%TD*%
%TO.C,R28*%
G36*
G01*
X91574199Y-34258200D02*
X92474201Y-34258200D01*
G75*
G02*
X92724200Y-34508199I0J-249999D01*
G01*
X92724200Y-35033201D01*
G75*
G02*
X92474201Y-35283200I-249999J0D01*
G01*
X91574199Y-35283200D01*
G75*
G02*
X91324200Y-35033201I0J249999D01*
G01*
X91324200Y-34508199D01*
G75*
G02*
X91574199Y-34258200I249999J0D01*
G01*
G37*
G36*
G01*
X91574199Y-32433200D02*
X92474201Y-32433200D01*
G75*
G02*
X92724200Y-32683199I0J-249999D01*
G01*
X92724200Y-33208201D01*
G75*
G02*
X92474201Y-33458200I-249999J0D01*
G01*
X91574199Y-33458200D01*
G75*
G02*
X91324200Y-33208201I0J249999D01*
G01*
X91324200Y-32683199D01*
G75*
G02*
X91574199Y-32433200I249999J0D01*
G01*
G37*
%TD*%
D10*
%TO.C,Q1*%
X92024200Y-36653000D03*
X92974200Y-38653000D03*
X91074200Y-38653000D03*
%TD*%
D11*
%TO.C,D5*%
X95377000Y-38717300D03*
X95377000Y-42217300D03*
%TD*%
%TO.C,C3*%
G36*
G01*
X98112600Y-40957100D02*
X97162600Y-40957100D01*
G75*
G02*
X96912600Y-40707100I0J250000D01*
G01*
X96912600Y-40207100D01*
G75*
G02*
X97162600Y-39957100I250000J0D01*
G01*
X98112600Y-39957100D01*
G75*
G02*
X98362600Y-40207100I0J-250000D01*
G01*
X98362600Y-40707100D01*
G75*
G02*
X98112600Y-40957100I-250000J0D01*
G01*
G37*
G36*
G01*
X98112600Y-42857100D02*
X97162600Y-42857100D01*
G75*
G02*
X96912600Y-42607100I0J250000D01*
G01*
X96912600Y-42107100D01*
G75*
G02*
X97162600Y-41857100I250000J0D01*
G01*
X98112600Y-41857100D01*
G75*
G02*
X98362600Y-42107100I0J-250000D01*
G01*
X98362600Y-42607100D01*
G75*
G02*
X98112600Y-42857100I-250000J0D01*
G01*
G37*
%TD*%
%TO.C,C2*%
G36*
G01*
X92605800Y-41887600D02*
X93555800Y-41887600D01*
G75*
G02*
X93805800Y-42137600I0J-250000D01*
G01*
X93805800Y-42637600D01*
G75*
G02*
X93555800Y-42887600I-250000J0D01*
G01*
X92605800Y-42887600D01*
G75*
G02*
X92355800Y-42637600I0J250000D01*
G01*
X92355800Y-42137600D01*
G75*
G02*
X92605800Y-41887600I250000J0D01*
G01*
G37*
G36*
G01*
X92605800Y-39987600D02*
X93555800Y-39987600D01*
G75*
G02*
X93805800Y-40237600I0J-250000D01*
G01*
X93805800Y-40737600D01*
G75*
G02*
X93555800Y-40987600I-250000J0D01*
G01*
X92605800Y-40987600D01*
G75*
G02*
X92355800Y-40737600I0J250000D01*
G01*
X92355800Y-40237600D01*
G75*
G02*
X92605800Y-39987600I250000J0D01*
G01*
G37*
%TD*%
%TO.C,C1*%
G36*
G01*
X54932600Y-36573000D02*
X53982600Y-36573000D01*
G75*
G02*
X53732600Y-36323000I0J250000D01*
G01*
X53732600Y-35823000D01*
G75*
G02*
X53982600Y-35573000I250000J0D01*
G01*
X54932600Y-35573000D01*
G75*
G02*
X55182600Y-35823000I0J-250000D01*
G01*
X55182600Y-36323000D01*
G75*
G02*
X54932600Y-36573000I-250000J0D01*
G01*
G37*
G36*
G01*
X54932600Y-38473000D02*
X53982600Y-38473000D01*
G75*
G02*
X53732600Y-38223000I0J250000D01*
G01*
X53732600Y-37723000D01*
G75*
G02*
X53982600Y-37473000I250000J0D01*
G01*
X54932600Y-37473000D01*
G75*
G02*
X55182600Y-37723000I0J-250000D01*
G01*
X55182600Y-38223000D01*
G75*
G02*
X54932600Y-38473000I-250000J0D01*
G01*
G37*
%TD*%
%TO.C,R27*%
G36*
G01*
X50869001Y-36651000D02*
X49968999Y-36651000D01*
G75*
G02*
X49719000Y-36401001I0J249999D01*
G01*
X49719000Y-35875999D01*
G75*
G02*
X49968999Y-35626000I249999J0D01*
G01*
X50869001Y-35626000D01*
G75*
G02*
X51119000Y-35875999I0J-249999D01*
G01*
X51119000Y-36401001D01*
G75*
G02*
X50869001Y-36651000I-249999J0D01*
G01*
G37*
G36*
G01*
X50869001Y-38476000D02*
X49968999Y-38476000D01*
G75*
G02*
X49719000Y-38226001I0J249999D01*
G01*
X49719000Y-37700999D01*
G75*
G02*
X49968999Y-37451000I249999J0D01*
G01*
X50869001Y-37451000D01*
G75*
G02*
X51119000Y-37700999I0J-249999D01*
G01*
X51119000Y-38226001D01*
G75*
G02*
X50869001Y-38476000I-249999J0D01*
G01*
G37*
%TD*%
%TO.C,R26*%
G36*
G01*
X52875601Y-36645900D02*
X51975599Y-36645900D01*
G75*
G02*
X51725600Y-36395901I0J249999D01*
G01*
X51725600Y-35870899D01*
G75*
G02*
X51975599Y-35620900I249999J0D01*
G01*
X52875601Y-35620900D01*
G75*
G02*
X53125600Y-35870899I0J-249999D01*
G01*
X53125600Y-36395901D01*
G75*
G02*
X52875601Y-36645900I-249999J0D01*
G01*
G37*
G36*
G01*
X52875601Y-38470900D02*
X51975599Y-38470900D01*
G75*
G02*
X51725600Y-38220901I0J249999D01*
G01*
X51725600Y-37695899D01*
G75*
G02*
X51975599Y-37445900I249999J0D01*
G01*
X52875601Y-37445900D01*
G75*
G02*
X53125600Y-37695899I0J-249999D01*
G01*
X53125600Y-38220901D01*
G75*
G02*
X52875601Y-38470900I-249999J0D01*
G01*
G37*
%TD*%
%TO.C,R25*%
G36*
G01*
X56965001Y-36666200D02*
X56064999Y-36666200D01*
G75*
G02*
X55815000Y-36416201I0J249999D01*
G01*
X55815000Y-35891199D01*
G75*
G02*
X56064999Y-35641200I249999J0D01*
G01*
X56965001Y-35641200D01*
G75*
G02*
X57215000Y-35891199I0J-249999D01*
G01*
X57215000Y-36416201D01*
G75*
G02*
X56965001Y-36666200I-249999J0D01*
G01*
G37*
G36*
G01*
X56965001Y-38491200D02*
X56064999Y-38491200D01*
G75*
G02*
X55815000Y-38241201I0J249999D01*
G01*
X55815000Y-37716199D01*
G75*
G02*
X56064999Y-37466200I249999J0D01*
G01*
X56965001Y-37466200D01*
G75*
G02*
X57215000Y-37716199I0J-249999D01*
G01*
X57215000Y-38241201D01*
G75*
G02*
X56965001Y-38491200I-249999J0D01*
G01*
G37*
%TD*%
%TO.C,R24*%
G36*
G01*
X59009701Y-36676400D02*
X58109699Y-36676400D01*
G75*
G02*
X57859700Y-36426401I0J249999D01*
G01*
X57859700Y-35901399D01*
G75*
G02*
X58109699Y-35651400I249999J0D01*
G01*
X59009701Y-35651400D01*
G75*
G02*
X59259700Y-35901399I0J-249999D01*
G01*
X59259700Y-36426401D01*
G75*
G02*
X59009701Y-36676400I-249999J0D01*
G01*
G37*
G36*
G01*
X59009701Y-38501400D02*
X58109699Y-38501400D01*
G75*
G02*
X57859700Y-38251401I0J249999D01*
G01*
X57859700Y-37726399D01*
G75*
G02*
X58109699Y-37476400I249999J0D01*
G01*
X59009701Y-37476400D01*
G75*
G02*
X59259700Y-37726399I0J-249999D01*
G01*
X59259700Y-38251401D01*
G75*
G02*
X59009701Y-38501400I-249999J0D01*
G01*
G37*
%TD*%
%TO.C,R5*%
G36*
G01*
X39156199Y-91047500D02*
X40056201Y-91047500D01*
G75*
G02*
X40306200Y-91297499I0J-249999D01*
G01*
X40306200Y-91822501D01*
G75*
G02*
X40056201Y-92072500I-249999J0D01*
G01*
X39156199Y-92072500D01*
G75*
G02*
X38906200Y-91822501I0J249999D01*
G01*
X38906200Y-91297499D01*
G75*
G02*
X39156199Y-91047500I249999J0D01*
G01*
G37*
G36*
G01*
X39156199Y-89222500D02*
X40056201Y-89222500D01*
G75*
G02*
X40306200Y-89472499I0J-249999D01*
G01*
X40306200Y-89997501D01*
G75*
G02*
X40056201Y-90247500I-249999J0D01*
G01*
X39156199Y-90247500D01*
G75*
G02*
X38906200Y-89997501I0J249999D01*
G01*
X38906200Y-89472499D01*
G75*
G02*
X39156199Y-89222500I249999J0D01*
G01*
G37*
%TD*%
%TO.C,R4*%
G36*
G01*
X41406699Y-91055100D02*
X42306701Y-91055100D01*
G75*
G02*
X42556700Y-91305099I0J-249999D01*
G01*
X42556700Y-91830101D01*
G75*
G02*
X42306701Y-92080100I-249999J0D01*
G01*
X41406699Y-92080100D01*
G75*
G02*
X41156700Y-91830101I0J249999D01*
G01*
X41156700Y-91305099D01*
G75*
G02*
X41406699Y-91055100I249999J0D01*
G01*
G37*
G36*
G01*
X41406699Y-89230100D02*
X42306701Y-89230100D01*
G75*
G02*
X42556700Y-89480099I0J-249999D01*
G01*
X42556700Y-90005101D01*
G75*
G02*
X42306701Y-90255100I-249999J0D01*
G01*
X41406699Y-90255100D01*
G75*
G02*
X41156700Y-90005101I0J249999D01*
G01*
X41156700Y-89480099D01*
G75*
G02*
X41406699Y-89230100I249999J0D01*
G01*
G37*
%TD*%
%TO.C,R3*%
G36*
G01*
X34660399Y-91042400D02*
X35560401Y-91042400D01*
G75*
G02*
X35810400Y-91292399I0J-249999D01*
G01*
X35810400Y-91817401D01*
G75*
G02*
X35560401Y-92067400I-249999J0D01*
G01*
X34660399Y-92067400D01*
G75*
G02*
X34410400Y-91817401I0J249999D01*
G01*
X34410400Y-91292399D01*
G75*
G02*
X34660399Y-91042400I249999J0D01*
G01*
G37*
G36*
G01*
X34660399Y-89217400D02*
X35560401Y-89217400D01*
G75*
G02*
X35810400Y-89467399I0J-249999D01*
G01*
X35810400Y-89992401D01*
G75*
G02*
X35560401Y-90242400I-249999J0D01*
G01*
X34660399Y-90242400D01*
G75*
G02*
X34410400Y-89992401I0J249999D01*
G01*
X34410400Y-89467399D01*
G75*
G02*
X34660399Y-89217400I249999J0D01*
G01*
G37*
%TD*%
%TO.C,R2*%
G36*
G01*
X36903199Y-91052600D02*
X37803201Y-91052600D01*
G75*
G02*
X38053200Y-91302599I0J-249999D01*
G01*
X38053200Y-91827601D01*
G75*
G02*
X37803201Y-92077600I-249999J0D01*
G01*
X36903199Y-92077600D01*
G75*
G02*
X36653200Y-91827601I0J249999D01*
G01*
X36653200Y-91302599D01*
G75*
G02*
X36903199Y-91052600I249999J0D01*
G01*
G37*
G36*
G01*
X36903199Y-89227600D02*
X37803201Y-89227600D01*
G75*
G02*
X38053200Y-89477599I0J-249999D01*
G01*
X38053200Y-90002601D01*
G75*
G02*
X37803201Y-90252600I-249999J0D01*
G01*
X36903199Y-90252600D01*
G75*
G02*
X36653200Y-90002601I0J249999D01*
G01*
X36653200Y-89477599D01*
G75*
G02*
X36903199Y-89227600I249999J0D01*
G01*
G37*
%TD*%
%TO.C,R18*%
G36*
G01*
X80898599Y-36112400D02*
X81798601Y-36112400D01*
G75*
G02*
X82048600Y-36362399I0J-249999D01*
G01*
X82048600Y-36887401D01*
G75*
G02*
X81798601Y-37137400I-249999J0D01*
G01*
X80898599Y-37137400D01*
G75*
G02*
X80648600Y-36887401I0J249999D01*
G01*
X80648600Y-36362399D01*
G75*
G02*
X80898599Y-36112400I249999J0D01*
G01*
G37*
G36*
G01*
X80898599Y-34287400D02*
X81798601Y-34287400D01*
G75*
G02*
X82048600Y-34537399I0J-249999D01*
G01*
X82048600Y-35062401D01*
G75*
G02*
X81798601Y-35312400I-249999J0D01*
G01*
X80898599Y-35312400D01*
G75*
G02*
X80648600Y-35062401I0J249999D01*
G01*
X80648600Y-34537399D01*
G75*
G02*
X80898599Y-34287400I249999J0D01*
G01*
G37*
%TD*%
%TO.C,R22*%
G36*
G01*
X37908200Y-35814401D02*
X37908200Y-34914399D01*
G75*
G02*
X38158199Y-34664400I249999J0D01*
G01*
X38683201Y-34664400D01*
G75*
G02*
X38933200Y-34914399I0J-249999D01*
G01*
X38933200Y-35814401D01*
G75*
G02*
X38683201Y-36064400I-249999J0D01*
G01*
X38158199Y-36064400D01*
G75*
G02*
X37908200Y-35814401I0J249999D01*
G01*
G37*
G36*
G01*
X36083200Y-35814401D02*
X36083200Y-34914399D01*
G75*
G02*
X36333199Y-34664400I249999J0D01*
G01*
X36858201Y-34664400D01*
G75*
G02*
X37108200Y-34914399I0J-249999D01*
G01*
X37108200Y-35814401D01*
G75*
G02*
X36858201Y-36064400I-249999J0D01*
G01*
X36333199Y-36064400D01*
G75*
G02*
X36083200Y-35814401I0J249999D01*
G01*
G37*
%TD*%
%TO.C,R21*%
G36*
G01*
X29048800Y-34909299D02*
X29048800Y-35809301D01*
G75*
G02*
X28798801Y-36059300I-249999J0D01*
G01*
X28273799Y-36059300D01*
G75*
G02*
X28023800Y-35809301I0J249999D01*
G01*
X28023800Y-34909299D01*
G75*
G02*
X28273799Y-34659300I249999J0D01*
G01*
X28798801Y-34659300D01*
G75*
G02*
X29048800Y-34909299I0J-249999D01*
G01*
G37*
G36*
G01*
X30873800Y-34909299D02*
X30873800Y-35809301D01*
G75*
G02*
X30623801Y-36059300I-249999J0D01*
G01*
X30098799Y-36059300D01*
G75*
G02*
X29848800Y-35809301I0J249999D01*
G01*
X29848800Y-34909299D01*
G75*
G02*
X30098799Y-34659300I249999J0D01*
G01*
X30623801Y-34659300D01*
G75*
G02*
X30873800Y-34909299I0J-249999D01*
G01*
G37*
%TD*%
%TO.C,R17*%
G36*
G01*
X83840701Y-35307300D02*
X82940699Y-35307300D01*
G75*
G02*
X82690700Y-35057301I0J249999D01*
G01*
X82690700Y-34532299D01*
G75*
G02*
X82940699Y-34282300I249999J0D01*
G01*
X83840701Y-34282300D01*
G75*
G02*
X84090700Y-34532299I0J-249999D01*
G01*
X84090700Y-35057301D01*
G75*
G02*
X83840701Y-35307300I-249999J0D01*
G01*
G37*
G36*
G01*
X83840701Y-37132300D02*
X82940699Y-37132300D01*
G75*
G02*
X82690700Y-36882301I0J249999D01*
G01*
X82690700Y-36357299D01*
G75*
G02*
X82940699Y-36107300I249999J0D01*
G01*
X83840701Y-36107300D01*
G75*
G02*
X84090700Y-36357299I0J-249999D01*
G01*
X84090700Y-36882301D01*
G75*
G02*
X83840701Y-37132300I-249999J0D01*
G01*
G37*
%TD*%
%TO.C,R16*%
G36*
G01*
X78866599Y-36120000D02*
X79766601Y-36120000D01*
G75*
G02*
X80016600Y-36369999I0J-249999D01*
G01*
X80016600Y-36895001D01*
G75*
G02*
X79766601Y-37145000I-249999J0D01*
G01*
X78866599Y-37145000D01*
G75*
G02*
X78616600Y-36895001I0J249999D01*
G01*
X78616600Y-36369999D01*
G75*
G02*
X78866599Y-36120000I249999J0D01*
G01*
G37*
G36*
G01*
X78866599Y-34295000D02*
X79766601Y-34295000D01*
G75*
G02*
X80016600Y-34544999I0J-249999D01*
G01*
X80016600Y-35070001D01*
G75*
G02*
X79766601Y-35320000I-249999J0D01*
G01*
X78866599Y-35320000D01*
G75*
G02*
X78616600Y-35070001I0J249999D01*
G01*
X78616600Y-34544999D01*
G75*
G02*
X78866599Y-34295000I249999J0D01*
G01*
G37*
%TD*%
%TO.C,R15*%
G36*
G01*
X76847299Y-36120000D02*
X77747301Y-36120000D01*
G75*
G02*
X77997300Y-36369999I0J-249999D01*
G01*
X77997300Y-36895001D01*
G75*
G02*
X77747301Y-37145000I-249999J0D01*
G01*
X76847299Y-37145000D01*
G75*
G02*
X76597300Y-36895001I0J249999D01*
G01*
X76597300Y-36369999D01*
G75*
G02*
X76847299Y-36120000I249999J0D01*
G01*
G37*
G36*
G01*
X76847299Y-34295000D02*
X77747301Y-34295000D01*
G75*
G02*
X77997300Y-34544999I0J-249999D01*
G01*
X77997300Y-35070001D01*
G75*
G02*
X77747301Y-35320000I-249999J0D01*
G01*
X76847299Y-35320000D01*
G75*
G02*
X76597300Y-35070001I0J249999D01*
G01*
X76597300Y-34544999D01*
G75*
G02*
X76847299Y-34295000I249999J0D01*
G01*
G37*
%TD*%
%TO.C,R14*%
G36*
G01*
X72836599Y-36122600D02*
X73736601Y-36122600D01*
G75*
G02*
X73986600Y-36372599I0J-249999D01*
G01*
X73986600Y-36897601D01*
G75*
G02*
X73736601Y-37147600I-249999J0D01*
G01*
X72836599Y-37147600D01*
G75*
G02*
X72586600Y-36897601I0J249999D01*
G01*
X72586600Y-36372599D01*
G75*
G02*
X72836599Y-36122600I249999J0D01*
G01*
G37*
G36*
G01*
X72836599Y-34297600D02*
X73736601Y-34297600D01*
G75*
G02*
X73986600Y-34547599I0J-249999D01*
G01*
X73986600Y-35072601D01*
G75*
G02*
X73736601Y-35322600I-249999J0D01*
G01*
X72836599Y-35322600D01*
G75*
G02*
X72586600Y-35072601I0J249999D01*
G01*
X72586600Y-34547599D01*
G75*
G02*
X72836599Y-34297600I249999J0D01*
G01*
G37*
%TD*%
%TO.C,R13*%
G36*
G01*
X74843199Y-36117500D02*
X75743201Y-36117500D01*
G75*
G02*
X75993200Y-36367499I0J-249999D01*
G01*
X75993200Y-36892501D01*
G75*
G02*
X75743201Y-37142500I-249999J0D01*
G01*
X74843199Y-37142500D01*
G75*
G02*
X74593200Y-36892501I0J249999D01*
G01*
X74593200Y-36367499D01*
G75*
G02*
X74843199Y-36117500I249999J0D01*
G01*
G37*
G36*
G01*
X74843199Y-34292500D02*
X75743201Y-34292500D01*
G75*
G02*
X75993200Y-34542499I0J-249999D01*
G01*
X75993200Y-35067501D01*
G75*
G02*
X75743201Y-35317500I-249999J0D01*
G01*
X74843199Y-35317500D01*
G75*
G02*
X74593200Y-35067501I0J249999D01*
G01*
X74593200Y-34542499D01*
G75*
G02*
X74843199Y-34292500I249999J0D01*
G01*
G37*
%TD*%
%TO.C,R12*%
G36*
G01*
X70832599Y-36122600D02*
X71732601Y-36122600D01*
G75*
G02*
X71982600Y-36372599I0J-249999D01*
G01*
X71982600Y-36897601D01*
G75*
G02*
X71732601Y-37147600I-249999J0D01*
G01*
X70832599Y-37147600D01*
G75*
G02*
X70582600Y-36897601I0J249999D01*
G01*
X70582600Y-36372599D01*
G75*
G02*
X70832599Y-36122600I249999J0D01*
G01*
G37*
G36*
G01*
X70832599Y-34297600D02*
X71732601Y-34297600D01*
G75*
G02*
X71982600Y-34547599I0J-249999D01*
G01*
X71982600Y-35072601D01*
G75*
G02*
X71732601Y-35322600I-249999J0D01*
G01*
X70832599Y-35322600D01*
G75*
G02*
X70582600Y-35072601I0J249999D01*
G01*
X70582600Y-34547599D01*
G75*
G02*
X70832599Y-34297600I249999J0D01*
G01*
G37*
%TD*%
%TO.C,R11*%
G36*
G01*
X68838699Y-36125100D02*
X69738701Y-36125100D01*
G75*
G02*
X69988700Y-36375099I0J-249999D01*
G01*
X69988700Y-36900101D01*
G75*
G02*
X69738701Y-37150100I-249999J0D01*
G01*
X68838699Y-37150100D01*
G75*
G02*
X68588700Y-36900101I0J249999D01*
G01*
X68588700Y-36375099D01*
G75*
G02*
X68838699Y-36125100I249999J0D01*
G01*
G37*
G36*
G01*
X68838699Y-34300100D02*
X69738701Y-34300100D01*
G75*
G02*
X69988700Y-34550099I0J-249999D01*
G01*
X69988700Y-35075101D01*
G75*
G02*
X69738701Y-35325100I-249999J0D01*
G01*
X68838699Y-35325100D01*
G75*
G02*
X68588700Y-35075101I0J249999D01*
G01*
X68588700Y-34550099D01*
G75*
G02*
X68838699Y-34300100I249999J0D01*
G01*
G37*
%TD*%
%TO.C,R10*%
G36*
G01*
X64843199Y-36132700D02*
X65743201Y-36132700D01*
G75*
G02*
X65993200Y-36382699I0J-249999D01*
G01*
X65993200Y-36907701D01*
G75*
G02*
X65743201Y-37157700I-249999J0D01*
G01*
X64843199Y-37157700D01*
G75*
G02*
X64593200Y-36907701I0J249999D01*
G01*
X64593200Y-36382699D01*
G75*
G02*
X64843199Y-36132700I249999J0D01*
G01*
G37*
G36*
G01*
X64843199Y-34307700D02*
X65743201Y-34307700D01*
G75*
G02*
X65993200Y-34557699I0J-249999D01*
G01*
X65993200Y-35082701D01*
G75*
G02*
X65743201Y-35332700I-249999J0D01*
G01*
X64843199Y-35332700D01*
G75*
G02*
X64593200Y-35082701I0J249999D01*
G01*
X64593200Y-34557699D01*
G75*
G02*
X64843199Y-34307700I249999J0D01*
G01*
G37*
%TD*%
%TO.C,R9*%
G36*
G01*
X66842199Y-36130200D02*
X67742201Y-36130200D01*
G75*
G02*
X67992200Y-36380199I0J-249999D01*
G01*
X67992200Y-36905201D01*
G75*
G02*
X67742201Y-37155200I-249999J0D01*
G01*
X66842199Y-37155200D01*
G75*
G02*
X66592200Y-36905201I0J249999D01*
G01*
X66592200Y-36380199D01*
G75*
G02*
X66842199Y-36130200I249999J0D01*
G01*
G37*
G36*
G01*
X66842199Y-34305200D02*
X67742201Y-34305200D01*
G75*
G02*
X67992200Y-34555199I0J-249999D01*
G01*
X67992200Y-35080201D01*
G75*
G02*
X67742201Y-35330200I-249999J0D01*
G01*
X66842199Y-35330200D01*
G75*
G02*
X66592200Y-35080201I0J249999D01*
G01*
X66592200Y-34555199D01*
G75*
G02*
X66842199Y-34305200I249999J0D01*
G01*
G37*
%TD*%
%TO.C,C19*%
G36*
G01*
X37988700Y-33738800D02*
X37988700Y-32788800D01*
G75*
G02*
X38238700Y-32538800I250000J0D01*
G01*
X38738700Y-32538800D01*
G75*
G02*
X38988700Y-32788800I0J-250000D01*
G01*
X38988700Y-33738800D01*
G75*
G02*
X38738700Y-33988800I-250000J0D01*
G01*
X38238700Y-33988800D01*
G75*
G02*
X37988700Y-33738800I0J250000D01*
G01*
G37*
G36*
G01*
X36088700Y-33738800D02*
X36088700Y-32788800D01*
G75*
G02*
X36338700Y-32538800I250000J0D01*
G01*
X36838700Y-32538800D01*
G75*
G02*
X37088700Y-32788800I0J-250000D01*
G01*
X37088700Y-33738800D01*
G75*
G02*
X36838700Y-33988800I-250000J0D01*
G01*
X36338700Y-33988800D01*
G75*
G02*
X36088700Y-33738800I0J250000D01*
G01*
G37*
%TD*%
%TO.C,C18*%
G36*
G01*
X28973400Y-32788800D02*
X28973400Y-33738800D01*
G75*
G02*
X28723400Y-33988800I-250000J0D01*
G01*
X28223400Y-33988800D01*
G75*
G02*
X27973400Y-33738800I0J250000D01*
G01*
X27973400Y-32788800D01*
G75*
G02*
X28223400Y-32538800I250000J0D01*
G01*
X28723400Y-32538800D01*
G75*
G02*
X28973400Y-32788800I0J-250000D01*
G01*
G37*
G36*
G01*
X30873400Y-32788800D02*
X30873400Y-33738800D01*
G75*
G02*
X30623400Y-33988800I-250000J0D01*
G01*
X30123400Y-33988800D01*
G75*
G02*
X29873400Y-33738800I0J250000D01*
G01*
X29873400Y-32788800D01*
G75*
G02*
X30123400Y-32538800I250000J0D01*
G01*
X30623400Y-32538800D01*
G75*
G02*
X30873400Y-32788800I0J-250000D01*
G01*
G37*
%TD*%
%TO.C,C17*%
G36*
G01*
X37083600Y-36982400D02*
X37083600Y-37932400D01*
G75*
G02*
X36833600Y-38182400I-250000J0D01*
G01*
X36333600Y-38182400D01*
G75*
G02*
X36083600Y-37932400I0J250000D01*
G01*
X36083600Y-36982400D01*
G75*
G02*
X36333600Y-36732400I250000J0D01*
G01*
X36833600Y-36732400D01*
G75*
G02*
X37083600Y-36982400I0J-250000D01*
G01*
G37*
G36*
G01*
X38983600Y-36982400D02*
X38983600Y-37932400D01*
G75*
G02*
X38733600Y-38182400I-250000J0D01*
G01*
X38233600Y-38182400D01*
G75*
G02*
X37983600Y-37932400I0J250000D01*
G01*
X37983600Y-36982400D01*
G75*
G02*
X38233600Y-36732400I250000J0D01*
G01*
X38733600Y-36732400D01*
G75*
G02*
X38983600Y-36982400I0J-250000D01*
G01*
G37*
%TD*%
%TO.C,C16*%
G36*
G01*
X29914000Y-37960300D02*
X29914000Y-37010300D01*
G75*
G02*
X30164000Y-36760300I250000J0D01*
G01*
X30664000Y-36760300D01*
G75*
G02*
X30914000Y-37010300I0J-250000D01*
G01*
X30914000Y-37960300D01*
G75*
G02*
X30664000Y-38210300I-250000J0D01*
G01*
X30164000Y-38210300D01*
G75*
G02*
X29914000Y-37960300I0J250000D01*
G01*
G37*
G36*
G01*
X28014000Y-37960300D02*
X28014000Y-37010300D01*
G75*
G02*
X28264000Y-36760300I250000J0D01*
G01*
X28764000Y-36760300D01*
G75*
G02*
X29014000Y-37010300I0J-250000D01*
G01*
X29014000Y-37960300D01*
G75*
G02*
X28764000Y-38210300I-250000J0D01*
G01*
X28264000Y-38210300D01*
G75*
G02*
X28014000Y-37960300I0J250000D01*
G01*
G37*
%TD*%
%TO.C,C13*%
G36*
G01*
X31786000Y-65618400D02*
X31786000Y-64668400D01*
G75*
G02*
X32036000Y-64418400I250000J0D01*
G01*
X32536000Y-64418400D01*
G75*
G02*
X32786000Y-64668400I0J-250000D01*
G01*
X32786000Y-65618400D01*
G75*
G02*
X32536000Y-65868400I-250000J0D01*
G01*
X32036000Y-65868400D01*
G75*
G02*
X31786000Y-65618400I0J250000D01*
G01*
G37*
G36*
G01*
X29886000Y-65618400D02*
X29886000Y-64668400D01*
G75*
G02*
X30136000Y-64418400I250000J0D01*
G01*
X30636000Y-64418400D01*
G75*
G02*
X30886000Y-64668400I0J-250000D01*
G01*
X30886000Y-65618400D01*
G75*
G02*
X30636000Y-65868400I-250000J0D01*
G01*
X30136000Y-65868400D01*
G75*
G02*
X29886000Y-65618400I0J250000D01*
G01*
G37*
%TD*%
%TO.C,C12*%
G36*
G01*
X35827100Y-65618400D02*
X35827100Y-64668400D01*
G75*
G02*
X36077100Y-64418400I250000J0D01*
G01*
X36577100Y-64418400D01*
G75*
G02*
X36827100Y-64668400I0J-250000D01*
G01*
X36827100Y-65618400D01*
G75*
G02*
X36577100Y-65868400I-250000J0D01*
G01*
X36077100Y-65868400D01*
G75*
G02*
X35827100Y-65618400I0J250000D01*
G01*
G37*
G36*
G01*
X33927100Y-65618400D02*
X33927100Y-64668400D01*
G75*
G02*
X34177100Y-64418400I250000J0D01*
G01*
X34677100Y-64418400D01*
G75*
G02*
X34927100Y-64668400I0J-250000D01*
G01*
X34927100Y-65618400D01*
G75*
G02*
X34677100Y-65868400I-250000J0D01*
G01*
X34177100Y-65868400D01*
G75*
G02*
X33927100Y-65618400I0J250000D01*
G01*
G37*
%TD*%
%TO.C,C9*%
G36*
G01*
X34939800Y-54770000D02*
X34939800Y-55720000D01*
G75*
G02*
X34689800Y-55970000I-250000J0D01*
G01*
X34189800Y-55970000D01*
G75*
G02*
X33939800Y-55720000I0J250000D01*
G01*
X33939800Y-54770000D01*
G75*
G02*
X34189800Y-54520000I250000J0D01*
G01*
X34689800Y-54520000D01*
G75*
G02*
X34939800Y-54770000I0J-250000D01*
G01*
G37*
G36*
G01*
X36839800Y-54770000D02*
X36839800Y-55720000D01*
G75*
G02*
X36589800Y-55970000I-250000J0D01*
G01*
X36089800Y-55970000D01*
G75*
G02*
X35839800Y-55720000I0J250000D01*
G01*
X35839800Y-54770000D01*
G75*
G02*
X36089800Y-54520000I250000J0D01*
G01*
X36589800Y-54520000D01*
G75*
G02*
X36839800Y-54770000I0J-250000D01*
G01*
G37*
%TD*%
%TO.C,R1*%
G36*
G01*
X48859902Y-36653500D02*
X47959898Y-36653500D01*
G75*
G02*
X47709900Y-36403502I0J249998D01*
G01*
X47709900Y-35878498D01*
G75*
G02*
X47959898Y-35628500I249998J0D01*
G01*
X48859902Y-35628500D01*
G75*
G02*
X49109900Y-35878498I0J-249998D01*
G01*
X49109900Y-36403502D01*
G75*
G02*
X48859902Y-36653500I-249998J0D01*
G01*
G37*
G36*
G01*
X48859902Y-38478500D02*
X47959898Y-38478500D01*
G75*
G02*
X47709900Y-38228502I0J249998D01*
G01*
X47709900Y-37703498D01*
G75*
G02*
X47959898Y-37453500I249998J0D01*
G01*
X48859902Y-37453500D01*
G75*
G02*
X49109900Y-37703498I0J-249998D01*
G01*
X49109900Y-38228502D01*
G75*
G02*
X48859902Y-38478500I-249998J0D01*
G01*
G37*
%TD*%
D12*
%TO.C,J8*%
X70531600Y-29759900D03*
X71031600Y-29759900D03*
X71531600Y-29759900D03*
X72031600Y-29759900D03*
X72531600Y-29759900D03*
X73031600Y-29759900D03*
X73531600Y-29759900D03*
X74031600Y-29759900D03*
X74531600Y-29759900D03*
X75031600Y-29759900D03*
X75531600Y-29759900D03*
X76031600Y-29759900D03*
X76531600Y-29759900D03*
X77031600Y-29759900D03*
X77531600Y-29759900D03*
X78031600Y-29759900D03*
X78531600Y-29759900D03*
X79031600Y-29759900D03*
X79531600Y-29759900D03*
%TD*%
D13*
%TO.C,J7*%
X52123300Y-33042500D03*
X51023300Y-33042500D03*
X49923300Y-33042500D03*
X53223300Y-33042500D03*
X54323300Y-33042500D03*
X55423300Y-33042500D03*
X57623300Y-33042500D03*
X56523300Y-33042500D03*
X58723300Y-33042500D03*
D14*
X59873300Y-32542500D03*
D15*
X45273300Y-32542500D03*
D16*
X59873300Y-22942500D03*
X44373300Y-22942500D03*
%TD*%
D10*
%TO.C,D2*%
X42783700Y-97017500D03*
X41833700Y-95017500D03*
X43733700Y-95017500D03*
%TD*%
D17*
%TO.C,U2*%
X36172500Y-62480200D03*
X36172500Y-57880200D03*
X36172500Y-60180200D03*
D18*
X29872500Y-60180200D03*
%TD*%
D10*
%TO.C,D4*%
X38699400Y-97009500D03*
X37749400Y-95009500D03*
X39649400Y-95009500D03*
%TD*%
%TO.C,D3*%
X34465300Y-96981700D03*
X33515300Y-94981700D03*
X35415300Y-94981700D03*
%TD*%
%TO.C,D1*%
X30279300Y-96986700D03*
X29329300Y-94986700D03*
X31229300Y-94986700D03*
%TD*%
D19*
%TO.C,J9*%
X35025600Y-75788300D03*
X35025600Y-74988300D03*
X35025600Y-74188300D03*
X35025600Y-73388300D03*
X35025600Y-72588300D03*
D20*
X35025600Y-78588300D03*
X35025600Y-69788300D03*
X29525600Y-78588300D03*
X29525600Y-69788300D03*
%TD*%
M02*
