M48
; DRILL file {KiCad (5.1.8)-1} date 04/17/21 11:25:58
; FORMAT={-:-/ absolute / inch / decimal}
; #@! TF.CreationDate,2021-04-17T11:25:58+02:00
; #@! TF.GenerationSoftware,Kicad,Pcbnew,(5.1.8)-1
; #@! TF.FileFunction,Plated,1,2,PTH
FMAT,2
INCH
T1C0.0157
T2C0.0354
T3C0.0394
T4C0.0433
T5C0.0472
T6C0.0906
T7C0.1260
%
G90
G05
T1
X1.2768Y-2.3562
X1.4685Y-3.6869
X1.5052Y-3.1754
X1.5091Y-3.6658
X1.5653Y-3.4464
X1.5751Y-3.6488
X1.6082Y-3.4159
X1.7088Y-3.5484
X1.9059Y-1.5411
X2.1961Y-1.3625
X2.2662Y-1.3875
X2.351Y-2.9805
X2.519Y-3.9867
X2.6621Y-2.6359
X2.6621Y-2.6773
X2.6648Y-2.8745
X2.7062Y-2.8745
X2.8385Y-2.5207
X2.8522Y-1.2721
X2.8677Y-2.5499
X2.9136Y-1.324
X2.9356Y-1.0967
X3.1273Y-2.4052
X3.405Y-1.2941
T2
X1.3019Y-4.0002
X1.3019Y-4.0966
X1.3019Y-4.2777
X1.3019Y-4.3742
X1.3846Y-4.0966
X1.3846Y-4.3742
X1.487Y-4.0966
X1.487Y-4.3742
X1.5697Y-4.0002
X1.5697Y-4.0966
X1.5697Y-4.2777
X1.5697Y-4.3742
T3
X1.8446Y-3.1088
X1.8446Y-3.2088
X1.9446Y-3.1088
X1.9446Y-3.2088
X2.0446Y-3.1088
X2.0446Y-3.2088
X2.1446Y-3.1088
X2.1446Y-3.2088
X2.2446Y-3.1088
X2.2446Y-3.2088
X2.3446Y-3.1088
X2.3446Y-3.2088
X2.4996Y-1.7078
X2.4996Y-1.8078
X2.4996Y-1.9078
X2.4996Y-2.0078
X2.4996Y-2.1078
X2.4996Y-2.2078
X2.4996Y-2.3078
X2.4996Y-2.4078
X2.4996Y-2.5078
X2.4996Y-2.6078
X2.4996Y-2.7078
X2.4996Y-2.8078
X2.4996Y-2.9078
X2.4996Y-3.0078
X1.6929Y-1.7074
X1.6929Y-1.8074
X1.6929Y-1.9074
X1.6929Y-2.0074
X1.6929Y-2.1074
X1.6929Y-2.2074
X1.6929Y-2.3074
X1.6929Y-2.4074
X1.6929Y-2.5074
X1.6929Y-2.6074
X1.6929Y-2.7074
X1.6929Y-2.8074
X1.6929Y-2.9074
X1.6929Y-3.0074
X2.2185Y-4.1936
X2.273Y-4.3054
X2.3276Y-4.1936
X2.3821Y-4.3054
X2.4366Y-4.1936
X2.4911Y-4.3054
X2.5457Y-4.1936
X2.6002Y-4.3054
X2.6547Y-4.1936
X1.7929Y-1.7078
X1.7929Y-1.8078
X1.7929Y-1.9078
X3.3032Y-1.7153
X3.3032Y-1.8153
X3.3032Y-1.9153
X3.3032Y-2.0153
X3.3032Y-2.1153
X3.3032Y-2.2153
X3.3032Y-2.3153
X3.3032Y-2.4153
X3.3032Y-2.5153
X3.3032Y-2.6153
X3.3032Y-2.7153
X3.3032Y-2.8153
X3.3032Y-2.9153
X3.3032Y-3.0153
X3.3032Y-3.1153
X3.3032Y-3.2153
X3.3032Y-3.3153
X3.3032Y-3.4153
X3.3032Y-3.5153
X3.3032Y-3.6153
X3.4032Y-1.7153
X3.4032Y-1.8153
X3.4032Y-1.9153
X3.4032Y-2.0153
X3.4032Y-2.1153
X3.4032Y-2.2153
X3.4032Y-2.3153
X3.4032Y-2.4153
X3.4032Y-2.5153
X3.4032Y-2.6153
X3.4032Y-2.7153
X3.4032Y-2.8153
X3.4032Y-2.9153
X3.4032Y-3.0153
X3.4032Y-3.1153
X3.4032Y-3.2153
X3.4032Y-3.3153
X3.4032Y-3.4153
X3.4032Y-3.5153
X3.4032Y-3.6153
X2.3996Y-1.7078
X2.3996Y-1.8078
X2.3996Y-1.9078
X2.3996Y-2.0078
X2.3996Y-2.1078
X2.3996Y-2.2078
T5
X1.1219Y-1.1395
X1.2203Y-1.1395
X1.3187Y-0.9424
X1.4171Y-1.1395
X1.5156Y-1.1395
X3.4257Y-1.1421
X3.5242Y-1.1421
X3.6226Y-0.945
X3.721Y-1.1421
X3.8194Y-1.1421
T6
X1.1661Y-4.0966
X1.1661Y-4.4864
X1.4358Y-4.5179
X1.7055Y-4.0966
X1.7055Y-4.4864
T7
X1.9445Y-4.2495
X2.9287Y-4.2495
T3
G00X2.6686Y-0.8874
M15
G01X2.6686Y-0.9268
M16
G05
G00X3.2394Y-0.8874
M15
G01X3.2394Y-0.9268
M16
G05
T4
G00X1.4252Y-1.6286
M15
G01X1.4448Y-1.6286
M16
G05
G00X1.4252Y-1.8136
M15
G01X1.4448Y-1.8136
M16
G05
G00X1.4252Y-1.9986
M15
G01X1.4448Y-1.9986
M16
G05
T5
G00X2.6686Y-1.1063
M15
G01X2.6686Y-1.1772
M16
G05
G00X3.2394Y-1.1063
M15
G01X3.2394Y-1.1772
M16
G05
T0
M30
